<svg width="142" height="31" viewBox="0 0 142 31" fill="none" xmlns="http://www.w3.org/2000/svg">
<path d="M15.7154 1.18233C15.4099 1.04866 15.0624 1.04866 14.7569 1.18233L0.929688 7.23174L12.0245 12.0857L15.2362 13.4908L25.7106 8.90828L29.5426 7.23174L15.7154 1.18233Z" fill="#F8FEFF"/>
<path d="M0.929688 7.23174V20.1331L12.0245 12.0857L0.929688 7.23174Z" fill="#F8FEFF"/>
<path d="M25.7106 8.90828L15.2362 13.4908V14.8959V24.9871L25.7106 8.90828Z" fill="#F8FEFF"/>
<path d="M15.2362 24.9871V29.7133L18.4296 28.3733L29.5426 10.5529V7.23174L25.7106 8.90828L15.2362 24.9871Z" fill="#F8FEFF"/>
<path d="M15.2362 29.7133V24.9871V14.8959L2.20705 24.2458L15.2362 29.7133Z" fill="#F8FEFF"/>
<path d="M0.929688 20.1331V22.9148C0.929688 23.3964 1.21862 23.831 1.66269 24.0173L2.20705 24.2458L15.2362 14.8959V13.4908L12.0245 12.0857L0.929688 20.1331Z" fill="#F8FEFF"/>
<path d="M18.4296 28.3733L28.8096 24.0173C29.2537 23.831 29.5426 23.3964 29.5426 22.9148V10.5529L18.4296 28.3733Z" fill="#F8FEFF"/>
<path d="M0.929688 7.23174L14.7569 1.18233C15.0624 1.04866 15.4099 1.04866 15.7154 1.18233L29.5426 7.23174M0.929688 7.23174V20.1331M0.929688 7.23174L12.0245 12.0857M29.5426 7.23174L25.7105 8.90828M29.5426 7.23174V10.5529M15.2362 29.7133V24.9871M15.2362 29.7133L18.4296 28.3733M15.2362 29.7133L2.20705 24.2458M15.2362 13.4908L25.7105 8.90828M15.2362 13.4908L12.0245 12.0857M15.2362 13.4908V14.8959M15.2362 24.9871L25.7105 8.90828M15.2362 24.9871V14.8959M18.4296 28.3733L28.8096 24.0173C29.2537 23.831 29.5426 23.3964 29.5426 22.9148V10.5529M18.4296 28.3733L29.5426 10.5529M0.929688 20.1331V22.9148C0.929688 23.3964 1.21862 23.831 1.66269 24.0173L2.20705 24.2458M0.929688 20.1331L12.0245 12.0857M2.20705 24.2458L15.2362 14.8959" stroke="#F8FEFF" stroke-width="1.02189" stroke-linecap="round" stroke-linejoin="round"/>
<path d="M15.466 2.38912C15.3473 2.33716 15.2122 2.33716 15.0935 2.38912L2.26562 8.0013L12.3582 12.4168L15.2797 13.695L24.8079 9.52639L28.2939 8.0013L15.466 2.38912Z" fill="#0CA5E9"/>
<path d="M2.26562 8.0013V19.7372L12.3582 12.4168L2.26562 8.0013Z" fill="#0CA5E9"/>
<path d="M24.8079 9.52639L15.2797 13.695V14.9731V24.1528L24.8079 9.52639Z" fill="#0CA5E9"/>
<path d="M15.2797 24.1528V28.4521L18.1847 27.233L28.2939 11.0224V8.0013L24.8079 9.52639L15.2797 24.1528Z" fill="#C2FCF6"/>
<path d="M15.2797 28.4521V24.1528V14.9731L3.4276 23.4784L15.2797 28.4521Z" fill="#F8FEFF"/>
<path d="M2.26562 19.7372V22.6818C2.26562 22.869 2.37794 23.0379 2.55056 23.1104L3.4276 23.4784L15.2797 14.9731V13.695L12.3582 12.4168L2.26562 19.7372Z" fill="#F8FEFF"/>
<path d="M18.1847 27.233L28.0089 23.1104C28.1816 23.0379 28.2939 22.869 28.2939 22.6818V11.0224L18.1847 27.233Z" fill="#F8FEFF"/>
<path d="M2.26562 8.0013L15.0935 2.38912C15.2122 2.33716 15.3473 2.33716 15.466 2.38912L28.2939 8.0013M2.26562 8.0013V19.7372M2.26562 8.0013L12.3582 12.4168M28.2939 8.0013L24.8079 9.52639M28.2939 8.0013V11.0224M15.2797 28.4521V24.1528M15.2797 28.4521L18.1847 27.233M15.2797 28.4521L3.4276 23.4784M15.2797 13.695L24.8079 9.52639M15.2797 13.695L12.3582 12.4168M15.2797 13.695V14.9731M15.2797 24.1528L24.8079 9.52639M15.2797 24.1528V14.9731M18.1847 27.233L28.0089 23.1104C28.1816 23.0379 28.2939 22.869 28.2939 22.6818V11.0224M18.1847 27.233L28.2939 11.0224M2.26562 19.7372V22.6818C2.26562 22.869 2.37794 23.0379 2.55056 23.1104L3.4276 23.4784M2.26562 19.7372L12.3582 12.4168M3.4276 23.4784L15.2797 14.9731" stroke="#1E1E1E" stroke-width="0.92958" stroke-linecap="round" stroke-linejoin="round"/>
<path d="M47.6035 8.28287C47.6035 8.90259 47.5803 9.49907 47.5338 10.0723C47.5028 10.6456 47.4718 11.0484 47.4408 11.2808H47.6267C47.9056 10.847 48.231 10.4984 48.6028 10.235C48.9746 9.95612 49.3852 9.75471 49.8345 9.63076C50.2993 9.49132 50.7873 9.42161 51.2986 9.42161C52.2127 9.42161 53.0106 9.58428 53.6922 9.90964C54.3739 10.235 54.9007 10.7385 55.2725 11.4202C55.6599 12.1019 55.8535 12.985 55.8535 14.0695V22.3428H52.3908V14.9294C52.3908 14.0153 52.2204 13.3336 51.8796 12.8843C51.5542 12.4195 51.0429 12.1871 50.3458 12.1871C49.6486 12.1871 49.0986 12.3498 48.6958 12.6751C48.3084 13.0005 48.0296 13.473 47.8591 14.0927C47.6887 14.7125 47.6035 15.4716 47.6035 16.3702V22.3428H44.1408V4.68075H47.6035V8.28287ZM64.6433 9.42161C65.8208 9.42161 66.8278 9.64625 67.6645 10.0956C68.5166 10.5448 69.175 11.1956 69.6398 12.0477C70.1046 12.8998 70.337 13.9456 70.337 15.185V16.8582H62.1567C62.1877 17.8343 62.4743 18.6012 63.0166 19.159C63.5743 19.7167 64.3412 19.9956 65.3173 19.9956C66.1384 19.9956 66.8821 19.9181 67.5483 19.7632C68.2145 19.5928 68.9039 19.3371 69.6166 18.9963V21.6688C68.9969 21.9787 68.3384 22.2033 67.6412 22.3428C66.9595 22.4977 66.1306 22.5752 65.1546 22.5752C63.8842 22.5752 62.7609 22.3428 61.7849 21.878C60.8088 21.3977 60.0419 20.6773 59.4841 19.7167C58.9264 18.7561 58.6475 17.5477 58.6475 16.0913C58.6475 14.604 58.8954 13.3723 59.3912 12.3963C59.9025 11.4047 60.6074 10.661 61.506 10.1653C62.4046 9.66949 63.4504 9.42161 64.6433 9.42161ZM64.6666 11.885C64.0004 11.885 63.4426 12.1019 62.9933 12.5357C62.5595 12.9695 62.3039 13.6435 62.2264 14.5575H67.0835C67.0835 14.0463 66.9905 13.5892 66.8046 13.1864C66.6342 12.7836 66.3708 12.466 66.0144 12.2336C65.6581 12.0012 65.2088 11.885 64.6666 11.885ZM76.6075 22.3428H73.1448V4.68075H76.6075V22.3428ZM83.6883 9.654V22.3428H80.2256V9.654H83.6883ZM81.9686 4.68075C82.4798 4.68075 82.9214 4.80469 83.2932 5.05258C83.665 5.28497 83.851 5.72652 83.851 6.37723C83.851 7.01244 83.665 7.45399 83.2932 7.70188C82.9214 7.94977 82.4798 8.07372 81.9686 8.07372C81.4418 8.07372 80.9925 7.94977 80.6207 7.70188C80.2643 7.45399 80.0862 7.01244 80.0862 6.37723C80.0862 5.72652 80.2643 5.28497 80.6207 5.05258C80.9925 4.80469 81.4418 4.68075 81.9686 4.68075ZM92.4655 22.5752C91.2106 22.5752 90.1416 22.3505 89.2585 21.9012C88.3754 21.4364 87.7014 20.7238 87.2367 19.7632C86.7719 18.8026 86.5395 17.5709 86.5395 16.0681C86.5395 14.5188 86.8029 13.2561 87.3296 12.2801C87.8564 11.304 88.5845 10.5836 89.5141 10.1188C90.4592 9.654 91.5437 9.42161 92.7677 9.42161C93.6353 9.42161 94.3867 9.50682 95.0219 9.67724C95.6726 9.84766 96.2381 10.0491 96.7184 10.2815L95.6958 12.954C95.1536 12.7371 94.6423 12.5589 94.162 12.4195C93.6972 12.2801 93.2325 12.2103 92.7677 12.2103C92.1634 12.2103 91.6599 12.3575 91.2571 12.6519C90.8543 12.9308 90.5522 13.3568 90.3508 13.9301C90.1648 14.4878 90.0719 15.1928 90.0719 16.0449C90.0719 16.8815 90.1726 17.5787 90.374 18.1364C90.5909 18.6787 90.9008 19.0892 91.3036 19.3681C91.7064 19.6315 92.1944 19.7632 92.7677 19.7632C93.4958 19.7632 94.1388 19.6702 94.6965 19.4843C95.2543 19.2829 95.7965 19.0118 96.3233 18.6709V21.6223C95.7965 21.9632 95.2388 22.2033 94.6501 22.3428C94.0768 22.4977 93.3486 22.5752 92.4655 22.5752ZM110.771 15.9751C110.771 17.0287 110.623 17.966 110.329 18.7871C110.05 19.6083 109.64 20.3054 109.097 20.8787C108.571 21.4364 107.928 21.8625 107.169 22.1569C106.409 22.4357 105.55 22.5752 104.589 22.5752C103.706 22.5752 102.885 22.4357 102.126 22.1569C101.382 21.8625 100.739 21.4364 100.197 20.8787C99.6544 20.3054 99.2284 19.6083 98.9185 18.7871C98.6241 17.966 98.477 17.0287 98.477 15.9751C98.477 14.5653 98.7248 13.3801 99.2206 12.4195C99.7164 11.4434 100.429 10.6998 101.359 10.1885C102.288 9.67724 103.388 9.42161 104.659 9.42161C105.852 9.42161 106.905 9.67724 107.819 10.1885C108.733 10.6998 109.454 11.4434 109.981 12.4195C110.507 13.3801 110.771 14.5653 110.771 15.9751ZM102.009 15.9751C102.009 16.8118 102.095 17.5167 102.265 18.0899C102.451 18.6477 102.738 19.0737 103.125 19.3681C103.512 19.647 104.016 19.7864 104.635 19.7864C105.255 19.7864 105.751 19.647 106.123 19.3681C106.51 19.0737 106.789 18.6477 106.959 18.0899C107.145 17.5167 107.238 16.8118 107.238 15.9751C107.238 15.1385 107.145 14.4413 106.959 13.8836C106.789 13.3258 106.51 12.9075 106.123 12.6287C105.735 12.3498 105.232 12.2103 104.612 12.2103C103.698 12.2103 103.032 12.528 102.614 13.1632C102.211 13.7829 102.009 14.7202 102.009 15.9751ZM120.837 9.42161C122.2 9.42161 123.292 9.79344 124.113 10.5371C124.935 11.2653 125.345 12.4427 125.345 14.0695V22.3428H121.882V14.9294C121.882 14.0153 121.72 13.3336 121.394 12.8843C121.069 12.4195 120.55 12.1871 119.837 12.1871C118.784 12.1871 118.063 12.5512 117.676 13.2794C117.289 13.992 117.095 15.0223 117.095 16.3702V22.3428H113.632V9.654H116.282L116.746 11.2808H116.932C117.211 10.847 117.552 10.4984 117.955 10.235C118.358 9.95612 118.807 9.75471 119.303 9.63076C119.799 9.49132 120.31 9.42161 120.837 9.42161ZM134.135 9.42161C135.312 9.42161 136.319 9.64625 137.156 10.0956C138.008 10.5448 138.667 11.1956 139.131 12.0477C139.596 12.8998 139.829 13.9456 139.829 15.185V16.8582H131.648C131.679 17.8343 131.966 18.6012 132.508 19.159C133.066 19.7167 133.833 19.9956 134.809 19.9956C135.63 19.9956 136.374 19.9181 137.04 19.7632C137.706 19.5928 138.395 19.3371 139.108 18.9963V21.6688C138.488 21.9787 137.83 22.2033 137.133 22.3428C136.451 22.4977 135.622 22.5752 134.646 22.5752C133.376 22.5752 132.252 22.3428 131.276 21.878C130.3 21.3977 129.533 20.6773 128.976 19.7167C128.418 18.7561 128.139 17.5477 128.139 16.0913C128.139 14.604 128.387 13.3723 128.883 12.3963C129.394 11.4047 130.099 10.661 130.998 10.1653C131.896 9.66949 132.942 9.42161 134.135 9.42161ZM134.158 11.885C133.492 11.885 132.934 12.1019 132.485 12.5357C132.051 12.9695 131.795 13.6435 131.718 14.5575H136.575C136.575 14.0463 136.482 13.5892 136.296 13.1864C136.126 12.7836 135.862 12.466 135.506 12.2336C135.15 12.0012 134.7 11.885 134.158 11.885Z" fill="#F8FEFF"/>
</svg>
