<svg width="611" height="132" viewBox="0 0 611 132" fill="none" xmlns="http://www.w3.org/2000/svg">
<path d="M62.7017 8.35383C62.1747 8.12327 61.5753 8.12327 61.0483 8.35383L4.125 33.2578L48.9107 52.8515L61.875 58.5234L104.156 40.0254L119.625 33.2578L62.7017 8.35383Z" fill="#0CA5E9"/>
<path d="M4.125 33.2578V85.3359L48.9107 52.8516L4.125 33.2578Z" fill="#0CA5E9"/>
<path d="M104.156 40.0254L61.875 58.5234V64.1953V104.93L104.156 40.0254Z" fill="#0CA5E9"/>
<path d="M61.875 104.93V124.008L74.7656 118.598L119.625 46.6641V33.2578L104.156 40.0254L61.875 104.93Z" fill="#C2FCF6"/>
<path d="M4.125 33.2578L61.0483 8.35383C61.5753 8.12327 62.1747 8.12327 62.7017 8.35383L119.625 33.2578M4.125 33.2578V85.3359M4.125 33.2578L48.9107 52.8515M119.625 33.2578L104.156 40.0254M119.625 33.2578V46.664M4.125 85.3359V98.4022C4.125 99.2329 4.62339 99.9825 5.38941 100.304L9.28125 101.937M4.125 85.3359L48.9107 52.8515M48.9107 52.8515L61.875 58.5234M104.156 40.0254L61.875 58.5234M104.156 40.0254L61.875 104.93M119.625 46.664V98.4022C119.625 99.2329 119.127 99.9825 118.361 100.304L74.7656 118.598M119.625 46.664L74.7656 118.598M61.875 124.008V104.93M61.875 124.008L74.7656 118.598M61.875 124.008L9.28125 101.937M61.875 104.93V64.1953M9.28125 101.937L61.875 64.1953M61.875 58.5234V64.1953" stroke="#1E1E1E" stroke-width="4" stroke-linecap="round" stroke-linejoin="round"/>
<path d="M199.753 36.6094C199.753 39.3594 199.65 42.0062 199.444 44.55C199.307 47.0938 199.168 48.8813 199.031 49.9125H199.856C201.094 47.9875 202.538 46.4406 204.188 45.2719C205.838 44.0344 207.66 43.1406 209.653 42.5906C211.716 41.9719 213.881 41.6625 216.15 41.6625C220.206 41.6625 223.747 42.3844 226.772 43.8281C229.797 45.2719 232.134 47.5063 233.784 50.5312C235.503 53.5562 236.363 57.475 236.363 62.2875V99H220.997V66.1031C220.997 62.0469 220.241 59.0218 218.728 57.0281C217.284 54.9656 215.016 53.9344 211.922 53.9344C208.828 53.9344 206.387 54.6563 204.6 56.1C202.881 57.5438 201.643 59.6406 200.888 62.3906C200.132 65.1407 199.753 68.5093 199.753 72.4969V99H184.388V20.625H199.753V36.6094ZM275.367 41.6625C280.592 41.6625 285.061 42.6594 288.774 44.6531C292.554 46.6468 295.477 49.5343 297.539 53.3156C299.602 57.0969 300.633 61.7375 300.633 67.2375V74.6625H264.333C264.47 78.9938 265.742 82.3969 268.149 84.8719C270.624 87.3469 274.027 88.5844 278.358 88.5844C282.002 88.5844 285.302 88.2407 288.258 87.5531C291.214 86.7969 294.273 85.6625 297.436 84.15V96.0094C294.686 97.3843 291.764 98.3812 288.671 99C285.645 99.6875 281.967 100.031 277.636 100.031C271.998 100.031 267.014 99 262.683 96.9375C258.352 94.8062 254.949 91.6093 252.474 87.3469C249.999 83.0844 248.761 77.7219 248.761 71.2594C248.761 64.6594 249.861 59.1938 252.061 54.8625C254.33 50.4625 257.458 47.1625 261.446 44.9625C265.432 42.7625 270.073 41.6625 275.367 41.6625ZM275.471 52.5938C272.514 52.5938 270.039 53.5562 268.046 55.4812C266.12 57.4063 264.986 60.3969 264.642 64.4531H286.196C286.196 62.1844 285.783 60.1562 284.958 58.3687C284.201 56.5813 283.033 55.1719 281.452 54.1406C279.87 53.1094 277.876 52.5938 275.471 52.5938ZM328.458 99H313.093V20.625H328.458V99ZM359.878 42.6938V99H344.513V42.6938H359.878ZM352.247 20.625C354.516 20.625 356.475 21.175 358.125 22.275C359.775 23.3063 360.6 25.2656 360.6 28.1531C360.6 30.9718 359.775 32.9312 358.125 34.0312C356.475 35.1313 354.516 35.6812 352.247 35.6812C349.91 35.6812 347.916 35.1313 346.266 34.0312C344.685 32.9312 343.894 30.9718 343.894 28.1531C343.894 25.2656 344.685 23.3063 346.266 22.275C347.916 21.175 349.91 20.625 352.247 20.625ZM398.828 100.031C393.259 100.031 388.515 99.0343 384.596 97.0406C380.678 94.9781 377.687 91.8156 375.625 87.5531C373.562 83.2907 372.531 77.825 372.531 71.1562C372.531 64.2812 373.7 58.6781 376.037 54.3469C378.375 50.0156 381.606 46.8188 385.731 44.7563C389.925 42.6938 394.738 41.6625 400.168 41.6625C404.019 41.6625 407.353 42.0407 410.171 42.7969C413.059 43.5531 415.569 44.4469 417.7 45.4781L413.162 57.3375C410.756 56.375 408.487 55.5844 406.356 54.9656C404.293 54.3469 402.231 54.0375 400.168 54.0375C397.487 54.0375 395.253 54.6906 393.465 55.9969C391.678 57.2344 390.337 59.125 389.443 61.6687C388.618 64.1437 388.206 67.2718 388.206 71.0531C388.206 74.7656 388.653 77.8594 389.546 80.3344C390.51 82.7406 391.884 84.5625 393.671 85.8C395.46 86.9687 397.625 87.5531 400.168 87.5531C403.4 87.5531 406.253 87.1406 408.728 86.3156C411.203 85.4218 413.61 84.2188 415.946 82.7062V95.8031C413.61 97.3157 411.135 98.3812 408.521 99C405.978 99.6875 402.746 100.031 398.828 100.031ZM480.056 70.7437C480.056 75.4187 479.403 79.5782 478.097 83.2219C476.859 86.8656 475.038 89.9593 472.631 92.5031C470.294 94.9781 467.441 96.8687 464.072 98.175C460.704 99.4125 456.888 100.031 452.625 100.031C448.706 100.031 445.063 99.4125 441.694 98.175C438.394 96.8687 435.541 94.9781 433.134 92.5031C430.728 89.9593 428.838 86.8656 427.462 83.2219C426.157 79.5782 425.503 75.4187 425.503 70.7437C425.503 64.4875 426.603 59.2281 428.803 54.9656C431.004 50.6344 434.166 47.3344 438.291 45.0656C442.416 42.7969 447.297 41.6625 452.934 41.6625C458.229 41.6625 462.903 42.7969 466.959 45.0656C471.016 47.3344 474.213 50.6344 476.55 54.9656C478.888 59.2281 480.056 64.4875 480.056 70.7437ZM441.178 70.7437C441.178 74.4562 441.557 77.5843 442.312 80.1281C443.137 82.6031 444.41 84.4937 446.128 85.8C447.847 87.0375 450.082 87.6562 452.831 87.6562C455.582 87.6562 457.781 87.0375 459.431 85.8C461.15 84.4937 462.388 82.6031 463.144 80.1281C463.969 77.5843 464.381 74.4562 464.381 70.7437C464.381 67.0312 463.969 63.9375 463.144 61.4625C462.388 58.9875 461.15 57.1313 459.431 55.8938C457.713 54.6563 455.478 54.0375 452.728 54.0375C448.672 54.0375 445.716 55.4469 443.859 58.2656C442.072 61.0157 441.178 65.175 441.178 70.7437ZM524.724 41.6625C530.774 41.6625 535.621 43.3125 539.264 46.6125C542.909 49.8437 544.73 55.0688 544.73 62.2875V99H529.364V66.1031C529.364 62.0469 528.642 59.0218 527.199 57.0281C525.755 54.9656 523.452 53.9344 520.289 53.9344C515.615 53.9344 512.418 55.55 510.699 58.7812C508.981 61.9438 508.121 66.5156 508.121 72.4969V99H492.755V42.6938H504.511L506.574 49.9125H507.399C508.636 47.9875 510.149 46.4406 511.936 45.2719C513.724 44.0344 515.718 43.1406 517.917 42.5906C520.118 41.9719 522.387 41.6625 524.724 41.6625ZM583.735 41.6625C588.96 41.6625 593.429 42.6594 597.141 44.6531C600.923 46.6468 603.844 49.5343 605.907 53.3156C607.969 57.0969 609.001 61.7375 609.001 67.2375V74.6625H572.701C572.838 78.9938 574.11 82.3969 576.516 84.8719C578.991 87.3469 582.394 88.5844 586.726 88.5844C590.369 88.5844 593.669 88.2407 596.626 87.5531C599.582 86.7969 602.641 85.6625 605.804 84.15V96.0094C603.053 97.3843 600.132 98.3812 597.038 99C594.013 99.6875 590.335 100.031 586.004 100.031C580.366 100.031 575.382 99 571.051 96.9375C566.719 94.8062 563.316 91.6093 560.841 87.3469C558.366 83.0844 557.129 77.7219 557.129 71.2594C557.129 64.6594 558.229 59.1938 560.429 54.8625C562.697 50.4625 565.825 47.1625 569.813 44.9625C573.801 42.7625 578.442 41.6625 583.735 41.6625ZM583.838 52.5938C580.881 52.5938 578.406 53.5562 576.413 55.4812C574.488 57.4063 573.353 60.3969 573.01 64.4531H594.563C594.563 62.1844 594.151 60.1562 593.326 58.3687C592.57 56.5813 591.4 55.1719 589.819 54.1406C588.238 53.1094 586.244 52.5938 583.838 52.5938Z" fill="#1E1E1E"/>
</svg>
