<svg width="284" height="279" viewBox="0 0 284 279" fill="none" xmlns="http://www.w3.org/2000/svg">
<path d="M146.357 8.93455C143.538 7.70128 140.333 7.70128 137.514 8.93455L9.93555 64.75L112.303 109.536L141.936 122.5L238.578 80.2187L273.936 64.75L146.357 8.93455Z" fill="#F8FEFF"/>
<path d="M9.93555 64.75V183.786L112.303 109.536L9.93555 64.75Z" fill="#F8FEFF"/>
<path d="M238.578 80.2187L141.936 122.5V135.464V228.571L238.578 80.2187Z" fill="#F8FEFF"/>
<path d="M141.936 228.571V272.179L171.4 259.814L273.936 95.3929V64.75L238.578 80.2187L141.936 228.571Z" fill="#F8FEFF"/>
<path d="M141.936 272.179V228.571V135.464L21.7213 221.731L141.936 272.179Z" fill="#F8FEFF"/>
<path d="M9.93555 183.786V209.451C9.93555 213.895 12.6014 217.904 16.6987 219.624L21.7213 221.731L141.936 135.464V122.5L112.303 109.536L9.93555 183.786Z" fill="#F8FEFF"/>
<path d="M171.4 259.814L267.172 219.624C271.27 217.904 273.936 213.895 273.936 209.451V95.3929L171.4 259.814Z" fill="#F8FEFF"/>
<path d="M9.93555 64.75L137.514 8.93455C140.333 7.70128 143.538 7.70128 146.357 8.93455L273.936 64.75M9.93555 64.75V183.786M9.93555 64.75L112.303 109.536M273.936 64.75L238.578 80.2187M273.936 64.75V95.3929M141.936 272.179V228.571M141.936 272.179L171.4 259.814M141.936 272.179L21.7213 221.731M141.936 122.5L238.578 80.2187M141.936 122.5L112.303 109.536M141.936 122.5V135.464M141.936 228.571L238.578 80.2187M141.936 228.571V135.464M171.4 259.814L267.172 219.624C271.27 217.904 273.936 213.895 273.936 209.451V95.3929M171.4 259.814L273.936 95.3929M9.93555 183.786V209.451C9.93555 213.895 12.6014 217.904 16.6987 219.624L21.7213 221.731M9.93555 183.786L112.303 109.536M21.7213 221.731L141.936 135.464" stroke="#F8FEFF" stroke-width="9.42857" stroke-linecap="round" stroke-linejoin="round"/>
<path d="M144.026 20.0645C142.93 19.5851 141.684 19.5851 140.588 20.0645L22.2312 71.8457L115.351 112.586L142.307 124.379L230.22 85.9172L262.383 71.8457L144.026 20.0645Z" fill="#0CA5E9"/>
<path d="M22.2312 71.8457V180.129L115.351 112.586L22.2312 71.8457Z" fill="#0CA5E9"/>
<path d="M230.22 85.9172L142.307 124.379V136.172V220.869L230.22 85.9172Z" fill="#0CA5E9"/>
<path d="M142.307 220.869V260.537L169.11 249.289L262.383 99.7205V71.8457L230.22 85.9172L142.307 220.869Z" fill="#C2FCF6"/>
<path d="M142.307 260.537V220.869V136.172L32.9523 214.647L142.307 260.537Z" fill="#F8FEFF"/>
<path d="M22.2312 180.129V207.296C22.2312 209.024 23.2675 210.582 24.8602 211.251L32.9523 214.647L142.307 136.172V124.379L115.351 112.586L22.2312 180.129Z" fill="#F8FEFF"/>
<path d="M169.11 249.289L259.754 211.251C261.347 210.582 262.383 209.024 262.383 207.296V99.7205L169.11 249.289Z" fill="#F8FEFF"/>
<path d="M22.2312 71.8457L140.588 20.0645C141.684 19.5851 142.93 19.5851 144.026 20.0645L262.383 71.8457M22.2312 71.8457V180.129M22.2312 71.8457L115.351 112.586M262.383 71.8457L230.22 85.9172M262.383 71.8457V99.7205M142.307 260.537V220.869M142.307 260.537L169.11 249.289M142.307 260.537L32.9523 214.647M142.307 124.379L230.22 85.9172M142.307 124.379L115.351 112.586M142.307 124.379V136.172M142.307 220.869L230.22 85.9172M142.307 220.869V136.172M169.11 249.289L259.754 211.251C261.347 210.582 262.383 209.024 262.383 207.296V99.7205M169.11 249.289L262.383 99.7205M22.2312 180.129V207.296C22.2312 209.024 23.2675 210.582 24.8602 211.251L32.9523 214.647M22.2312 180.129L115.351 112.586M32.9523 214.647L142.307 136.172" stroke="#1E1E1E" stroke-width="8.57686" stroke-linecap="round" stroke-linejoin="round"/>
</svg>
