<svg width="651" height="172" viewBox="0 0 651 172" fill="none" xmlns="http://www.w3.org/2000/svg">
<path d="M87.6232 24.9022C86.3086 24.3271 84.8135 24.3271 83.4988 24.9022L24 50.9329L71.7412 71.8197L85.561 77.8659L130.632 58.1471L147.122 50.9329L87.6232 24.9022Z" fill="#F8FEFF"/>
<path d="M24 50.9329V106.448L71.7412 71.8197L24 50.9329Z" fill="#F8FEFF"/>
<path d="M130.632 58.1471L85.561 77.8659V83.9121V127.335L130.632 58.1471Z" fill="#F8FEFF"/>
<path d="M85.561 127.335V147.672L99.3023 141.905L147.122 65.2239V50.9329L130.632 58.1471L85.561 127.335Z" fill="#F8FEFF"/>
<path d="M85.561 147.672V127.335V83.9121L29.4965 124.145L85.561 147.672Z" fill="#F8FEFF"/>
<path d="M24 106.448V118.417C24 120.49 25.2433 122.36 27.1541 123.162L29.4965 124.145L85.561 83.9121V77.8659L71.7412 71.8197L24 106.448Z" fill="#F8FEFF"/>
<path d="M99.3023 141.905L143.968 123.162C145.879 122.36 147.122 120.49 147.122 118.417V65.2239L99.3023 141.905Z" fill="#F8FEFF"/>
<path d="M24 50.9329L83.4988 24.9022C84.8135 24.3271 86.3086 24.3271 87.6232 24.9022L147.122 50.9329M24 50.9329V106.448M24 50.9329L71.7412 71.8197M147.122 50.9329L130.632 58.1471M147.122 50.9329V65.2239M85.561 147.672V127.335M85.561 147.672L99.3023 141.905M85.561 147.672L29.4965 124.145M85.561 77.8659L130.632 58.1471M85.561 77.8659L71.7412 71.8197M85.561 77.8659V83.9121M85.561 127.335L130.632 58.1471M85.561 127.335V83.9121M99.3023 141.905L143.968 123.162C145.879 122.36 147.122 120.49 147.122 118.417V65.2239M99.3023 141.905L147.122 65.2239M24 106.448V118.417C24 120.49 25.2433 122.36 27.1541 123.162L29.4965 124.145M24 106.448L71.7412 71.8197M29.4965 124.145L85.561 83.9121" stroke="#F8FEFF" stroke-width="4.39721" stroke-linecap="round" stroke-linejoin="round"/>
<path d="M86.536 30.0929C86.025 29.8693 85.4438 29.8693 84.9327 30.0929L29.7344 54.2422L73.1629 73.2422L85.7344 78.7422L126.734 60.8047L141.734 54.2422L86.536 30.0929Z" fill="#0CA5E9"/>
<path d="M29.7344 54.2422V104.742L73.1629 73.2422L29.7344 54.2422Z" fill="#0CA5E9"/>
<path d="M126.734 60.8047L85.7344 78.7422V84.2422V123.742L126.734 60.8047Z" fill="#0CA5E9"/>
<path d="M85.7344 123.742V142.242L98.2344 136.997L141.734 67.2422V54.2422L126.734 60.8047L85.7344 123.742Z" fill="#C2FCF6"/>
<path d="M85.7344 142.242V123.742V84.2422L34.7344 120.84L85.7344 142.242Z" fill="#F8FEFF"/>
<path d="M29.7344 104.742V117.413C29.7344 118.218 30.2177 118.945 30.9605 119.257L34.7344 120.84L85.7344 84.2422V78.7422L73.1629 73.2422L29.7344 104.742Z" fill="#F8FEFF"/>
<path d="M98.2344 136.997L140.508 119.257C141.251 118.945 141.734 118.218 141.734 117.413V67.2422L98.2344 136.997Z" fill="#F8FEFF"/>
<path d="M29.7344 54.2422L84.9327 30.0929C85.4438 29.8693 86.025 29.8693 86.536 30.0929L141.734 54.2422M29.7344 54.2422V104.742M29.7344 54.2422L73.1629 73.2422M141.734 54.2422L126.734 60.8047M141.734 54.2422V67.2422M85.7344 142.242V123.742M85.7344 142.242L98.2344 136.997M85.7344 142.242L34.7344 120.84M85.7344 78.7422L126.734 60.8047M85.7344 78.7422L73.1629 73.2422M85.7344 78.7422V84.2422M85.7344 123.742L126.734 60.8047M85.7344 123.742V84.2422M98.2344 136.997L140.508 119.257C141.251 118.945 141.734 118.218 141.734 117.413V67.2422M98.2344 136.997L141.734 67.2422M29.7344 104.742V117.413C29.7344 118.218 30.2177 118.945 30.9605 119.257L34.7344 120.84M29.7344 104.742L73.1629 73.2422M34.7344 120.84L85.7344 84.2422" stroke="#1E1E1E" stroke-width="4" stroke-linecap="round" stroke-linejoin="round"/>
<path d="M224.822 57.3358C224.822 60.0025 224.722 62.5691 224.522 65.0358C224.389 67.5025 224.255 69.2358 224.122 70.2358H224.922C226.122 68.3691 227.522 66.8691 229.122 65.7358C230.722 64.5358 232.489 63.6691 234.422 63.1358C236.422 62.5358 238.522 62.2358 240.722 62.2358C244.655 62.2358 248.089 62.9358 251.022 64.3358C253.955 65.7358 256.222 67.9025 257.822 70.8358C259.489 73.7691 260.322 77.5691 260.322 82.2358V117.836H245.422V85.9358C245.422 82.0025 244.689 79.0691 243.222 77.1358C241.822 75.1358 239.622 74.1358 236.622 74.1358C233.622 74.1358 231.255 74.8358 229.522 76.2358C227.855 77.6358 226.655 79.6691 225.922 82.3358C225.189 85.0025 224.822 88.2691 224.822 92.1358V117.836H209.922V41.8358H224.822V57.3358ZM298.145 62.2358C303.211 62.2358 307.545 63.2025 311.145 65.1358C314.811 67.0691 317.645 69.8691 319.645 73.5358C321.645 77.2025 322.645 81.7025 322.645 87.0358V94.2358H287.445C287.578 98.4358 288.811 101.736 291.145 104.136C293.545 106.536 296.845 107.736 301.045 107.736C304.578 107.736 307.778 107.402 310.645 106.736C313.511 106.002 316.478 104.902 319.545 103.436V114.936C316.878 116.269 314.045 117.236 311.045 117.836C308.111 118.502 304.545 118.836 300.345 118.836C294.878 118.836 290.045 117.836 285.845 115.836C281.645 113.769 278.345 110.669 275.945 106.536C273.545 102.402 272.345 97.2025 272.345 90.9358C272.345 84.5358 273.411 79.2358 275.545 75.0358C277.745 70.7691 280.778 67.5691 284.645 65.4358C288.511 63.3025 293.011 62.2358 298.145 62.2358ZM298.245 72.8358C295.378 72.8358 292.978 73.7691 291.045 75.6358C289.178 77.5025 288.078 80.4025 287.745 84.3358H308.645C308.645 82.1358 308.245 80.1691 307.445 78.4358C306.711 76.7025 305.578 75.3358 304.045 74.3358C302.511 73.3358 300.578 72.8358 298.245 72.8358ZM349.627 117.836H334.727V41.8358H349.627V117.836ZM380.095 63.2358V117.836H365.195V63.2358H380.095ZM372.695 41.8358C374.895 41.8358 376.795 42.3691 378.395 43.4358C379.995 44.4358 380.795 46.3358 380.795 49.1358C380.795 51.8691 379.995 53.7691 378.395 54.8358C376.795 55.9025 374.895 56.4358 372.695 56.4358C370.429 56.4358 368.495 55.9025 366.895 54.8358C365.362 53.7691 364.595 51.8691 364.595 49.1358C364.595 46.3358 365.362 44.4358 366.895 43.4358C368.495 42.3691 370.429 41.8358 372.695 41.8358ZM417.864 118.836C412.464 118.836 407.864 117.869 404.064 115.936C400.264 113.936 397.364 110.869 395.364 106.736C393.364 102.602 392.364 97.3025 392.364 90.8358C392.364 84.1691 393.498 78.7358 395.764 74.5358C398.031 70.3358 401.164 67.2358 405.164 65.2358C409.231 63.2358 413.898 62.2358 419.164 62.2358C422.898 62.2358 426.131 62.6025 428.864 63.3358C431.664 64.0691 434.098 64.9358 436.164 65.9358L431.764 77.4358C429.431 76.5025 427.231 75.7358 425.164 75.1358C423.164 74.5358 421.164 74.2358 419.164 74.2358C416.564 74.2358 414.398 74.8691 412.664 76.1358C410.931 77.3358 409.631 79.1691 408.764 81.6358C407.964 84.0358 407.564 87.0691 407.564 90.7358C407.564 94.3358 407.998 97.3358 408.864 99.7358C409.798 102.069 411.131 103.836 412.864 105.036C414.598 106.169 416.698 106.736 419.164 106.736C422.298 106.736 425.064 106.336 427.464 105.536C429.864 104.669 432.198 103.502 434.464 102.036V114.736C432.198 116.202 429.798 117.236 427.264 117.836C424.798 118.502 421.664 118.836 417.864 118.836ZM496.631 90.4358C496.631 94.9691 495.998 99.0025 494.731 102.536C493.531 106.069 491.765 109.069 489.431 111.536C487.165 113.936 484.398 115.769 481.131 117.036C477.865 118.236 474.165 118.836 470.031 118.836C466.231 118.836 462.698 118.236 459.431 117.036C456.231 115.769 453.465 113.936 451.131 111.536C448.798 109.069 446.965 106.069 445.631 102.536C444.365 99.0025 443.731 94.9691 443.731 90.4358C443.731 84.3691 444.798 79.2691 446.931 75.1358C449.065 70.9358 452.131 67.7358 456.131 65.5358C460.131 63.3358 464.865 62.2358 470.331 62.2358C475.465 62.2358 479.998 63.3358 483.931 65.5358C487.865 67.7358 490.965 70.9358 493.231 75.1358C495.498 79.2691 496.631 84.3691 496.631 90.4358ZM458.931 90.4358C458.931 94.0358 459.298 97.0691 460.031 99.5358C460.831 101.936 462.065 103.769 463.731 105.036C465.398 106.236 467.565 106.836 470.231 106.836C472.898 106.836 475.031 106.236 476.631 105.036C478.298 103.769 479.498 101.936 480.231 99.5358C481.031 97.0691 481.431 94.0358 481.431 90.4358C481.431 86.8358 481.031 83.8358 480.231 81.4358C479.498 79.0358 478.298 77.2358 476.631 76.0358C474.965 74.8358 472.798 74.2358 470.131 74.2358C466.198 74.2358 463.331 75.6025 461.531 78.3358C459.798 81.0025 458.931 85.0358 458.931 90.4358ZM539.945 62.2358C545.812 62.2358 550.512 63.8358 554.045 67.0358C557.579 70.1691 559.345 75.2358 559.345 82.2358V117.836H544.445V85.9358C544.445 82.0025 543.745 79.0691 542.345 77.1358C540.945 75.1358 538.712 74.1358 535.645 74.1358C531.112 74.1358 528.012 75.7025 526.345 78.8358C524.679 81.9025 523.845 86.3358 523.845 92.1358V117.836H508.945V63.2358H520.345L522.345 70.2358H523.145C524.345 68.3691 525.812 66.8691 527.545 65.7358C529.279 64.5358 531.212 63.6691 533.345 63.1358C535.479 62.5358 537.679 62.2358 539.945 62.2358ZM597.168 62.2358C602.235 62.2358 606.568 63.2025 610.168 65.1358C613.835 67.0691 616.668 69.8691 618.668 73.5358C620.668 77.2025 621.668 81.7025 621.668 87.0358V94.2358H586.468C586.601 98.4358 587.835 101.736 590.168 104.136C592.568 106.536 595.868 107.736 600.068 107.736C603.601 107.736 606.801 107.402 609.668 106.736C612.535 106.002 615.501 104.902 618.568 103.436V114.936C615.901 116.269 613.068 117.236 610.068 117.836C607.135 118.502 603.568 118.836 599.368 118.836C593.901 118.836 589.068 117.836 584.868 115.836C580.668 113.769 577.368 110.669 574.968 106.536C572.568 102.402 571.368 97.2025 571.368 90.9358C571.368 84.5358 572.435 79.2358 574.568 75.0358C576.768 70.7691 579.801 67.5691 583.668 65.4358C587.535 63.3025 592.035 62.2358 597.168 62.2358ZM597.268 72.8358C594.401 72.8358 592.001 73.7691 590.068 75.6358C588.201 77.5025 587.101 80.4025 586.768 84.3358H607.668C607.668 82.1358 607.268 80.1691 606.468 78.4358C605.735 76.7025 604.601 75.3358 603.068 74.3358C601.535 73.3358 599.601 72.8358 597.268 72.8358Z" fill="#1E1E1E"/>
</svg>
