<svg width="1512" height="1549" viewBox="0 0 1512 1549" fill="none" xmlns="http://www.w3.org/2000/svg">
<g clip-path="url(#clip0_166_20320)">
<rect width="1512" height="905" fill="#F8FEFF"/>
<path d="M0 391.957C0 391.957 268.577 628.791 710.5 634.457C1152.42 640.124 1512 369.957 1512 369.957V1239.63H0V391.957Z" fill="#0DA5E9" fill-opacity="0.4"/>
<path d="M0 409.957C0 409.957 279.577 669.291 721.5 674.957C1163.42 680.624 1512 480.457 1512 480.457V1239.63H0V409.957Z" fill="#0DA5E9" fill-opacity="0.25"/>
<path d="M0 432.457C0 432.457 256.077 754.291 698 759.958C1139.92 765.624 1512 516.958 1512 516.958V1280.13H0V432.457Z" fill="#0DA5E9" fill-opacity="0.4"/>
<rect width="76.9999" height="76.9999" rx="3" transform="matrix(1 -8.74228e-08 -8.74228e-08 -1 0 750.957)" fill="white" fill-opacity="0.2"/>
<rect x="1512" y="750.957" width="77" height="77" rx="3" transform="rotate(-180 1512 750.957)" fill="white" fill-opacity="0.15"/>
<rect width="76.9999" height="76.9999" rx="3" transform="matrix(1 -8.74228e-08 -8.74228e-08 -1 0 904.957)" fill="white" fill-opacity="0.15"/>
<rect x="1512" y="904.957" width="77" height="77" rx="3" transform="rotate(-180 1512 904.957)" fill="white" fill-opacity="0.2"/>
<rect width="76.9999" height="76.9999" rx="3" transform="matrix(1 -8.74228e-08 -8.74228e-08 -1 154 904.957)" fill="white" fill-opacity="0.05"/>
<rect x="1358" y="904.957" width="77" height="77" rx="3" transform="rotate(-180 1358 904.957)" fill="white" fill-opacity="0.1"/>
<rect width="76.9999" height="76.9999" rx="3" transform="matrix(1 -8.74228e-08 -8.74228e-08 -1 154 750.957)" fill="white" fill-opacity="0.1"/>
<rect x="1358" y="750.957" width="77" height="77" rx="3" transform="rotate(-180 1358 750.957)" fill="white" fill-opacity="0.1"/>
<rect width="76.9999" height="76.9999" rx="3" transform="matrix(1 -8.74228e-08 -8.74228e-08 -1 231 827.957)" fill="white" fill-opacity="0.1"/>
<rect x="1281" y="827.957" width="77" height="77" rx="3" transform="rotate(-180 1281 827.957)" fill="white" fill-opacity="0.05"/>
<rect width="76.9999" height="76.9999" rx="3" transform="matrix(1 -8.74228e-08 -8.74228e-08 -1 77 827.957)" fill="white" fill-opacity="0.2"/>
<rect x="1435" y="827.957" width="77" height="77" rx="3" transform="rotate(-180 1435 827.957)" fill="white" fill-opacity="0.15"/>
<rect width="76.9999" height="76.9999" rx="3" transform="matrix(1 -8.74228e-08 -8.74228e-08 -1 77 673.957)" fill="white" fill-opacity="0.1"/>
<path d="M1435 670.957C1435 672.614 1433.66 673.957 1432 673.957L1361 673.957C1359.34 673.957 1358 672.614 1358 670.957L1358 603.811C1358 602.675 1358.64 601.636 1359.66 601.128L1362 599.957L1366.83 597.323C1367.27 597.083 1367.76 596.957 1368.26 596.957L1432 596.957C1433.66 596.957 1435 598.3 1435 599.957L1435 670.957Z" fill="white" fill-opacity="0.1"/>
<rect width="76.9999" height="76.9999" rx="3" transform="matrix(1 -8.74228e-08 -8.74228e-08 -1 0 596.957)" fill="white" fill-opacity="0.1"/>
<path d="M1512 593.957C1512 595.614 1510.66 596.957 1509 596.957L1438 596.957C1436.34 596.957 1435 595.614 1435 593.957L1435 564.214C1435 563.129 1435.59 562.128 1436.53 561.598L1468 543.957L1506.78 520.393C1507.25 520.108 1507.79 519.957 1508.34 519.957L1509 519.957C1510.66 519.957 1512 521.3 1512 522.957L1512 593.957Z" fill="white" fill-opacity="0.1"/>
<path d="M154 593.957C154 595.614 155.343 596.957 157 596.957L178.098 596.957C181.021 596.957 182.218 593.204 179.836 591.511L168.5 583.457L158.703 576.701C156.713 575.328 154 576.753 154 579.17L154 593.957Z" fill="white" fill-opacity="0.05"/>
<path d="M77 517.175C77 518.711 78.2473 519.957 79.7841 519.957C82.3325 519.957 83.5494 516.82 81.6637 515.106L81.5 514.957C79.8394 513.296 77 514.473 77 516.821L77 517.175Z" fill="white" fill-opacity="0.05"/>
<rect width="76.9999" height="76.9999" rx="3" transform="matrix(1 -8.74228e-08 -8.74228e-08 -1 308 904.957)" fill="white" fill-opacity="0.05"/>
<rect x="1204" y="904.957" width="77" height="77" rx="3" transform="rotate(-180 1204 904.957)" fill="white" fill-opacity="0.05"/>
<rect width="76.9999" height="76.9999" rx="3" transform="matrix(1 -8.74228e-08 -8.74228e-08 -1 462 904.957)" fill="white" fill-opacity="0.02"/>
<path d="M308 747.957C308 749.614 309.343 750.957 311 750.957L382 750.957C383.657 750.957 385 749.614 385 747.957L385 701.995C385 700.765 384.249 699.659 383.105 699.206L358.5 689.457L324.08 674.214C323.698 674.045 323.284 673.957 322.865 673.957L311 673.957C309.343 673.957 308 675.3 308 676.957L308 747.957Z" fill="white" fill-opacity="0.05"/>
<path d="M231 671.957C231 673.614 232.343 674.957 234 674.957L305 674.957C306.657 674.957 308 673.614 308 671.957L308 668.766C308 667.653 307.384 666.632 306.4 666.113L272 647.957L235.468 627.463C233.468 626.342 231 627.787 231 630.08L231 671.957Z" fill="white" fill-opacity="0.1"/>
<rect width="76.9999" height="76.9999" rx="3" transform="matrix(1 -8.74228e-08 -8.74228e-08 -1 385 827.957)" fill="white" fill-opacity="0.05"/>
<rect width="76.9999" height="76.9999" rx="3" transform="matrix(1 -8.74228e-08 -8.74228e-08 -1 1050 827.957)" fill="white" fill-opacity="0.05"/>
<path d="M973 747.957C973 749.614 974.343 750.957 976 750.957L1047 750.957C1048.66 750.957 1050 749.614 1050 747.957L1050 715.029C1050 714.983 1050.02 714.939 1050.05 714.906C1050.18 714.781 1050.06 714.57 1049.88 714.614L999.5 727.457L975.444 731.996C974.026 732.263 973 733.502 973 734.944L973 747.957Z" fill="white" fill-opacity="0.05"/>
<path d="M1127 747.957C1127 749.614 1128.34 750.957 1130 750.957L1201 750.957C1202.66 750.957 1204 749.614 1204 747.957L1204 676.957C1204 675.3 1202.66 673.957 1201 673.957L1184 673.957C1183.67 673.957 1183.34 674.013 1183.02 674.122L1143 687.957L1129.11 692.299C1127.85 692.691 1127 693.85 1127 695.163L1127 747.957Z" fill="white" fill-opacity="0.05"/>
<path d="M1204 670.957C1204 672.614 1205.34 673.957 1207 673.957L1278 673.957C1279.66 673.957 1281 672.614 1281 670.957L1281 640.898C1281 638.773 1278.85 637.321 1276.88 638.114L1237.5 653.957L1205.95 665.729C1204.78 666.167 1204 667.287 1204 668.54L1204 670.957Z" fill="white" fill-opacity="0.05"/>
<rect width="76.9999" height="76.9999" rx="3" transform="matrix(1 -8.74228e-08 -8.74228e-08 -1 896 827.957)" fill="white" fill-opacity="0.05"/>
<path d="M167.571 497.453C167.223 497.403 166.87 497.5 166.597 497.721L137.101 521.634L166.668 525.909L175.227 527.146L197.136 509.385L205.152 502.886L167.571 497.453Z" fill="white"/>
<path d="M182.76 554.488L185.857 565.729L192.574 560.449L215.29 542.594C215.689 542.28 215.861 541.758 215.726 541.268L207.328 510.785L205.152 502.886L197.136 509.385L175.227 527.146L176.148 530.488L182.76 554.488Z" fill="white"/>
<path d="M185.857 565.729L182.76 554.488L176.148 530.488L175.227 527.146L166.668 525.909L137.101 521.634L145.554 552.318L147.675 560.016C147.81 560.506 148.225 560.866 148.729 560.931L151.287 561.262L185.857 565.729Z" fill="white"/>
<path d="M137.101 521.634L166.597 497.721C166.87 497.5 167.223 497.403 167.571 497.453L205.152 502.886M137.101 521.634L145.554 552.318L147.675 560.016C147.81 560.506 148.225 560.866 148.729 560.931L151.287 561.262L185.857 565.729M137.101 521.634L166.668 525.909L175.227 527.146M205.152 502.886L197.136 509.385L175.227 527.146M205.152 502.886L207.328 510.785L215.726 541.268C215.861 541.758 215.689 542.28 215.29 542.594L192.574 560.449L185.857 565.729M185.857 565.729L182.76 554.488L176.148 530.488L175.227 527.146" stroke="#1E1E1E" stroke-width="2.52092" stroke-linecap="round" stroke-linejoin="round"/>
<g opacity="0.6">
<path d="M281.146 457.978C280.995 457.893 280.816 457.874 280.651 457.926L262.829 463.608L275.628 470.872L279.333 472.975L292.571 468.754L297.414 467.21L281.146 457.978Z" fill="white"/>
<path d="M277.886 486.87L277.291 492.583L281.32 491.365L294.944 487.247C295.183 487.174 295.356 486.965 295.382 486.717L296.995 471.225L297.414 467.21L292.571 468.754L279.333 472.975L279.157 474.673L277.886 486.87Z" fill="white"/>
<path d="M277.291 492.583L277.886 486.87L279.157 474.673L279.333 472.975L275.628 470.872L262.829 463.608L261.205 479.202L260.798 483.115C260.772 483.363 260.898 483.603 261.117 483.723L262.231 484.334L277.291 492.583Z" fill="white"/>
<path d="M262.829 463.608L280.651 457.926C280.816 457.874 280.995 457.893 281.146 457.978L297.414 467.21M262.829 463.608L261.205 479.202L260.798 483.115C260.772 483.363 260.898 483.603 261.117 483.723L262.231 484.334L277.291 492.583M262.829 463.608L275.628 470.872L279.333 472.975M297.414 467.21L292.571 468.754L279.333 472.975M297.414 467.21L296.995 471.225L295.382 486.717C295.356 486.965 295.183 487.174 294.944 487.247L281.32 491.365L277.291 492.583M277.291 492.583L277.886 486.87L279.157 474.673L279.333 472.975" stroke="#1E1E1E" stroke-width="1.24184" stroke-linecap="round" stroke-linejoin="round"/>
</g>
<g opacity="0.8">
<path d="M1154.55 379.209C1154.41 379.188 1154.26 379.229 1154.14 379.322L1141.73 389.389L1154.17 391.189L1157.78 391.709L1167 384.232L1170.37 381.496L1154.55 379.209Z" fill="white"/>
<path d="M1160.95 403.22L1162.25 407.952L1165.08 405.729L1174.64 398.213C1174.81 398.081 1174.88 397.861 1174.83 397.655L1171.29 384.822L1170.37 381.496L1167 384.232L1157.78 391.709L1158.16 393.116L1160.95 403.22Z" fill="white"/>
<path d="M1162.25 407.952L1160.95 403.22L1158.16 393.116L1157.78 391.709L1154.17 391.189L1141.73 389.389L1145.29 402.306L1146.18 405.547C1146.23 405.753 1146.41 405.905 1146.62 405.932L1147.7 406.072L1162.25 407.952Z" fill="white"/>
<path d="M1141.73 389.389L1154.14 379.322C1154.26 379.229 1154.41 379.188 1154.55 379.209L1170.37 381.496M1141.73 389.389L1145.29 402.306L1146.18 405.547C1146.23 405.753 1146.41 405.905 1146.62 405.932L1147.7 406.072L1162.25 407.952M1141.73 389.389L1154.17 391.189L1157.78 391.709M1170.37 381.496L1167 384.232L1157.78 391.709M1170.37 381.496L1171.29 384.822L1174.83 397.655C1174.88 397.861 1174.81 398.081 1174.64 398.213L1165.08 405.729L1162.25 407.952M1162.25 407.952L1160.95 403.22L1158.16 393.116L1157.78 391.709" stroke="#1E1E1E" stroke-width="1.06127" stroke-linecap="round" stroke-linejoin="round"/>
</g>
<path opacity="0.8" d="M1244.38 437.617L1268.67 417.922C1268.9 417.739 1269.19 417.659 1269.47 417.701L1300.43 422.176M1244.38 437.617L1251.34 462.89L1253.09 469.231C1253.2 469.634 1253.54 469.931 1253.96 469.985L1256.06 470.257L1284.54 473.936M1244.38 437.617L1268.73 441.138L1275.78 442.158M1300.43 422.176L1293.83 427.528L1275.78 442.158M1300.43 422.176L1302.22 428.682L1309.14 453.789C1309.25 454.193 1309.11 454.623 1308.78 454.881L1290.07 469.588L1284.54 473.936M1284.54 473.936L1281.99 464.678L1276.54 444.91L1275.78 442.158" stroke="#1E1E1E" stroke-width="2.07638" stroke-linecap="round" stroke-linejoin="round"/>
<path fill-rule="evenodd" clip-rule="evenodd" d="M1321.97 695.488L1373.42 675.783L1384.43 684.581L1382.97 690.037L1372.47 729.223L1367.55 747.575L1322.65 712.787L1319.32 710.213C1318.67 709.706 1318.38 708.857 1318.6 708.058L1321.97 695.488ZM1443.04 688.058L1429.71 737.829C1429.49 738.628 1428.82 739.221 1428 739.333L1381.35 745.694L1443.04 688.058Z" fill="white"/>
<path d="M1335.39 645.391L1321.97 695.488M1335.39 645.391L1373.42 675.783M1335.39 645.391L1396.57 636.106M1446.5 675.162L1429.87 677.685M1446.5 675.162L1443.04 688.058M1446.5 675.162L1398.16 636.533M1367.55 747.575L1372.47 729.223M1367.55 747.575L1381.35 745.694M1367.55 747.575L1322.65 712.787M1384.43 684.581L1429.87 677.685M1384.43 684.581L1373.42 675.783M1384.43 684.581L1382.97 690.037M1372.47 729.223L1429.87 677.685M1372.47 729.223L1382.97 690.037M1381.35 745.694L1443.04 688.058M1381.35 745.694L1428 739.333M1443.04 688.058L1429.71 737.829M1321.97 695.488L1373.42 675.783M1321.97 695.488L1318.6 708.058M1322.65 712.787L1382.97 690.037M1322.65 712.787L1319.32 710.213M1396.57 636.106C1397.13 636.02 1397.71 636.175 1398.16 636.533M1396.57 636.106V636.106C1397.13 636.02 1397.71 636.175 1398.16 636.533V636.533M1429.71 737.829C1429.49 738.628 1428.82 739.221 1428 739.333M1429.71 737.829V737.829C1429.49 738.628 1428.82 739.221 1428 739.333V739.333M1319.32 710.213C1318.67 709.706 1318.38 708.857 1318.6 708.058M1319.32 710.213V710.213C1318.67 709.706 1318.38 708.857 1318.6 708.058V708.058" stroke="#1E1E1E" stroke-width="4.10811" stroke-linecap="round" stroke-linejoin="round"/>
<g opacity="0.8">
<path fill-rule="evenodd" clip-rule="evenodd" d="M1321.97 695.488L1373.42 675.783L1384.43 684.581L1382.97 690.037L1372.47 729.223L1367.55 747.575L1322.65 712.787L1319.32 710.213C1318.67 709.706 1318.38 708.857 1318.6 708.058L1321.97 695.488ZM1443.04 688.058L1429.71 737.829C1429.49 738.628 1428.82 739.221 1428 739.333L1381.35 745.694L1443.04 688.058Z" fill="white"/>
<path d="M1335.39 645.391L1321.97 695.488M1335.39 645.391L1373.42 675.783M1335.39 645.391L1396.57 636.106M1446.5 675.162L1429.87 677.685M1446.5 675.162L1443.04 688.058M1446.5 675.162L1398.16 636.533M1367.55 747.575L1372.47 729.223M1367.55 747.575L1381.35 745.694M1367.55 747.575L1322.65 712.787M1384.43 684.581L1429.87 677.685M1384.43 684.581L1373.42 675.783M1384.43 684.581L1382.97 690.037M1372.47 729.223L1429.87 677.685M1372.47 729.223L1382.97 690.037M1381.35 745.694L1443.04 688.058M1381.35 745.694L1428 739.333M1443.04 688.058L1429.71 737.829M1321.97 695.488L1373.42 675.783M1321.97 695.488L1318.6 708.058M1322.65 712.787L1382.97 690.037M1322.65 712.787L1319.32 710.213M1396.57 636.106C1397.13 636.02 1397.71 636.175 1398.16 636.533M1396.57 636.106V636.106C1397.13 636.02 1397.71 636.175 1398.16 636.533V636.533M1429.71 737.829C1429.49 738.628 1428.82 739.221 1428 739.333M1429.71 737.829V737.829C1429.49 738.628 1428.82 739.221 1428 739.333V739.333M1319.32 710.213C1318.67 709.706 1318.38 708.857 1318.6 708.058M1319.32 710.213V710.213C1318.67 709.706 1318.38 708.857 1318.6 708.058V708.058" stroke="#1E1E1E" stroke-width="4.10811" stroke-linecap="round" stroke-linejoin="round"/>
</g>
<path d="M181.281 705.72C180.667 705.677 180.061 705.891 179.612 706.313L131.054 751.859L183.3 755.597L198.424 756.679L234.492 722.848L247.688 710.471L181.281 705.72Z" fill="#0CA5E9"/>
<path d="M131.054 751.859L149.715 804.449L183.3 755.597L131.054 751.859Z" fill="#0CA5E9"/>
<path d="M234.492 722.848L198.424 756.679L200.457 762.406L215.054 803.541L234.492 722.848Z" fill="#0CA5E9"/>
<path d="M215.054 803.541L221.89 822.806L232.969 812.724L252.492 724.009L247.688 710.471L234.492 722.848L215.054 803.541Z" fill="#C2FCF6"/>
<path d="M221.89 822.806L215.054 803.541L200.457 762.406L180.664 790.886L160.871 819.365L221.89 822.806Z" fill="white"/>
<path d="M232.969 812.724L270.436 778.629C271.095 778.029 271.329 777.094 271.032 776.255L252.492 724.009L232.969 812.724Z" fill="white"/>
<path d="M149.715 804.449L154.398 817.643C154.695 818.482 155.467 819.061 156.356 819.111L160.871 819.365L180.664 790.886L200.457 762.406L198.424 756.679L183.3 755.597L149.715 804.449Z" fill="white"/>
<path d="M131.054 751.859L179.612 706.313C180.061 705.891 180.667 705.677 181.281 705.72L247.688 710.471M131.054 751.859L149.715 804.449M131.054 751.859L183.3 755.597M247.688 710.471L234.492 722.848M247.688 710.471L252.492 724.009M221.89 822.806L215.054 803.541M221.89 822.806L232.969 812.724M221.89 822.806L160.871 819.365M198.424 756.679L234.492 722.848M198.424 756.679L183.3 755.597M198.424 756.679L200.457 762.406M215.054 803.541L234.492 722.848M215.054 803.541L200.457 762.406M232.969 812.724L270.436 778.629C271.095 778.03 271.329 777.094 271.032 776.255L252.492 724.009M232.969 812.724L252.492 724.009M149.715 804.449L154.398 817.643C154.695 818.482 155.467 819.061 156.356 819.111L160.871 819.365M149.715 804.449L183.3 755.597M160.871 819.365L180.664 790.886L200.457 762.406" stroke="#1E1E1E" stroke-width="4.41999" stroke-linecap="round" stroke-linejoin="round"/>
<path d="M1189.39 837.633C1189.08 837.385 1188.68 837.279 1188.29 837.338L1146.04 843.751L1172.3 864.742L1179.91 870.819L1211.29 866.056L1222.77 864.313L1189.39 837.633Z" fill="white"/>
<path d="M1171.65 901.652L1168.25 914.327L1177.78 913.028L1210 908.634C1210.56 908.557 1211.03 908.148 1211.18 907.596L1220.39 873.22L1222.77 864.313L1211.29 866.056L1179.91 870.819L1178.9 874.587L1171.65 901.652Z" fill="white"/>
<path d="M1168.25 914.327L1171.65 901.652L1178.9 874.587L1179.91 870.819L1172.3 864.742L1146.04 843.751L1136.76 878.352L1134.44 887.033C1134.29 887.585 1134.49 888.172 1134.94 888.522L1137.23 890.3L1168.25 914.327Z" fill="white"/>
<path d="M1146.04 843.751L1188.29 837.338C1188.68 837.279 1189.08 837.385 1189.39 837.633L1222.77 864.313M1146.04 843.751L1136.76 878.352L1134.44 887.033C1134.29 887.585 1134.49 888.172 1134.94 888.522L1137.23 890.3L1168.25 914.327M1146.04 843.751L1172.3 864.742L1179.91 870.819M1222.77 864.313L1211.29 866.056L1179.91 870.819M1222.77 864.313L1220.39 873.22L1211.18 907.596C1211.03 908.148 1210.56 908.557 1210 908.634L1177.78 913.028L1168.25 914.327M1168.25 914.327L1171.65 901.652L1178.9 874.587L1179.91 870.819" stroke="#1E1E1E" stroke-width="2.83738" stroke-linecap="round" stroke-linejoin="round"/>
</g>
<g clip-path="url(#clip1_166_20320)">
<rect width="1512" height="644" transform="translate(0 905)" fill="url(#paint0_linear_166_20320)"/>
<g opacity="0.8">
<path d="M1362.07 1103.67C1361.9 1103.48 1361.66 1103.38 1361.4 1103.38L1333.95 1103.43L1348.64 1119.27L1352.89 1123.85L1373.28 1123.81L1380.74 1123.8L1362.07 1103.67Z" fill="white"/>
<path d="M1344.7 1142.65L1341.34 1150.38L1347.51 1150.46L1368.4 1150.74C1368.77 1150.74 1369.1 1150.53 1369.25 1150.19L1378.38 1129.23L1380.74 1123.8L1373.28 1123.81L1352.89 1123.85L1351.89 1126.15L1344.7 1142.65Z" fill="white"/>
<path d="M1341.34 1150.38L1344.7 1142.65L1351.89 1126.15L1352.89 1123.85L1348.64 1119.27L1333.95 1103.43L1324.76 1124.53L1322.46 1129.82C1322.31 1130.16 1322.38 1130.55 1322.63 1130.81L1323.92 1132.16L1341.34 1150.38Z" fill="white"/>
<path d="M1333.95 1103.43L1361.4 1103.38C1361.66 1103.38 1361.9 1103.48 1362.07 1103.67L1380.74 1123.8M1333.95 1103.43L1324.76 1124.53L1322.46 1129.82C1322.31 1130.16 1322.38 1130.55 1322.63 1130.81L1323.92 1132.16L1341.34 1150.38M1333.95 1103.43L1348.64 1119.27L1352.89 1123.85M1380.74 1123.8L1373.28 1123.81L1352.89 1123.85M1380.74 1123.8L1378.38 1129.23L1369.25 1150.19C1369.1 1150.53 1368.77 1150.74 1368.4 1150.74L1347.51 1150.46L1341.34 1150.38M1341.34 1150.38L1344.7 1142.65L1351.89 1126.15L1352.89 1123.85" stroke="#1E1E1E" stroke-width="1.82269" stroke-linecap="round" stroke-linejoin="round"/>
</g>
<rect width="76.9999" height="76.9999" rx="3" transform="matrix(1 -8.74228e-08 -8.74228e-08 -1 77 982.129)" fill="white" fill-opacity="0.15"/>
<rect x="1435" y="982.129" width="77" height="77" rx="3" transform="rotate(-180 1435 982.129)" fill="white" fill-opacity="0.15"/>
<rect width="76.9999" height="76.9999" rx="3" transform="matrix(1 -8.74228e-08 -8.74228e-08 -1 0 1059.13)" fill="white" fill-opacity="0.1"/>
<rect x="1512" y="1059.13" width="77" height="77" rx="3" transform="rotate(-180 1512 1059.13)" fill="white" fill-opacity="0.1"/>
<rect width="76.9999" height="76.9999" rx="3" transform="matrix(1 -8.74228e-08 -8.74228e-08 -1 154 1059.13)" fill="white" fill-opacity="0.05"/>
<rect x="1359" y="1059.13" width="77" height="77" rx="3" transform="rotate(-180 1359 1059.13)" fill="white" fill-opacity="0.05"/>
<rect width="76.9999" height="76.9999" rx="3" transform="matrix(1 -8.74228e-08 -8.74228e-08 -1 77 1136.13)" fill="white" fill-opacity="0.1"/>
<rect x="1436" y="1136.13" width="77" height="77" rx="3" transform="rotate(-180 1436 1136.13)" fill="white" fill-opacity="0.1"/>
<rect width="76.9999" height="76.9999" rx="3" transform="matrix(1 -8.74228e-08 -8.74228e-08 -1 231 982.129)" fill="white" fill-opacity="0.05"/>
<rect x="1282" y="982.129" width="77" height="77" rx="3" transform="rotate(-180 1282 982.129)" fill="white" fill-opacity="0.05"/>
<rect width="76.9999" height="76.9999" rx="3" transform="matrix(1 -8.74228e-08 -8.74228e-08 -1 385 982.129)" fill="white" fill-opacity="0.02"/>
<rect x="1129" y="982.129" width="77" height="77" rx="3" transform="rotate(-180 1129 982.129)" fill="white" fill-opacity="0.05"/>
<rect width="76.9999" height="76.9999" rx="3" transform="matrix(1 -8.74228e-08 -8.74228e-08 -1 308 1059.13)" fill="white" fill-opacity="0.05"/>
<rect x="1206" y="1059.13" width="77" height="77" rx="3" transform="rotate(-180 1206 1059.13)" fill="white" fill-opacity="0.05"/>
<rect width="76.9999" height="76.9999" rx="3" transform="matrix(1 -8.74228e-08 -8.74228e-08 -1 231 1136.13)" fill="white" fill-opacity="0.05"/>
<rect x="1282" y="1136.13" width="77" height="77" rx="3" transform="rotate(-180 1282 1136.13)" fill="white" fill-opacity="0.05"/>
<rect width="76.9999" height="76.9999" rx="3" transform="matrix(1 -8.74228e-08 -8.74228e-08 -1 154 1213.13)" fill="white" fill-opacity="0.1"/>
<rect width="76.9999" height="76.9999" rx="3" transform="matrix(1 -8.74228e-08 -8.74228e-08 -1 312 1213.13)" fill="white" fill-opacity="0.04"/>
<rect x="1359" y="1213.13" width="77" height="77" rx="3" transform="rotate(-180 1359 1213.13)" fill="white" fill-opacity="0.1"/>
<rect x="1206" y="1213.13" width="77" height="77" rx="3" transform="rotate(-180 1206 1213.13)" fill="white" fill-opacity="0.05"/>
<rect width="76.9999" height="76.9999" rx="3" transform="matrix(1 -8.74228e-08 -8.74228e-08 -1 0 1213.13)" fill="white" fill-opacity="0.1"/>
<rect width="76.9999" height="76.9999" rx="3" transform="matrix(1 -8.74228e-08 -8.74228e-08 -1 77 1290)" fill="white" fill-opacity="0.05"/>
<rect width="76.9999" height="76.9999" rx="3" transform="matrix(1 -8.74228e-08 -8.74228e-08 -1 231 1290)" fill="white" fill-opacity="0.05"/>
<rect x="1512" y="1213.13" width="77" height="77" rx="3" transform="rotate(-180 1512 1213.13)" fill="white" fill-opacity="0.1"/>
<rect x="1435" y="1291" width="77" height="77" rx="3" transform="rotate(-180 1435 1291)" fill="white" fill-opacity="0.05"/>
<rect x="1359" y="1368" width="77" height="77" rx="3" transform="rotate(-180 1359 1368)" fill="white" fill-opacity="0.05"/>
<rect x="1435" y="1445" width="77" height="77" rx="3" transform="rotate(-180 1435 1445)" fill="white" fill-opacity="0.05"/>
<rect x="1512" y="1368" width="77" height="77" rx="3" transform="rotate(-180 1512 1368)" fill="white" fill-opacity="0.05"/>
<rect x="1282" y="1291" width="77" height="77" rx="3" transform="rotate(-180 1282 1291)" fill="white" fill-opacity="0.05"/>
<g opacity="0.8">
<path d="M349.121 906.771C348.866 906.735 348.606 906.806 348.406 906.968L326.76 924.517L348.458 927.654L354.74 928.563L370.818 915.528L376.7 910.759L349.121 906.771Z" fill="white"/>
<path d="M360.268 948.628L362.54 956.877L367.47 953.003L384.14 939.899C384.433 939.669 384.559 939.286 384.46 938.926L378.297 916.555L376.7 910.759L370.818 915.528L354.74 928.563L355.415 931.015L360.268 948.628Z" fill="white"/>
<path d="M362.54 956.877L360.268 948.628L355.415 931.015L354.74 928.563L348.458 927.654L326.76 924.517L332.963 947.035L334.52 952.685C334.619 953.044 334.924 953.309 335.293 953.357L337.17 953.599L362.54 956.877Z" fill="white"/>
<path d="M326.76 924.517L348.406 906.968C348.606 906.806 348.866 906.735 349.121 906.771L376.7 910.759M326.76 924.517L332.963 947.035L334.52 952.685C334.619 953.044 334.924 953.309 335.293 953.357L337.17 953.599L362.54 956.877M326.76 924.517L348.458 927.654L354.74 928.563M376.7 910.759L370.818 915.528L354.74 928.563M376.7 910.759L378.297 916.555L384.46 938.926C384.559 939.286 384.433 939.669 384.14 939.899L367.47 953.003L362.54 956.877M362.54 956.877L360.268 948.628L355.415 931.015L354.74 928.563" stroke="#1E1E1E" stroke-width="1.85005" stroke-linecap="round" stroke-linejoin="round"/>
</g>
<g opacity="0.8">
<path d="M134.668 1207.26C134.458 1207.26 134.256 1207.34 134.11 1207.49L118.282 1223.63L136.059 1224.15L141.205 1224.31L152.961 1212.32L157.262 1207.93L134.668 1207.26Z" fill="white"/>
<path d="M147.51 1239.97L150.102 1246.41L153.718 1242.83L165.945 1230.73C166.16 1230.52 166.226 1230.2 166.113 1229.92L159.084 1212.46L157.262 1207.93L152.961 1212.32L141.205 1224.31L141.976 1226.22L147.51 1239.97Z" fill="white"/>
<path d="M150.102 1246.41L147.51 1239.97L141.976 1226.22L141.205 1224.31L136.059 1224.15L118.282 1223.63L125.358 1241.2L127.133 1245.61C127.246 1245.89 127.516 1246.08 127.818 1246.08L129.354 1246.1L150.102 1246.41Z" fill="white"/>
<path d="M118.282 1223.63L134.11 1207.49C134.256 1207.34 134.458 1207.26 134.668 1207.26L157.262 1207.93M118.282 1223.63L125.358 1241.2L127.133 1245.61C127.246 1245.89 127.516 1246.08 127.818 1246.08L129.354 1246.1L150.102 1246.41M118.282 1223.63L136.059 1224.15L141.205 1224.31M157.262 1207.93L152.961 1212.32L141.205 1224.31M157.262 1207.93L159.084 1212.46L166.113 1229.92C166.226 1230.2 166.16 1230.52 165.945 1230.73L153.718 1242.83L150.102 1246.41M150.102 1246.41L147.51 1239.97L141.976 1226.22L141.205 1224.31" stroke="#1E1E1E" stroke-width="1.50071" stroke-linecap="round" stroke-linejoin="round"/>
</g>
<g opacity="0.9">
<path d="M1189.39 837.633C1189.08 837.385 1188.68 837.279 1188.29 837.338L1146.04 843.751L1172.3 864.742L1179.91 870.819L1211.29 866.056L1222.77 864.313L1189.39 837.633Z" fill="white"/>
<path d="M1171.65 901.652L1168.25 914.327L1177.78 913.028L1210 908.634C1210.56 908.557 1211.03 908.148 1211.18 907.596L1220.39 873.22L1222.77 864.313L1211.29 866.056L1179.91 870.819L1178.9 874.587L1171.65 901.652Z" fill="white"/>
<path d="M1168.25 914.327L1171.65 901.652L1178.9 874.587L1179.91 870.819L1172.3 864.742L1146.04 843.751L1136.76 878.352L1134.44 887.033C1134.29 887.585 1134.49 888.172 1134.94 888.522L1137.23 890.3L1168.25 914.327Z" fill="white"/>
<path d="M1146.04 843.751L1188.29 837.338C1188.68 837.279 1189.08 837.385 1189.39 837.633L1222.77 864.313M1146.04 843.751L1136.76 878.352L1134.44 887.033C1134.29 887.585 1134.49 888.172 1134.94 888.522L1137.23 890.3L1168.25 914.327M1146.04 843.751L1172.3 864.742L1179.91 870.819M1222.77 864.313L1211.29 866.056L1179.91 870.819M1222.77 864.313L1220.39 873.22L1211.18 907.596C1211.03 908.148 1210.56 908.557 1210 908.634L1177.78 913.028L1168.25 914.327M1168.25 914.327L1171.65 901.652L1178.9 874.587L1179.91 870.819" stroke="#1E1E1E" stroke-width="2.83738" stroke-linecap="round" stroke-linejoin="round"/>
</g>
</g>
<defs>
<linearGradient id="paint0_linear_166_20320" x1="756" y1="0" x2="756" y2="644" gradientUnits="userSpaceOnUse">
<stop stop-color="#4DBDEF"/>
<stop offset="1" stop-color="#F8FEFF"/>
</linearGradient>
<clipPath id="clip0_166_20320">
<rect width="1512" height="905" fill="white"/>
</clipPath>
<clipPath id="clip1_166_20320">
<rect width="1512" height="644" fill="white" transform="translate(0 905)"/>
</clipPath>
</defs>
</svg>
