<?xml version="1.0" encoding="UTF-8"?>
<!DOCTYPE svg PUBLIC "-//W3C//DTD SVG 1.1//EN" "http://www.w3.org/Graphics/SVG/1.1/DTD/svg11.dtd">
<svg xmlns="http://www.w3.org/2000/svg" version="1.1" width="4230px" height="1500px" style="shape-rendering:geometricPrecision; text-rendering:geometricPrecision; image-rendering:optimizeQuality; fill-rule:evenodd; clip-rule:evenodd" xmlns:xlink="http://www.w3.org/1999/xlink">
<g><path style="opacity:0.986" fill="#1e1e1e" d="M 913.5,458.5 C 917.247,458.392 920.914,458.892 924.5,460C 1017.83,501 1111.17,542 1204.5,583C 1205.46,584.419 1206.29,585.919 1207,587.5C 1207.67,695.167 1207.67,802.833 1207,910.5C 1204.54,919.631 1198.7,925.465 1189.5,928C 1098.82,966.227 1007.98,1004.06 917,1041.5C 822.603,1002.59 728.436,963.089 634.5,923C 630.619,920.072 628.119,916.239 627,911.5C 626.333,803.5 626.333,695.5 627,587.5C 627.667,586.167 628.333,584.833 629,583.5C 723.742,541.373 818.575,499.707 913.5,458.5 Z M 1185.5,693.5 C 1186.83,764.334 1186.83,835.334 1185.5,906.5C 1125.95,931.951 1066.28,956.784 1006.5,981C 1066.3,885.223 1125.97,789.389 1185.5,693.5 Z M 855.5,697.5 C 872.054,705.021 888.721,712.354 905.5,719.5C 906.663,724.802 906.829,730.136 906,735.5C 824.159,794.418 742.159,853.084 660,911.5C 656.043,910.125 652.209,908.458 648.5,906.5C 647.334,887.175 647.167,867.842 648,848.5C 717.145,798.023 786.312,747.69 855.5,697.5 Z M 905.5,761.5 C 906.832,845.668 906.832,930.001 905.5,1014.5C 831.355,983.591 757.355,952.425 683.5,921C 757.743,868.057 831.743,814.89 905.5,761.5 Z"/></g>
<g><path style="opacity:1" fill="#0ca4e8" d="M 914.5,479.5 C 919.428,480.128 924.095,481.628 928.5,484C 1009.65,519.409 1090.65,555.076 1171.5,591C 1087.05,627.725 1002.72,664.725 918.5,702C 833.045,665.614 747.712,628.614 662.5,591C 746.609,553.915 830.609,516.748 914.5,479.5 Z"/></g>
<g><path style="opacity:0.993" fill="#1e1e1e" d="M 1510.5,529.5 C 1535.5,529.5 1560.5,529.5 1585.5,529.5C 1585.67,565.502 1585.5,601.502 1585,637.5C 1584.4,648.859 1583.56,660.192 1582.5,671.5C 1584.39,671.703 1585.89,671.037 1587,669.5C 1602.06,647.706 1622.9,635.206 1649.5,632C 1678.32,628.096 1704.99,633.763 1729.5,649C 1750.67,667.17 1761.83,690.337 1763,718.5C 1763.5,782.166 1763.67,845.832 1763.5,909.5C 1738.5,909.5 1713.5,909.5 1688.5,909.5C 1688.67,854.832 1688.5,800.166 1688,745.5C 1687.59,702.41 1666.43,685.243 1624.5,694C 1606.16,701.01 1595,714.177 1591,733.5C 1587.86,747.319 1586.19,761.319 1586,775.5C 1585.5,820.165 1585.33,864.832 1585.5,909.5C 1560.5,909.5 1535.5,909.5 1510.5,909.5C 1510.5,782.833 1510.5,656.167 1510.5,529.5 Z"/></g>
<g><path style="opacity:0.993" fill="#1d1e1d" d="M 2134.5,529.5 C 2159.5,529.5 2184.5,529.5 2209.5,529.5C 2209.5,656.167 2209.5,782.833 2209.5,909.5C 2184.5,909.5 2159.5,909.5 2134.5,909.5C 2134.5,782.833 2134.5,656.167 2134.5,529.5 Z"/></g>
<g><path style="opacity:0.991" fill="#1e1e1e" d="M 2313.5,529.5 C 2328.6,527.311 2342.6,530.144 2355.5,538C 2360.62,542.74 2363.79,548.573 2365,555.5C 2365.67,562.167 2365.67,568.833 2365,575.5C 2364,584.334 2359.84,591.168 2352.5,596C 2337.37,603.038 2321.7,604.371 2305.5,600C 2289.9,594.149 2282.56,582.815 2283.5,566C 2283.52,545.404 2293.52,533.238 2313.5,529.5 Z"/></g>
<g><path style="opacity:1" fill="#156082" d="M 647.5,606.5 C 647.167,678.669 647.501,750.669 648.5,822.5C 648.44,823.043 648.107,823.376 647.5,823.5C 646.168,751.001 646.168,678.668 647.5,606.5 Z"/></g>
<g><path style="opacity:1" fill="#0ca4e8" d="M 647.5,606.5 C 709.626,633.397 771.626,660.563 833.5,688C 771.955,733.052 710.288,777.885 648.5,822.5C 647.501,750.669 647.167,678.669 647.5,606.5 Z"/></g>
<g><path style="opacity:1" fill="#c0faf4" d="M 1184.5,606.5 C 1185.5,606.5 1186.5,606.5 1187.5,606.5C 1187.67,622.17 1187.5,637.837 1187,653.5C 1115.5,767.833 1044,882.167 972.5,996.5C 957.418,1002.64 942.418,1008.97 927.5,1015.5C 926.334,990.507 926.167,965.507 927,940.5C 994.393,838.103 1061.39,735.437 1128,632.5C 1146.84,623.726 1165.67,615.059 1184.5,606.5 Z"/></g>
<g><path style="opacity:0.994" fill="#1e1e1e" d="M 1933.5,631.5 C 1960.03,629.024 1985.69,632.524 2010.5,642C 2042.38,657.226 2062.55,682.06 2071,716.5C 2073.46,727.701 2074.79,739.034 2075,750.5C 2075.5,764.163 2075.67,777.829 2075.5,791.5C 2016.83,791.5 1958.17,791.5 1899.5,791.5C 1901.4,836.537 1924.9,858.87 1970,858.5C 1987.11,858.484 2003.95,856.317 2020.5,852C 2033.75,847.703 2046.75,842.869 2059.5,837.5C 2059.67,856.836 2059.5,876.17 2059,895.5C 2036.75,906.272 2013.25,912.438 1988.5,914C 1952.1,918.441 1917.43,912.774 1884.5,897C 1850.85,876.575 1831.01,846.742 1825,807.5C 1819.51,770.848 1823.18,735.181 1836,700.5C 1855.81,659.669 1888.31,636.669 1933.5,631.5 Z M 1950.5,684.5 C 1977.62,684.46 1994.78,697.46 2002,723.5C 2003.16,729.461 2004,735.461 2004.5,741.5C 1969.83,741.5 1935.17,741.5 1900.5,741.5C 1901.48,726.393 1906.31,712.726 1915,700.5C 1924.88,690.64 1936.71,685.307 1950.5,684.5 Z"/></g>
<g><path style="opacity:0.994" fill="#1e1e1e" d="M 2537.5,631.5 C 2569.13,628.787 2599.8,632.954 2629.5,644C 2634.18,645.672 2638.51,647.839 2642.5,650.5C 2635.57,669.515 2628.24,688.349 2620.5,707C 2606.4,702.302 2592.06,697.969 2577.5,694C 2562.96,690.367 2548.63,691.034 2534.5,696C 2519.29,702.88 2509.46,714.38 2505,730.5C 2497.39,759.936 2497.73,789.269 2506,818.5C 2513.52,838.179 2527.69,849.679 2548.5,853C 2565.13,854.263 2581.47,852.596 2597.5,848C 2610.43,843.179 2622.77,837.346 2634.5,830.5C 2634.67,851.836 2634.5,873.169 2634,894.5C 2616.43,905.578 2597.27,912.078 2576.5,914C 2474.45,923.666 2423.12,877.333 2422.5,775C 2422.19,750.033 2426.36,725.867 2435,702.5C 2451.34,665.899 2479.17,643.399 2518.5,635C 2524.97,633.813 2531.31,632.646 2537.5,631.5 Z"/></g>
<g><path style="opacity:0.994" fill="#1e1e1e" d="M 2793.5,631.5 C 2828.43,627.537 2860.76,634.704 2890.5,653C 2918.71,673.889 2935.87,701.723 2942,736.5C 2949.09,776.341 2944.43,814.674 2928,851.5C 2910.16,884.648 2882.66,904.815 2845.5,912C 2825.55,914.893 2805.55,915.227 2785.5,913C 2738.45,904.559 2706.28,878.059 2689,833.5C 2675.82,790.609 2676.48,747.942 2691,705.5C 2711.04,661.297 2745.21,636.631 2793.5,631.5 Z M 2809.5,691.5 C 2841.2,691.597 2859.7,707.263 2865,738.5C 2870.67,768.393 2868.67,797.726 2859,826.5C 2849.4,845.391 2833.9,854.724 2812.5,854.5C 2785.15,854.245 2767.98,840.912 2761,814.5C 2754.19,783.548 2755.19,752.882 2764,722.5C 2772.71,702.57 2787.88,692.236 2809.5,691.5 Z"/></g>
<g><path style="opacity:0.992" fill="#1e1e1e" d="M 3145.5,631.5 C 3171.25,628.679 3195.58,633.179 3218.5,645C 3243.95,661.718 3257.12,685.551 3258,716.5C 3258.5,780.832 3258.67,845.166 3258.5,909.5C 3233.5,909.5 3208.5,909.5 3183.5,909.5C 3183.67,853.832 3183.5,798.166 3183,742.5C 3181.22,701.061 3160.05,684.894 3119.5,694C 3101.68,699.824 3090.85,711.991 3087,730.5C 3084.5,739.682 3082.83,749.015 3082,758.5C 3081.5,808.832 3081.33,859.166 3081.5,909.5C 3056.17,909.5 3030.83,909.5 3005.5,909.5C 3005.5,818.5 3005.5,727.5 3005.5,636.5C 3024.84,636.333 3044.17,636.5 3063.5,637C 3066.89,647.737 3070.06,658.57 3073,669.5C 3073.39,670.428 3074.05,671.095 3075,671.5C 3092.9,648.461 3116.4,635.128 3145.5,631.5 Z"/></g>
<g><path style="opacity:0.994" fill="#1e1e1e" d="M 3428.5,631.5 C 3455.05,628.888 3480.72,632.388 3505.5,642C 3537.39,657.234 3557.56,682.067 3566,716.5C 3568.27,726.375 3569.6,736.375 3570,746.5C 3570.5,761.496 3570.67,776.496 3570.5,791.5C 3511.83,791.5 3453.17,791.5 3394.5,791.5C 3396.83,836.084 3420.33,858.417 3465,858.5C 3482.11,858.484 3498.95,856.317 3515.5,852C 3528.75,847.703 3541.75,842.869 3554.5,837.5C 3554.67,856.836 3554.5,876.17 3554,895.5C 3535.22,904.758 3515.39,910.591 3494.5,913C 3469.06,915.52 3443.73,914.853 3418.5,911C 3366.96,899.792 3334.79,868.625 3322,817.5C 3314.83,780.647 3316.83,744.313 3328,708.5C 3346.4,663.208 3379.9,637.541 3428.5,631.5 Z M 3445.5,684.5 C 3470.96,683.963 3487.79,695.629 3496,719.5C 3497.98,726.706 3499.15,734.039 3499.5,741.5C 3464.83,741.5 3430.17,741.5 3395.5,741.5C 3396.27,722.463 3403.61,706.63 3417.5,694C 3426.16,688.502 3435.5,685.335 3445.5,684.5 Z"/></g>
<g><path style="opacity:0.992" fill="#1e1e1e" d="M 2286.5,636.5 C 2311.83,636.5 2337.17,636.5 2362.5,636.5C 2362.5,727.5 2362.5,818.5 2362.5,909.5C 2337.17,909.5 2311.83,909.5 2286.5,909.5C 2286.5,818.5 2286.5,727.5 2286.5,636.5 Z"/></g>
<g><path style="opacity:1" fill="#0ca4e8" d="M 928.5,902.5 C 927.501,841.669 927.168,780.669 927.5,719.5C 983.308,694.629 1039.31,670.462 1095.5,647C 1039.61,732.049 983.944,817.216 928.5,902.5 Z"/></g>
<g><path style="opacity:1" fill="#156082" d="M 927.5,719.5 C 927.168,780.669 927.501,841.669 928.5,902.5C 928.217,903.289 927.717,903.956 927,904.5C 926.168,842.665 926.335,780.999 927.5,719.5 Z"/></g>
</svg>
