<svg width="611" height="132" viewBox="0 0 611 132" fill="none" xmlns="http://www.w3.org/2000/svg">
<path d="M67.6232 4.90222C66.3086 4.32706 64.8135 4.32706 63.4988 4.90222L4 30.9329L51.7412 51.8197L65.561 57.8659L110.632 38.1471L127.122 30.9329L67.6232 4.90222Z" fill="#F8FEFF"/>
<path d="M4 30.9329V86.4478L51.7412 51.8197L4 30.9329Z" fill="#F8FEFF"/>
<path d="M110.632 38.1471L65.561 57.8659V63.9121V107.335L110.632 38.1471Z" fill="#F8FEFF"/>
<path d="M65.561 107.335V127.672L79.3023 121.905L127.122 45.2239V30.9329L110.632 38.1471L65.561 107.335Z" fill="#F8FEFF"/>
<path d="M65.561 127.672V107.335V63.9121L9.49652 104.145L65.561 127.672Z" fill="#F8FEFF"/>
<path d="M4 86.4478V98.4174C4 100.49 5.24326 102.36 7.15413 103.162L9.49652 104.145L65.561 63.9121V57.8659L51.7412 51.8197L4 86.4478Z" fill="#F8FEFF"/>
<path d="M79.3023 121.905L123.968 103.162C125.879 102.36 127.122 100.49 127.122 98.4174V45.2239L79.3023 121.905Z" fill="#F8FEFF"/>
<path d="M4 30.9329L63.4988 4.90222C64.8135 4.32706 66.3086 4.32706 67.6232 4.90222L127.122 30.9329M4 30.9329V86.4478M4 30.9329L51.7412 51.8197M127.122 30.9329L110.632 38.1471M127.122 30.9329V45.2239M65.561 127.672V107.335M65.561 127.672L79.3023 121.905M65.561 127.672L9.49652 104.145M65.561 57.8659L110.632 38.1471M65.561 57.8659L51.7412 51.8197M65.561 57.8659V63.9121M65.561 107.335L110.632 38.1471M65.561 107.335V63.9121M79.3023 121.905L123.968 103.162C125.879 102.36 127.122 100.49 127.122 98.4174V45.2239M79.3023 121.905L127.122 45.2239M4 86.4478V98.4174C4 100.49 5.24326 102.36 7.15413 103.162L9.49652 104.145M4 86.4478L51.7412 51.8197M9.49652 104.145L65.561 63.9121" stroke="#F8FEFF" stroke-width="4.39721" stroke-linecap="round" stroke-linejoin="round"/>
<path d="M66.536 10.0929C66.025 9.86932 65.4438 9.86932 64.9327 10.0929L9.73438 34.2422L53.1629 53.2422L65.7344 58.7422L106.734 40.8047L121.734 34.2422L66.536 10.0929Z" fill="#0CA5E9"/>
<path d="M9.73438 34.2422V84.7422L53.1629 53.2422L9.73438 34.2422Z" fill="#0CA5E9"/>
<path d="M106.734 40.8047L65.7344 58.7422V64.2422V103.742L106.734 40.8047Z" fill="#0CA5E9"/>
<path d="M65.7344 103.742V122.242L78.2344 116.997L121.734 47.2422V34.2422L106.734 40.8047L65.7344 103.742Z" fill="#C2FCF6"/>
<path d="M65.7344 122.242V103.742V64.2422L14.7344 100.84L65.7344 122.242Z" fill="#F8FEFF"/>
<path d="M9.73438 84.7422V97.4125C9.73438 98.2181 10.2177 98.945 10.9605 99.2567L14.7344 100.84L65.7344 64.2422V58.7422L53.1629 53.2422L9.73438 84.7422Z" fill="#F8FEFF"/>
<path d="M78.2344 116.997L120.508 99.2567C121.251 98.945 121.734 98.2181 121.734 97.4125V47.2422L78.2344 116.997Z" fill="#F8FEFF"/>
<path d="M9.73438 34.2422L64.9327 10.0929C65.4438 9.86932 66.025 9.86932 66.536 10.0929L121.734 34.2422M9.73438 34.2422V84.7422M9.73438 34.2422L53.1629 53.2422M121.734 34.2422L106.734 40.8047M121.734 34.2422V47.2422M65.7344 122.242V103.742M65.7344 122.242L78.2344 116.997M65.7344 122.242L14.7344 100.84M65.7344 58.7422L106.734 40.8047M65.7344 58.7422L53.1629 53.2422M65.7344 58.7422V64.2422M65.7344 103.742L106.734 40.8047M65.7344 103.742V64.2422M78.2344 116.997L120.508 99.2567C121.251 98.945 121.734 98.2181 121.734 97.4125V47.2422M78.2344 116.997L121.734 47.2422M9.73438 84.7422V97.4125C9.73438 98.2181 10.2177 98.945 10.9605 99.2567L14.7344 100.84M9.73438 84.7422L53.1629 53.2422M14.7344 100.84L65.7344 64.2422" stroke="#1E1E1E" stroke-width="4" stroke-linecap="round" stroke-linejoin="round"/>
<path d="M204.822 37.3359C204.822 40.0026 204.722 42.5693 204.522 45.0359C204.389 47.5026 204.255 49.2359 204.122 50.2359H204.922C206.122 48.3693 207.522 46.8693 209.122 45.7359C210.722 44.5359 212.489 43.6693 214.422 43.1359C216.422 42.5359 218.522 42.2359 220.722 42.2359C224.655 42.2359 228.089 42.9359 231.022 44.3359C233.955 45.7359 236.222 47.9026 237.822 50.8359C239.489 53.7693 240.322 57.5693 240.322 62.2359V97.8359H225.422V65.9359C225.422 62.0026 224.689 59.0693 223.222 57.1359C221.822 55.1359 219.622 54.1359 216.622 54.1359C213.622 54.1359 211.255 54.8359 209.522 56.2359C207.855 57.6359 206.655 59.6693 205.922 62.3359C205.189 65.0026 204.822 68.2693 204.822 72.1359V97.8359H189.922V21.8359H204.822V37.3359ZM278.145 42.2359C283.211 42.2359 287.545 43.2026 291.145 45.1359C294.811 47.0693 297.645 49.8693 299.645 53.5359C301.645 57.2026 302.645 61.7026 302.645 67.0359V74.2359H267.445C267.578 78.4359 268.811 81.7359 271.145 84.1359C273.545 86.5359 276.845 87.7359 281.045 87.7359C284.578 87.7359 287.778 87.4026 290.645 86.7359C293.511 86.0026 296.478 84.9026 299.545 83.4359V94.9359C296.878 96.2693 294.045 97.2359 291.045 97.8359C288.111 98.5026 284.545 98.8359 280.345 98.8359C274.878 98.8359 270.045 97.8359 265.845 95.8359C261.645 93.7693 258.345 90.6693 255.945 86.5359C253.545 82.4026 252.345 77.2026 252.345 70.9359C252.345 64.5359 253.411 59.2359 255.545 55.0359C257.745 50.7693 260.778 47.5693 264.645 45.4359C268.511 43.3026 273.011 42.2359 278.145 42.2359ZM278.245 52.8359C275.378 52.8359 272.978 53.7693 271.045 55.6359C269.178 57.5026 268.078 60.4026 267.745 64.3359H288.645C288.645 62.1359 288.245 60.1693 287.445 58.4359C286.711 56.7026 285.578 55.3359 284.045 54.3359C282.511 53.3359 280.578 52.8359 278.245 52.8359ZM329.627 97.8359H314.727V21.8359H329.627V97.8359ZM360.096 43.2359V97.8359H345.196V43.2359H360.096ZM352.696 21.8359C354.896 21.8359 356.796 22.3693 358.396 23.4359C359.996 24.4359 360.796 26.3359 360.796 29.1359C360.796 31.8693 359.996 33.7693 358.396 34.8359C356.796 35.9026 354.896 36.4359 352.696 36.4359C350.429 36.4359 348.496 35.9026 346.896 34.8359C345.362 33.7693 344.596 31.8693 344.596 29.1359C344.596 26.3359 345.362 24.4359 346.896 23.4359C348.496 22.3693 350.429 21.8359 352.696 21.8359ZM397.864 98.8359C392.464 98.8359 387.864 97.8693 384.064 95.9359C380.264 93.9359 377.364 90.8693 375.364 86.7359C373.364 82.6026 372.364 77.3026 372.364 70.8359C372.364 64.1693 373.498 58.7359 375.764 54.5359C378.031 50.3359 381.164 47.2359 385.164 45.2359C389.231 43.2359 393.898 42.2359 399.164 42.2359C402.898 42.2359 406.131 42.6026 408.864 43.3359C411.664 44.0693 414.098 44.9359 416.164 45.9359L411.764 57.4359C409.431 56.5026 407.231 55.7359 405.164 55.1359C403.164 54.5359 401.164 54.2359 399.164 54.2359C396.564 54.2359 394.398 54.8693 392.664 56.1359C390.931 57.3359 389.631 59.1693 388.764 61.6359C387.964 64.0359 387.564 67.0693 387.564 70.7359C387.564 74.3359 387.998 77.3359 388.864 79.7359C389.798 82.0693 391.131 83.8359 392.864 85.0359C394.598 86.1693 396.698 86.7359 399.164 86.7359C402.298 86.7359 405.064 86.3359 407.464 85.5359C409.864 84.6693 412.198 83.5026 414.464 82.0359V94.7359C412.198 96.2026 409.798 97.2359 407.264 97.8359C404.798 98.5026 401.664 98.8359 397.864 98.8359ZM476.631 70.4359C476.631 74.9693 475.998 79.0026 474.731 82.5359C473.531 86.0693 471.765 89.0693 469.431 91.5359C467.165 93.9359 464.398 95.7693 461.131 97.0359C457.865 98.2359 454.165 98.8359 450.031 98.8359C446.231 98.8359 442.698 98.2359 439.431 97.0359C436.231 95.7693 433.465 93.9359 431.131 91.5359C428.798 89.0693 426.965 86.0693 425.631 82.5359C424.365 79.0026 423.731 74.9693 423.731 70.4359C423.731 64.3693 424.798 59.2693 426.931 55.1359C429.065 50.9359 432.131 47.7359 436.131 45.5359C440.131 43.3359 444.865 42.2359 450.331 42.2359C455.465 42.2359 459.998 43.3359 463.931 45.5359C467.865 47.7359 470.965 50.9359 473.231 55.1359C475.498 59.2693 476.631 64.3693 476.631 70.4359ZM438.931 70.4359C438.931 74.0359 439.298 77.0693 440.031 79.5359C440.831 81.9359 442.065 83.7693 443.731 85.0359C445.398 86.2359 447.565 86.8359 450.231 86.8359C452.898 86.8359 455.031 86.2359 456.631 85.0359C458.298 83.7693 459.498 81.9359 460.231 79.5359C461.031 77.0693 461.431 74.0359 461.431 70.4359C461.431 66.8359 461.031 63.8359 460.231 61.4359C459.498 59.0359 458.298 57.2359 456.631 56.0359C454.965 54.8359 452.798 54.2359 450.131 54.2359C446.198 54.2359 443.331 55.6026 441.531 58.3359C439.798 61.0026 438.931 65.0359 438.931 70.4359ZM519.946 42.2359C525.812 42.2359 530.512 43.8359 534.046 47.0359C537.579 50.1693 539.346 55.2359 539.346 62.2359V97.8359H524.446V65.9359C524.446 62.0026 523.746 59.0693 522.346 57.1359C520.946 55.1359 518.712 54.1359 515.646 54.1359C511.112 54.1359 508.012 55.7026 506.346 58.8359C504.679 61.9026 503.846 66.3359 503.846 72.1359V97.8359H488.946V43.2359H500.346L502.346 50.2359H503.146C504.346 48.3693 505.812 46.8693 507.546 45.7359C509.279 44.5359 511.212 43.6693 513.346 43.1359C515.479 42.5359 517.679 42.2359 519.946 42.2359ZM577.168 42.2359C582.235 42.2359 586.568 43.2026 590.168 45.1359C593.835 47.0693 596.668 49.8693 598.668 53.5359C600.668 57.2026 601.668 61.7026 601.668 67.0359V74.2359H566.468C566.601 78.4359 567.835 81.7359 570.168 84.1359C572.568 86.5359 575.868 87.7359 580.068 87.7359C583.601 87.7359 586.801 87.4026 589.668 86.7359C592.535 86.0026 595.501 84.9026 598.568 83.4359V94.9359C595.901 96.2693 593.068 97.2359 590.068 97.8359C587.135 98.5026 583.568 98.8359 579.368 98.8359C573.901 98.8359 569.068 97.8359 564.868 95.8359C560.668 93.7693 557.368 90.6693 554.968 86.5359C552.568 82.4026 551.368 77.2026 551.368 70.9359C551.368 64.5359 552.435 59.2359 554.568 55.0359C556.768 50.7693 559.801 47.5693 563.668 45.4359C567.535 43.3026 572.035 42.2359 577.168 42.2359ZM577.268 52.8359C574.401 52.8359 572.001 53.7693 570.068 55.6359C568.201 57.5026 567.101 60.4026 566.768 64.3359H587.668C587.668 62.1359 587.268 60.1693 586.468 58.4359C585.735 56.7026 584.601 55.3359 583.068 54.3359C581.535 53.3359 579.601 52.8359 577.268 52.8359Z" fill="#F8FEFF"/>
</svg>
