<svg width="177" height="191" viewBox="0 0 177 191" fill="none" xmlns="http://www.w3.org/2000/svg">
<path d="M73.8154 169.311C73.8232 169.183 73.8353 169.054 73.852 168.921C78.8201 158.427 101.662 149.169 121.205 144.946C122.353 144.697 123.49 144.467 124.612 144.254C125.663 144.055 126.7 143.871 127.72 143.705C128.851 143.52 129.96 143.355 131.043 143.212C132.19 143.061 133.307 142.933 134.389 142.83C135.471 142.727 136.459 142.662 137.363 142.632C138.423 142.598 139.368 142.611 140.214 142.669C146.482 143.099 147.384 145.961 149.97 149.566C159.343 162.632 72.8369 185.394 73.8154 169.311Z" fill="url(#paint0_radial_3259_12703)"/>
<path d="M18.042 109.477C18.0497 109.349 18.0619 109.22 18.0786 109.087C23.0467 98.5932 45.8884 89.3346 65.4313 85.1116C66.5798 84.8634 67.717 84.6327 68.8385 84.42C69.8895 84.2208 70.9267 84.0374 71.9467 83.8707C73.0772 83.6859 74.1865 83.5215 75.2697 83.3783C76.4162 83.2267 77.5335 83.099 78.6158 82.9961C79.6979 82.8932 80.6855 82.8282 81.5892 82.7984C82.6494 82.7635 83.5942 82.7772 84.441 82.8353C90.7087 83.2652 91.6107 86.127 94.1967 89.732C103.569 102.798 17.0634 125.56 18.042 109.477Z" fill="url(#paint1_radial_3259_12703)"/>
<path d="M2.70604 156.227C2.71379 156.099 2.72597 155.97 2.74262 155.837C7.71075 145.343 30.5525 136.085 50.0953 131.862C51.2439 131.613 52.3811 131.383 53.5025 131.17C54.5536 130.971 55.5908 130.787 56.6107 130.621C57.7413 130.436 58.8506 130.271 59.9338 130.128C61.0803 129.977 62.1976 129.849 63.2799 129.746C64.362 129.643 65.3495 129.578 66.2533 129.548C67.3134 129.514 68.2582 129.527 69.1051 129.585C75.3728 130.015 76.2747 132.877 78.8608 136.482C88.2331 149.548 1.72749 172.31 2.70604 156.227Z" fill="url(#paint2_radial_3259_12703)"/>
<path d="M68.0409 92.7174C67.7785 92.6429 67.516 92.5625 67.2533 92.4764C50.3281 81.8897 55.3594 53.5952 67.5227 31.3202C68.2376 30.011 68.9771 28.7227 69.7382 27.46C70.4515 26.2766 71.1838 25.1156 71.9326 23.9812C72.7626 22.7236 73.613 21.4986 74.4803 20.3115C75.3982 19.055 76.3351 17.8409 77.287 16.6758C78.1944 15.5651 79.1153 14.4989 80.0463 13.4826C81.0373 12.4009 82.0397 11.3758 83.0495 10.414C91.893 1.99003 101.296 -1.5799 108.451 4.19707C131.596 19.8255 101.156 102.129 68.0409 92.7174Z" fill="#94A3B8"/>
<path d="M67.2533 92.4764C67.516 92.5625 67.7785 92.6429 68.0409 92.7174M67.2533 92.4764L68.0409 92.7174M67.2533 92.4764C49.3334 81.2675 56.0266 50.2082 69.7382 27.46M68.0409 92.7174C101.156 102.129 131.596 19.8255 108.451 4.19707C99.7114 -2.85921 87.6183 4.02953 77.287 16.6758M77.287 16.6758L81.8094 21.1982M77.287 16.6758C76.3351 17.8409 75.3982 19.055 74.4803 20.3115M74.4803 20.3115L79.1936 25.0248M74.4803 20.3115C73.613 21.4986 72.7626 22.7236 71.9326 23.9812M71.9326 23.9812L76.8029 28.8515M71.9326 23.9812C71.1838 25.1156 70.4515 26.2766 69.7382 27.46M69.7382 27.46L74.4803 32.202M80.0463 13.4826L84.5687 18.005M83.0495 10.414L87.5719 14.9364M67.5227 31.3202L72.2648 36.0623" stroke="black" stroke-width="1.39151"/>
<path d="M114.22 7.59322C90.0359 -11.933 40.6675 74.0146 73.5181 94.5627C106.935 105.523 137.548 23.3455 114.22 7.59322Z" fill="#E2E8F0" stroke="black" stroke-width="1.39151"/>
<path opacity="0.9" d="M112.587 14.3066C90.6468 -3.34144 50.4368 76.4221 77.919 88.946C100.531 96.5993 129.753 28.1142 112.587 14.3066Z" fill="#0EA5E9" stroke="black" stroke-width="1.39151"/>
<path d="M100.164 55.6503C99.6323 57.8488 98.7825 60.0646 97.6149 62.2975C96.4754 64.5185 95.0746 66.5748 93.4127 68.4665C91.7787 70.3463 90.0207 71.8058 88.1387 72.8449L86.8457 78.1874L84.1184 79.3504L85.4114 74.008C82.8778 74.7335 81.0659 74.343 79.9756 72.8363C78.8853 71.3296 78.7765 68.7735 79.6491 65.1679L84.768 62.9849C84.4369 64.664 84.4407 65.9439 84.7794 66.8248C85.1287 67.6616 85.8396 67.9894 86.9119 67.8081L90.4238 53.2978C88.7306 53.3495 87.387 53.2521 86.3931 53.0056C85.4098 52.7151 84.7008 51.9134 84.266 50.6003C83.8592 49.2754 84.007 47.1618 84.7094 44.2598C85.5927 40.6102 87.1328 37.2523 89.3299 34.186C91.5376 31.0758 94.004 28.7621 96.7292 27.2451L98.0222 21.9027L100.749 20.7396L99.4564 26.0821C101.833 25.3841 103.507 25.7743 104.479 27.2527C105.489 28.6752 105.65 31.1695 104.963 34.7355L99.844 36.9185C100.09 35.5912 100.047 34.5251 99.715 33.7203C99.3936 32.8716 98.7913 32.458 97.908 32.4798L94.46 46.7263C96.1639 46.6306 97.5075 46.728 98.4907 47.0185C99.4847 47.265 100.185 48.0508 100.592 49.3757C101.009 50.6567 100.867 52.7482 100.164 55.6503ZM89.6723 41.7885C89.236 43.5913 89.2311 44.8552 89.6577 45.5802C90.1122 46.2933 90.8944 46.6893 92.0041 46.7681L95.2286 33.445C93.9726 34.1778 92.8426 35.2708 91.8387 36.7242C90.8627 38.1657 90.1406 39.8538 89.6723 41.7885ZM89.6392 66.6451C90.9445 65.8124 92.0958 64.6314 93.093 63.102C94.101 61.5286 94.8178 59.8625 95.2434 58.1037C95.6691 56.3449 95.6494 55.1309 95.1842 54.4618C94.7576 53.7367 93.9895 53.3348 92.8797 53.256L89.6392 66.6451Z" fill="#C2FCF6"/>
<path d="M49.5565 140.235C49.2941 140.16 49.0316 140.08 48.7689 139.994C31.8438 129.407 36.875 101.113 49.0383 78.8378C49.7532 77.5286 50.4927 76.2403 51.2538 74.9775C51.9671 73.7941 52.6994 72.6332 53.4482 71.4988C54.2783 70.2412 55.1286 69.0162 55.9959 67.8291C56.9139 66.5725 57.8508 65.3585 58.8027 64.1933C59.71 63.0827 60.6309 62.0165 61.5619 61.0002C62.5529 59.9185 63.5554 58.8934 64.5651 57.9315C73.4087 49.5076 82.8115 45.9377 89.9664 51.7146C113.111 67.3431 82.6717 149.646 49.5565 140.235Z" fill="#94A3B8"/>
<path d="M48.7689 139.994C49.0316 140.08 49.2941 140.16 49.5565 140.235M48.7689 139.994L49.5565 140.235M48.7689 139.994C30.849 128.785 37.5423 97.7257 51.2538 74.9775M49.5565 140.235C82.6717 149.646 113.111 67.3431 89.9664 51.7146C81.227 44.6584 69.1339 51.5471 58.8027 64.1933M58.8027 64.1933L63.3251 68.7157M58.8027 64.1933C57.8508 65.3585 56.9139 66.5725 55.9959 67.8291M55.9959 67.8291L60.7092 72.5424M55.9959 67.8291C55.1286 69.0162 54.2783 70.2412 53.4482 71.4988M53.4482 71.4988L58.3185 76.3691M53.4482 71.4988C52.6994 72.6332 51.9671 73.7941 51.2538 74.9775M51.2538 74.9775L55.9959 79.7196M61.5619 61.0002L66.0843 65.5226M64.5651 57.9315L69.0875 62.4539M49.0383 78.8378L53.7804 83.5798" stroke="black" stroke-width="1.39151"/>
<path d="M95.7276 55.1108C71.5437 35.5845 22.1753 121.532 55.0259 142.08C88.443 153.041 119.056 70.8631 95.7276 55.1108Z" fill="#E2E8F0" stroke="black" stroke-width="1.39151"/>
<path opacity="0.9" d="M94.1026 61.8241C72.1624 44.1761 31.9524 123.94 59.4347 136.464C82.0467 144.117 111.268 75.6318 94.1026 61.8241Z" fill="#0EA5E9" stroke="black" stroke-width="1.39151"/>
<path d="M81.8597 103.168C81.3276 105.366 80.4778 107.582 79.3103 109.815C78.1707 112.036 76.7699 114.092 75.108 115.984C73.474 117.864 71.7161 119.323 69.834 120.363L68.541 125.705L65.8137 126.868L67.1067 121.526C64.5731 122.251 62.7612 121.861 61.6709 120.354C60.5806 118.847 60.4718 116.291 61.3444 112.685L66.4633 110.503C66.1322 112.182 66.136 113.462 66.4747 114.342C66.824 115.179 67.5349 115.507 68.6072 115.326L72.1191 100.815C70.4259 100.867 69.0823 100.77 68.0884 100.523C67.1051 100.233 66.3961 99.4309 65.9613 98.1179C65.5545 96.7929 65.7023 94.6794 66.4047 91.7774C67.288 88.1278 68.8281 84.7699 71.0252 81.7036C73.2329 78.5933 75.6993 76.2797 78.4245 74.7627L79.7175 69.4202L82.4448 68.2572L81.1518 73.5996C83.5282 72.9017 85.2022 73.2919 86.1739 74.7703C87.1843 76.1928 87.3457 78.6871 86.6582 82.2531L81.5393 84.4361C81.7853 83.1087 81.7423 82.0427 81.4103 81.2379C81.0889 80.3891 80.4866 79.9756 79.6034 79.9974L76.1553 94.2439C77.8592 94.1482 79.2028 94.2456 80.1861 94.5361C81.18 94.7826 81.8803 95.5683 82.2871 96.8933C82.7046 98.1743 82.5621 100.266 81.8597 103.168ZM71.3676 89.306C70.9313 91.1088 70.9264 92.3728 71.353 93.0978C71.8075 93.8109 72.5897 94.2069 73.6994 94.2857L76.924 80.9626C75.6679 81.6953 74.538 82.7884 73.534 84.2418C72.558 85.6833 71.8359 87.3713 71.3676 89.306ZM71.3345 114.163C72.6398 113.33 73.7911 112.149 74.7884 110.62C75.7963 109.046 76.5131 107.38 76.9388 105.621C77.3644 103.862 77.3447 102.648 76.8795 101.979C76.4529 101.254 75.6848 100.852 74.575 100.774L71.3345 114.163Z" fill="#C2FCF6"/>
<path d="M121.728 152.555C121.466 152.481 121.203 152.4 120.941 152.314C104.016 141.728 109.047 113.433 121.21 91.1581C121.925 89.8489 122.665 88.5606 123.426 87.2979C124.139 86.1144 124.871 84.9535 125.62 83.8191C126.45 82.5615 127.3 81.3365 128.168 80.1494C129.086 78.8929 130.023 77.6788 130.975 76.5136C131.882 75.403 132.803 74.3368 133.734 73.3205C134.725 72.2388 135.727 71.2137 136.737 70.2518C145.581 61.8279 154.983 58.258 162.138 64.035C185.283 79.6634 154.844 161.966 121.728 152.555Z" fill="#94A3B8"/>
<path d="M120.941 152.314C121.203 152.4 121.466 152.481 121.728 152.555M120.941 152.314L121.728 152.555M120.941 152.314C103.021 141.105 109.714 110.046 123.426 87.2979M121.728 152.555C154.844 161.966 185.283 79.6634 162.138 64.035C153.399 56.9787 141.306 63.8674 130.975 76.5136M130.975 76.5136L135.497 81.0361M130.975 76.5136C130.023 77.6788 129.086 78.8929 128.168 80.1494M128.168 80.1494L132.881 84.8627M128.168 80.1494C127.3 81.3365 126.45 82.5615 125.62 83.8191M125.62 83.8191L130.49 88.6894M125.62 83.8191C124.871 84.9535 124.139 86.1144 123.426 87.2979M123.426 87.2979L128.168 92.0399M133.734 73.3205L138.256 77.8429M136.737 70.2518L141.259 74.7743M121.21 91.1581L125.952 95.9002" stroke="black" stroke-width="1.39151"/>
<path d="M167.9 67.4311C143.716 47.9049 94.3472 133.853 127.198 154.401C160.615 165.361 191.228 83.1834 167.9 67.4311Z" fill="#E2E8F0" stroke="black" stroke-width="1.39151"/>
<path opacity="0.9" d="M166.274 74.1445C144.334 56.4965 104.124 136.26 131.607 148.784C154.219 156.437 183.44 87.9521 166.274 74.1445Z" fill="#0EA5E9" stroke="black" stroke-width="1.39151"/>
<path d="M153.321 115.488C152.789 117.687 151.939 119.902 150.771 122.135C149.632 124.356 148.231 126.413 146.569 128.304C144.935 130.184 143.177 131.644 141.295 132.683L140.002 138.025L137.275 139.188L138.568 133.846C136.034 134.571 134.222 134.181 133.132 132.674C132.042 131.167 131.933 128.611 132.805 125.006L137.924 122.823C137.593 124.502 137.597 125.782 137.936 126.663C138.285 127.499 138.996 127.827 140.068 127.646L143.58 113.136C141.887 113.187 140.543 113.09 139.549 112.843C138.566 112.553 137.857 111.751 137.422 110.438C137.015 109.113 137.163 107 137.866 104.098C138.749 100.448 140.289 97.0902 142.486 94.0239C144.694 90.9136 147.16 88.6 149.885 87.083L151.178 81.7405L153.906 80.5775L152.613 85.92C154.989 85.222 156.663 85.6122 157.635 87.0906C158.645 88.5131 158.807 91.0074 158.119 94.5734L153 96.7564C153.246 95.4291 153.203 94.363 152.871 93.5582C152.55 92.7094 151.948 92.2959 151.064 92.3177L147.616 106.564C149.32 106.469 150.664 106.566 151.647 106.856C152.641 107.103 153.341 107.889 153.748 109.214C154.165 110.495 154.023 112.586 153.321 115.488ZM142.829 101.626C142.392 103.429 142.387 104.693 142.814 105.418C143.268 106.131 144.051 106.527 145.16 106.606L148.385 93.2829C147.129 94.0156 145.999 95.1087 144.995 96.5621C144.019 98.0036 143.297 99.6916 142.829 101.626ZM142.795 126.483C144.101 125.65 145.252 124.469 146.249 122.94C147.257 121.367 147.974 119.7 148.4 117.942C148.825 116.183 148.806 114.969 148.34 114.3C147.914 113.575 147.146 113.173 146.036 113.094L142.795 126.483Z" fill="#C2FCF6"/>
<defs>
<radialGradient id="paint0_radial_3259_12703" cx="0" cy="0" r="1" gradientUnits="userSpaceOnUse" gradientTransform="translate(75.8677 145.144) rotate(8.10564) scale(74.3261 161.242)">
<stop stop-color="#0CA5EA" stop-opacity="0"/>
<stop offset="1" stop-color="#075D84"/>
</radialGradient>
<radialGradient id="paint1_radial_3259_12703" cx="0" cy="0" r="1" gradientUnits="userSpaceOnUse" gradientTransform="translate(20.0943 85.3104) rotate(8.10564) scale(74.3261 161.242)">
<stop stop-color="#0CA5EA" stop-opacity="0"/>
<stop offset="1" stop-color="#075D84"/>
</radialGradient>
<radialGradient id="paint2_radial_3259_12703" cx="0" cy="0" r="1" gradientUnits="userSpaceOnUse" gradientTransform="translate(4.75836 132.06) rotate(8.10564) scale(74.3261 161.242)">
<stop stop-color="#0CA5EA" stop-opacity="0"/>
<stop offset="1" stop-color="#075D84"/>
</radialGradient>
</defs>
</svg>
