<svg width="119" height="118" viewBox="0 0 119 118" fill="none" xmlns="http://www.w3.org/2000/svg">
<path d="M209 13.3574C209 71.0712 162.214 117.857 104.5 117.857C46.7862 117.857 0 71.0712 0 13.3574C0 -44.3563 46.7862 -91.1426 104.5 -91.1426C162.214 -91.1426 209 -44.3563 209 13.3574ZM6.27 13.3574C6.27 67.6084 50.2491 111.587 104.5 111.587C158.751 111.587 202.73 67.6084 202.73 13.3574C202.73 -40.8935 158.751 -84.8726 104.5 -84.8726C50.2491 -84.8726 6.27 -40.8935 6.27 13.3574Z" fill="#637589" fill-opacity="0.2"/>
<path d="M3.135 13.3574C1.40359 13.3574 -0.00490688 11.9529 0.0469974 10.2223C0.792104 -14.6216 10.3737 -38.4274 27.1258 -56.8813C44.5813 -76.1102 68.5715 -88.1504 94.4206 -90.6553C120.27 -93.1603 146.125 -85.9503 166.948 -70.4308C187.771 -54.9113 202.069 -32.1943 207.056 -6.70741C212.042 18.7795 207.36 45.21 193.921 67.4328C180.482 89.6555 159.25 106.078 134.363 113.5C109.476 120.921 82.7171 118.81 59.3018 107.577C36.8301 96.7973 18.9834 78.3579 8.93027 55.6266C8.22997 54.0432 9.00531 52.2114 10.6091 51.5589C12.2128 50.9064 14.0374 51.6804 14.7407 53.2625C24.2045 74.5509 40.947 91.8181 62.0137 101.924C84.0241 112.483 109.177 114.467 132.571 107.491C155.965 100.515 175.923 85.0776 188.556 64.1882C201.188 43.2989 205.59 18.4542 200.902 -5.50351C196.215 -29.4612 182.775 -50.8152 163.201 -65.4036C143.628 -79.9919 119.323 -86.7692 95.0254 -84.4146C70.7272 -82.06 48.1765 -70.7421 31.7682 -52.667C16.0635 -35.3668 7.06299 -13.063 6.32 10.2223C6.26478 11.9529 4.86641 13.3574 3.135 13.3574Z" fill="#00C2FF"/>
<path d="M198.569 13.3566C198.569 65.3097 156.452 107.426 104.499 107.426C52.546 107.426 10.4297 65.3097 10.4297 13.3566C10.4297 -38.5966 52.546 -80.7129 104.499 -80.7129C156.452 -80.7129 198.569 -38.5966 198.569 13.3566ZM17.0145 13.3566C17.0145 61.673 56.1827 100.841 104.499 100.841C152.816 100.841 191.984 61.673 191.984 13.3566C191.984 -34.9598 152.816 -74.128 104.499 -74.128C56.1827 -74.128 17.0145 -34.9598 17.0145 13.3566Z" fill="#637589" fill-opacity="0.2"/>
<path d="M13.7221 13.3566C11.9038 13.3566 10.4237 11.8816 10.4873 10.0644C11.186 -9.897 18.224 -29.1509 30.6248 -44.8813C43.7061 -61.4748 61.9931 -73.1811 82.5391 -78.1137C103.085 -83.0464 124.693 -80.9182 143.882 -72.072C163.071 -63.2258 178.723 -48.1768 188.316 -29.3501C197.908 -10.5233 200.883 10.9848 196.761 31.7086C192.639 52.4324 181.66 71.1649 165.592 84.8876C149.525 98.6103 129.306 106.524 108.192 107.354C88.1772 108.14 68.4636 102.517 51.9038 91.3489C50.3962 90.3322 50.073 88.2679 51.1418 86.7968C52.2106 85.3257 54.2664 85.0053 55.7767 86.018C71.1377 96.3186 89.3967 101.502 107.934 100.774C127.569 100.002 146.373 92.6425 161.316 79.8804C176.258 67.1183 186.469 49.6971 190.303 30.424C194.136 11.1508 191.37 -8.85172 182.449 -26.3606C173.527 -43.8695 158.971 -57.865 141.125 -66.092C123.28 -74.3189 103.184 -76.2982 84.0763 -71.7108C64.9685 -67.1235 47.9616 -56.2366 35.796 -40.8046C24.311 -26.2359 17.7721 -8.41727 17.0765 10.0646C17.0081 11.8817 15.5405 13.3566 13.7221 13.3566Z" fill="#CCCBFF"/>
<path d="M186.884 13.358C186.884 58.8592 149.998 95.7453 104.497 95.7453C58.9954 95.7453 22.1094 58.8592 22.1094 13.358C22.1094 -32.1432 58.9954 -69.0293 104.497 -69.0293C149.998 -69.0293 186.884 -32.1432 186.884 13.358ZM30.3481 13.358C30.3481 54.3091 63.5455 87.5066 104.497 87.5066C145.448 87.5066 178.645 54.3091 178.645 13.358C178.645 -27.5931 145.448 -60.7906 104.497 -60.7906C63.5455 -60.7906 30.3481 -27.5931 30.3481 13.358Z" fill="#637589" fill-opacity="0.2"/>
<path d="M26.2287 13.358C23.9537 13.358 22.0986 11.5122 22.2123 9.23996C23.1198 -8.90087 30.0027 -26.2781 41.8489 -40.1483C54.5889 -55.0649 72.2333 -64.9462 91.6085 -68.015C110.984 -71.0837 130.818 -67.1384 147.544 -56.8887C164.27 -46.639 176.79 -30.7576 182.852 -12.1011C188.914 6.55547 188.12 26.7628 180.613 44.8862C173.106 63.0097 159.378 77.8598 141.9 86.7656C124.421 95.6714 104.338 98.0483 85.2638 93.4689C67.5273 89.2108 51.7448 79.198 40.3477 65.0551C38.9202 63.2836 39.336 60.7 41.1766 59.3627C43.0172 58.0255 45.5847 58.442 47.0221 60.2055C57.2588 72.765 71.3584 81.6577 87.187 85.4578C104.354 89.5793 122.429 87.44 138.159 79.4248C153.89 71.4096 166.245 58.0445 173.001 41.7334C179.757 25.4223 180.472 7.23573 175.016 -9.55518C169.56 -26.3461 158.293 -40.6393 143.239 -49.864C128.186 -59.0888 110.335 -62.6395 92.8973 -59.8777C75.4596 -57.1158 59.5797 -48.2226 48.1137 -34.7976C37.5417 -22.4194 31.3619 -6.93761 30.4625 9.24031C30.3362 11.5119 28.5038 13.358 26.2287 13.358Z" fill="#174AFF"/>
</svg>
