<svg width="976" height="179" viewBox="0 0 976 179" fill="none" xmlns="http://www.w3.org/2000/svg">
<g clip-path="url(#clip0_1201_3573)">
<g filter="url(#filter0_d_1201_3573)">
<path d="M137.53 0H41.0803C18.3923 0 0 18.3923 0 41.0803V137.53C0 160.218 18.3923 178.61 41.0803 178.61H137.53C160.218 178.61 178.61 160.218 178.61 137.53V41.0803C178.61 18.3923 160.218 0 137.53 0Z" fill="url(#paint0_linear_1201_3573)"/>
<path d="M137.53 0H41.0803C18.3923 0 0 18.3923 0 41.0803V137.53C0 160.218 18.3923 178.61 41.0803 178.61H137.53C160.218 178.61 178.61 160.218 178.61 137.53V41.0803C178.61 18.3923 160.218 0 137.53 0Z" fill="url(#paint1_radial_1201_3573)"/>
<path d="M116.284 70.1239C116.815 71.7045 115.851 73.364 114.243 73.7953L103.71 76.6221C101.872 77.1151 100 76.0131 99.3066 74.2387C97.0648 68.5091 93.155 63.553 88.048 60.0379C81.9902 55.8684 74.6459 54.0007 67.3357 54.7701C60.0255 55.5395 53.2292 58.896 48.1695 64.2353C43.1094 69.5751 40.1185 76.5476 39.7336 83.8985C39.3487 91.2498 41.596 98.4969 46.0707 104.337C50.5454 110.177 56.9543 114.227 64.1439 115.757C71.3339 117.288 78.8333 116.198 85.2931 112.686C90.7388 109.725 95.1445 105.205 97.9716 99.7416C98.8473 98.0498 100.823 97.1497 102.6 97.8325L112.378 101.592C112.408 101.603 112.437 101.615 112.467 101.627L154.072 117.621C155.849 118.304 156.736 120.3 156.054 122.079L152.35 131.742C151.668 133.522 149.675 134.41 147.898 133.727L118.547 122.444C115.932 121.439 113.05 120.302 111.046 118.296C110.025 117.273 108.767 115.67 108.51 115.338C104.476 120.485 99.4088 124.799 93.5787 127.969C83.4853 133.457 71.7679 135.159 60.5335 132.767C49.2995 130.376 39.2857 124.049 32.294 114.924C25.3024 105.799 21.7913 94.4745 22.3924 82.9886C22.9935 71.5022 27.6673 60.608 35.573 52.2648C43.4793 43.9217 54.0982 38.6774 65.5206 37.4749C76.9427 36.2727 88.4186 39.1913 97.8837 45.7061C106.519 51.6493 112.963 60.2295 116.284 70.1239Z" fill="white"/>
</g>
<path d="M312.29 100.88L300.07 97.24C298.51 111.28 288.5 120.64 275.11 120.64C258.21 120.64 245.99 106.86 245.99 87.75C245.99 68.51 257.95 54.6 274.33 54.6C286.68 54.6 297.21 63.96 299.29 76.96L311.25 72.8C308.13 56.03 292.66 43.94 274.33 43.94C251.06 43.94 234.29 62.4 234.29 87.75C234.29 113.1 251.45 131.56 275.11 131.56C294.35 131.56 309.17 119.34 312.29 100.88ZM349.714 131.56C368.564 131.56 382.214 117.26 382.214 97.5C382.214 77.74 368.564 63.44 349.714 63.44C330.864 63.44 317.214 77.74 317.214 97.5C317.214 117.26 330.864 131.56 349.714 131.56ZM328.134 97.5C328.134 83.59 337.234 73.58 349.714 73.58C362.194 73.58 371.294 83.59 371.294 97.5C371.294 111.28 362.194 121.16 349.714 121.16C337.234 121.16 328.134 111.28 328.134 97.5ZM476.133 91V130H486.533V89.96C486.533 75.4 477.693 63.44 463.393 63.44C453.253 63.44 444.153 69.55 441.553 78.26C437.913 69.29 429.983 63.44 420.233 63.44C411.003 63.44 403.203 68.64 400.473 76.31L398.653 65H390.333V130H400.733V95.42C400.733 83.07 408.663 74.1 418.673 74.1C427.773 74.1 433.623 81.38 433.623 91.52V130H443.893V95.42C443.893 83.07 451.693 74.1 461.573 74.1C470.283 74.1 476.133 80.99 476.133 91ZM582.936 91V130H593.336V89.96C593.336 75.4 584.496 63.44 570.196 63.44C560.056 63.44 550.956 69.55 548.356 78.26C544.716 69.29 536.786 63.44 527.036 63.44C517.806 63.44 510.006 68.64 507.276 76.31L505.456 65H497.136V130H507.536V95.42C507.536 83.07 515.466 74.1 525.476 74.1C534.576 74.1 540.426 81.38 540.426 91.52V130H550.696V95.42C550.696 83.07 558.496 74.1 568.376 74.1C577.086 74.1 582.936 80.99 582.936 91ZM642.159 98.8V102.96C642.159 113.36 633.449 121.42 622.659 121.42C615.379 121.42 611.219 117.91 611.219 112.84C611.219 108.03 614.339 104.13 620.579 102.96L637.739 99.84C639.559 99.45 641.249 99.19 642.159 98.8ZM599.779 112.84C599.779 123.76 608.099 131.56 620.579 131.56C630.979 131.56 638.779 126.88 642.549 119.34L644.239 130H652.819L652.559 117V86.84C652.559 72.67 641.639 63.44 627.599 63.44C613.689 63.44 603.159 73.19 601.859 86.58L613.299 88.4C613.559 79.3 619.279 72.8 627.859 72.8C636.179 72.8 642.159 78.65 642.159 86.84V87.36C642.159 89.18 640.469 90.61 637.999 91L617.979 94.64C606.019 96.85 599.779 103.48 599.779 112.84ZM709.802 91.26V130H720.202V90.48C720.202 74.75 709.672 63.44 694.982 63.44C684.582 63.44 676.912 68.9 673.532 76.96L672.102 65H663.262V130H673.662V95.16C673.662 82.81 682.632 73.84 693.422 73.84C703.172 73.84 709.802 81.12 709.802 91.26ZM759.046 131.56C768.796 131.56 776.856 127.14 781.796 119.47L783.096 130H791.936L791.676 117V41.6H781.276V75.01C776.076 67.73 768.146 63.44 758.526 63.44C740.716 63.44 727.196 78.13 727.196 97.24C727.196 116.48 741.106 131.56 759.046 131.56ZM738.116 97.5C738.116 83.59 747.086 73.58 759.566 73.58C772.306 73.58 781.536 83.59 781.536 97.5C781.536 111.41 772.696 121.16 760.086 121.16C747.346 121.16 738.116 111.15 738.116 97.5Z" fill="#070D1D"/>
<path d="M805.418 130H844.938C858.978 130 869.898 119.99 869.898 107.12C869.898 97.5 863.658 89.31 853.778 86.06C861.838 82.55 866.778 75.4 866.778 67.08C866.778 54.73 855.988 45.5 841.558 45.5H805.418V130ZM816.338 119.34V92.04H843.378C852.218 92.04 858.718 97.76 858.718 105.69C858.718 113.62 852.218 119.34 843.378 119.34H816.338ZM816.338 81.64V55.9H841.298C849.748 55.9 855.858 61.36 855.858 68.77C855.858 76.18 849.748 81.64 841.298 81.64H816.338ZM916.647 98.8V102.96C916.647 113.36 907.937 121.42 897.147 121.42C889.867 121.42 885.707 117.91 885.707 112.84C885.707 108.03 888.827 104.13 895.067 102.96L912.227 99.84C914.047 99.45 915.737 99.19 916.647 98.8ZM874.267 112.84C874.267 123.76 882.587 131.56 895.067 131.56C905.467 131.56 913.267 126.88 917.037 119.34L918.727 130H927.307L927.047 117V86.84C927.047 72.67 916.127 63.44 902.087 63.44C888.177 63.44 877.647 73.19 876.347 86.58L887.787 88.4C888.047 79.3 893.767 72.8 902.347 72.8C910.667 72.8 916.647 78.65 916.647 86.84V87.36C916.647 89.18 914.957 90.61 912.487 91L892.467 94.64C880.507 96.85 874.267 103.48 874.267 112.84ZM937.749 130H948.149V92.56C948.149 82.42 954.649 75.14 963.749 75.14C965.829 75.14 968.949 75.66 971.549 77.22L972.069 65C969.859 64.09 967.389 63.44 964.789 63.44C957.249 63.44 951.009 68.25 947.889 75.79L946.589 65H937.749V130Z" fill="#2958F0"/>
</g>
<defs>
<filter id="filter0_d_1201_3573" x="-5.25" y="-3.5" width="189.11" height="189.11" filterUnits="userSpaceOnUse" color-interpolation-filters="sRGB">
<feFlood flood-opacity="0" result="BackgroundImageFix"/>
<feColorMatrix in="SourceAlpha" type="matrix" values="0 0 0 0 0 0 0 0 0 0 0 0 0 0 0 0 0 0 127 0" result="hardAlpha"/>
<feOffset dy="1.75"/>
<feGaussianBlur stdDeviation="2.625"/>
<feComposite in2="hardAlpha" operator="out"/>
<feColorMatrix type="matrix" values="0 0 0 0 0.172675 0 0 0 0 0.151042 0 0 0 0 0.241667 0 0 0 0.1 0"/>
<feBlend mode="normal" in2="BackgroundImageFix" result="effect1_dropShadow_1201_3573"/>
<feBlend mode="normal" in="SourceGraphic" in2="effect1_dropShadow_1201_3573" result="shape"/>
</filter>
<linearGradient id="paint0_linear_1201_3573" x1="170.55" y1="178.362" x2="-35.9284" y2="66.0549" gradientUnits="userSpaceOnUse">
<stop stop-color="#4317AA"/>
<stop offset="1" stop-color="#3F27D2"/>
</linearGradient>
<radialGradient id="paint1_radial_1201_3573" cx="0" cy="0" r="1" gradientUnits="userSpaceOnUse" gradientTransform="translate(89.305 -24.3559) rotate(90) scale(202.966)">
<stop stop-color="#68A4FF"/>
<stop offset="1" stop-color="#224FEE"/>
</radialGradient>
<clipPath id="clip0_1201_3573">
<rect width="976" height="178.614" fill="white"/>
</clipPath>
</defs>
</svg>
