<svg id="Layer_1" data-name="Layer 1" xmlns="http://www.w3.org/2000/svg" xmlns:xlink="http://www.w3.org/1999/xlink" viewBox="0 0 20.26 28.9"><defs><style>.cls-1{fill:url(#linear-gradient);}.cls-2{fill:url(#linear-gradient-2);}</style><linearGradient id="linear-gradient" x1="407.52" y1="394.99" x2="427.78" y2="394.99" gradientUnits="userSpaceOnUse"><stop offset="0" stopColor="#efeff0"/><stop offset="1" stopColor="#2f2e2f"/></linearGradient><linearGradient id="linear-gradient-2" x1="408.94" y1="394.99" x2="426.36" y2="394.99" gradientUnits="userSpaceOnUse"><stop offset="0" stopColor="#9f9f9f"/><stop offset="0.03" stopColor="#858585"/><stop offset="0.08" stopColor="#666"/><stop offset="0.14" stopColor="#4b4b4b"/><stop offset="0.2" stopColor="#373737"/><stop offset="0.27" stopColor="#292929"/><stop offset="0.35" stopColor="#212121"/><stop offset="0.49" stopColor="#1e1e1e"/><stop offset="1" stopColor="#221f20"/></linearGradient></defs><path class="cls-1" d="M427.78,383.18v10.15a12.45,12.45,0,0,1-3,8.11l-6.65,7.79a.62.62,0,0,1-.48.22.6.6,0,0,1-.47-.22l-6.66-7.79a12.45,12.45,0,0,1-3-8.11V383.18a.61.61,0,0,1,.37-.57,24,24,0,0,1,19.52,0A.61.61,0,0,1,427.78,383.18Z" transform="translate(-407.52 -380.54)"/><path class="cls-2" d="M426.36,384.84v8.72a10.72,10.72,0,0,1-2.58,7l-5.72,6.69a.54.54,0,0,1-.82,0l-5.72-6.69a10.77,10.77,0,0,1-2.58-7v-8.72a.54.54,0,0,1,.32-.49,20.66,20.66,0,0,1,16.78,0A.52.52,0,0,1,426.36,384.84Z" transform="translate(-407.52 -380.54)"/></svg>