<svg width="276" height="173" viewBox="0 0 276 173" fill="none" xmlns="http://www.w3.org/2000/svg">
<g clip-path="url(#clip0_4140_8275)">
<path d="M2.79687 119.058C3.02604 118.995 3.27074 118.936 3.5312 118.88C35.6665 118.684 118.649 142.45 178.478 163.657C181.59 164.76 184.64 165.856 187.617 166.942C190.916 168.145 194.126 169.336 197.232 170.508C200.52 171.749 203.691 172.969 206.728 174.163C209.765 175.356 212.49 176.462 214.934 177.491C217.801 178.697 220.284 179.798 222.434 180.811C238.345 188.304 236.051 190.966 237.004 195.995C240.458 214.223 -26.1287 127.018 2.79687 119.058Z" fill="url(#paint0_radial_4140_8275)"/>
<path fill-rule="evenodd" clip-rule="evenodd" d="M137.295 78.2346C137.295 78.2346 116.715 23.6565 85.7994 11.891C83.9731 11.196 82.1107 10.6504 80.2144 10.2742C78.4244 9.91918 76.6667 9.61458 74.9414 9.35931C73.0946 9.08607 71.2849 8.86934 69.5125 8.70777C67.37 8.51248 65.2818 8.39776 63.2482 8.3612C56.0538 8.23184 49.5418 9.08063 43.7197 10.8001C24.3996 16.5059 12.6769 31.7994 8.82223 52.7516C2.98469 84.4816 18.7201 112.322 43.4545 128.6C73.6511 148.471 130.35 113.245 130.35 113.245C130.35 113.245 147.932 155.299 175.367 174.402C181.271 178.513 187.632 181.562 194.372 182.899C203.822 184.773 212.651 183.73 220.555 180.498C224.354 178.945 227.939 176.886 231.277 174.402C233.733 172.575 236.054 170.517 238.229 168.262C239.852 166.578 241.394 164.783 242.848 162.892C244.425 160.841 245.898 158.675 247.261 156.413C248.747 153.947 250.101 151.367 251.314 148.693C252.299 146.523 253.192 144.292 253.987 142.011C254.783 139.726 255.482 137.392 256.078 135.019C264.078 103.16 246.062 77.0272 218.829 59.6016C210.194 54.0768 201.175 52.121 192.415 52.3749C175.736 52.8584 159.995 61.353 149.639 68.4761C142.003 73.7281 137.295 78.2346 137.295 78.2346ZM73.0058 33.8412C99.678 41.3466 118.686 90.6807 118.686 90.6807C118.686 90.6807 101.607 102.159 83.4373 107.272C72.3024 110.405 60.7582 111.148 52.4847 105.394C45.7177 100.687 40.329 95.1707 36.8057 88.9744C35.6585 86.9569 34.7091 84.8673 33.9742 82.7102C33.1724 80.3565 32.6261 77.9224 32.357 75.4138C32.1023 73.0389 32.0961 70.5972 32.357 68.0937C32.5923 65.8357 33.0448 63.5274 33.7282 61.1724C38.9358 43.2256 55.0174 28.7793 73.0058 33.8412ZM200.598 79.7165C222.184 85.9228 239.457 105.076 233.663 126.776C230.254 139.542 225.332 148.837 216.679 153.378C212.132 155.764 206.555 156.838 199.626 156.413C184.446 155.481 169.671 136.982 159.91 121.548C158.824 119.83 157.799 118.15 156.844 116.537C155.983 115.084 155.178 113.685 154.433 112.361C153.305 110.356 152.315 108.522 151.479 106.932C149.465 103.098 148.345 100.677 148.345 100.677C148.345 100.677 168.243 83.3915 187.021 79.5692C191.727 78.6113 196.363 78.499 200.598 79.7165Z" fill="url(#paint1_linear_4140_8275)"/>
<path d="M63.2482 32.936C49.4247 34.26 37.9696 46.5551 33.7282 61.1724C33.0448 63.5274 32.5923 65.8357 32.357 68.0937C32.0961 70.5972 32.1023 73.0389 32.357 75.4138C32.6261 77.9224 33.1724 80.3565 33.9742 82.7102C34.7091 84.8673 35.6585 86.9569 36.8057 88.9744C40.329 95.1707 45.7177 100.687 52.4847 105.394C60.7582 111.148 72.3024 110.405 83.4373 107.272C83.4373 107.272 59.9084 102.605 51.1833 79.3693C50.5889 77.7865 50.0632 76.1175 49.6184 74.3579C49.2026 72.7134 48.8574 70.9898 48.5927 69.1834C48.3039 67.2126 48.1661 65.3177 48.156 63.5C48.1429 61.1422 48.3447 58.9141 48.7107 56.8181C51.4341 41.2209 63.2482 32.936 63.2482 32.936Z" fill="url(#paint2_linear_4140_8275)"/>
<path d="M148.345 100.677C148.345 100.677 149.465 103.098 151.479 106.932C152.315 108.522 153.305 110.356 154.433 112.361C155.178 113.685 155.983 115.084 156.844 116.537C157.799 118.15 158.824 119.83 159.91 121.548C169.671 136.982 184.446 155.481 199.626 156.413C206.555 156.838 212.132 155.764 216.679 153.378C197.017 149.697 186.905 135.971 174.332 115.284C173.423 113.789 172.502 112.257 171.563 110.69C170.825 109.459 170.076 108.206 169.314 106.932C168.417 105.43 167.501 103.898 166.563 102.338C165.586 100.711 164.585 99.0537 163.557 97.3661L187.021 79.5692C168.243 83.3915 148.345 100.677 148.345 100.677Z" fill="url(#paint3_linear_4140_8275)"/>
<path d="M80.2144 10.2742C82.1107 10.6504 83.9731 11.196 85.7994 11.891C116.715 23.6565 137.295 78.2346 137.295 78.2346C137.295 78.2346 142.003 73.7281 149.639 68.4761C129.536 33.2038 114.914 13.9052 95.6689 5.86921C94.1745 5.24522 92.6523 4.68914 91.0974 4.19876C89.6398 3.73904 88.1535 3.33707 86.6346 2.99102C85.1363 2.64965 83.6063 2.3627 82.0409 2.12842C80.2779 1.86458 78.4701 1.66755 76.6119 1.53484C74.0718 1.35342 71.4377 1.29219 68.6959 1.34478L43.7197 10.8001C49.5418 9.08063 56.0538 8.23184 63.2482 8.3612C65.2818 8.39776 67.37 8.51248 69.5125 8.70777C71.2849 8.86934 73.0946 9.08607 74.9414 9.35931C76.6667 9.61458 78.4244 9.91918 80.2144 10.2742Z" fill="url(#paint4_linear_4140_8275)"/>
<path d="M218.829 59.6016C246.062 77.0272 264.078 103.16 256.078 135.019C255.482 137.392 254.783 139.726 253.987 142.011C253.192 144.292 252.299 146.523 251.314 148.693C250.101 151.367 248.747 153.947 247.261 156.413C245.898 158.675 244.425 160.841 242.848 162.892C241.394 164.783 239.852 166.578 238.229 168.262C236.054 170.517 233.733 172.575 231.277 174.402C227.939 176.886 224.354 178.945 220.555 180.498L249.254 169.421C249.254 169.421 256.133 164.146 262.253 156.413C265.146 152.758 267.868 148.555 269.616 144.099C270.392 142.12 270.976 140.091 271.297 138.038C271.62 135.975 271.884 133.959 272.094 131.989C279.538 62.1511 218.202 49.9849 218.202 49.9849L192.415 52.3749C201.175 52.121 210.194 54.0768 218.829 59.6016Z" fill="url(#paint5_linear_4140_8275)"/>
<path d="M80.2144 10.2742C78.4244 9.91918 76.6667 9.61458 74.9414 9.35931M80.2144 10.2742L91.0974 4.19876M80.2144 10.2742C82.1107 10.6504 83.9731 11.196 85.7994 11.891M256.078 135.019C264.078 103.16 246.062 77.0272 218.829 59.6016C210.194 54.0768 201.175 52.121 192.415 52.3749M256.078 135.019L272.094 131.989M256.078 135.019C255.482 137.392 254.783 139.726 253.987 142.011M33.7282 61.1724C38.9358 43.2256 55.0174 28.7793 73.0058 33.8412C99.678 41.3466 118.686 90.6807 118.686 90.6807C118.686 90.6807 101.607 102.159 83.4373 107.272M33.7282 61.1724C37.9696 46.5551 49.4247 34.26 63.2482 32.936C63.2482 32.936 51.4341 41.2209 48.7107 56.8181M33.7282 61.1724L48.7107 56.8181M33.7282 61.1724C33.0448 63.5274 32.5923 65.8357 32.357 68.0937M148.345 100.677C148.345 100.677 168.243 83.3915 187.021 79.5692M148.345 100.677L163.557 97.3661M148.345 100.677C148.345 100.677 149.465 103.098 151.479 106.932M163.557 97.3661L187.021 79.5692M163.557 97.3661C164.585 99.0537 165.586 100.711 166.563 102.338M187.021 79.5692C191.727 78.6113 196.363 78.499 200.598 79.7165C222.184 85.9228 239.457 105.076 233.663 126.776C230.254 139.542 225.332 148.837 216.679 153.378M216.679 153.378C212.132 155.764 206.555 156.838 199.626 156.413C184.446 155.481 169.671 136.982 159.91 121.548M216.679 153.378C197.017 149.697 186.905 135.971 174.332 115.284M48.5927 69.1834C48.3039 67.2126 48.1661 65.3177 48.156 63.5M48.5927 69.1834L32.357 75.4138M48.5927 69.1834C48.8574 70.9898 49.2026 72.7134 49.6184 74.3579M83.4373 107.272C72.3024 110.405 60.7582 111.148 52.4847 105.394C45.7177 100.687 40.329 95.1707 36.8057 88.9744M83.4373 107.272C83.4373 107.272 59.9084 102.605 51.1833 79.3693M43.7197 10.8001C24.3996 16.5059 12.6769 31.7994 8.82223 52.7516C2.98469 84.4816 18.7201 112.322 43.4544 128.6C73.6511 148.471 130.35 113.245 130.35 113.245C130.35 113.245 147.932 155.299 175.367 174.402M43.7197 10.8001L68.6959 1.34478C71.4377 1.29219 74.0718 1.35342 76.6119 1.53484M43.7197 10.8001C49.5418 9.08063 56.0538 8.23183 63.2482 8.3612M150.365 69.7527C150.123 69.3249 149.881 68.8993 149.639 68.4761M192.415 52.3749L218.202 49.9849C218.202 49.9849 279.538 62.1511 272.094 131.989M192.415 52.3749C175.736 52.8584 159.995 61.353 149.639 68.4761M271.297 138.038C271.62 135.975 271.884 133.959 272.094 131.989M271.297 138.038L253.987 142.011M271.297 138.038C270.976 140.091 270.392 142.12 269.616 144.099M220.555 180.498C212.651 183.73 203.822 184.773 194.372 182.899C187.632 181.562 181.271 178.513 175.367 174.402M220.555 180.498L249.254 169.421C249.254 169.421 256.133 164.146 262.253 156.413M220.555 180.498C224.354 178.945 227.939 176.886 231.277 174.402M149.639 68.4761C142.003 73.7281 137.295 78.2346 137.295 78.2346C137.295 78.2346 116.715 23.6565 85.7994 11.891M149.639 68.4761C129.536 33.2038 114.914 13.9052 95.6689 5.86921M69.5125 8.70777L82.0409 2.12842M69.5125 8.70777C71.2849 8.86934 73.0946 9.08607 74.9414 9.35931M69.5125 8.70777C67.37 8.51248 65.2818 8.39776 63.2482 8.3612M82.0409 2.12842C83.6063 2.3627 85.1363 2.64965 86.6346 2.99102M82.0409 2.12842C80.2779 1.86458 78.4701 1.66755 76.6119 1.53484M86.6346 2.99102L74.9414 9.35931M86.6346 2.99102C88.1535 3.33707 89.6398 3.73904 91.0974 4.19876M91.0974 4.19876C92.6523 4.68914 94.1745 5.24522 95.6689 5.86921M95.6689 5.86921L85.7994 11.891M63.2482 8.3612L76.6119 1.53484M253.987 142.011C253.192 144.292 252.299 146.523 251.314 148.693M251.314 148.693L269.616 144.099M251.314 148.693C250.101 151.367 248.747 153.947 247.261 156.413M269.616 144.099C267.868 148.555 265.146 152.758 262.253 156.413M265.965 151.199L247.261 156.413M247.261 156.413C245.898 158.675 244.425 160.841 242.848 162.892M242.848 162.892L262.253 156.413M242.848 162.892C241.394 164.783 239.852 166.578 238.229 168.262M256.078 163.307L238.229 168.262M238.229 168.262C236.054 170.517 233.733 172.575 231.277 174.402M48.7107 56.8181C48.3447 58.9141 48.1429 61.1422 48.156 63.5M32.357 68.0937L48.156 63.5M32.357 68.0937C32.0961 70.5972 32.1023 73.0389 32.357 75.4138M32.357 75.4138C32.6261 77.9224 33.1724 80.3565 33.9742 82.7102M33.9742 82.7102L49.6184 74.3579M33.9742 82.7102C34.7091 84.8673 35.6585 86.9569 36.8057 88.9744M49.6184 74.3579C50.0632 76.1175 50.5889 77.7865 51.1833 79.3693M36.8057 88.9744L51.1833 79.3693M151.479 106.932L166.563 102.338M151.479 106.932C152.315 108.522 153.305 110.356 154.433 112.361M166.563 102.338C167.501 103.898 168.417 105.43 169.314 106.932M154.433 112.361L169.314 106.932M154.433 112.361C155.178 113.685 155.983 115.084 156.844 116.537M169.314 106.932C170.076 108.206 170.825 109.459 171.563 110.69M156.844 116.537L171.563 110.69M156.844 116.537C157.799 118.15 158.824 119.83 159.91 121.548M171.563 110.69C172.502 112.257 173.423 113.789 174.332 115.284M159.91 121.548L174.332 115.284M175.367 174.402L231.277 174.402" stroke="black" stroke-width="1.24147"/>
</g>
<defs>
<radialGradient id="paint0_radial_4140_8275" cx="0" cy="0" r="1" gradientUnits="userSpaceOnUse" gradientTransform="translate(47.803 107.771) rotate(27.1024) scale(199.852 203.441)">
<stop stop-color="#0CA5EA" stop-opacity="0"/>
<stop offset="1" stop-color="#075D84"/>
</radialGradient>
<linearGradient id="paint1_linear_4140_8275" x1="155.683" y1="16.6629" x2="125.423" y2="169.222" gradientUnits="userSpaceOnUse">
<stop stop-color="#C1FEF5"/>
<stop offset="1" stop-color="#0CA5EA"/>
</linearGradient>
<linearGradient id="paint2_linear_4140_8275" x1="31.9272" y1="61.4119" x2="82.4585" y2="121.966" gradientUnits="userSpaceOnUse">
<stop stop-color="#0D4E6A"/>
<stop offset="0.415" stop-color="#A8DDF6"/>
<stop offset="1" stop-color="#0D4E6A"/>
</linearGradient>
<linearGradient id="paint3_linear_4140_8275" x1="158.047" y1="110.69" x2="199.808" y2="159.134" gradientUnits="userSpaceOnUse">
<stop stop-color="#0D4E6A"/>
<stop offset="0.415" stop-color="#A8DDF6"/>
<stop offset="1" stop-color="#0D4E6A"/>
</linearGradient>
<linearGradient id="paint4_linear_4140_8275" x1="57.4016" y1="-1.64784" x2="138.001" y2="74.3579" gradientUnits="userSpaceOnUse">
<stop stop-color="#0D4E6A"/>
<stop offset="0.415" stop-color="#A8DDF6"/>
<stop offset="1" stop-color="#0D4E6A"/>
</linearGradient>
<linearGradient id="paint5_linear_4140_8275" x1="186.444" y1="43.4545" x2="256.186" y2="155.793" gradientUnits="userSpaceOnUse">
<stop stop-color="#0D4E6A"/>
<stop offset="0.415" stop-color="#A8DDF6"/>
<stop offset="1" stop-color="#0D4E6A"/>
</linearGradient>
<clipPath id="clip0_4140_8275">
<rect width="276" height="173" fill="white"/>
</clipPath>
</defs>
</svg>
