<svg width="754" height="530" viewBox="0 0 754 530" fill="none" xmlns="http://www.w3.org/2000/svg">
<path d="M250.516 147.594L343.18 94.0937C352.746 88.5709 368.256 88.5709 377.821 94.0937L470.486 147.594" stroke="#3479FF" stroke-width="4" stroke-dasharray="4 4"/>
<path d="M624.5 222L736.693 286.977C746.251 292.512 746.251 301.488 736.693 307.023L624.5 372" stroke="#3479FF" stroke-width="4" stroke-dasharray="4 4"/>
<path d="M140.5 377L17.1121 302.353C7.66136 296.635 7.66135 287.365 17.1121 281.647L140.5 207" stroke="#3479FF" stroke-width="4" stroke-dasharray="4 4"/>
<path d="M150.11 203C150.11 202.219 149.013 201.586 147.66 201.586L125.615 201.586C124.262 201.586 123.165 202.219 123.165 203C123.165 203.781 124.262 204.414 125.615 204.414L145.211 204.414V215.728C145.211 216.509 146.307 217.142 147.66 217.142C149.013 217.142 150.11 216.509 150.11 215.728V203ZM139 208L140.732 209L142.897 207.75L141.165 206.75L139.433 205.75L137.268 207L139 208ZM145.495 204.25L147.227 205.25L149.392 204L147.66 203L145.928 202L143.763 203.25L145.495 204.25Z" fill="#3479FF"/>
<path d="M270 454.5L373.175 514.008C382.743 519.526 398.257 519.526 407.825 514.008L511 454.5" stroke="#3479FF" stroke-width="4" stroke-dasharray="4 4"/>
<path d="M613.551 377C613.551 377.781 614.647 378.414 616 378.414L638.045 378.414C639.398 378.414 640.495 377.781 640.495 377C640.495 376.219 639.398 375.586 638.045 375.586L618.449 375.586V364.272C618.449 363.491 617.353 362.858 616 362.858C614.647 362.858 613.551 363.491 613.551 364.272V377ZM616 377L617.732 378L619.897 376.75L618.165 375.75L616.433 374.75L614.268 376L616 377ZM622.495 373.25L624.227 374.25L626.392 373L624.66 372L622.928 371L620.763 372.25L622.495 373.25Z" fill="#3479FF"/>
<path d="M262 448.575C260.651 448.575 259.557 449.213 259.557 450V462.826C259.557 463.614 260.651 464.252 262 464.252C263.349 464.252 264.443 463.614 264.443 462.826V451.425H283.988C285.338 451.425 286.431 450.787 286.431 450C286.431 449.213 285.338 448.575 283.988 448.575H262ZM262 450L260.272 451.008L262.072 452.058L263.8 451.05L265.528 450.042L263.728 448.992L262 450ZM267.4 453.15L265.672 454.158L269.272 456.258L271 455.25L272.728 454.242L269.128 452.142L267.4 453.15ZM274.6 457.35L272.872 458.358L276.472 460.458L278.2 459.45L279.928 458.442L276.328 456.342L274.6 457.35ZM281.8 461.55L280.072 462.558L283.672 464.658L285.4 463.65L287.128 462.642L283.528 460.542L281.8 461.55ZM289 465.75L287.272 466.758L290.872 468.858L292.6 467.85L294.328 466.842L290.728 464.742L289 465.75ZM296.2 469.95L294.472 470.958L296.272 472.008L298 471L299.728 469.992L297.928 468.942L296.2 469.95Z" fill="#3479FF"/>
<path d="M478.145 153.402C479.497 153.402 480.594 152.769 480.594 151.988L480.594 139.26C480.594 138.479 479.497 137.846 478.145 137.846C476.792 137.846 475.695 138.479 475.695 139.26L475.695 150.574H456.099C454.746 150.574 453.65 151.207 453.65 151.988C453.65 152.769 454.746 153.402 456.099 153.402H478.145ZM469.484 146.988L467.752 147.988L469.917 149.238L471.649 148.238L473.381 147.238L471.216 145.988L469.484 146.988ZM475.98 150.738L474.248 151.738L476.413 152.988L478.145 151.988L479.877 150.988L477.712 149.738L475.98 150.738Z" fill="#3479FF"/>
<g opacity="0.8">
<path d="M616.923 38.6726C616.119 38.2086 615.495 37.7366 615.052 37.2566C614.595 36.7846 614.276 36.3126 614.096 35.8406C613.943 35.3686 613.888 34.9126 613.93 34.4726L617.297 34.1846C617.338 34.7046 617.477 35.2166 617.712 35.7206C617.976 36.2246 618.454 36.6766 619.147 37.0766C619.673 37.3806 620.213 37.5966 620.768 37.7246C621.336 37.8606 621.883 37.8966 622.41 37.8326C622.95 37.7766 623.449 37.6166 623.906 37.3526C624.419 37.0566 624.731 36.7326 624.841 36.3806C624.98 36.0286 624.841 35.6206 624.426 35.1566C624.01 34.6926 623.248 34.1406 622.139 33.5006L624.343 32.2286C625.285 32.7726 626.123 33.1446 626.858 33.3446C627.606 33.5366 628.264 33.5966 628.832 33.5246C629.428 33.4526 629.955 33.2846 630.412 33.0206C631.008 32.6766 631.292 32.3046 631.264 31.9046C631.25 31.4966 630.918 31.1046 630.266 30.7286C629.726 30.4166 629.095 30.1966 628.375 30.0686C627.682 29.9406 626.899 29.8646 626.026 29.8406L626.338 27.8366C627.585 27.9006 628.749 28.0526 629.83 28.2926C630.924 28.5246 631.922 28.9006 632.823 29.4206C633.807 29.9886 634.513 30.5806 634.943 31.1966C635.386 31.8206 635.511 32.4286 635.317 33.0206C635.123 33.6126 634.589 34.1606 633.717 34.6646C632.885 35.1446 631.95 35.4286 630.911 35.5166C629.871 35.6046 628.784 35.5046 627.647 35.2166L627.543 35.2766C627.959 35.6926 628.222 36.1326 628.333 36.5966C628.472 37.0606 628.416 37.5166 628.167 37.9646C627.931 38.4206 627.474 38.8446 626.795 39.2366C625.867 39.7726 624.821 40.0886 623.657 40.1846C622.507 40.2886 621.336 40.2046 620.144 39.9326C618.98 39.6606 617.906 39.2406 616.923 38.6726ZM626.896 44.4307C626.342 44.1107 626.078 43.7347 626.106 43.3027C626.134 42.8707 626.425 42.4947 626.979 42.1747C627.561 41.8387 628.219 41.6667 628.954 41.6587C629.688 41.6507 630.332 41.8067 630.887 42.1267C631.427 42.4387 631.69 42.8067 631.676 43.2307C631.663 43.6547 631.365 44.0347 630.783 44.3707C630.228 44.6907 629.577 44.8587 628.829 44.8747C628.081 44.8907 627.436 44.7427 626.896 44.4307ZM639.378 51.301L654.779 42.409L658.188 44.377L653.573 50.065C653.283 50.425 652.957 50.797 652.597 51.181C652.25 51.557 651.911 51.929 651.578 52.297L651.682 52.357C652.333 52.173 652.985 51.981 653.636 51.781C654.301 51.573 654.931 51.377 655.527 51.193L665.338 48.505L668.746 50.473L653.345 59.365L650.539 57.745L656.961 54.037C657.46 53.749 658.028 53.445 658.666 53.125C659.303 52.805 659.947 52.489 660.599 52.177C661.278 51.865 661.88 51.589 662.407 51.349L662.324 51.301L657.439 52.657L648.606 55.021L646.839 54.001L650.913 48.889L653.303 46.093L653.22 46.045C652.804 46.349 652.319 46.693 651.765 47.077C651.225 47.453 650.678 47.825 650.123 48.193C649.583 48.569 649.063 48.901 648.564 49.189L642.142 52.897L639.378 51.301ZM661.42 64.3635C660.451 63.8035 659.779 63.1355 659.404 62.3595C659.044 61.5915 659.051 60.7955 659.425 59.9715C659.813 59.1395 660.651 58.3515 661.94 57.6075C663.229 56.8635 664.587 56.3835 666.014 56.1675C667.455 55.9435 668.841 55.9355 670.171 56.1435C671.515 56.3595 672.672 56.7475 673.642 57.3075C674.376 57.7315 674.937 58.2155 675.325 58.7595C675.713 59.3035 675.907 59.8795 675.907 60.4875C675.921 61.0875 675.7 61.6955 675.242 62.3115C674.799 62.9195 674.092 63.5035 673.122 64.0635C671.834 64.8075 670.469 65.2915 669.028 65.5155C667.6 65.7315 666.215 65.7315 664.871 65.5155C663.541 65.3075 662.39 64.9235 661.42 64.3635ZM663.915 62.9235C664.441 63.2275 665.03 63.3995 665.681 63.4395C666.36 63.4795 667.06 63.3955 667.781 63.1875C668.515 62.9875 669.249 62.6755 669.984 62.2515C670.718 61.8275 671.259 61.4035 671.605 60.9795C671.965 60.5635 672.104 60.1635 672.021 59.7795C671.965 59.3955 671.674 59.0515 671.148 58.7475C670.621 58.4435 670.018 58.2715 669.339 58.2315C668.688 58.1915 667.995 58.2715 667.261 58.4715C666.54 58.6795 665.813 58.9955 665.079 59.4195C664.344 59.8435 663.797 60.2635 663.437 60.6795C663.09 61.1035 662.945 61.5075 663 61.8915C663.083 62.2755 663.388 62.6195 663.915 62.9235ZM669.859 68.8992L681.498 62.1792L683.992 63.6192L682.683 64.6392L682.745 64.6752C683.757 64.6832 684.747 64.7592 685.717 64.9032C686.687 65.0472 687.567 65.3472 688.357 65.8032C689.618 66.5312 690.117 67.2992 689.853 68.1072C689.604 68.9072 688.745 69.7312 687.276 70.5792L680.022 74.7672L676.967 73.0032L683.847 69.0312C684.747 68.5112 685.246 68.0712 685.343 67.7112C685.454 67.3592 685.218 67.0152 684.636 66.6792C684.165 66.4072 683.639 66.2312 683.057 66.1512C682.489 66.0792 681.775 66.0432 680.916 66.0432L672.914 70.6632L669.859 68.8992ZM683.174 76.5867L694.813 69.8667L697.868 71.6307L686.229 78.3507L683.174 76.5867ZM698.243 69.6627C697.702 69.3507 697.418 69.0187 697.39 68.6667C697.377 68.3067 697.626 67.9787 698.139 67.6827C698.637 67.3947 699.199 67.2547 699.822 67.2627C700.446 67.2707 701.028 67.4307 701.568 67.7427C702.081 68.0387 702.351 68.3707 702.379 68.7387C702.406 69.1067 702.171 69.4347 701.672 69.7227C701.159 70.0187 700.584 70.1587 699.947 70.1427C699.323 70.1187 698.755 69.9587 698.243 69.6627ZM693.456 82.8592C692.542 82.3312 691.98 81.7992 691.773 81.2632C691.579 80.7192 691.682 80.1872 692.084 79.6672C692.486 79.1472 693.117 78.6392 693.976 78.1432L699.151 75.1552L697.509 74.2072L699.775 72.8992L701.728 73.8592L705.22 72.2512L707.735 73.7032L704.597 75.5152L707.486 77.1832L705.075 78.5752L702.186 76.9072L697.031 79.8832C696.366 80.2672 696.013 80.6312 695.971 80.9752C695.929 81.3192 696.165 81.6392 696.678 81.9352C696.872 82.0472 697.1 82.1472 697.364 82.2352C697.627 82.3232 697.862 82.3952 698.07 82.4512L696.366 84.0352C695.95 83.9072 695.486 83.7512 694.973 83.5672C694.475 83.3912 693.969 83.1552 693.456 82.8592ZM702.3 87.965C701.33 87.405 700.658 86.737 700.283 85.961C699.923 85.193 699.93 84.397 700.304 83.573C700.692 82.741 701.531 81.953 702.819 81.209C704.108 80.465 705.466 79.985 706.893 79.769C708.334 79.545 709.72 79.537 711.05 79.745C712.394 79.961 713.551 80.349 714.521 80.909C715.255 81.333 715.817 81.817 716.205 82.361C716.592 82.905 716.786 83.481 716.786 84.089C716.8 84.689 716.579 85.297 716.121 85.913C715.678 86.521 714.971 87.105 714.001 87.665C712.713 88.409 711.348 88.893 709.907 89.117C708.48 89.333 707.094 89.333 705.75 89.117C704.42 88.909 703.27 88.525 702.3 87.965ZM704.794 86.525C705.32 86.829 705.909 87.001 706.56 87.041C707.239 87.081 707.939 86.997 708.66 86.789C709.394 86.589 710.128 86.277 710.863 85.853C711.597 85.429 712.138 85.005 712.484 84.581C712.844 84.165 712.983 83.765 712.9 83.381C712.844 82.997 712.553 82.653 712.027 82.349C711.5 82.045 710.898 81.873 710.219 81.833C709.567 81.793 708.874 81.873 708.14 82.073C707.42 82.281 706.692 82.597 705.958 83.021C705.223 83.445 704.676 83.865 704.316 84.281C703.969 84.705 703.824 85.109 703.879 85.493C703.962 85.877 704.267 86.221 704.794 86.525ZM710.738 92.5007L722.377 85.7807L724.871 87.2207L723.042 88.5407L723.105 88.5767C724.296 88.3847 725.384 88.3407 726.368 88.4447C727.351 88.5487 728.148 88.7767 728.758 89.1287C729.09 89.3207 729.326 89.4887 729.465 89.6327C729.631 89.7767 729.763 89.9167 729.86 90.0527L726.721 91.2887C726.555 91.1287 726.395 90.9887 726.243 90.8687C726.118 90.7487 725.924 90.6127 725.661 90.4607C725.218 90.2047 724.573 90.0327 723.728 89.9447C722.897 89.8647 721.899 89.9687 720.735 90.2567L713.793 94.2647L710.738 92.5007Z" fill="#2D3339"/>
</g>
<path d="M43.8348 438.572L46.329 437.132L49.6545 439.052L59.3609 433.448L56.555 431.828L58.4672 430.724C59.3817 431.092 60.2131 431.38 60.9613 431.588C61.7373 431.796 62.5271 431.948 63.3308 432.044L65.5963 433.352L52.6891 440.804L55.5781 442.472L53.084 443.912L43.8348 438.572ZM57.4871 446.79C56.9328 446.47 56.6695 446.094 56.6973 445.662C56.725 445.23 57.016 444.854 57.5702 444.534C58.1522 444.198 58.8104 444.026 59.5447 444.018C60.2791 444.01 60.9235 444.166 61.4777 444.486C62.0181 444.798 62.2814 445.166 62.2675 445.59C62.2537 446.014 61.9558 446.394 61.3738 446.73C60.8195 447.05 60.1683 447.218 59.42 447.234C58.6718 447.25 58.0275 447.102 57.4871 446.79ZM69.9688 453.66L85.3702 444.768L90.7118 447.852C91.8065 448.484 92.6448 449.136 93.2267 449.808C93.8226 450.472 94.0304 451.152 93.8503 451.848C93.684 452.536 93.012 453.22 91.8342 453.9C90.6979 454.556 89.5063 454.948 88.2592 455.076C87.026 455.196 85.7997 455.104 84.5803 454.8C83.3748 454.488 82.2247 454.016 81.1301 453.384L78.8646 452.076L73.0449 455.436L69.9688 453.66ZM81.2964 450.672L83.2917 451.824C84.2894 452.4 85.2524 452.716 86.1808 452.772C87.123 452.836 88.0029 452.632 88.8204 452.16C89.6518 451.68 89.9636 451.196 89.7557 450.708C89.5756 450.22 88.9867 449.688 87.989 449.112L85.9937 447.96L81.2964 450.672ZM78.3242 458.484L81.3587 452.604L85.4325 452.748L81.7744 460.476L78.3242 458.484ZM88.1145 464.473C87.1446 463.913 86.4725 463.245 86.0984 462.469C85.7382 461.701 85.7451 460.905 86.1192 460.081C86.5072 459.249 87.3455 458.461 88.6341 457.717C89.9228 456.973 91.2807 456.493 92.7079 456.277C94.149 456.053 95.5346 456.045 96.8649 456.253C98.2089 456.469 99.3659 456.857 100.336 457.417C101.07 457.841 101.631 458.325 102.019 458.869C102.407 459.413 102.601 459.989 102.601 460.597C102.615 461.197 102.394 461.805 101.936 462.421C101.493 463.029 100.786 463.613 99.8163 464.173C98.5276 464.917 97.1628 465.401 95.7217 465.625C94.2945 465.841 92.9088 465.841 91.5648 465.625C90.2346 465.417 89.0845 465.033 88.1145 464.473ZM90.6087 463.033C91.1352 463.337 91.7241 463.509 92.3754 463.549C93.0543 463.589 93.7541 463.505 94.4746 463.297C95.209 463.097 95.9434 462.785 96.6778 462.361C97.4122 461.937 97.9526 461.513 98.299 461.089C98.6593 460.673 98.7978 460.273 98.7147 459.889C98.6593 459.505 98.3683 459.161 97.8417 458.857C97.3152 458.553 96.7124 458.381 96.0335 458.341C95.3822 458.301 94.6894 458.381 93.955 458.581C93.2345 458.789 92.507 459.105 91.7726 459.529C91.0382 459.953 90.4909 460.373 90.1306 460.789C89.7842 461.213 89.6387 461.617 89.6942 462.001C89.7773 462.385 90.0821 462.729 90.6087 463.033ZM99.7326 471.181C98.4717 470.453 97.9659 469.689 98.2154 468.889C98.4786 468.081 99.3447 467.253 100.813 466.405L108.067 462.217L111.102 463.969L104.222 467.941C103.321 468.461 102.823 468.901 102.726 469.261C102.629 469.621 102.871 469.969 103.453 470.305C103.924 470.577 104.444 470.749 105.012 470.821C105.608 470.893 106.356 470.893 107.257 470.821L115.113 466.285L118.169 468.049L106.529 474.769L104.035 473.329L105.49 472.225L105.407 472.177C104.312 472.233 103.294 472.197 102.352 472.069C101.409 471.941 100.536 471.645 99.7326 471.181ZM113.756 479.277C112.842 478.749 112.281 478.217 112.073 477.681C111.879 477.137 111.983 476.605 112.385 476.085C112.786 475.565 113.417 475.057 114.276 474.561L119.451 471.573L117.809 470.625L120.075 469.317L122.029 470.277L125.52 468.669L128.035 470.121L124.897 471.933L127.786 473.601L125.375 474.993L122.486 473.325L117.331 476.301C116.666 476.685 116.313 477.049 116.271 477.393C116.23 477.737 116.465 478.057 116.978 478.353C117.172 478.465 117.401 478.565 117.664 478.653C117.927 478.741 118.163 478.813 118.371 478.869L116.666 480.453C116.251 480.325 115.786 480.169 115.274 479.985C114.775 479.809 114.269 479.573 113.756 479.277ZM122.808 484.503C121.727 483.879 120.993 483.175 120.605 482.391C120.217 481.607 120.217 480.799 120.605 479.967C121.006 479.143 121.845 478.363 123.12 477.627C124.062 477.083 125.053 476.679 126.092 476.415C127.145 476.159 128.191 476.027 129.23 476.019C130.297 476.011 131.288 476.111 132.202 476.319C133.145 476.527 133.962 476.831 134.655 477.231C135.722 477.847 136.373 478.503 136.609 479.199C136.858 479.887 136.74 480.579 136.255 481.275C135.798 481.971 135.029 482.631 133.948 483.255C133.671 483.415 133.387 483.563 133.096 483.699C132.819 483.827 132.583 483.923 132.389 483.987L125.219 479.847C124.678 480.255 124.339 480.667 124.2 481.083C124.062 481.499 124.11 481.903 124.346 482.295C124.595 482.679 125.011 483.039 125.593 483.375C126.064 483.647 126.57 483.867 127.11 484.035C127.664 484.195 128.288 484.323 128.981 484.419L128.149 486.099C127.193 485.995 126.244 485.807 125.302 485.535C124.36 485.263 123.528 484.919 122.808 484.503ZM127.214 478.623L131.974 481.371C132.75 480.923 133.186 480.463 133.283 479.991C133.408 479.519 133.089 479.063 132.327 478.623C131.925 478.391 131.447 478.227 130.893 478.131C130.353 478.027 129.764 478.015 129.126 478.095C128.503 478.167 127.865 478.343 127.214 478.623Z" fill="#2D3339"/>
<g opacity="0.8">
<path d="M67.5649 145.246L65.7982 144.226C65.9506 142.698 65.9852 141.342 65.9021 140.158C65.8328 138.966 65.6042 137.954 65.2162 137.122C64.8144 136.282 64.2186 135.634 63.4287 135.178C62.9299 134.89 62.4034 134.69 61.8491 134.578C61.2948 134.466 60.7475 134.454 60.2071 134.542C59.6667 134.614 59.1471 134.794 58.6483 135.082C58.094 135.402 57.7407 135.79 57.5883 136.246C57.4358 136.686 57.3804 137.142 57.422 137.614L54.0757 137.65C54.0202 136.786 54.1727 136.026 54.5329 135.37C54.8932 134.698 55.5929 134.062 56.6322 133.462C57.6021 132.902 58.6483 132.53 59.7706 132.346C60.893 132.146 62.0085 132.134 63.117 132.31C64.2255 132.486 65.2578 132.85 66.2139 133.402C67.1423 133.938 67.8559 134.622 68.3547 135.454C68.8535 136.27 69.193 137.178 69.3731 138.178C69.5533 139.178 69.6364 140.218 69.6225 141.298C69.969 141.034 70.3569 140.762 70.7865 140.482C71.216 140.186 71.6109 139.934 71.9712 139.726L75.2967 137.806L77.874 139.294L67.5649 145.246ZM82.6097 136.896C82.0554 137.216 81.4042 137.368 80.6559 137.352C79.9077 137.336 79.2564 137.168 78.7022 136.848C78.1202 136.512 77.8223 136.132 77.8084 135.708C77.7946 135.284 78.0648 134.912 78.619 134.592C79.1594 134.28 79.7968 134.128 80.5312 134.136C81.2656 134.144 81.9238 134.316 82.5058 134.652C83.06 134.972 83.351 135.348 83.3787 135.78C83.4064 136.212 83.1501 136.584 82.6097 136.896ZM94.5094 129.689L79.108 120.797L83.3273 118.361C84.9069 117.449 86.535 116.829 88.2117 116.501C89.9021 116.165 91.6134 116.145 93.3455 116.441C95.0914 116.729 96.8303 117.373 98.5624 118.373C100.294 119.373 101.431 120.381 101.971 121.397C102.511 122.413 102.518 123.409 101.992 124.385C101.451 125.353 100.419 126.277 98.895 127.157L94.5094 129.689ZM95.0914 126.473L96.0267 125.933C96.9966 125.373 97.6548 124.793 98.0012 124.193C98.3476 123.577 98.3199 122.937 97.9181 122.273C97.5024 121.601 96.671 120.905 95.4239 120.185C94.1768 119.465 92.9921 118.997 91.8698 118.781C90.7335 118.557 89.6458 118.553 88.6066 118.769C87.5673 118.969 86.5627 119.349 85.5928 119.909L84.6575 120.449L95.0914 126.473ZM114.46 118.507C113.379 119.131 112.16 119.555 110.802 119.779C109.444 120.003 108.044 120.003 106.603 119.779C105.176 119.547 103.825 119.063 102.55 118.327C101.608 117.783 100.908 117.211 100.451 116.611C100.008 116.003 99.779 115.399 99.7651 114.799C99.7513 114.183 99.9245 113.611 100.285 113.083C100.645 112.539 101.172 112.067 101.864 111.667C102.931 111.051 104.068 110.675 105.273 110.539C106.465 110.395 107.663 110.463 108.869 110.743C110.074 111.007 111.217 111.451 112.298 112.075C112.575 112.235 112.832 112.399 113.067 112.567C113.289 112.727 113.455 112.863 113.566 112.975L106.395 117.115C107.102 117.427 107.816 117.623 108.536 117.703C109.257 117.783 109.957 117.755 110.635 117.619C111.301 117.475 111.924 117.235 112.506 116.899C112.977 116.627 113.358 116.335 113.649 116.023C113.926 115.703 114.148 115.343 114.314 114.943L117.224 115.423C117.044 115.975 116.718 116.523 116.247 117.067C115.776 117.611 115.18 118.091 114.46 118.507ZM104.275 115.963L109.035 113.215C108.259 112.767 107.462 112.515 106.645 112.459C105.827 112.387 105.038 112.571 104.275 113.011C103.874 113.243 103.59 113.519 103.423 113.839C103.243 114.151 103.222 114.491 103.361 114.859C103.486 115.219 103.79 115.587 104.275 115.963ZM127.306 111.09C126.793 111.386 126.135 111.614 125.331 111.774C124.528 111.934 123.648 112.01 122.692 112.002L122.588 112.062L123.565 112.914L121.174 114.294L104.588 104.718L107.644 102.954L111.821 105.366L113.588 106.506C113.643 105.994 113.824 105.506 114.128 105.042C114.433 104.562 114.87 104.158 115.438 103.83C116.394 103.278 117.461 102.95 118.639 102.846C119.817 102.726 121.029 102.818 122.276 103.122C123.523 103.41 124.742 103.898 125.934 104.586C127.264 105.354 128.172 106.15 128.657 106.974C129.128 107.79 129.232 108.562 128.969 109.29C128.705 110.002 128.151 110.602 127.306 111.09ZM124.126 110.022C124.583 109.758 124.867 109.442 124.978 109.074C125.075 108.698 124.957 108.286 124.625 107.838C124.292 107.39 123.703 106.922 122.858 106.434C122.124 106.01 121.417 105.698 120.738 105.498C120.045 105.29 119.401 105.206 118.805 105.246C118.209 105.286 117.641 105.462 117.101 105.774C116.713 105.998 116.429 106.274 116.248 106.602C116.082 106.922 115.999 107.314 115.999 107.778L121.133 110.742C121.826 110.726 122.415 110.65 122.9 110.514C123.398 110.37 123.807 110.206 124.126 110.022ZM138.312 104.736C137.052 105.464 135.728 105.756 134.343 105.612C132.943 105.46 131.509 104.96 130.04 104.112L122.786 99.9235L125.821 98.1715L132.701 102.144C133.601 102.664 134.363 102.952 134.987 103.008C135.61 103.064 136.213 102.924 136.795 102.588C137.266 102.316 137.564 102.016 137.689 101.688C137.814 101.344 137.814 100.912 137.689 100.392L129.832 95.8555L132.888 94.0915L144.527 100.812L142.033 102.252L140.121 101.412L140.038 101.46C140.135 102.092 140.072 102.68 139.851 103.224C139.629 103.768 139.116 104.272 138.312 104.736ZM156.93 99.4829C156.015 100.011 155.08 100.423 154.124 100.719C153.181 101.023 152.274 101.171 151.401 101.163C150.556 101.155 149.787 100.951 149.094 100.551C148.609 100.271 148.297 99.9309 148.159 99.5309C148.02 99.1309 148.082 98.6869 148.346 98.1989L148.242 98.1389C147.743 98.2029 147.23 98.2029 146.704 98.1389C146.191 98.0669 145.692 97.8909 145.207 97.6109C144.778 97.3629 144.5 97.0589 144.376 96.6989C144.251 96.3229 144.237 95.9629 144.334 95.6189L144.251 95.5709C143.558 95.6349 142.789 95.6069 141.944 95.4869C141.099 95.3669 140.33 95.1069 139.637 94.7069C138.722 94.1789 138.168 93.6109 137.974 93.0029C137.794 92.3869 137.905 91.7789 138.307 91.1789C138.708 90.5789 139.311 90.0469 140.115 89.5829C140.461 89.3829 140.808 89.2149 141.154 89.0789C141.514 88.9349 141.861 88.8149 142.193 88.7189L146.371 86.3069L148.616 87.6029L146.641 88.7429C147.002 88.7749 147.383 88.8509 147.784 88.9709C148.186 89.0909 148.567 89.2549 148.928 89.4629C149.801 89.9669 150.334 90.5069 150.528 91.0829C150.708 91.6509 150.604 92.2149 150.216 92.7749C149.828 93.3349 149.212 93.8589 148.366 94.3469C148.159 94.4669 147.902 94.5909 147.597 94.7189C147.279 94.8389 146.946 94.9509 146.6 95.0549C146.586 95.2229 146.607 95.3789 146.662 95.5229C146.717 95.6509 146.87 95.7869 147.119 95.9309C147.41 96.0989 147.771 96.1549 148.2 96.0989C148.644 96.0349 149.205 95.8069 149.884 95.4149L151.879 94.2629C153.278 93.4549 154.588 92.9709 155.807 92.8109C157.013 92.6429 158.121 92.8509 159.133 93.4349C159.923 93.8909 160.359 94.4469 160.442 95.1029C160.553 95.7589 160.311 96.4669 159.715 97.2269C159.147 97.9869 158.218 98.7389 156.93 99.4829ZM146.475 93.2549C146.821 93.0549 147.05 92.8269 147.161 92.5709C147.272 92.3149 147.251 92.0469 147.099 91.7669C146.932 91.4789 146.62 91.2029 146.163 90.9389C145.706 90.6749 145.242 90.5029 144.771 90.4229C144.286 90.3349 143.828 90.3269 143.399 90.3989C142.955 90.4629 142.561 90.5949 142.214 90.7949C141.882 90.9869 141.66 91.2109 141.549 91.4669C141.424 91.7149 141.438 91.9789 141.591 92.2589C141.743 92.5229 142.048 92.7869 142.505 93.0509C142.962 93.3149 143.434 93.4989 143.918 93.6029C144.403 93.6909 144.868 93.7029 145.311 93.6389C145.754 93.5749 146.142 93.4469 146.475 93.2549ZM155.433 98.0909C156.029 97.7469 156.465 97.4069 156.743 97.0709C157.034 96.7269 157.179 96.4109 157.179 96.1229C157.179 95.8349 157.027 95.6029 156.722 95.4269C156.306 95.1869 155.856 95.1189 155.371 95.2229C154.9 95.3349 154.352 95.5709 153.729 95.9309L152.295 96.7589C151.948 96.9589 151.636 97.1229 151.359 97.2509C151.096 97.3869 150.826 97.5029 150.549 97.5989C150.493 97.8709 150.514 98.1069 150.611 98.3069C150.736 98.5069 150.923 98.6789 151.172 98.8229C151.643 99.0949 152.26 99.1629 153.022 99.0269C153.784 98.8909 154.588 98.5789 155.433 98.0909Z" fill="#2D3339"/>
</g>
<path d="M474.191 228.507C422.447 198.633 338.553 198.633 286.808 228.507C264.915 241.147 252.285 257.111 248.918 273.585H248.001L248.001 282.376C247.901 302.028 260.837 321.699 286.808 336.693C338.553 366.568 422.447 366.568 474.191 336.693C500.314 321.611 513.249 301.798 512.996 282.031V273.585H512.082C508.715 257.111 496.085 241.147 474.191 228.507Z" fill="url(#paint0_linear_4171_1495)"/>
<path d="M286.809 219.492C338.553 189.617 422.447 189.617 474.192 219.492C525.936 249.367 525.936 297.803 474.192 327.678C422.447 357.552 338.553 357.552 286.809 327.678C235.064 297.803 235.064 249.367 286.809 219.492Z" fill="#CDDBFD"/>
<rect width="71.7281" height="73.7595" transform="matrix(-0.861967 0.506965 -0.870028 -0.493003 445 275.363)" fill="url(#paint1_linear_4171_1495)"/>
<g clip-path="url(#clip0_4171_1495)">
<path d="M382.011 166.748L434.404 196.997L434.831 197.244L435.098 197.66L452.704 225.186L453.846 226.971L452.011 228.031L435.416 237.611V267.168L434.404 267.753L382.011 298.002L380.999 298.587L379.986 298.002L327.593 267.753L326.58 267.168V237.611L309.986 228.031L308.151 226.971L309.293 225.186L326.899 197.66L327.165 197.244L327.593 196.997L379.985 166.748L380.998 166.164L382.011 166.748Z" fill="#474C59" stroke="#474C59" stroke-width="4.05"/>
<path d="M433.392 259.249L380.999 229L380.999 168.502L433.392 198.751L433.392 259.249Z" fill="url(#paint2_linear_4171_1495)"/>
<rect width="60.4983" height="60.4983" transform="matrix(-0.866025 0.5 -2.20305e-08 -1 380.999 229)" fill="url(#paint3_linear_4171_1495)"/>
<path d="M370.299 184.903L405.373 205.153L405.373 262.528L370.299 242.278L370.299 184.903Z" fill="url(#paint4_linear_4171_1495)"/>
<rect width="12.15" height="57.375" transform="matrix(0.866026 -0.5 2.20305e-08 1 405.373 205.153)" fill="url(#paint5_linear_4171_1495)"/>
<path d="M380.821 178.828L415.895 199.078L405.373 205.153L370.299 184.903L380.821 178.828Z" fill="url(#paint6_linear_4171_1495)"/>
<path d="M345.999 199.078L381.073 219.328L381.073 276.703L345.999 256.453L345.999 199.078Z" fill="url(#paint7_linear_4171_1495)"/>
<rect width="12.15" height="57.375" transform="matrix(0.866026 -0.5 2.20305e-08 1 381.073 219.328)" fill="url(#paint8_linear_4171_1495)"/>
<path d="M356.521 193.003L391.595 213.253L381.073 219.328L345.999 199.078L356.521 193.003Z" fill="url(#paint9_linear_4171_1495)"/>
<path d="M328.606 198.751L380.999 229L380.999 296.248L328.606 265.999L328.606 198.751Z" fill="url(#paint10_linear_4171_1495)"/>
<path d="M380.999 229L433.392 198.751L433.392 265.999L380.999 296.248L380.999 229Z" fill="url(#paint11_linear_4171_1495)"/>
<path d="M310.999 226.278L363.392 256.527L380.999 229L328.605 198.751L310.999 226.278Z" fill="url(#paint12_linear_4171_1495)"/>
<path d="M450.998 226.278L398.605 256.527L380.999 229L433.392 198.751L450.998 226.278Z" fill="url(#paint13_linear_4171_1495)"/>
</g>
<path d="M381 182.351C389.098 182.351 395.608 186.159 407.731 193.158C413.817 196.672 418.51 199.378 421.665 201.766C424.762 204.109 426.852 206.486 426.853 209.457V234.457C426.853 237.428 424.763 239.805 421.665 242.149C418.51 244.537 413.817 247.242 407.731 250.756C395.608 257.755 389.098 261.563 381 261.563C372.902 261.563 366.393 257.755 354.27 250.756C348.184 247.242 343.491 244.537 340.336 242.149C337.238 239.805 335.148 237.428 335.148 234.457V209.457C335.149 206.486 337.239 204.11 340.336 201.766C343.491 199.378 348.184 196.672 354.27 193.158C366.393 186.159 372.902 182.351 381 182.351Z" fill="#3258C2" stroke="#3258C2" stroke-width="3"/>
<path d="M381 156.457C389.098 156.457 395.608 160.265 407.731 167.265C413.817 170.778 418.51 173.485 421.665 175.872C424.762 178.216 426.852 180.593 426.853 183.563V208.563C426.853 211.534 424.763 213.912 421.665 216.256C418.51 218.643 413.817 221.349 407.731 224.862C395.608 231.862 389.098 235.67 381 235.67C372.902 235.67 366.393 231.862 354.27 224.862C348.184 221.349 343.491 218.643 340.336 216.256C337.238 213.912 335.148 211.535 335.148 208.563V183.563C335.149 180.593 337.239 178.216 340.336 175.872C343.491 173.485 348.184 170.778 354.27 167.265C366.393 160.265 372.902 156.457 381 156.457Z" fill="#3258C2" stroke="#3258C2" stroke-width="3"/>
<path d="M425.344 209.457H336.625V234.457L336.648 234.457C336.648 238.85 342.772 242.386 355.019 249.457C367.267 256.528 373.39 260.064 381 260.064C388.61 260.064 394.733 256.528 406.981 249.457C419.228 242.386 425.352 238.85 425.352 234.457C425.352 234.364 425.349 234.272 425.344 234.18V209.457Z" fill="url(#paint14_linear_4171_1495)"/>
<path d="M425.344 184.957H336.625V209.957L336.648 209.957C336.648 214.35 342.772 217.886 355.019 224.957C367.267 232.028 373.39 235.564 381 235.564C388.61 235.564 394.733 232.028 406.981 224.957C419.228 217.886 425.352 214.35 425.352 209.957C425.352 209.864 425.349 209.772 425.344 209.68V184.957Z" fill="url(#paint15_linear_4171_1495)"/>
<path d="M355.02 168.564C367.267 161.493 373.391 157.957 381 157.957C388.61 157.957 394.734 161.493 406.981 168.564C419.229 175.635 425.352 179.17 425.352 183.564C425.352 187.957 419.229 191.493 406.981 198.564C394.734 205.635 388.61 209.17 381 209.17C373.391 209.17 367.267 205.635 355.02 198.564C342.772 191.493 336.648 187.957 336.648 183.564C336.648 179.17 342.772 175.635 355.02 168.564Z" fill="url(#paint16_linear_4171_1495)"/>
<path d="M374.591 157.148L397.785 162.389C398 162.437 398.17 162.535 398.254 162.659L407.33 176.05M374.591 157.148L359.829 165.671M374.591 157.148L381.732 167.684M407.33 176.05L401.027 174.626M407.33 176.05L403.53 178.244M365.237 181.451L370.645 178.329M365.237 181.451L370.424 182.675M365.237 181.451L356.585 169.232M383.799 170.734L401.027 174.626M383.799 170.734L381.732 167.684M383.799 170.734L382.191 171.662M370.645 178.329L401.027 174.626M370.645 178.329L382.191 171.662M370.424 182.675L387.967 186.816C388.275 186.889 388.629 186.847 388.865 186.711L403.53 178.244M370.424 182.675L403.53 178.244M359.829 165.671L356.125 167.81C355.89 167.946 355.819 168.15 355.945 168.328L356.585 169.232M359.829 165.671L381.732 167.684M356.585 169.232L382.191 171.662" stroke="white" stroke-width="2.38888" stroke-linecap="round" stroke-linejoin="round"/>
<path d="M328.641 198.957L381.034 229.206L381.034 296.454L328.641 266.205L328.641 198.957Z" fill="url(#paint17_linear_4171_1495)"/>
<path d="M381.039 229.206L433.432 198.957L433.432 266.205L381.039 296.454L381.039 229.206Z" fill="url(#paint18_linear_4171_1495)"/>
<path d="M311.034 226.483L363.427 256.733L381.034 229.206L328.641 198.957L311.034 226.483Z" fill="url(#paint19_linear_4171_1495)"/>
<path d="M451.036 226.483L398.643 256.733L381.037 229.206L433.43 198.957L451.036 226.483Z" fill="url(#paint20_linear_4171_1495)"/>
<g filter="url(#filter0_d_4171_1495)">
<rect x="332" y="94.5" width="103" height="40" rx="5.5" fill="white"/>
<rect x="332" y="94.5" width="103" height="40" rx="5.5" stroke="#C0C9E0"/>
<path d="M357.733 121H355.789V115.132H349.651V121H347.707V108.148H349.651V113.476H355.789V108.148H357.733V121ZM364.772 111.118C365.624 111.118 366.356 111.298 366.968 111.658C367.58 112.006 368.048 112.51 368.372 113.17C368.708 113.83 368.876 114.61 368.876 115.51V116.554H362.36C362.384 117.55 362.642 118.312 363.134 118.84C363.638 119.368 364.34 119.632 365.24 119.632C365.864 119.632 366.416 119.578 366.896 119.47C367.388 119.35 367.892 119.176 368.408 118.948V120.532C367.928 120.748 367.436 120.91 366.932 121.018C366.44 121.126 365.852 121.18 365.168 121.18C364.232 121.18 363.404 120.994 362.684 120.622C361.964 120.25 361.4 119.698 360.992 118.966C360.596 118.222 360.398 117.31 360.398 116.23C360.398 115.138 360.578 114.214 360.938 113.458C361.31 112.702 361.82 112.126 362.468 111.73C363.128 111.322 363.896 111.118 364.772 111.118ZM364.772 112.594C364.088 112.594 363.536 112.816 363.116 113.26C362.708 113.704 362.468 114.334 362.396 115.15H366.968C366.968 114.646 366.89 114.202 366.734 113.818C366.578 113.434 366.338 113.134 366.014 112.918C365.69 112.702 365.276 112.594 364.772 112.594ZM373.165 121H371.257V107.32H373.165V121ZM378.069 111.298V121H376.161V111.298H378.069ZM377.133 107.608C377.421 107.608 377.673 107.692 377.889 107.86C378.105 108.028 378.213 108.31 378.213 108.706C378.213 109.09 378.105 109.372 377.889 109.552C377.673 109.72 377.421 109.804 377.133 109.804C376.821 109.804 376.557 109.72 376.341 109.552C376.137 109.372 376.035 109.09 376.035 108.706C376.035 108.31 376.137 108.028 376.341 107.86C376.557 107.692 376.821 107.608 377.133 107.608ZM384.971 121.18C384.083 121.18 383.303 121.006 382.631 120.658C381.959 120.31 381.437 119.77 381.065 119.038C380.693 118.294 380.507 117.352 380.507 116.212C380.507 115.012 380.705 114.04 381.101 113.296C381.509 112.552 382.055 112.006 382.739 111.658C383.435 111.298 384.227 111.118 385.115 111.118C385.655 111.118 386.159 111.178 386.627 111.298C387.107 111.406 387.503 111.532 387.815 111.676L387.239 113.224C386.903 113.092 386.543 112.978 386.159 112.882C385.787 112.786 385.433 112.738 385.097 112.738C384.497 112.738 383.999 112.87 383.603 113.134C383.219 113.386 382.931 113.77 382.739 114.286C382.559 114.79 382.469 115.426 382.469 116.194C382.469 116.926 382.565 117.544 382.757 118.048C382.949 118.552 383.231 118.936 383.603 119.2C383.987 119.452 384.461 119.578 385.025 119.578C385.565 119.578 386.039 119.518 386.447 119.398C386.855 119.278 387.239 119.122 387.599 118.93V120.586C387.251 120.79 386.873 120.94 386.465 121.036C386.057 121.132 385.559 121.18 384.971 121.18ZM398.44 116.14C398.44 116.944 398.332 117.658 398.116 118.282C397.9 118.906 397.594 119.434 397.198 119.866C396.802 120.298 396.322 120.628 395.758 120.856C395.194 121.072 394.558 121.18 393.85 121.18C393.202 121.18 392.602 121.072 392.05 120.856C391.498 120.628 391.018 120.298 390.61 119.866C390.214 119.434 389.902 118.906 389.674 118.282C389.446 117.658 389.332 116.938 389.332 116.122C389.332 115.054 389.512 114.148 389.872 113.404C390.244 112.66 390.772 112.096 391.456 111.712C392.152 111.316 392.968 111.118 393.904 111.118C394.792 111.118 395.572 111.316 396.244 111.712C396.928 112.096 397.462 112.66 397.846 113.404C398.242 114.148 398.44 115.06 398.44 116.14ZM391.294 116.14C391.294 116.86 391.384 117.484 391.564 118.012C391.744 118.528 392.026 118.924 392.41 119.2C392.794 119.476 393.286 119.614 393.886 119.614C394.486 119.614 394.978 119.476 395.362 119.2C395.746 118.924 396.028 118.528 396.208 118.012C396.388 117.484 396.478 116.86 396.478 116.14C396.478 115.396 396.382 114.772 396.19 114.268C396.01 113.764 395.728 113.38 395.344 113.116C394.972 112.84 394.48 112.702 393.868 112.702C392.968 112.702 392.314 113.002 391.906 113.602C391.498 114.202 391.294 115.048 391.294 116.14ZM405.772 111.118C406.9 111.118 407.764 111.4 408.364 111.964C408.964 112.528 409.264 113.434 409.264 114.682V121H407.374V114.952C407.374 114.196 407.212 113.632 406.888 113.26C406.576 112.876 406.072 112.684 405.376 112.684C404.392 112.684 403.708 112.978 403.324 113.566C402.952 114.154 402.766 115 402.766 116.104V121H400.858V111.298H402.37L402.64 112.594H402.748C402.964 112.258 403.228 111.982 403.54 111.766C403.852 111.55 404.2 111.388 404.584 111.28C404.968 111.172 405.364 111.118 405.772 111.118ZM416.012 111.118C416.864 111.118 417.596 111.298 418.208 111.658C418.82 112.006 419.288 112.51 419.612 113.17C419.948 113.83 420.116 114.61 420.116 115.51V116.554H413.6C413.624 117.55 413.882 118.312 414.374 118.84C414.878 119.368 415.58 119.632 416.48 119.632C417.104 119.632 417.656 119.578 418.136 119.47C418.628 119.35 419.132 119.176 419.648 118.948V120.532C419.168 120.748 418.676 120.91 418.172 121.018C417.68 121.126 417.092 121.18 416.408 121.18C415.472 121.18 414.644 120.994 413.924 120.622C413.204 120.25 412.64 119.698 412.232 118.966C411.836 118.222 411.638 117.31 411.638 116.23C411.638 115.138 411.818 114.214 412.178 113.458C412.55 112.702 413.06 112.126 413.708 111.73C414.368 111.322 415.136 111.118 416.012 111.118ZM416.012 112.594C415.328 112.594 414.776 112.816 414.356 113.26C413.948 113.704 413.708 114.334 413.636 115.15H418.208C418.208 114.646 418.13 114.202 417.974 113.818C417.818 113.434 417.578 113.134 417.254 112.918C416.93 112.702 416.516 112.594 416.012 112.594Z" fill="#2D3339"/>
<g filter="url(#filter1_i_4171_1495)">
<path d="M382.793 141.293C383.183 141.683 383.817 141.683 384.207 141.293L391.5 134H375.5L382.793 141.293Z" fill="white"/>
</g>
</g>
<g filter="url(#filter2_d_4171_1495)">
<g clip-path="url(#clip1_4171_1495)">
<rect width="161" height="40" rx="20" transform="matrix(0.866025 -0.5 0.866025 0.5 568 505.414)" fill="#DEE4F9"/>
<path d="M621.254 498.708L619.765 499.568L622.328 501.048L619.782 502.518L617.219 501.038L611.936 504.088L610.117 503.038L607.554 495.298L609.961 493.908L617.738 498.398L619.228 497.538L621.254 498.708ZM613.096 498.658C612.9 498.544 612.669 498.411 612.404 498.258C612.138 498.091 611.878 497.928 611.624 497.768C611.359 497.601 611.128 497.454 610.931 497.328C610.724 497.194 610.585 497.101 610.516 497.048L610.446 497.088C610.573 497.281 610.689 497.474 610.793 497.668C610.897 497.861 610.983 498.071 611.053 498.298L612.213 501.588L615.192 499.868L613.096 498.658ZM623.892 498.745C623.361 498.438 623.135 498.142 623.216 497.855C623.285 497.562 623.528 497.295 623.944 497.055C624.348 496.822 624.804 496.685 625.312 496.645C625.809 496.598 626.322 496.728 626.854 497.035C627.362 497.328 627.587 497.625 627.529 497.925C627.46 498.218 627.223 498.482 626.819 498.715C626.403 498.955 625.941 499.095 625.433 499.135C624.914 499.168 624.4 499.038 623.892 498.745ZM641.411 482.87C642.37 483.423 643.12 483.997 643.663 484.59C644.206 485.17 644.517 485.763 644.598 486.37C644.691 486.97 644.512 487.573 644.061 488.18C643.622 488.78 642.901 489.37 641.896 489.95C640.892 490.53 639.864 490.95 638.813 491.21C637.762 491.457 636.717 491.56 635.678 491.52C634.639 491.467 633.605 491.283 632.578 490.97C631.562 490.65 630.574 490.213 629.616 489.66C628.334 488.92 627.428 488.157 626.897 487.37C626.377 486.577 626.29 485.78 626.637 484.98C626.983 484.167 627.832 483.37 629.183 482.59C630.522 481.817 631.891 481.333 633.288 481.14C634.673 480.94 636.053 480.997 637.427 481.31C638.802 481.61 640.129 482.13 641.411 482.87ZM632.387 488.08C633.253 488.58 634.108 488.947 634.951 489.18C635.794 489.413 636.613 489.493 637.41 489.42C638.207 489.347 638.969 489.1 639.696 488.68C640.447 488.247 640.88 487.803 640.995 487.35C641.122 486.89 640.978 486.42 640.562 485.94C640.158 485.453 639.523 484.96 638.657 484.46C637.352 483.707 636.088 483.257 634.864 483.11C633.64 482.963 632.474 483.21 631.365 483.85C630.626 484.277 630.193 484.72 630.066 485.18C629.939 485.64 630.078 486.113 630.482 486.6C630.886 487.087 631.521 487.58 632.387 488.08ZM645.601 476.491C646.663 475.878 647.939 475.621 649.429 475.721C650.907 475.814 652.448 476.324 654.053 477.251C655.127 477.871 655.878 478.484 656.305 479.091C656.721 479.691 656.842 480.254 656.669 480.781C656.496 481.308 656.051 481.778 655.335 482.191C654.885 482.451 654.434 482.644 653.984 482.771C653.545 482.891 653.118 482.964 652.702 482.991C652.287 483.018 651.888 483.021 651.507 483.001L651.369 483.081C651.634 483.181 651.9 483.294 652.165 483.421C652.419 483.541 652.662 483.668 652.893 483.801L656.703 486.001L654.123 487.491L640.509 479.631L642.605 478.421L644.198 478.921L644.319 478.851C644.238 478.604 644.215 478.351 644.25 478.091C644.273 477.824 644.389 477.558 644.596 477.291C644.816 477.018 645.151 476.751 645.601 476.491ZM646.831 478.161C646.38 478.421 646.115 478.681 646.034 478.941C645.953 479.201 646.04 479.478 646.294 479.771C646.548 480.051 646.952 480.358 647.506 480.691L647.783 480.851C648.395 481.204 648.973 481.471 649.515 481.651C650.047 481.824 650.56 481.894 651.057 481.861C651.553 481.828 652.038 481.674 652.512 481.401C652.904 481.174 653.118 480.924 653.153 480.651C653.187 480.378 653.055 480.081 652.754 479.761C652.454 479.441 651.998 479.104 651.386 478.751C650.462 478.218 649.625 477.901 648.875 477.801C648.124 477.688 647.443 477.808 646.831 478.161ZM663.022 475.373C663.311 475.206 663.559 475.03 663.767 474.843C663.975 474.656 664.171 474.463 664.356 474.263L666.278 475.373C666.117 475.6 665.868 475.856 665.534 476.143C665.222 476.43 664.823 476.713 664.339 476.993C663.773 477.32 663.172 477.56 662.537 477.713C661.914 477.86 661.244 477.88 660.528 477.773C659.812 477.653 659.05 477.36 658.242 476.893L653.686 474.263L652.457 474.973L651.365 474.343L651.92 473.023L650.673 471.443L652.318 470.493L654.327 471.653L656.977 470.123L658.917 471.243L656.267 472.773L660.822 475.403C661.18 475.61 661.556 475.706 661.948 475.693C662.329 475.673 662.687 475.566 663.022 475.373ZM661.56 467.477L671.017 472.937L668.436 474.427L658.979 468.967L661.56 467.477ZM656.572 466.077C656.953 465.857 657.374 465.72 657.836 465.667C658.287 465.607 658.754 465.717 659.239 465.997C659.713 466.27 659.903 466.54 659.811 466.807C659.718 467.074 659.482 467.317 659.101 467.537C658.708 467.764 658.281 467.904 657.819 467.957C657.369 468.004 656.907 467.89 656.433 467.617C655.948 467.337 655.752 467.07 655.844 466.817C655.937 466.55 656.179 466.304 656.572 466.077ZM675.186 459.41C676.26 458.79 677.345 458.483 678.442 458.49C679.539 458.483 680.694 458.83 681.906 459.53L688.072 463.09L685.492 464.58L679.966 461.39C679.285 460.997 678.662 460.77 678.096 460.71C677.519 460.643 676.987 460.75 676.502 461.03C675.821 461.423 675.579 461.843 675.775 462.29C675.971 462.737 676.525 463.223 677.438 463.75L682.184 466.49L679.603 467.98L674.078 464.79C673.627 464.53 673.2 464.343 672.796 464.23C672.392 464.117 672.011 464.077 671.653 464.11C671.283 464.137 670.937 464.243 670.613 464.43C670.14 464.703 669.886 464.99 669.851 465.29C669.817 465.59 669.973 465.907 670.319 466.24C670.665 466.573 671.173 466.933 671.843 467.32L676.295 469.89L673.714 471.38L664.257 465.92L666.231 464.78L667.79 465.28L667.929 465.2C667.802 464.9 667.784 464.61 667.877 464.33C667.958 464.043 668.125 463.773 668.379 463.52C668.633 463.253 668.939 463.017 669.297 462.81C669.99 462.41 670.694 462.137 671.41 461.99C672.115 461.837 672.83 461.823 673.558 461.95L673.783 461.82C673.587 461.373 673.633 460.94 673.922 460.52C674.222 460.093 674.643 459.723 675.186 459.41ZM683.854 454.606L693.311 460.066L690.73 461.556L681.273 456.096L683.854 454.606ZM678.865 453.206C679.246 452.986 679.668 452.849 680.13 452.796C680.58 452.736 681.048 452.846 681.533 453.126C682.006 453.399 682.197 453.669 682.104 453.936C682.012 454.203 681.775 454.446 681.394 454.666C681.001 454.893 680.574 455.033 680.112 455.086C679.662 455.133 679.2 455.019 678.727 454.746C678.242 454.466 678.045 454.199 678.138 453.946C678.23 453.679 678.473 453.433 678.865 453.206ZM702.589 454.709L695.124 459.019L693.6 458.139L692.023 452.169L687.901 454.549L685.927 453.409L692.976 449.339L694.656 450.309L696.198 456.119L700.614 453.569L702.589 454.709ZM698.731 445.816C699.609 445.31 700.527 444.973 701.485 444.806C702.455 444.633 703.431 444.63 704.412 444.796C705.394 444.963 706.347 445.313 707.27 445.846L708.517 446.566L702.421 450.086C703.171 450.493 703.956 450.7 704.776 450.706C705.608 450.706 706.387 450.496 707.114 450.076C707.726 449.723 708.223 449.37 708.604 449.016C708.974 448.656 709.297 448.25 709.574 447.796L711.566 448.946C711.335 449.346 711.012 449.726 710.596 450.086C710.203 450.446 709.643 450.836 708.916 451.256C707.969 451.803 706.959 452.186 705.885 452.406C704.799 452.62 703.691 452.64 702.559 452.466C701.428 452.293 700.319 451.893 699.234 451.266C698.125 450.626 697.392 449.99 697.034 449.356C696.676 448.71 696.647 448.086 696.947 447.486C697.248 446.886 697.842 446.33 698.731 445.816ZM700.585 446.866C700.088 447.153 699.834 447.486 699.823 447.866C699.823 448.24 700.134 448.64 700.758 449.066L704.378 446.976C703.997 446.756 703.587 446.6 703.148 446.506C702.721 446.406 702.288 446.383 701.849 446.436C701.41 446.49 700.989 446.633 700.585 446.866Z" fill="#2D3339"/>
</g>
<rect x="-2.59808" width="164" height="43" rx="21.5" transform="matrix(0.866025 -0.5 0.866025 0.5 567.652 504.115)" stroke="white" stroke-width="3"/>
</g>
<path d="M221 128.302C239.301 117.736 268.973 117.736 287.274 128.302C293.553 131.927 297.678 136.326 299.649 140.967H301V147.344C301.039 154.298 296.464 161.259 287.274 166.565L221 204.828C202.699 215.395 173.027 215.395 154.726 204.828C145.676 199.604 141.102 192.774 141.002 185.926H141V179.549H142.219C144.134 174.791 148.303 170.274 154.726 166.565L221 128.302Z" fill="url(#paint21_linear_4171_1495)"/>
<path d="M221 121.925C239.301 111.358 268.973 111.358 287.274 121.925C305.575 132.491 305.575 149.622 287.274 160.188L221 198.451C202.699 209.017 173.027 209.017 154.726 198.451C136.425 187.885 136.425 170.754 154.726 160.188L221 121.925Z" fill="#F5F5F5"/>
<rect width="61.6657" height="51.421" transform="matrix(-0.861967 0.506965 -0.870028 -0.493003 262.891 163.562)" fill="url(#paint22_linear_4171_1495)"/>
<path d="M551.174 356.56C552.622 356.56 554.151 356.874 555.389 357.589L643.723 408.589C644.953 409.299 645.909 410.439 645.909 411.888L645.908 422.635C645.908 422.642 645.908 422.649 645.908 422.656C645.887 424.086 644.94 425.209 643.723 425.911L577.039 464.411C575.8 465.126 574.272 465.44 572.825 465.44C571.378 465.44 569.849 465.126 568.611 464.411L480.276 413.411C479.193 412.786 478.328 411.833 478.133 410.614C478.108 410.504 478.092 410.39 478.092 410.272V399.241C478.092 399.131 478.105 399.022 478.128 398.916C478.313 397.683 479.184 396.719 480.276 396.089L546.96 357.589C548.199 356.874 549.727 356.56 551.174 356.56Z" fill="#474C59" stroke="#474C59" stroke-width="3" stroke-linejoin="round"/>
<path d="M547.711 369.698C549.624 368.593 552.726 368.593 554.639 369.698L627.864 411.974H644.409V422.721C644.399 423.437 643.92 424.151 642.974 424.698L576.289 463.198C574.376 464.302 571.274 464.302 569.361 463.198L481.026 412.198C480.141 411.686 479.665 411.028 479.599 410.358H479.592L479.592 410.239C479.591 410.211 479.591 410.184 479.592 410.157L479.592 399.327H496.391L547.711 369.698Z" fill="url(#paint23_linear_4171_1495)"/>
<path d="M547.711 358.974C549.624 357.869 552.726 357.869 554.639 358.974L642.974 409.974C644.887 411.079 644.887 412.869 642.974 413.974L576.289 452.474C574.376 453.579 571.274 453.579 569.361 452.474L481.026 401.474C479.113 400.37 479.113 398.579 481.026 397.474L547.711 358.974Z" fill="url(#paint24_linear_4171_1495)"/>
<path d="M548.832 363.915C550.192 363.13 552.398 363.13 553.758 363.915L634.135 410.321C635.496 411.106 635.496 412.38 634.135 413.165L575.409 447.071C574.048 447.856 571.843 447.856 570.483 447.071L490.105 400.665C488.745 399.88 488.745 398.606 490.105 397.821L548.832 363.915Z" fill="white"/>
<path d="M586.981 404.492C588.575 405.413 588.575 406.905 586.981 407.826L566.774 419.493C565.179 420.413 562.594 420.413 561 419.492L535.019 404.492C533.425 403.572 533.425 402.08 535.019 401.159L555.227 389.492C556.821 388.572 559.406 388.572 561 389.492L586.981 404.492ZM565.21 396.229C562.885 394.887 559.115 394.886 556.79 396.229C555.064 397.225 554.622 398.681 555.459 399.914L546.687 404.979C545.757 405.516 545.757 406.386 546.687 406.923C547.617 407.46 549.124 407.46 550.054 406.923L553.015 405.214C553.242 406.581 554.111 407.883 555.519 408.984C554.601 410.235 555.024 411.737 556.791 412.757C559.115 414.099 562.884 414.099 565.209 412.757C567.534 411.414 567.535 409.238 565.21 407.896C563.538 406.931 561.12 406.659 559.029 407.081C558.18 406.314 557.717 405.417 557.717 404.492C557.717 403.567 558.18 402.67 559.029 401.903C561.12 402.325 563.537 402.055 565.209 401.09C567.534 399.747 567.535 397.571 565.21 396.229ZM561.842 409.84C562.307 410.109 562.306 410.544 561.841 410.812C561.376 411.08 560.623 411.08 560.158 410.812C559.693 410.544 559.693 410.109 560.157 409.84C560.622 409.572 561.377 409.572 561.842 409.84ZM561.842 398.173C562.307 398.442 562.306 398.877 561.841 399.145C561.376 399.414 560.623 399.414 560.158 399.145C559.694 398.877 559.693 398.442 560.157 398.173C560.622 397.905 561.377 397.905 561.842 398.173Z" fill="#6E7CA5"/>
<path d="M567.907 168L567.907 176.797L569.441 175.963L570.514 179.516L572.229 179.663L571.23 176.301L573.421 177.566L567.907 168Z" fill="#474C59"/>
<rect width="55.9166" height="125.811" transform="matrix(-0.861967 0.506965 -0.870028 -0.493003 631.657 206.536)" fill="url(#paint25_linear_4171_1495)"/>
<path d="M633.24 176.079L632.49 176.512L628.159 179.012L627.409 179.444L626.659 179.012L611.489 170.253V188.423L610.739 188.856L606.408 191.356L605.658 191.789L604.908 191.356L589.737 182.597V201.158L588.987 201.592L584.656 204.092L583.906 204.524L583.156 204.092L475.736 142.072L474.986 141.639V50.2061L475.736 49.7734L480.066 47.2734L480.816 46.8398L481.566 47.2734L496.737 56.0312V37.4707L497.487 37.0381L501.817 34.5381L502.567 34.1045L503.317 34.5381L518.489 43.2959V25.126L519.239 24.6934L523.569 22.1934L524.319 21.7598L525.069 22.1934L632.49 84.2129L633.24 84.6455V176.079Z" fill="#474C59" stroke="#474C59" stroke-width="3"/>
<path d="M633.283 175.477L632.533 175.909L628.203 178.409L627.453 178.842L626.703 178.409L519.282 116.39L518.532 115.956V24.5234L519.282 24.0908L523.612 21.5908L524.362 21.1572L525.112 21.5908L632.533 83.6104L633.283 84.043V175.477Z" fill="#474C59" stroke="#474C59" stroke-width="3"/>
<path d="M627.453 87.4094L631.783 84.9094L631.783 174.61L627.453 177.11L627.453 87.4094Z" fill="url(#paint26_linear_4171_1495)"/>
<path d="M524.362 22.8896L631.783 84.9093L627.453 87.4093L520.032 25.3896L524.362 22.8896Z" fill="url(#paint27_linear_4171_1495)"/>
<path d="M520.032 25.3899L627.453 87.4096L627.453 177.11L520.032 115.091L520.032 25.3899Z" fill="url(#paint28_linear_4171_1495)"/>
<path d="M525.596 43.5C525.596 42.3954 526.372 41.9477 527.328 42.5L619.127 95.5C620.084 96.0523 620.859 97.3954 620.859 98.5L620.859 164.5C620.859 165.605 620.084 166.052 619.127 165.5L527.328 112.5C526.372 111.948 525.596 110.605 525.596 109.5L525.596 43.5Z" fill="#474C59"/>
<path d="M535.784 41.1249C535.784 40.0205 536.56 39.5727 537.516 40.1249C538.473 40.6772 539.247 42.0205 539.248 43.1249C539.248 44.2294 538.473 44.6771 537.516 44.1249C536.56 43.5727 535.784 42.2295 535.784 41.1249ZM530.721 38.1249C530.721 37.0205 531.497 36.5727 532.454 37.1249C533.41 37.6772 534.185 39.0205 534.185 40.1249C534.185 41.2294 533.41 41.6771 532.454 41.1249C531.497 40.5727 530.721 39.2295 530.721 38.1249ZM525.596 35.1249C525.596 34.0205 526.372 33.5727 527.329 34.1249C528.285 34.6772 529.06 36.0205 529.06 37.1249C529.06 38.2294 528.285 38.6771 527.329 38.1249C526.372 37.5727 525.596 36.2295 525.596 35.1249Z" fill="#7587BA"/>
<rect width="17.6069" height="2.94322" transform="matrix(-0.866025 -0.5 -2.20305e-08 1 577.427 111.673)" fill="url(#paint29_linear_4171_1495)"/>
<rect width="17.6069" height="2.94322" transform="matrix(-0.866025 -0.5 -2.20305e-08 1 548.201 94.8)" fill="url(#paint30_linear_4171_1495)"/>
<rect width="11.7379" height="2.94322" transform="matrix(-0.866025 -0.5 -2.20305e-08 1 591.404 119.743)" fill="#7587BA"/>
<rect width="7.33621" height="2.94321" transform="matrix(-0.866025 -0.499998 -2.20306e-08 1 558.367 100.669)" fill="#7587BA"/>
<rect width="11.7379" height="2.94322" transform="matrix(0.866025 0.499999 -2.20305e-08 1 532.953 74.2239)" fill="#7587BA"/>
<rect width="10.2707" height="2.94322" transform="matrix(-0.866025 -0.5 -2.20305e-08 1 541.848 97.0186)" fill="url(#paint31_linear_4171_1495)"/>
<rect width="11.7379" height="2.94322" transform="matrix(-0.866025 -0.5 -2.20305e-08 1 597.757 129.298)" fill="url(#paint32_linear_4171_1495)"/>
<rect width="26.4103" height="2.94322" transform="matrix(-0.866025 -0.5 -2.20305e-08 1 583.78 121.228)" fill="url(#paint33_linear_4171_1495)"/>
<rect width="13.2052" height="2.94322" transform="matrix(-0.866025 -0.5 -2.20305e-08 1 557.096 105.822)" fill="#7587BA"/>
<rect width="10.2707" height="2.94322" transform="matrix(0.866025 0.500001 -2.20305e-08 1 574.885 104.32)" fill="url(#paint34_linear_4171_1495)"/>
<rect width="26.4103" height="2.94322" transform="matrix(0.866025 0.5 -2.20305e-08 1 532.953 80.1101)" fill="url(#paint35_linear_4171_1495)"/>
<rect width="13.2052" height="2.94322" transform="matrix(0.866025 0.5 -2.20305e-08 1 559.637 95.5161)" fill="#7587BA"/>
<rect width="17.6069" height="2.94322" transform="matrix(0.866025 0.5 -2.20305e-08 1 546.931 63.2195)" fill="url(#paint36_linear_4171_1495)"/>
<rect width="11.7379" height="2.94322" transform="matrix(0.866025 0.5 -2.20305e-08 1 532.953 55.1497)" fill="#7587BA"/>
<rect width="13.5" height="2.94322" transform="matrix(0.866025 0.5 -2.20305e-08 1 565.991 74.2236)" fill="#7587BA"/>
<rect width="26.4103" height="2.94322" transform="matrix(0.866025 0.5 -2.20305e-08 1 532.953 61.0361)" fill="url(#paint37_linear_4171_1495)"/>
<rect width="13.2052" height="2.94322" transform="matrix(0.866025 0.5 -2.20305e-08 1 559.637 76.4419)" fill="#7587BA"/>
<path d="M605.681 100.363L610.011 97.8633L610.011 187.564L605.681 190.064L605.681 100.363Z" fill="url(#paint38_linear_4171_1495)"/>
<path d="M502.587 35.8437L610.008 97.8634L605.678 100.363L498.257 38.3437L502.587 35.8437Z" fill="url(#paint39_linear_4171_1495)"/>
<path d="M498.259 38.3438L605.68 100.363L605.68 190.064L498.259 128.045L498.259 38.3438Z" fill="url(#paint40_linear_4171_1495)"/>
<path d="M503.822 56.4531C503.822 55.3486 504.597 54.9008 505.554 55.4531L597.352 108.453C598.309 109.005 599.084 110.349 599.084 111.453L599.084 177.453C599.084 178.558 598.309 179.005 597.352 178.453L505.554 125.453C504.597 124.901 503.822 123.558 503.822 122.453L503.822 56.4531Z" fill="url(#paint41_linear_4171_1495)"/>
<ellipse cx="2" cy="2" rx="2" ry="2" transform="matrix(0.866025 0.5 -2.20305e-08 1 503.822 46.0781)" fill="#7587BA"/>
<ellipse cx="2" cy="2" rx="2" ry="2" transform="matrix(0.866025 0.5 -2.20305e-08 1 508.947 49.0781)" fill="#7587BA"/>
<ellipse cx="2" cy="2" rx="2" ry="2" transform="matrix(0.866025 0.5 -2.20305e-08 1 514.009 52.0781)" fill="#7587BA"/>
<path d="M583.931 113.1L588.261 110.6L588.261 200.3L583.931 202.8L583.931 113.1Z" fill="url(#paint42_linear_4171_1495)"/>
<path d="M480.837 48.5801L588.258 110.6L583.928 113.1L476.507 51.0801L480.837 48.5801Z" fill="url(#paint43_linear_4171_1495)"/>
<path d="M476.509 51.0801L583.93 113.1L583.93 202.801L476.509 140.781L476.509 51.0801Z" fill="url(#paint44_linear_4171_1495)"/>
<path d="M482.072 69.1914C482.072 68.0868 482.847 67.6391 483.804 68.1914L575.602 121.191C576.559 121.744 577.334 123.087 577.334 124.191L577.334 190.191C577.334 191.296 576.559 191.744 575.602 191.191L483.804 138.191C482.847 137.639 482.072 136.296 482.072 135.191L482.072 69.1914Z" fill="white"/>
<ellipse cx="2" cy="2" rx="2" ry="2" transform="matrix(0.866025 0.5 -2.20305e-08 1 482.072 58.8164)" fill="url(#paint45_linear_4171_1495)"/>
<ellipse cx="2" cy="2" rx="2" ry="2" transform="matrix(0.866025 0.5 -2.20305e-08 1 487.197 61.8164)" fill="url(#paint46_linear_4171_1495)"/>
<ellipse cx="2" cy="2" rx="2" ry="2" transform="matrix(0.866025 0.500001 -2.20305e-08 1 492.259 64.8164)" fill="url(#paint47_linear_4171_1495)"/>
<rect width="17.6069" height="2.94322" transform="matrix(0.866025 0.5 -2.20305e-08 1 501.884 88.0703)" fill="#7587BA"/>
<rect width="11.7379" height="2.94322" transform="matrix(0.866025 0.5 -2.20305e-08 1 487.907 80)" fill="#7587BA"/>
<rect width="17.3656" height="2.94322" transform="matrix(0.866025 0.5 -2.20305e-08 1 520.947 99.0742)" fill="#7587BA"/>
<rect width="17.3656" height="2.94322" transform="matrix(0.866025 0.5 -2.20305e-08 1 539.986 109.74)" fill="#7587BA"/>
<rect width="13.8564" height="2.94322" transform="matrix(0.866025 0.5 -2.20305e-08 1 558.986 120.74)" fill="#7587BA"/>
<rect width="17.3656" height="2.94322" transform="matrix(0.866025 0.5 -2.20305e-08 1 520.947 106.594)" fill="#C5CDE3"/>
<rect width="17.3656" height="2.94322" transform="matrix(0.866025 0.5 -2.20305e-08 1 539.986 117.594)" fill="#C5CDE3"/>
<rect width="13.8564" height="2.94322" transform="matrix(0.866025 0.5 -2.20305e-08 1 558.986 128.594)" fill="#C5CDE3"/>
<rect width="11.6372" height="2.94322" transform="matrix(0.866025 0.5 -2.20305e-08 1 487.907 87.7402)" fill="url(#paint48_linear_4171_1495)"/>
<rect width="17.3205" height="2.94322" transform="matrix(0.866025 0.5 -2.20305e-08 1 501.986 95.5938)" fill="#C5CDE3"/>
<rect width="17.3656" height="2.94322" transform="matrix(0.866025 0.5 -2.20305e-08 1 520.947 112.594)" fill="#C5CDE3"/>
<rect width="17.3656" height="2.94322" transform="matrix(0.866025 0.5 -2.20305e-08 1 539.986 123.594)" fill="#C5CDE3"/>
<rect width="13.8564" height="2.94322" transform="matrix(0.866025 0.5 -2.20305e-08 1 558.986 134.594)" fill="#C5CDE3"/>
<rect width="11.6372" height="2.94322" transform="matrix(0.866025 0.5 -2.20305e-08 1 487.907 93.7402)" fill="url(#paint49_linear_4171_1495)"/>
<rect width="17.3205" height="2.94322" transform="matrix(0.866025 0.5 -2.20305e-08 1 501.986 101.594)" fill="#C5CDE3"/>
<rect width="17.3656" height="2.94322" transform="matrix(0.866025 0.5 -2.20305e-08 1 520.947 118.594)" fill="#C5CDE3"/>
<rect width="17.3656" height="2.94322" transform="matrix(0.866025 0.5 -2.20305e-08 1 539.986 129.594)" fill="#C5CDE3"/>
<rect width="13.8564" height="2.94322" transform="matrix(0.866025 0.5 -2.20305e-08 1 558.986 140.594)" fill="#C5CDE3"/>
<rect width="11.6372" height="2.94322" transform="matrix(0.866025 0.5 -2.20305e-08 1 487.907 99.7402)" fill="url(#paint50_linear_4171_1495)"/>
<rect width="17.3205" height="2.94322" transform="matrix(0.866025 0.5 -2.20305e-08 1 501.986 107.594)" fill="#C5CDE3"/>
<rect width="17.3656" height="2.94322" transform="matrix(0.866025 0.5 -2.20305e-08 1 520.947 124.594)" fill="#C5CDE3"/>
<rect width="17.3656" height="2.94322" transform="matrix(0.866025 0.5 -2.20305e-08 1 539.986 135.594)" fill="#C5CDE3"/>
<rect width="13.8564" height="2.94322" transform="matrix(0.866025 0.5 -2.20305e-08 1 558.986 146.594)" fill="#C5CDE3"/>
<rect width="11.6372" height="2.94322" transform="matrix(0.866025 0.5 -2.20305e-08 1 487.907 105.74)" fill="url(#paint51_linear_4171_1495)"/>
<rect width="17.3205" height="2.94322" transform="matrix(0.866025 0.5 -2.20305e-08 1 501.986 113.594)" fill="#C5CDE3"/>
<rect width="17.3656" height="2.94322" transform="matrix(0.866025 0.5 -2.20305e-08 1 520.947 130.594)" fill="#C5CDE3"/>
<rect width="17.3656" height="2.94322" transform="matrix(0.866025 0.5 -2.20305e-08 1 539.986 141.594)" fill="#C5CDE3"/>
<rect width="13.8564" height="2.94322" transform="matrix(0.866025 0.5 -2.20305e-08 1 558.986 152.594)" fill="#C5CDE3"/>
<rect width="11.6372" height="2.94322" transform="matrix(0.866025 0.5 -2.20305e-08 1 487.907 111.74)" fill="url(#paint52_linear_4171_1495)"/>
<rect width="17.3205" height="2.94322" transform="matrix(0.866025 0.5 -2.20305e-08 1 501.986 119.594)" fill="#C5CDE3"/>
<rect width="17.3656" height="2.94322" transform="matrix(0.866025 0.5 -2.20305e-08 1 520.947 136.594)" fill="#C5CDE3"/>
<rect width="17.3656" height="2.94322" transform="matrix(0.866025 0.5 -2.20305e-08 1 539.986 147.594)" fill="#C5CDE3"/>
<rect width="13.8564" height="2.94322" transform="matrix(0.866025 0.5 -2.20305e-08 1 558.986 158.594)" fill="#C5CDE3"/>
<rect width="11.6372" height="2.94322" transform="matrix(0.866025 0.5 -2.20305e-08 1 487.907 117.74)" fill="url(#paint53_linear_4171_1495)"/>
<rect width="17.3205" height="2.94322" transform="matrix(0.866025 0.5 -2.20305e-08 1 501.986 125.594)" fill="#C5CDE3"/>
<rect width="17.3656" height="2.94322" transform="matrix(0.866025 0.5 -2.20305e-08 1 520.947 142.594)" fill="#C5CDE3"/>
<rect width="17.3656" height="2.94322" transform="matrix(0.866025 0.5 -2.20305e-08 1 539.986 153.594)" fill="#C5CDE3"/>
<rect width="13.8564" height="2.94322" transform="matrix(0.866025 0.5 -2.20305e-08 1 558.986 164.594)" fill="#C5CDE3"/>
<rect width="11.6372" height="2.94322" transform="matrix(0.866025 0.5 -2.20305e-08 1 487.907 123.74)" fill="url(#paint54_linear_4171_1495)"/>
<rect width="17.3205" height="2.94322" transform="matrix(0.866025 0.5 -2.20305e-08 1 501.986 131.594)" fill="#C5CDE3"/>
<rect width="17.3656" height="2.94322" transform="matrix(0.866025 0.5 -2.20305e-08 1 520.947 148.594)" fill="#C5CDE3"/>
<rect width="17.3656" height="2.94322" transform="matrix(0.866025 0.5 -2.20305e-08 1 539.986 159.594)" fill="#C5CDE3"/>
<rect width="13.8564" height="2.94322" transform="matrix(0.866025 0.5 -2.20305e-08 1 558.986 170.594)" fill="#C5CDE3"/>
<rect width="11.6372" height="2.94322" transform="matrix(0.866025 0.5 -2.20305e-08 1 487.907 129.74)" fill="url(#paint55_linear_4171_1495)"/>
<rect width="17.3205" height="2.94322" transform="matrix(0.866025 0.5 -2.20305e-08 1 501.986 137.594)" fill="#C5CDE3"/>
<path d="M175 371.089C154.411 359.203 121.031 359.203 100.442 371.089C93.3774 375.168 88.7369 380.116 86.5204 385.337H85.0003V392.512C84.9556 400.335 90.103 408.167 100.442 414.136L175 457.182C195.589 469.069 228.97 469.069 249.558 457.182C259.739 451.304 264.886 443.62 264.998 435.917H265V428.742H263.628C261.474 423.389 256.784 418.308 249.558 414.136L175 371.089Z" fill="url(#paint56_linear_4171_1495)"/>
<path d="M100.442 363.915C121.031 352.028 154.412 352.028 175.001 363.915L249.559 406.961C270.148 418.848 270.148 438.121 249.559 450.008C228.97 461.895 195.589 461.895 175.001 450.008L100.442 406.961C79.8536 395.075 79.8536 375.802 100.442 363.915Z" fill="#F5F5F5"/>
<rect width="14.7408" height="125.811" transform="matrix(-0.861967 0.506965 -0.870028 -0.493003 235.164 439.025)" fill="url(#paint57_linear_4171_1495)"/>
<path d="M232.375 430.477L231.625 430.909L227.295 433.409L226.545 433.842L225.795 433.409L118.374 371.39L117.624 370.956V279.523L118.374 279.091L122.704 276.591L123.454 276.157L124.204 276.591L231.625 338.61L232.375 339.043V430.477Z" fill="#474C59" stroke="#474C59" stroke-width="3"/>
<path d="M226.546 342.41L230.876 339.91L230.876 429.61L226.546 432.11L226.546 342.41Z" fill="url(#paint58_linear_4171_1495)"/>
<path d="M123.454 277.89L230.876 339.91L226.545 342.41L119.124 280.39L123.454 277.89Z" fill="url(#paint59_linear_4171_1495)"/>
<path d="M119.124 280.39L226.546 342.41L226.546 432.11L119.124 370.091L119.124 280.39Z" fill="url(#paint60_linear_4171_1495)"/>
<path d="M124.689 298.5C124.689 297.396 125.464 296.948 126.421 297.5L218.219 350.5C219.176 351.053 219.952 352.396 219.952 353.5L219.952 419.5C219.952 420.605 219.176 421.053 218.219 420.5L126.421 367.5C125.464 366.948 124.689 365.605 124.689 364.5L124.689 298.5Z" fill="#474C59"/>
<path d="M134.876 296.125C134.876 295.021 135.652 294.573 136.609 295.125C137.565 295.677 138.34 297.021 138.34 298.125C138.34 299.23 137.565 299.677 136.609 299.125C135.652 298.573 134.876 297.23 134.876 296.125ZM129.814 293.125C129.814 292.021 130.59 291.573 131.546 292.125C132.503 292.677 133.277 294.021 133.278 295.125C133.278 296.23 132.503 296.677 131.546 296.125C130.59 295.573 129.814 294.23 129.814 293.125ZM124.689 290.125C124.689 289.021 125.465 288.573 126.421 289.125C127.378 289.677 128.152 291.021 128.153 292.125C128.153 293.23 127.378 293.677 126.421 293.125C125.465 292.573 124.689 291.23 124.689 290.125Z" fill="#7587BA"/>
<g opacity="0.8">
<g clip-path="url(#clip2_4171_1495)">
<rect width="38.1051" height="26.5802" rx="2.15366" transform="matrix(0.866025 0.5 -2.20305e-08 1 130 337)" fill="url(#paint61_linear_4171_1495)"/>
<path d="M137.529 362.642C138.279 363.56 139.427 364.705 141 365.614L140.5 356.5L137.529 362.642Z" fill="#6E7CA5" fill-opacity="0.8"/>
<path d="M148 360.841C148 358.573 147.4 356.142 146.389 354.015L140.5 356.5L144.471 366.65C145.253 366.597 145.886 366.284 146.389 365.807C147.4 364.847 148 363.109 148 360.841Z" fill="#6E7CA5" fill-opacity="0.2"/>
<path d="M144.471 350.957C143.721 350.04 142.573 348.894 141 347.986L140.5 356.5L146.389 354.015C145.886 352.958 145.253 351.914 144.471 350.957Z" fill="#6E7CA5" fill-opacity="0.5"/>
<path d="M141 365.614C142.573 366.522 143.721 366.701 144.471 366.65L140.5 356.5L141 365.614Z" fill="#6E7CA5" fill-opacity="0.6"/>
<path fill-rule="evenodd" clip-rule="evenodd" d="M141 347.986C139.427 347.078 138.279 346.898 137.529 346.949C137.367 346.96 137.212 346.983 137.062 347.015L135.248 348.194C134.458 349.2 134 350.777 134 352.758C134 354.743 134.46 356.852 135.252 358.774L137.062 362.038L140.5 356.5L141 347.986Z" fill="#6E7CA5"/>
<path d="M137.062 362.038C137.212 362.243 137.367 362.444 137.529 362.642L140.5 356.5L137.062 362.038Z" fill="#ABB4CF"/>
<path fill-rule="evenodd" clip-rule="evenodd" d="M151.411 359.186L151.411 358.711L151.821 358.948L151.821 359.423L151.411 359.186Z" fill="#D0D6E7"/>
<path d="M151.411 358.711L151.411 359.186L151.821 359.423L151.821 358.948L151.411 358.711Z" fill="#D0D6E7"/>
<path fill-rule="evenodd" clip-rule="evenodd" d="M151.205 358.119L151.438 358.253L151.974 358.563L152.027 358.593C152.14 358.658 152.232 358.817 152.232 358.948L152.232 359.897C152.232 360.028 152.14 360.081 152.027 360.015L151.205 359.541C151.092 359.476 151 359.316 151 359.186L151 358.237C151 358.106 151.092 358.053 151.205 358.119ZM151.411 359.186L151.411 358.711L151.821 358.948L151.821 359.423L151.411 359.186Z" fill="#D0D6E7"/>
<path fill-rule="evenodd" clip-rule="evenodd" d="M151.411 362.186L151.411 361.711L151.821 361.948L151.821 362.423L151.411 362.186Z" fill="#9DA7C5"/>
<path d="M151.411 361.711L151.411 362.186L151.821 362.423L151.821 361.948L151.411 361.711Z" fill="#9DA7C5"/>
<path fill-rule="evenodd" clip-rule="evenodd" d="M151.205 361.119L151.438 361.253L151.974 361.563L152.027 361.593C152.14 361.658 152.232 361.817 152.232 361.948L152.232 362.897C152.232 363.028 152.14 363.081 152.027 363.015L151.205 362.541C151.092 362.476 151 362.316 151 362.186L151 361.237C151 361.106 151.092 361.053 151.205 361.119ZM151.411 362.186L151.411 361.711L151.821 361.948L151.821 362.423L151.411 362.186Z" fill="#9DA7C5"/>
<path fill-rule="evenodd" clip-rule="evenodd" d="M151.411 365.186L151.411 364.711L151.821 364.948L151.821 365.423L151.411 365.186Z" fill="#8692B5"/>
<path d="M151.411 364.711L151.411 365.186L151.821 365.423L151.821 364.948L151.411 364.711Z" fill="#8692B5"/>
<path fill-rule="evenodd" clip-rule="evenodd" d="M151.205 364.119L151.438 364.253L151.974 364.563L152.027 364.593C152.14 364.658 152.232 364.817 152.232 364.948L152.232 365.897C152.232 366.028 152.14 366.081 152.027 366.015L151.205 365.541C151.092 365.476 151 365.316 151 365.186L151 364.237C151 364.106 151.092 364.053 151.205 364.119ZM151.411 365.186L151.411 364.711L151.821 364.948L151.821 365.423L151.411 365.186Z" fill="#8692B5"/>
<path fill-rule="evenodd" clip-rule="evenodd" d="M151.411 368.186L151.411 367.711L151.821 367.948L151.821 368.423L151.411 368.186Z" fill="#6E7CA5"/>
<path d="M151.411 367.711L151.411 368.186L151.821 368.423L151.821 367.948L151.411 367.711Z" fill="#6E7CA5"/>
<path fill-rule="evenodd" clip-rule="evenodd" d="M151.205 367.119L151.438 367.253L151.974 367.563L152.027 367.593C152.14 367.658 152.232 367.817 152.232 367.948L152.232 368.897C152.232 369.028 152.14 369.081 152.027 369.015L151.205 368.541C151.092 368.476 151 368.316 151 368.186L151 367.237C151 367.106 151.092 367.053 151.205 367.119ZM151.411 368.186L151.411 367.711L151.821 367.948L151.821 368.423L151.411 368.186Z" fill="#6E7CA5"/>
<path fill-rule="evenodd" clip-rule="evenodd" d="M151.411 356.152L151.411 355.678L151.821 355.915L151.821 356.389L151.411 356.152Z" fill="#ABB4CF"/>
<path d="M151.411 355.678L151.411 356.152L151.821 356.389L151.821 355.915L151.411 355.678Z" fill="#ABB4CF"/>
<path fill-rule="evenodd" clip-rule="evenodd" d="M151.205 355.085L151.438 355.22L151.974 355.529L152.027 355.56C152.14 355.625 152.232 355.784 152.232 355.915L152.232 356.864C152.232 356.995 152.14 357.048 152.027 356.982L151.205 356.508C151.092 356.443 151 356.283 151 356.152L151 355.204C151 355.073 151.092 355.02 151.205 355.085ZM151.411 356.152L151.411 355.678L151.821 355.915L151.821 356.389L151.411 356.152Z" fill="#ABB4CF"/>
<rect width="5.7735" height="1.6656" transform="matrix(0.866025 0.5 -2.20305e-08 1 153.102 356.057)" fill="#7587BA"/>
<rect width="5.7735" height="1.6656" transform="matrix(0.866025 0.5 -2.20305e-08 1 153.102 359)" fill="#D0D6E7"/>
<rect width="5.7735" height="1.6656" transform="matrix(0.866025 0.5 -2.20305e-08 1 153.102 362)" fill="#9DA7C5"/>
<rect width="5.7735" height="1.6656" transform="matrix(0.866025 0.5 -2.20305e-08 1 153.102 365)" fill="#8692B5"/>
<rect width="5.7735" height="1.6656" transform="matrix(0.866025 0.5 -2.20305e-08 1 153.102 368)" fill="#6E7CA5"/>
</g>
</g>
<g opacity="0.8">
<g clip-path="url(#clip3_4171_1495)">
<rect width="38.1051" height="28.7306" rx="2.15366" transform="matrix(0.866025 0.5 -2.20305e-08 1 182 336)" fill="url(#paint62_linear_4171_1495)"/>
<path fill-rule="evenodd" clip-rule="evenodd" d="M186.667 359.471L186.667 357.547L188.333 358.509L188.333 360.434L186.667 359.471Z" fill="#6E7CA5"/>
<path d="M186.667 357.547L186.667 359.471L188.333 360.434L188.333 358.509L186.667 357.547Z" fill="#6E7CA5"/>
<path fill-rule="evenodd" clip-rule="evenodd" d="M185.833 355.141L186.778 355.687L188.955 356.943L189.167 357.066C189.627 357.332 190 357.978 190 358.509L190 362.358C190 362.89 189.627 363.105 189.167 362.839L185.833 360.915C185.373 360.649 185 360.003 185 359.471L185 355.622C185 355.091 185.373 354.876 185.833 355.141ZM186.667 359.471L186.667 357.547L188.333 358.509L188.333 360.434L186.667 359.471Z" fill="#6E7CA5"/>
<path fill-rule="evenodd" clip-rule="evenodd" d="M186.667 355.811L186.667 353.887L188.333 354.849L188.333 356.774L186.667 355.811Z" fill="#6E7CA5"/>
<path d="M186.667 353.887L186.667 355.811L188.333 356.774L188.333 354.849L186.667 353.887Z" fill="#6E7CA5"/>
<path fill-rule="evenodd" clip-rule="evenodd" d="M185.833 351.481L186.778 352.027L188.955 353.283L189.167 353.406C189.627 353.671 190 354.318 190 354.849L190 358.698C190 359.229 189.627 359.445 189.167 359.179L185.833 357.255C185.373 356.989 185 356.343 185 355.811L185 351.962C185 351.431 185.373 351.215 185.833 351.481ZM186.667 355.811L186.667 353.887L188.333 354.849L188.333 356.774L186.667 355.811Z" fill="#6E7CA5"/>
<path fill-rule="evenodd" clip-rule="evenodd" d="M186.667 363.132L186.667 361.207L188.333 362.17L188.333 364.094L186.667 363.132Z" fill="#6E7CA5"/>
<path d="M186.667 361.207L186.667 363.132L188.333 364.094L188.333 362.17L186.667 361.207Z" fill="#6E7CA5"/>
<path fill-rule="evenodd" clip-rule="evenodd" d="M185.833 358.802L186.778 359.347L188.955 360.604L189.167 360.726C189.627 360.992 190 361.638 190 362.17L190 366.019C190 366.55 189.627 366.765 189.167 366.5L185.833 364.575C185.373 364.309 185 363.663 185 363.132L185 359.283C185 358.751 185.373 358.536 185.833 358.802ZM186.667 363.132L186.667 361.207L188.333 362.17L188.333 364.094L186.667 363.132Z" fill="#6E7CA5"/>
<path fill-rule="evenodd" clip-rule="evenodd" d="M200.667 366.811L200.667 364.887L202.333 365.849L202.333 367.774L200.667 366.811Z" fill="#6E7CA5"/>
<path d="M200.667 364.887L200.667 366.811L202.333 367.774L202.333 365.849L200.667 364.887Z" fill="#6E7CA5"/>
<path fill-rule="evenodd" clip-rule="evenodd" d="M199.833 362.481L200.778 363.027L202.955 364.283L203.167 364.406C203.627 364.671 204 365.318 204 365.849L204 369.698C204 370.229 203.627 370.445 203.167 370.179L199.833 368.255C199.373 367.989 199 367.343 199 366.811L199 362.962C199 362.431 199.373 362.215 199.833 362.481ZM200.667 366.811L200.667 364.887L202.333 365.849L202.333 367.774L200.667 366.811Z" fill="#6E7CA5"/>
<path fill-rule="evenodd" clip-rule="evenodd" d="M200.667 370.852L200.667 368.928L202.333 369.89L202.333 371.815L200.667 370.852Z" fill="#6E7CA5"/>
<path d="M200.667 368.928L200.667 370.852L202.333 371.815L202.333 369.89L200.667 368.928Z" fill="#6E7CA5"/>
<path fill-rule="evenodd" clip-rule="evenodd" d="M199.833 366.522L200.778 367.068L202.955 368.324L203.167 368.447C203.627 368.712 204 369.359 204 369.89L204 373.739C204 374.27 203.627 374.486 203.167 374.22L199.833 372.296C199.373 372.03 199 371.384 199 370.852L199 367.003C199 366.472 199.373 366.256 199.833 366.522ZM200.667 370.852L200.667 368.928L202.333 369.89L202.333 371.815L200.667 370.852Z" fill="#6E7CA5"/>
<path fill-rule="evenodd" clip-rule="evenodd" d="M207.667 367.811L207.667 365.887L209.333 366.849L209.333 368.774L207.667 367.811Z" fill="#6E7CA5"/>
<path d="M207.667 365.887L207.667 367.811L209.333 368.774L209.333 366.849L207.667 365.887Z" fill="#6E7CA5"/>
<path fill-rule="evenodd" clip-rule="evenodd" d="M206.833 363.481L207.778 364.027L209.955 365.283L210.167 365.406C210.627 365.671 211 366.318 211 366.849L211 370.698C211 371.229 210.627 371.445 210.167 371.179L206.833 369.255C206.373 368.989 206 368.343 206 367.811L206 363.962C206 363.431 206.373 363.215 206.833 363.481ZM207.667 367.811L207.667 365.887L209.333 366.849L209.333 368.774L207.667 367.811Z" fill="#6E7CA5"/>
<path fill-rule="evenodd" clip-rule="evenodd" d="M207.667 370.811L207.667 368.887L209.333 369.849L209.333 371.774L207.667 370.811Z" fill="#6E7CA5"/>
<path d="M207.667 368.887L207.667 370.811L209.333 371.774L209.333 369.849L207.667 368.887Z" fill="#6E7CA5"/>
<path fill-rule="evenodd" clip-rule="evenodd" d="M206.833 366.481L207.778 367.027L209.955 368.283L210.167 368.406C210.627 368.671 211 369.318 211 369.849L211 373.698C211 374.229 210.627 374.445 210.167 374.179L206.833 372.255C206.373 371.989 206 371.343 206 370.811L206 366.962C206 366.431 206.373 366.215 206.833 366.481ZM207.667 370.811L207.667 368.887L209.333 369.849L209.333 371.774L207.667 370.811Z" fill="#6E7CA5"/>
<path fill-rule="evenodd" clip-rule="evenodd" d="M207.667 374.852L207.667 372.928L209.333 373.89L209.333 375.815L207.667 374.852Z" fill="#6E7CA5"/>
<path d="M207.667 372.928L207.667 374.852L209.333 375.815L209.333 373.89L207.667 372.928Z" fill="#6E7CA5"/>
<path fill-rule="evenodd" clip-rule="evenodd" d="M206.833 370.522L207.778 371.068L209.955 372.324L210.167 372.447C210.627 372.712 211 373.359 211 373.89L211 377.739C211 378.27 210.627 378.486 210.167 378.22L206.833 376.296C206.373 376.03 206 375.384 206 374.852L206 371.003C206 370.472 206.373 370.256 206.833 370.522ZM207.667 374.852L207.667 372.928L209.333 373.89L209.333 375.815L207.667 374.852Z" fill="#6E7CA5"/>
</g>
</g>
<g opacity="0.6">
<rect width="53.4103" height="8.35857" rx="2.15366" transform="matrix(0.866025 0.5 -2.20305e-08 1 168 376)" fill="url(#paint63_linear_4171_1495)"/>
</g>
<rect width="13.2052" height="2.94322" transform="matrix(0.866025 0.5 -2.20305e-08 1 156.688 329.292)" fill="#7587BA"/>
<rect width="26.4103" height="2.94322" transform="matrix(0.866025 0.5 -2.20305e-08 1 130 313.887)" fill="url(#paint64_linear_4171_1495)"/>
<rect width="13.5" height="2.94322" transform="matrix(0.866025 0.5 -2.20305e-08 1 163.039 327.074)" fill="#7587BA"/>
<rect width="13.5" height="2.94322" transform="matrix(0.866025 0.5 -2.20305e-08 1 149.062 337.004)" fill="#7587BA"/>
<rect width="11.7379" height="2.94322" transform="matrix(0.866025 0.5 -2.20305e-08 1 130 308)" fill="#7587BA"/>
<rect width="17.6069" height="2.94322" transform="matrix(0.866025 0.5 -2.20305e-08 1 143.977 316.07)" fill="url(#paint65_linear_4171_1495)"/>
<rect width="8.0829" height="2.94322" transform="matrix(0.866025 0.5 -2.20305e-08 1 130 326)" fill="url(#paint66_linear_4171_1495)"/>
<rect width="8.0829" height="2.94322" transform="matrix(0.866025 0.5 -2.20305e-08 1 139 331)" fill="url(#paint67_linear_4171_1495)"/>
<rect width="17.6069" height="2.94322" transform="matrix(0.866025 0.5 -2.20305e-08 1 130 320)" fill="url(#paint68_linear_4171_1495)"/>
<path fill-rule="evenodd" clip-rule="evenodd" d="M193.667 358.811L193.667 356.887L195.333 357.849L195.333 359.774L193.667 358.811Z" fill="#6E7CA5"/>
<path d="M193.667 356.887L193.667 358.811L195.333 359.774L195.333 357.849L193.667 356.887Z" fill="#6E7CA5"/>
<path fill-rule="evenodd" clip-rule="evenodd" d="M192.833 354.481L193.778 355.027L195.955 356.283L196.167 356.406C196.627 356.671 197 357.318 197 357.849L197 361.698C197 362.229 196.627 362.445 196.167 362.179L192.833 360.255C192.373 359.989 192 359.343 192 358.811L192 354.962C192 354.431 192.373 354.215 192.833 354.481ZM193.667 358.811L193.667 356.887L195.333 357.849L195.333 359.774L193.667 358.811Z" fill="#6E7CA5"/>
<path fill-rule="evenodd" clip-rule="evenodd" d="M193.667 354.811L193.667 352.887L195.333 353.849L195.333 355.774L193.667 354.811Z" fill="#6E7CA5"/>
<path d="M193.667 352.887L193.667 354.811L195.333 355.774L195.333 353.849L193.667 352.887Z" fill="#6E7CA5"/>
<path fill-rule="evenodd" clip-rule="evenodd" d="M192.833 350.481L193.778 351.027L195.955 352.283L196.167 352.406C196.627 352.671 197 353.318 197 353.849L197 357.698C197 358.229 196.627 358.445 196.167 358.179L192.833 356.255C192.373 355.989 192 355.343 192 354.811L192 350.962C192 350.431 192.373 350.215 192.833 350.481ZM193.667 354.811L193.667 352.887L195.333 353.849L195.333 355.774L193.667 354.811Z" fill="#6E7CA5"/>
<path fill-rule="evenodd" clip-rule="evenodd" d="M193.667 362.852L193.667 360.928L195.333 361.89L195.333 363.815L193.667 362.852Z" fill="#6E7CA5"/>
<path d="M193.667 360.928L193.667 362.852L195.333 363.815L195.333 361.89L193.667 360.928Z" fill="#6E7CA5"/>
<path fill-rule="evenodd" clip-rule="evenodd" d="M192.833 358.522L193.778 359.068L195.955 360.324L196.167 360.447C196.627 360.712 197 361.359 197 361.89L197 365.739C197 366.27 196.627 366.486 196.167 366.22L192.833 364.296C192.373 364.03 192 363.384 192 362.852L192 359.003C192 358.472 192.373 358.256 192.833 358.522ZM193.667 362.852L193.667 360.928L195.333 361.89L195.333 363.815L193.667 362.852Z" fill="#6E7CA5"/>
<path fill-rule="evenodd" clip-rule="evenodd" d="M193.667 366.894L193.667 364.97L195.333 365.932L195.333 367.857L193.667 366.894Z" fill="#6E7CA5"/>
<path d="M193.667 364.97L193.667 366.894L195.333 367.857L195.333 365.932L193.667 364.97Z" fill="#6E7CA5"/>
<path fill-rule="evenodd" clip-rule="evenodd" d="M192.833 362.564L193.778 363.11L195.955 364.366L196.167 364.489C196.627 364.754 197 365.401 197 365.932L197 369.781C197 370.312 196.627 370.528 196.167 370.262L192.833 368.338C192.373 368.072 192 367.426 192 366.894L192 363.045C192 362.514 192.373 362.298 192.833 362.564ZM193.667 366.894L193.667 364.97L195.333 365.932L195.333 367.857L193.667 366.894Z" fill="#6E7CA5"/>
<g clip-path="url(#clip4_4171_1495)">
<rect width="53.4103" height="8.19111" rx="2.15366" transform="matrix(0.866025 0.5 -2.20305e-08 1 168 363)" fill="#A6AAB7"/>
<path d="M168 363L171.464 365L171.464 377L168 375L168 363Z" fill="#E9EDF9"/>
</g>
<path d="M211 390L211 398.797L212.534 397.963L213.607 401.516L215.322 401.663L214.322 398.301L216.514 399.566L211 390Z" fill="white"/>
<path d="M261.195 156.241L260.445 156.674L249.62 162.924L248.87 163.357L248.12 162.924L244.398 160.775V165.991L243.648 166.424L232.823 172.674L232.073 173.107L231.323 172.674L227.602 170.525V175.741L226.852 176.174L216.026 182.424L215.276 182.857L214.526 182.424L175.555 159.924L174.805 159.491V102.759L175.555 102.326L186.38 96.0762L187.13 95.6426L187.88 96.0762L191.602 98.2236V93.0088L192.352 92.5762L203.177 86.3262L203.927 85.8926L204.677 86.3262L208.398 88.4736V83.2588L209.148 82.8262L219.973 76.5762L220.723 76.1426L221.473 76.5762L260.445 99.0762L261.195 99.5088V156.241Z" fill="#474C59" stroke="#474C59" stroke-width="3"/>
<path d="M209.797 84L248.768 106.5L248.768 161.5L209.797 139L209.797 84Z" fill="url(#paint69_linear_4171_1495)"/>
<rect width="12.5" height="55" transform="matrix(0.866025 -0.5 2.20305e-08 1 248.768 106.5)" fill="url(#paint70_linear_4171_1495)"/>
<path d="M220.622 77.75L259.593 100.25L248.768 106.5L209.797 84L220.622 77.75Z" fill="url(#paint71_linear_4171_1495)"/>
<path d="M193 93.75L231.971 116.25L231.971 171.25L193 148.75L193 93.75Z" fill="url(#paint72_linear_4171_1495)"/>
<rect width="12.5" height="55" transform="matrix(0.866025 -0.5 2.20305e-08 1 231.971 116.25)" fill="url(#paint73_linear_4171_1495)"/>
<path d="M203.825 87.5L242.797 110L231.971 116.25L193 93.75L203.825 87.5Z" fill="url(#paint74_linear_4171_1495)"/>
<path d="M176.204 103.5L215.175 126L215.175 181L176.204 158.5L176.204 103.5Z" fill="url(#paint75_linear_4171_1495)"/>
<rect width="12.5" height="55" transform="matrix(0.866025 -0.5 2.20305e-08 1 215.175 126)" fill="url(#paint76_linear_4171_1495)"/>
<path d="M187.029 97.25L226 119.75L215.175 126L176.204 103.5L187.029 97.25Z" fill="url(#paint77_linear_4171_1495)"/>
<path d="M181 128.75C181 128.198 181.388 127.974 181.866 128.25L204.383 141.25C204.861 141.526 205.249 142.198 205.249 142.75V144.75C205.249 145.302 204.861 145.526 204.383 145.25L181.866 132.25C181.388 131.974 181 131.302 181 130.75V128.75ZM181 121.75C181 121.198 181.388 120.974 181.866 121.25L190.094 126C190.572 126.276 190.959 126.948 190.959 127.5V129.5C190.959 130.052 190.572 130.276 190.094 130L181.866 125.25C181.388 124.974 181 124.302 181 123.75V121.75ZM181 114.75C181 114.198 181.388 113.974 181.866 114.25L198.32 123.75C198.799 124.026 199.186 124.698 199.187 125.25V127.25C199.187 127.802 198.799 128.026 198.32 127.75L181.866 118.25C181.388 117.974 181 117.302 181 116.75V114.75Z" fill="#7587BA"/>
<defs>
<filter id="filter0_d_4171_1495" x="323" y="86" width="122" height="66" filterUnits="userSpaceOnUse" color-interpolation-filters="sRGB">
<feFlood flood-opacity="0" result="BackgroundImageFix"/>
<feColorMatrix in="SourceAlpha" type="matrix" values="0 0 0 0 0 0 0 0 0 0 0 0 0 0 0 0 0 0 127 0" result="hardAlpha"/>
<feOffset dy="2"/>
<feGaussianBlur stdDeviation="3"/>
<feColorMatrix type="matrix" values="0 0 0 0 0 0 0 0 0 0 0 0 0 0 0 0 0 0 0.15 0"/>
<feBlend mode="normal" in2="BackgroundImageFix" result="effect1_dropShadow_4171_1495"/>
<feBlend mode="normal" in="SourceGraphic" in2="effect1_dropShadow_4171_1495" result="shape"/>
</filter>
<filter id="filter1_i_4171_1495" x="375.5" y="134" width="16" height="7.58569" filterUnits="userSpaceOnUse" color-interpolation-filters="sRGB">
<feFlood flood-opacity="0" result="BackgroundImageFix"/>
<feBlend mode="normal" in="SourceGraphic" in2="BackgroundImageFix" result="shape"/>
<feColorMatrix in="SourceAlpha" type="matrix" values="0 0 0 0 0 0 0 0 0 0 0 0 0 0 0 0 0 0 127 0" result="hardAlpha"/>
<feOffset dy="-1.5"/>
<feComposite in2="hardAlpha" operator="arithmetic" k2="-1" k3="1"/>
<feColorMatrix type="matrix" values="0 0 0 0 0.752941 0 0 0 0 0.788235 0 0 0 0 0.878431 0 0 0 1 0"/>
<feBlend mode="normal" in2="shape" result="effect1_innerShadow_4171_1495"/>
</filter>
<filter id="filter2_d_4171_1495" x="562" y="420.914" width="186.071" height="112.5" filterUnits="userSpaceOnUse" color-interpolation-filters="sRGB">
<feFlood flood-opacity="0" result="BackgroundImageFix"/>
<feColorMatrix in="SourceAlpha" type="matrix" values="0 0 0 0 0 0 0 0 0 0 0 0 0 0 0 0 0 0 127 0" result="hardAlpha"/>
<feOffset dy="2"/>
<feGaussianBlur stdDeviation="3"/>
<feColorMatrix type="matrix" values="0 0 0 0 0 0 0 0 0 0 0 0 0 0 0 0 0 0 0.15 0"/>
<feBlend mode="normal" in2="BackgroundImageFix" result="effect1_dropShadow_4171_1495"/>
<feBlend mode="normal" in="SourceGraphic" in2="effect1_dropShadow_4171_1495" result="shape"/>
</filter>
<linearGradient id="paint0_linear_4171_1495" x1="516.252" y1="336.693" x2="316.784" y2="451.856" gradientUnits="userSpaceOnUse">
<stop stop-color="#BDCEF8"/>
<stop offset="1" stop-color="#A4B5DE"/>
</linearGradient>
<linearGradient id="paint1_linear_4171_1495" x1="39.6802" y1="74.3789" x2="9.53547" y2="15.7499" gradientUnits="userSpaceOnUse">
<stop stop-color="#CAD1E7"/>
<stop offset="1" stop-color="#B4BDD8"/>
</linearGradient>
<linearGradient id="paint2_linear_4171_1495" x1="404.408" y1="181.509" x2="404.408" y2="242.309" gradientUnits="userSpaceOnUse">
<stop stop-color="#CAD1E7"/>
<stop offset="1" stop-color="#B4BDD8"/>
</linearGradient>
<linearGradient id="paint3_linear_4171_1495" x1="30.2491" y1="0.60498" x2="6.04983" y2="49.0036" gradientUnits="userSpaceOnUse">
<stop stop-color="#CFD8EF"/>
<stop offset="1" stop-color="#D5DAE9"/>
</linearGradient>
<linearGradient id="paint4_linear_4171_1495" x1="370.278" y1="184.925" x2="427.459" y2="238.947" gradientUnits="userSpaceOnUse">
<stop stop-color="#9DA4B9"/>
<stop offset="1" stop-color="#808BAB"/>
</linearGradient>
<linearGradient id="paint5_linear_4171_1495" x1="6.075" y1="0.573748" x2="-14.5291" y2="9.3002" gradientUnits="userSpaceOnUse">
<stop stop-color="#CFD8EF"/>
<stop offset="1" stop-color="#D5DAE9"/>
</linearGradient>
<linearGradient id="paint6_linear_4171_1495" x1="380.794" y1="178.819" x2="375.34" y2="188.884" gradientUnits="userSpaceOnUse">
<stop stop-color="#EDF1FD"/>
<stop offset="1" stop-color="#E1E5F1"/>
</linearGradient>
<linearGradient id="paint7_linear_4171_1495" x1="345.978" y1="199.1" x2="403.159" y2="253.122" gradientUnits="userSpaceOnUse">
<stop stop-color="#9DA4B9"/>
<stop offset="1" stop-color="#808BAB"/>
</linearGradient>
<linearGradient id="paint8_linear_4171_1495" x1="6.075" y1="0.573748" x2="-14.5291" y2="9.3002" gradientUnits="userSpaceOnUse">
<stop stop-color="#CFD8EF"/>
<stop offset="1" stop-color="#D5DAE9"/>
</linearGradient>
<linearGradient id="paint9_linear_4171_1495" x1="356.494" y1="192.995" x2="351.04" y2="203.059" gradientUnits="userSpaceOnUse">
<stop stop-color="#EDF1FD"/>
<stop offset="1" stop-color="#E1E5F1"/>
</linearGradient>
<linearGradient id="paint10_linear_4171_1495" x1="357.59" y1="283.298" x2="353.254" y2="215.993" gradientUnits="userSpaceOnUse">
<stop stop-color="#CAD1E7"/>
<stop offset="1" stop-color="#B4BDD8"/>
</linearGradient>
<linearGradient id="paint11_linear_4171_1495" x1="407.195" y1="214.548" x2="402.881" y2="281.518" gradientUnits="userSpaceOnUse">
<stop stop-color="#CFD8EF"/>
<stop offset="1" stop-color="#D5DAE9"/>
</linearGradient>
<linearGradient id="paint12_linear_4171_1495" x1="328.546" y1="198.739" x2="312.297" y2="229.913" gradientUnits="userSpaceOnUse">
<stop stop-color="#EDF1FD"/>
<stop offset="1" stop-color="#E1E5F1"/>
</linearGradient>
<linearGradient id="paint13_linear_4171_1495" x1="433.451" y1="198.739" x2="449.7" y2="229.913" gradientUnits="userSpaceOnUse">
<stop stop-color="#EDF1FD"/>
<stop offset="1" stop-color="#E1E5F1"/>
</linearGradient>
<linearGradient id="paint14_linear_4171_1495" x1="425.352" y1="238.908" x2="336.625" y2="238.908" gradientUnits="userSpaceOnUse">
<stop stop-color="#82A2FF"/>
<stop offset="0.398949" stop-color="#7C9EFF"/>
<stop offset="0.607454" stop-color="#3E6BEC"/>
<stop offset="1" stop-color="#6C93FF"/>
</linearGradient>
<linearGradient id="paint15_linear_4171_1495" x1="425.352" y1="214.408" x2="336.625" y2="214.408" gradientUnits="userSpaceOnUse">
<stop stop-color="#82A2FF"/>
<stop offset="0.398949" stop-color="#7C9EFF"/>
<stop offset="0.607454" stop-color="#3E6BEC"/>
<stop offset="1" stop-color="#6C93FF"/>
</linearGradient>
<linearGradient id="paint16_linear_4171_1495" x1="336.596" y1="157.987" x2="340.032" y2="214.394" gradientUnits="userSpaceOnUse">
<stop stop-color="#88A7FF"/>
<stop offset="1" stop-color="#A3BBFF"/>
</linearGradient>
<linearGradient id="paint17_linear_4171_1495" x1="337.059" y1="271.043" x2="332.745" y2="204.072" gradientUnits="userSpaceOnUse">
<stop stop-color="#618AFF"/>
<stop offset="1" stop-color="#3261E4"/>
</linearGradient>
<linearGradient id="paint18_linear_4171_1495" x1="418.128" y1="205.368" x2="386.801" y2="259.038" gradientUnits="userSpaceOnUse">
<stop stop-color="#7394F3"/>
<stop offset="1" stop-color="#7D9EFC"/>
</linearGradient>
<linearGradient id="paint19_linear_4171_1495" x1="328.581" y1="198.945" x2="312.332" y2="230.119" gradientUnits="userSpaceOnUse">
<stop stop-color="#88A7FF"/>
<stop offset="1" stop-color="#A3BBFF"/>
</linearGradient>
<linearGradient id="paint20_linear_4171_1495" x1="433.489" y1="198.945" x2="449.738" y2="230.119" gradientUnits="userSpaceOnUse">
<stop stop-color="#88A7FF"/>
<stop offset="1" stop-color="#A3BBFF"/>
</linearGradient>
<linearGradient id="paint21_linear_4171_1495" x1="141" y1="142.493" x2="301" y2="142.493" gradientUnits="userSpaceOnUse">
<stop stop-color="#DADADA"/>
<stop offset="1" stop-color="#ECECEC"/>
</linearGradient>
<linearGradient id="paint22_linear_4171_1495" x1="34.1137" y1="51.8529" x2="15.7581" y2="7.8278" gradientUnits="userSpaceOnUse">
<stop stop-color="#CAD1E7"/>
<stop offset="1" stop-color="#B4BDD8"/>
</linearGradient>
<linearGradient id="paint23_linear_4171_1495" x1="644.409" y1="408.046" x2="479.592" y2="408.046" gradientUnits="userSpaceOnUse">
<stop stop-color="#D1D8EF"/>
<stop offset="0.400167" stop-color="#D8E1FB"/>
<stop offset="0.472975" stop-color="#B5BED9"/>
<stop offset="1" stop-color="#B4BDD8"/>
</linearGradient>
<linearGradient id="paint24_linear_4171_1495" x1="479.494" y1="358.202" x2="485.878" y2="463.009" gradientUnits="userSpaceOnUse">
<stop stop-color="#EDF1FD"/>
<stop offset="1" stop-color="#E1E5F1"/>
</linearGradient>
<linearGradient id="paint25_linear_4171_1495" x1="30.9333" y1="126.868" x2="-31.851" y2="71.0591" gradientUnits="userSpaceOnUse">
<stop stop-color="#CAD1E7"/>
<stop offset="1" stop-color="#B4BDD8"/>
</linearGradient>
<linearGradient id="paint26_linear_4171_1495" x1="629.618" y1="87.0564" x2="620.541" y2="87.9845" gradientUnits="userSpaceOnUse">
<stop stop-color="#CFD8EF"/>
<stop offset="1" stop-color="#D5DAE9"/>
</linearGradient>
<linearGradient id="paint27_linear_4171_1495" x1="524.296" y1="22.8544" x2="521.923" y2="26.9999" gradientUnits="userSpaceOnUse">
<stop stop-color="#EDF1FD"/>
<stop offset="1" stop-color="#E1E5F1"/>
</linearGradient>
<linearGradient id="paint28_linear_4171_1495" x1="579.458" y1="150.154" x2="593.507" y2="62.2498" gradientUnits="userSpaceOnUse">
<stop stop-color="#CAD1E7"/>
<stop offset="1" stop-color="#B4BDD8"/>
</linearGradient>
<linearGradient id="paint29_linear_4171_1495" x1="9.74018" y1="2.96793" x2="9.49467" y2="0.0305225" gradientUnits="userSpaceOnUse">
<stop stop-color="#CAD1E7"/>
<stop offset="1" stop-color="#B4BDD8"/>
</linearGradient>
<linearGradient id="paint30_linear_4171_1495" x1="9.74018" y1="2.96794" x2="9.49467" y2="0.0305226" gradientUnits="userSpaceOnUse">
<stop stop-color="#CAD1E7"/>
<stop offset="1" stop-color="#B4BDD8"/>
</linearGradient>
<linearGradient id="paint31_linear_4171_1495" x1="5.68178" y1="2.96794" x2="5.26648" y2="0.0695066" gradientUnits="userSpaceOnUse">
<stop stop-color="#CAD1E7"/>
<stop offset="1" stop-color="#B4BDD8"/>
</linearGradient>
<linearGradient id="paint32_linear_4171_1495" x1="6.49345" y1="2.96794" x2="6.12835" y2="0.0557762" gradientUnits="userSpaceOnUse">
<stop stop-color="#CAD1E7"/>
<stop offset="1" stop-color="#B4BDD8"/>
</linearGradient>
<linearGradient id="paint33_linear_4171_1495" x1="14.6103" y1="2.96794" x2="14.446" y2="0.0191577" gradientUnits="userSpaceOnUse">
<stop stop-color="#CAD1E7"/>
<stop offset="1" stop-color="#B4BDD8"/>
</linearGradient>
<linearGradient id="paint34_linear_4171_1495" x1="5.68177" y1="2.96794" x2="5.26648" y2="0.0695068" gradientUnits="userSpaceOnUse">
<stop stop-color="#CAD1E7"/>
<stop offset="1" stop-color="#B4BDD8"/>
</linearGradient>
<linearGradient id="paint35_linear_4171_1495" x1="14.6103" y1="2.96794" x2="14.446" y2="0.0191576" gradientUnits="userSpaceOnUse">
<stop stop-color="#CAD1E7"/>
<stop offset="1" stop-color="#B4BDD8"/>
</linearGradient>
<linearGradient id="paint36_linear_4171_1495" x1="9.74018" y1="2.96794" x2="9.49467" y2="0.0305226" gradientUnits="userSpaceOnUse">
<stop stop-color="#CAD1E7"/>
<stop offset="1" stop-color="#B4BDD8"/>
</linearGradient>
<linearGradient id="paint37_linear_4171_1495" x1="14.6103" y1="2.96794" x2="14.446" y2="0.0191576" gradientUnits="userSpaceOnUse">
<stop stop-color="#CAD1E7"/>
<stop offset="1" stop-color="#B4BDD8"/>
</linearGradient>
<linearGradient id="paint38_linear_4171_1495" x1="607.846" y1="100.01" x2="598.769" y2="100.938" gradientUnits="userSpaceOnUse">
<stop stop-color="#CFD8EF"/>
<stop offset="1" stop-color="#D5DAE9"/>
</linearGradient>
<linearGradient id="paint39_linear_4171_1495" x1="502.521" y1="35.8085" x2="500.148" y2="39.954" gradientUnits="userSpaceOnUse">
<stop stop-color="#EDF1FD"/>
<stop offset="1" stop-color="#E1E5F1"/>
</linearGradient>
<linearGradient id="paint40_linear_4171_1495" x1="557.685" y1="163.107" x2="571.735" y2="75.2037" gradientUnits="userSpaceOnUse">
<stop stop-color="#CAD1E7"/>
<stop offset="1" stop-color="#B4BDD8"/>
</linearGradient>
<linearGradient id="paint41_linear_4171_1495" x1="546.424" y1="78.9531" x2="546.424" y2="148.953" gradientUnits="userSpaceOnUse">
<stop stop-color="#8495C7"/>
<stop offset="1" stop-color="#92A2D0"/>
</linearGradient>
<linearGradient id="paint42_linear_4171_1495" x1="586.096" y1="112.747" x2="577.019" y2="113.675" gradientUnits="userSpaceOnUse">
<stop stop-color="#CFD8EF"/>
<stop offset="1" stop-color="#D5DAE9"/>
</linearGradient>
<linearGradient id="paint43_linear_4171_1495" x1="480.771" y1="48.5448" x2="478.398" y2="52.6904" gradientUnits="userSpaceOnUse">
<stop stop-color="#EDF1FD"/>
<stop offset="1" stop-color="#E1E5F1"/>
</linearGradient>
<linearGradient id="paint44_linear_4171_1495" x1="535.935" y1="175.844" x2="549.985" y2="87.94" gradientUnits="userSpaceOnUse">
<stop stop-color="#CAD1E7"/>
<stop offset="1" stop-color="#B4BDD8"/>
</linearGradient>
<linearGradient id="paint45_linear_4171_1495" x1="-0.00236808" y1="0.00236809" x2="0.458996" y2="4.37567" gradientUnits="userSpaceOnUse">
<stop stop-color="#EDF1FD"/>
<stop offset="1" stop-color="#E1E5F1"/>
</linearGradient>
<linearGradient id="paint46_linear_4171_1495" x1="-0.00236808" y1="0.00236809" x2="0.458997" y2="4.37568" gradientUnits="userSpaceOnUse">
<stop stop-color="#EDF1FD"/>
<stop offset="1" stop-color="#E1E5F1"/>
</linearGradient>
<linearGradient id="paint47_linear_4171_1495" x1="-0.00236808" y1="0.00236809" x2="0.458998" y2="4.37568" gradientUnits="userSpaceOnUse">
<stop stop-color="#EDF1FD"/>
<stop offset="1" stop-color="#E1E5F1"/>
</linearGradient>
<linearGradient id="paint48_linear_4171_1495" x1="6.43775" y1="2.96794" x2="6.06958" y2="0.0565592" gradientUnits="userSpaceOnUse">
<stop stop-color="#CAD1E7"/>
<stop offset="1" stop-color="#B4BDD8"/>
</linearGradient>
<linearGradient id="paint49_linear_4171_1495" x1="6.43775" y1="2.96794" x2="6.06958" y2="0.0565592" gradientUnits="userSpaceOnUse">
<stop stop-color="#CAD1E7"/>
<stop offset="1" stop-color="#B4BDD8"/>
</linearGradient>
<linearGradient id="paint50_linear_4171_1495" x1="6.43775" y1="2.96794" x2="6.06958" y2="0.0565592" gradientUnits="userSpaceOnUse">
<stop stop-color="#CAD1E7"/>
<stop offset="1" stop-color="#B4BDD8"/>
</linearGradient>
<linearGradient id="paint51_linear_4171_1495" x1="6.43775" y1="2.96794" x2="6.06958" y2="0.0565592" gradientUnits="userSpaceOnUse">
<stop stop-color="#CAD1E7"/>
<stop offset="1" stop-color="#B4BDD8"/>
</linearGradient>
<linearGradient id="paint52_linear_4171_1495" x1="6.43775" y1="2.96794" x2="6.06958" y2="0.0565592" gradientUnits="userSpaceOnUse">
<stop stop-color="#CAD1E7"/>
<stop offset="1" stop-color="#B4BDD8"/>
</linearGradient>
<linearGradient id="paint53_linear_4171_1495" x1="6.43775" y1="2.96794" x2="6.06958" y2="0.0565592" gradientUnits="userSpaceOnUse">
<stop stop-color="#CAD1E7"/>
<stop offset="1" stop-color="#B4BDD8"/>
</linearGradient>
<linearGradient id="paint54_linear_4171_1495" x1="6.43775" y1="2.96794" x2="6.06958" y2="0.0565592" gradientUnits="userSpaceOnUse">
<stop stop-color="#CAD1E7"/>
<stop offset="1" stop-color="#B4BDD8"/>
</linearGradient>
<linearGradient id="paint55_linear_4171_1495" x1="6.43775" y1="2.96794" x2="6.06958" y2="0.0565592" gradientUnits="userSpaceOnUse">
<stop stop-color="#CAD1E7"/>
<stop offset="1" stop-color="#B4BDD8"/>
</linearGradient>
<linearGradient id="paint56_linear_4171_1495" x1="265" y1="387.054" x2="85.0003" y2="387.054" gradientUnits="userSpaceOnUse">
<stop stop-color="#ECECEC"/>
<stop offset="1" stop-color="#DADADA"/>
</linearGradient>
<linearGradient id="paint57_linear_4171_1495" x1="8.15464" y1="126.868" x2="-19.932" y2="120.286" gradientUnits="userSpaceOnUse">
<stop stop-color="#CAD1E7"/>
<stop offset="1" stop-color="#B4BDD8"/>
</linearGradient>
<linearGradient id="paint58_linear_4171_1495" x1="228.711" y1="342.057" x2="219.634" y2="342.985" gradientUnits="userSpaceOnUse">
<stop stop-color="#CFD8EF"/>
<stop offset="1" stop-color="#D5DAE9"/>
</linearGradient>
<linearGradient id="paint59_linear_4171_1495" x1="123.388" y1="277.855" x2="121.015" y2="282" gradientUnits="userSpaceOnUse">
<stop stop-color="#EDF1FD"/>
<stop offset="1" stop-color="#E1E5F1"/>
</linearGradient>
<linearGradient id="paint60_linear_4171_1495" x1="178.55" y1="405.154" x2="192.6" y2="317.25" gradientUnits="userSpaceOnUse">
<stop stop-color="#CAD1E7"/>
<stop offset="1" stop-color="#B4BDD8"/>
</linearGradient>
<linearGradient id="paint61_linear_4171_1495" x1="-0.022559" y1="0.015736" x2="2.12813" y2="29.2417" gradientUnits="userSpaceOnUse">
<stop stop-color="#EDF1FD"/>
<stop offset="1" stop-color="#E1E5F1"/>
</linearGradient>
<linearGradient id="paint62_linear_4171_1495" x1="-0.022559" y1="0.0170091" x2="2.48792" y2="31.5788" gradientUnits="userSpaceOnUse">
<stop stop-color="#EDF1FD"/>
<stop offset="1" stop-color="#E1E5F1"/>
</linearGradient>
<linearGradient id="paint63_linear_4171_1495" x1="-0.03162" y1="0.00494846" x2="0.120895" y2="9.2428" gradientUnits="userSpaceOnUse">
<stop stop-color="#EDF1FD"/>
<stop offset="1" stop-color="#E1E5F1"/>
</linearGradient>
<linearGradient id="paint64_linear_4171_1495" x1="14.6103" y1="2.96794" x2="14.446" y2="0.0191576" gradientUnits="userSpaceOnUse">
<stop stop-color="#CAD1E7"/>
<stop offset="1" stop-color="#B4BDD8"/>
</linearGradient>
<linearGradient id="paint65_linear_4171_1495" x1="9.74018" y1="2.96794" x2="9.49467" y2="0.0305226" gradientUnits="userSpaceOnUse">
<stop stop-color="#CAD1E7"/>
<stop offset="1" stop-color="#B4BDD8"/>
</linearGradient>
<linearGradient id="paint66_linear_4171_1495" x1="4.47149" y1="2.96794" x2="3.95023" y2="0.104904" gradientUnits="userSpaceOnUse">
<stop stop-color="#CAD1E7"/>
<stop offset="1" stop-color="#B4BDD8"/>
</linearGradient>
<linearGradient id="paint67_linear_4171_1495" x1="4.47149" y1="2.96794" x2="3.95023" y2="0.104904" gradientUnits="userSpaceOnUse">
<stop stop-color="#CAD1E7"/>
<stop offset="1" stop-color="#B4BDD8"/>
</linearGradient>
<linearGradient id="paint68_linear_4171_1495" x1="9.74018" y1="2.96794" x2="9.49467" y2="0.0305226" gradientUnits="userSpaceOnUse">
<stop stop-color="#CAD1E7"/>
<stop offset="1" stop-color="#B4BDD8"/>
</linearGradient>
<linearGradient id="paint69_linear_4171_1495" x1="209.773" y1="84.0192" x2="263.783" y2="148.783" gradientUnits="userSpaceOnUse">
<stop stop-color="#9DA4B9"/>
<stop offset="1" stop-color="#808BAB"/>
</linearGradient>
<linearGradient id="paint70_linear_4171_1495" x1="6.25" y1="0.549998" x2="-14.4692" y2="9.9678" gradientUnits="userSpaceOnUse">
<stop stop-color="#CFD8EF"/>
<stop offset="1" stop-color="#D5DAE9"/>
</linearGradient>
<linearGradient id="paint71_linear_4171_1495" x1="220.592" y1="77.7404" x2="214.954" y2="88.0958" gradientUnits="userSpaceOnUse">
<stop stop-color="#EDF1FD"/>
<stop offset="1" stop-color="#E1E5F1"/>
</linearGradient>
<linearGradient id="paint72_linear_4171_1495" x1="192.977" y1="93.7692" x2="246.987" y2="158.533" gradientUnits="userSpaceOnUse">
<stop stop-color="#9DA4B9"/>
<stop offset="1" stop-color="#808BAB"/>
</linearGradient>
<linearGradient id="paint73_linear_4171_1495" x1="6.25" y1="0.549998" x2="-14.4692" y2="9.9678" gradientUnits="userSpaceOnUse">
<stop stop-color="#CFD8EF"/>
<stop offset="1" stop-color="#D5DAE9"/>
</linearGradient>
<linearGradient id="paint74_linear_4171_1495" x1="203.796" y1="87.4904" x2="198.158" y2="97.8458" gradientUnits="userSpaceOnUse">
<stop stop-color="#EDF1FD"/>
<stop offset="1" stop-color="#E1E5F1"/>
</linearGradient>
<linearGradient id="paint75_linear_4171_1495" x1="197.763" y1="171.409" x2="190.786" y2="117.029" gradientUnits="userSpaceOnUse">
<stop stop-color="#CAD1E7"/>
<stop offset="1" stop-color="#B4BDD8"/>
</linearGradient>
<linearGradient id="paint76_linear_4171_1495" x1="6.25" y1="0.549998" x2="-14.4692" y2="9.9678" gradientUnits="userSpaceOnUse">
<stop stop-color="#CFD8EF"/>
<stop offset="1" stop-color="#D5DAE9"/>
</linearGradient>
<linearGradient id="paint77_linear_4171_1495" x1="186.999" y1="97.2404" x2="181.361" y2="107.596" gradientUnits="userSpaceOnUse">
<stop stop-color="#EDF1FD"/>
<stop offset="1" stop-color="#E1E5F1"/>
</linearGradient>
<clipPath id="clip0_4171_1495">
<rect width="162" height="162" fill="white" transform="translate(299.999 148)"/>
</clipPath>
<clipPath id="clip1_4171_1495">
<rect width="161" height="40" rx="20" transform="matrix(0.866025 -0.5 0.866025 0.5 568 505.414)" fill="white"/>
</clipPath>
<clipPath id="clip2_4171_1495">
<rect width="38.1051" height="26.5802" rx="2.15366" transform="matrix(0.866025 0.5 -2.20305e-08 1 130 337)" fill="white"/>
</clipPath>
<clipPath id="clip3_4171_1495">
<rect width="38.1051" height="28.7306" rx="2.15366" transform="matrix(0.866025 0.5 -2.20305e-08 1 182 336)" fill="white"/>
</clipPath>
<clipPath id="clip4_4171_1495">
<rect width="53.4103" height="8.19111" rx="2.15366" transform="matrix(0.866025 0.5 -2.20305e-08 1 168 363)" fill="white"/>
</clipPath>
</defs>
</svg>
