<svg width="185" height="158" viewBox="0 0 185 158" fill="none" xmlns="http://www.w3.org/2000/svg">
<path d="M77.5559 124.086L82.991 108.774L94.5957 76.0815L96.2115 71.5294L87.4224 63.2838L72.2412 49.0416L57.06 34.7993L42.2236 76.5965L38.483 87.1348C38.2574 87.7704 38.4351 88.4793 38.9339 88.9332L41.6325 91.3895L77.5559 124.086Z" fill="#D0DEE8"/>
<path d="M82.991 108.774L77.5559 124.086L89.4429 123.417L129.698 121.151C130.371 121.113 130.956 120.675 131.182 120.039L145.94 78.4634L149.759 67.7037L135.416 68.7284L96.2115 71.5294L94.5957 76.0815L82.991 108.774Z" fill="#F8FEFF"/>
<path d="M111.141 31.4749C110.801 31.1554 110.342 30.9926 109.876 31.0259L57.06 34.7993L72.2412 49.0416L87.4224 63.2838L96.2115 71.5294L135.416 68.7284L149.759 67.7037L111.141 31.4749Z" fill="#F8FEFF"/>
<path d="M57.06 34.7993L109.876 31.0259C110.342 30.9926 110.801 31.1554 111.141 31.4749L149.759 67.7037M57.06 34.7993L42.2236 76.5966L38.483 87.1348C38.2574 87.7704 38.4351 88.4793 38.9339 88.9332L41.6325 91.3895L77.5559 124.086M57.06 34.7993L72.2412 49.0416L87.4224 63.2838L96.2115 71.5294M149.759 67.7037L135.416 68.7284L96.2115 71.5294M149.759 67.7037L145.94 78.4634L131.182 120.039C130.956 120.675 130.371 121.113 129.698 121.151L89.4429 123.417L77.5559 124.086M77.5559 124.086L82.991 108.774L94.5957 76.0815L96.2115 71.5294" stroke="#1E1E1E" stroke-width="2.67017" stroke-linecap="round" stroke-linejoin="round"/>
<path d="M55.0525 122.847C35.0888 139.915 35.9677 172.751 51.2549 204.344M38.6908 120.259C24.2817 126.698 21.2146 138.626 23.7308 154.752" stroke="#D0DEE8" stroke-width="4" stroke-linecap="round" stroke-linejoin="round"/>
<path d="M35.9366 28.2998C36.4447 29.1473 37.2195 29.5824 38.0006 29.5996C38.5213 29.611 39.132 29.4154 39.5723 29.0069C41.8605 26.9664 44.4863 25.5606 47.2762 24.7856C48.6712 24.3981 49.5644 22.7452 49.2426 21.0655C48.9208 19.3858 47.548 18.3103 46.153 18.6978C42.6656 19.6665 39.4259 21.477 36.5223 24.0266C35.3798 24.9424 35.0909 26.8177 35.9366 28.2998Z" fill="#D0DEE8"/>
<path d="M54.5164 22.6008C55.9544 22.6324 57.1414 21.2544 57.1676 19.5229C57.1939 17.7915 56.0494 16.3622 54.6115 16.3306C53.1735 16.2991 51.9865 17.6771 51.9603 19.4085C51.9341 21.14 53.0785 22.5692 54.5164 22.6008Z" fill="#D0DEE8"/>
<path d="M30.1309 21.3819C30.5585 21.8095 31.0761 22.0299 31.5968 22.0414C32.3779 22.0585 33.2521 21.6596 33.6988 20.8331C37.7924 14.2327 43.6833 9.34436 50.2289 7.08383C51.6254 6.59184 52.4334 4.83246 52.0233 3.25539C51.6146 1.57382 50.1535 0.600882 48.8437 1.09479C41.1636 3.74853 34.3937 9.34931 29.5883 17.084C28.6998 18.4235 28.9317 20.3102 30.1309 21.3819Z" fill="#D0DEE8"/>
<path d="M162.143 73.0214C162.835 74.1472 164.399 74.486 165.636 73.7782C166.872 73.0704 167.313 71.584 166.621 70.4582C165.929 69.3325 164.365 68.9937 163.128 69.7015C161.892 70.4093 161.45 71.8957 162.143 73.0214Z" fill="#D0DEE8"/>
<path d="M162.478 79.6941C163.159 86.3642 161.687 93.0876 158.253 99.1941C158.038 99.6261 157.916 100.126 157.965 100.602C158.046 101.396 158.545 102.053 159.275 102.436C160.54 102.987 162.049 102.539 162.787 101.311C166.736 94.3288 168.366 86.6176 167.587 78.9945C167.449 77.6446 166.237 76.7639 164.789 76.9621C163.341 77.1603 162.34 78.3441 162.478 79.6941Z" fill="#D0DEE8"/>
</svg>
