<svg xmlns="http://www.w3.org/2000/svg" id="night-logo" fill="none" class="logo" viewBox="0 0 115 101"><path fill="#3347FF" d="M77.4143 78.2644H25.825V88.0169H77.4143V78.2644Z" opacity="1" transform="scale(1)" transform-origin="center"/><path fill="#3347FF" d="M46.3757 66.7441L44.7389 65.1594H40.6772H39.8892V74.851H54.4384L48.5581 68.9994L46.3757 66.7441Z" opacity="1" transform="scale(1)" transform-origin="center"/><path fill="#3347FF" d="M54.4385 74.851H77.4142V65.1594H76.0805H64.3199L54.4385 74.851Z" opacity="1" transform="scale(1)" transform-origin="center"/><path fill="#3347FF" d="M76.0806 61.9288H77.4143V52.2372L67.5935 61.9288H76.0806Z" opacity="1" transform="scale(1)" transform-origin="center"/><path fill="#3347FF" d="M40.8591 61.1974L39.8892 60.2221L47.9519 52.1763H39.8892V61.9288H40.6772H41.526L40.8591 61.1974Z" opacity="1" transform="scale(1)" transform-origin="center"/><path fill="#3347FF" d="M77.4749 91.2475H25.825V101H77.4749V91.2475Z" opacity="1" transform="scale(1)" transform-origin="center"/><path fill="#3347FF" d="M51.0437 26.3929H25.825V36.0845H60.7432L51.0437 26.3929Z" opacity="1" transform="scale(1)" transform-origin="center"/><path fill="#3347FF" d="M60.7432 39.3151H25.825V49.0676H51.0437L60.7432 39.3151Z" opacity="1" transform="scale(1)" transform-origin="center"/><path fill="#00D215" d="M22.6121 0.304779H12.9126V61.9288H25.8251V52.1762H22.6121V0.304779Z" opacity="1" transform="scale(1)" transform-origin="center"/><path fill="#00D215" d="M9.69952 0.304779H0V74.8509L25.825 74.9119V65.1593H9.69952V0.304779Z" opacity="1" transform="scale(1)" transform-origin="center"/><path fill="#00E0FF" d="M39.8893 52.1763H25.825V61.9288H39.8893V52.1763Z" opacity="1" transform="scale(1)" transform-origin="center"/><path fill="#00E0FF" d="M39.8893 65.1594H25.825V74.851H39.8893V65.1594Z" opacity="1" transform="scale(1)" transform-origin="center"/><path fill="#D32B2B" d="M115 15.1774L108.514 8.71637L79.6575 37.7302L108.514 66.7441L115 60.283L92.57 37.7302L115 15.1774Z" opacity="1" transform="scale(1)" transform-origin="center"/><path fill="#D32B2B" d="M77.4752 39.9855L106.331 68.9994L100.148 75.2166L77.4146 52.2372V52.1762V39.9855" opacity="1" transform="scale(1)" transform-origin="center"/><path fill="#D32B2B" d="M77.4144 35.4749H77.4751L106.331 6.46108L99.9052 0L77.4751 22.5528L54.9843 0L48.5583 6.46108L68.3818 26.3929H77.4144V35.4749Z" opacity="1" transform="scale(1)" transform-origin="center"/><path fill="#D32B2B" d="M46.376 8.71637L39.8894 15.1774L51.0439 26.3929H63.9563L46.376 8.71637Z" opacity="1" transform="scale(1)" transform-origin="center"/><path fill="#fff" d="M77.4143 35.5359L77.4749 35.475H77.4143V35.5359Z" opacity="1" transform="scale(1)" transform-origin="center"/><path fill="#fff" d="M77.4143 39.9855H77.4749L77.4143 39.9246V39.9855Z" opacity="1" transform="scale(1)" transform-origin="center"/><path fill="#49D3FF" d="M46.3757 8.71637L63.9561 26.3929L46.3757 8.71637Z" opacity="1" transform="scale(1)" transform-origin="center"/><path fill="#fff" d="M46.3757 8.71637L63.9561 26.3929L46.3757 8.71637Z" opacity="1" transform="scale(1)" transform-origin="center"/><path fill="#FFDD2D" d="M77.4145 26.3929H68.3818L77.4145 35.475V26.3929Z" opacity="1" transform="scale(1)" transform-origin="center"/><path fill="#FFDD2D" d="M52.3775 65.1594L48.5583 68.9994L54.4387 74.851L64.3201 65.1594H52.3775Z" opacity="1" transform="scale(1)" transform-origin="center"/><path fill="#FFDD2D" d="M65.29 52.1763L55.6511 61.9288H67.5937L77.4144 52.2372V52.1763H65.29Z" opacity="1" transform="scale(1)" transform-origin="center"/><path fill="#FFDD2D" d="M77.4751 39.9856H77.4145L68.3818 49.0676H77.4145V39.9856" opacity="1" transform="scale(1)" transform-origin="center"/><path fill="#FFDD2D" d="M44.7393 65.1594L46.376 66.7441L47.9522 65.1594H44.7393Z" opacity="1" transform="scale(1)" transform-origin="center"/><path fill="#FFDD2D" d="M60.8646 52.1763H47.9521L39.8894 60.2221L41.5262 61.9288H51.1651L60.8646 52.1763Z" opacity="1" transform="scale(1)" transform-origin="center"/><path fill="#FFDD2D" d="M73.5953 36.0845L68.8062 31.2692L63.9564 26.3929H51.0439L60.7435 36.0845H73.5953Z" opacity="1" transform="scale(1)" transform-origin="center"/><path fill="#FFDD2D" d="M73.5953 39.3151H60.7435L51.0439 49.0676H63.9564L73.5953 39.3151Z" opacity="1" transform="scale(1)" transform-origin="center"/></svg>