<?xml version="1.0" encoding="utf-8"?>
<!-- Generator: Adobe Illustrator 24.2.1, SVG Export Plug-In . SVG Version: 6.00 Build 0)  -->
<svg version="1.1" id="Layer_1" xmlns="http://www.w3.org/2000/svg" xmlns:xlink="http://www.w3.org/1999/xlink" x="0px" y="0px"
	 viewBox="0 0 600 158" style="enable-background:new 0 0 600 158;" xml:space="preserve">
<style type="text/css">
	.st0{fill:#231F20;}
</style>
<g>
	<path class="st0" d="M67.89,3.82L5.52,66.19L16.5,77.17l51.4-51.4l51.4,51.4l10.98-10.98L67.89,3.82z M21.02,81.7l10.8,10.8
		l36.08-36.08l36.08,36.08l10.79-10.79L67.89,34.82L21.02,81.7z"/>
	<g>
		<path class="st0" d="M215.55,49.35v20.77h-48.69v21.03h44.98v19.67h-44.98v41.8h-23.24V49.35H215.55z"/>
		<path class="st0" d="M242.47,152.62h-21.46V81.65h21.46V152.62z M242.02,69.42h-20.54V49.97h20.54V69.42z"/>
		<path class="st0" d="M270.67,152.62h-21.46V49.35h21.46V152.62z"/>
		<path class="st0" d="M347.69,119.2v4.26h-52.54c0.73,4.86,2.52,8.58,5.37,11.14c2.84,2.57,6.46,3.85,10.87,3.85
			c6.97,0,11.74-2.66,14.31-7.98h20.35c-1.93,7.34-6.01,13.14-12.24,17.4c-6.24,4.26-13.71,6.4-22.42,6.4
			c-11,0-19.9-3.39-26.68-10.18c-6.79-6.78-10.18-15.77-10.18-26.96c0-11.28,3.35-20.26,10.04-26.96
			c6.6-6.78,15.45-10.18,26.55-10.18c11,0,19.9,3.53,26.68,10.59C344.39,97.74,347.69,107.28,347.69,119.2z M310.83,95.82
			c-8.8,0-13.99,4.68-15.54,14.03h31.36c-0.73-4.4-2.48-7.84-5.23-10.32C318.67,97.06,315.14,95.82,310.83,95.82z"/>
		<path class="st0" d="M396.66,81.65h22.01l-25.31,70.97h-25.58l-25.31-70.97h23.11c0,0,15.27,49.17,15.54,50.18
			C381.39,130.82,396.66,81.65,396.66,81.65z"/>
		<path class="st0" d="M492.8,80c7.52,0,13.5,2.27,17.95,6.81c4.45,4.54,6.67,10.98,6.67,19.32v46.49h-21.46V110.4
			c0-8.07-3.81-12.1-11.42-12.1c-3.85,0-7.06,1.28-9.63,3.85c-2.57,2.57-3.85,6.19-3.85,10.87v39.61h-21.46V81.65h20.91v10.04
			C476.02,83.9,483.44,80,492.8,80z"/>
		<path class="st0" d="M594.3,119.2v4.26h-52.54c0.73,4.86,2.52,8.58,5.37,11.14c2.84,2.57,6.46,3.85,10.87,3.85
			c6.97,0,11.74-2.66,14.31-7.98h20.35c-1.93,7.34-6.01,13.14-12.24,17.4c-6.24,4.26-13.71,6.4-22.42,6.4
			c-11,0-19.9-3.39-26.68-10.18c-6.79-6.78-10.18-15.77-10.18-26.96c0-11.28,3.35-20.26,10.04-26.96
			c6.6-6.78,15.45-10.18,26.55-10.18c11,0,19.9,3.53,26.68,10.59C591,97.74,594.3,107.28,594.3,119.2z M557.44,95.82
			c-8.8,0-13.99,4.68-15.54,14.03h31.36c-0.73-4.4-2.48-7.84-5.23-10.32C565.28,97.06,561.75,95.82,557.44,95.82z"/>
		<path class="st0" d="M442.87,152.62h-21.46V81.65h21.46V152.62z M442.41,69.42h-20.54V49.97h20.54V69.42z"/>
	</g>
</g>
</svg>
