<svg width="155" height="79" viewBox="0 0 155 79" fill="none" xmlns="http://www.w3.org/2000/svg">
<path d="M85.1972 73.4468L0.5 39.5679L99.5017 11.7119L75.7864 0.0425415L109.289 11.7119L32.8732 39.5679L108.912 68.5532L85.1972 73.4468Z" fill="url(#paint0_linear_771_2595)"/>
<path d="M85.1972 73.4468L0.5 39.5679L99.5017 11.7119L75.7864 0.0425415L109.289 11.7119L32.8732 39.5679L108.912 68.5532L85.1972 73.4468Z" fill="white" fill-opacity="0.5"/>
<path d="M109.111 23.1895L111.484 22.8622C111.506 22.8592 111.528 22.8654 111.545 22.8795L113.396 24.4003L113.256 24.8978L112.713 26.8175C112.705 26.8483 112.678 26.8709 112.646 26.8748L110.837 27.0965L110.302 27.1621L108.582 25.7918L108.455 25.6904C108.43 25.6705 108.419 25.6374 108.428 25.6066L108.565 25.1218L109.111 23.1895Z" fill="#C2FCF6"/>
<path d="M109.111 23.1895L111.484 22.8622C111.506 22.8592 111.528 22.8654 111.545 22.8795L113.396 24.4003M109.111 23.1895L108.565 25.1218L108.428 25.6066C108.419 25.6374 108.43 25.6705 108.455 25.6904L108.582 25.7918L110.302 27.1621M109.111 23.1895L110.567 24.386L110.989 24.7324M113.396 24.4003L112.751 24.4893L110.989 24.7324M113.396 24.4003L113.256 24.8978L112.713 26.8175C112.705 26.8483 112.678 26.8709 112.646 26.8748L110.837 27.0965L110.302 27.1621M110.302 27.1621L110.502 26.4542L110.929 24.9428L110.989 24.7324" stroke="#1E1E1E" stroke-width="0.376432" stroke-linecap="round" stroke-linejoin="round"/>
<path d="M140.777 43.423L143.157 43.6888C143.179 43.6913 143.199 43.7028 143.213 43.7207L144.633 45.6497L144.375 46.0973L143.377 47.8249C143.361 47.8526 143.33 47.8681 143.299 47.864L141.49 47.6345L140.955 47.5666L139.625 45.8157L139.526 45.6861C139.507 45.6606 139.505 45.626 139.521 45.5982L139.773 45.1619L140.777 43.423Z" fill="#F8FEFF"/>
<path d="M140.777 43.423L143.157 43.6888C143.179 43.6913 143.199 43.7028 143.213 43.7207L144.633 45.6497M140.777 43.423L139.773 45.1619L139.521 45.5982C139.505 45.626 139.507 45.6606 139.526 45.6861L139.625 45.8157L140.955 47.5666M140.777 43.423L141.894 44.9407L142.218 45.38M144.633 45.6497L143.986 45.5774L142.218 45.38M144.633 45.6497L144.375 46.0973L143.377 47.8249C143.361 47.8526 143.33 47.8681 143.299 47.864L141.49 47.6345L140.955 47.5666M140.955 47.5666L141.323 46.9295L142.109 45.5694L142.218 45.38" stroke="#1E1E1E" stroke-width="0.376432" stroke-linecap="round" stroke-linejoin="round"/>
<path d="M59.4223 42.6369L62.3989 40.8014C62.4265 40.7844 62.4599 40.7797 62.4911 40.7884L65.8593 41.7289L65.9646 42.476L66.3714 45.3595C66.3779 45.4058 66.356 45.4515 66.3159 45.4754L64.0301 46.8377L63.3542 47.2405L60.2495 46.4239L60.0198 46.3635C59.9746 46.3516 59.9409 46.3138 59.9344 46.2675L59.8317 45.5393L59.4223 42.6369Z" fill="#F8FEFF"/>
<path d="M59.4223 42.6369L62.3989 40.8014C62.4265 40.7844 62.4599 40.7797 62.4911 40.7884L65.8593 41.7289M59.4223 42.6369L59.8317 45.5393L59.9344 46.2675C59.9409 46.3138 59.9746 46.3516 60.0198 46.3635L60.2495 46.4239L63.3542 47.2405M59.4223 42.6369L62.0723 43.3768L62.8394 43.591M65.8593 41.7289L65.0504 42.2277L62.8394 43.591M65.8593 41.7289L65.9646 42.476L66.3714 45.3595C66.3779 45.4058 66.356 45.4515 66.3159 45.4754L64.0301 46.8377L63.3542 47.2405M63.3542 47.2405L63.2042 46.1773L62.884 43.9071L62.8394 43.591" stroke="#1E1E1E" stroke-width="0.376432" stroke-linecap="round" stroke-linejoin="round"/>
<path d="M124.093 42.5779L128.359 43.0542C128.399 43.0586 128.434 43.0793 128.458 43.1113L131.003 46.5676L130.54 47.3697L128.753 50.4651C128.724 50.5148 128.669 50.5425 128.612 50.5353L125.372 50.1239L124.413 50.0023L122.029 46.8651L121.853 46.6329C121.818 46.5872 121.814 46.5252 121.843 46.4755L122.294 45.6937L124.093 42.5779Z" fill="#0CA5E9"/>
<path d="M124.093 42.5779L128.359 43.0542C128.399 43.0586 128.434 43.0793 128.458 43.1113L131.003 46.5676M124.093 42.5779L122.294 45.6937L121.843 46.4755C121.814 46.5252 121.818 46.5872 121.853 46.6329L122.029 46.8651L124.413 50.0023M124.093 42.5779L126.096 45.2972L126.675 46.0844M131.003 46.5676L129.844 46.4382L126.675 46.0844M131.003 46.5676L130.54 47.3697L128.753 50.4651C128.724 50.5148 128.669 50.5425 128.612 50.5353L125.372 50.1239L124.413 50.0023M124.413 50.0023L125.073 48.8608L126.48 46.4237L126.675 46.0844" stroke="#1E1E1E" stroke-width="0.376432" stroke-linecap="round" stroke-linejoin="round"/>
<path d="M120.029 50.9426L122.687 51.8984C122.712 51.9073 122.732 51.926 122.742 51.9501L123.844 54.5511L123.425 54.9939L121.809 56.7029C121.783 56.7303 121.743 56.7395 121.708 56.7262L119.696 55.9685L119.101 55.7444L118.054 53.3722L117.976 53.1967C117.961 53.1621 117.968 53.1218 117.994 53.0944L118.402 52.6628L120.029 50.9426Z" fill="#C2FCF6"/>
<path d="M120.029 50.9426L122.687 51.8984C122.712 51.9073 122.732 51.926 122.742 51.9501L123.844 54.5511M120.029 50.9426L118.402 52.6628L117.994 53.0944C117.968 53.1218 117.961 53.1621 117.976 53.1967L118.054 53.3722L119.101 55.7444M120.029 50.9426L120.896 52.989L121.147 53.5814M123.844 54.5511L123.122 54.2914L121.147 53.5814M123.844 54.5511L123.425 54.9939L121.809 56.7029C121.783 56.7303 121.743 56.7395 121.708 56.7262L119.696 55.9685L119.101 55.7444M119.101 55.7444L119.697 55.1142L120.97 53.7687L121.147 53.5814" stroke="#1E1E1E" stroke-width="0.376432" stroke-linecap="round" stroke-linejoin="round"/>
<path d="M100.084 32.9365C99.9507 32.8431 99.79 32.7969 99.6273 32.8053L78.0455 33.9216L91.2766 45.0884L96.1142 48.6025L113.43 45.591L117.264 44.9685L100.084 32.9365Z" fill="#0CA5E9"/>
<path d="M78.0455 33.9216C72.3237 39.4929 69.0112 50.1082 68.0894 53.9556C77.7408 49.6089 82.0858 46.2071 91.2766 45.0884L78.0455 33.9216Z" fill="#0CA5E9"/>
<path d="M113.43 45.591L96.1142 48.6025C96.1142 48.6025 93.0085 49.928 90.4677 52.7432C87.7577 57.5257 86.0021 66.0216 86.0021 66.0216C96.5807 54.741 103.471 47.9301 113.43 45.591Z" fill="#0CA5E9"/>
<path d="M86.0021 66.0216L85.1979 72.6941L91.2208 71.8913L96.867 64.0362C102.841 57.4374 105.554 55.8965 110.042 53.9556C111.29 50.7007 117.264 44.9685 117.264 44.9685L113.43 45.591C103.471 47.9301 96.5807 54.741 86.0021 66.0216Z" fill="#C2FCF6"/>
<path d="M85.1979 72.6941L86.0021 66.0216C86.0021 66.0216 87.7577 57.5257 90.4677 52.7432C90.9806 51.6976 75.6563 56.6646 68.3076 60.1082L85.1979 72.6941Z" fill="#F8FEFF"/>
<path d="M68.0894 53.9556C67.6333 55.0664 67.0709 57.4503 66.8463 58.4421C66.7844 58.7154 66.8871 58.9988 67.1079 59.1713L68.3076 60.1082C75.6563 56.6646 90.9806 51.6976 90.4677 52.7432C93.0085 49.928 96.1142 48.6025 96.1142 48.6025L91.2766 45.0884C82.0858 46.2071 77.7408 49.6089 68.0894 53.9556Z" fill="#F8FEFF"/>
<path d="M91.2208 71.8913L108.263 68.3133C108.632 68.236 108.882 67.892 108.849 67.517C108.648 65.227 108.148 57.5663 110.042 53.9556C105.554 55.8965 102.841 57.4374 96.867 64.0362L91.2208 71.8913Z" fill="#F8FEFF"/>
<path d="M78.0455 33.9216L99.6273 32.8053C99.79 32.7969 99.9507 32.8431 100.084 32.9365L117.264 44.9685M78.0455 33.9216C72.3237 39.4929 69.0112 50.1082 68.0894 53.9556M78.0455 33.9216L91.2766 45.0884M117.264 44.9685L113.43 45.591M117.264 44.9685C117.264 44.9685 111.29 50.7007 110.042 53.9556M85.1979 72.6941L86.0021 66.0216M85.1979 72.6941L91.2208 71.8913M85.1979 72.6941L68.3076 60.1082M96.1142 48.6025L113.43 45.591M96.1142 48.6025L91.2766 45.0884M96.1142 48.6025C96.1142 48.6025 93.0085 49.928 90.4677 52.7432M86.0021 66.0216C96.5807 54.741 103.471 47.9301 113.43 45.591M86.0021 66.0216C86.0021 66.0216 87.7577 57.5257 90.4677 52.7432M91.2208 71.8913L108.263 68.3133C108.632 68.236 108.882 67.892 108.849 67.517C108.648 65.227 108.148 57.5663 110.042 53.9556M91.2208 71.8913L96.867 64.0362C102.841 57.4374 105.554 55.8965 110.042 53.9556M68.0894 53.9556C67.6333 55.0664 67.0709 57.4503 66.8463 58.4421C66.7844 58.7154 66.8871 58.9988 67.1079 59.1713L68.3076 60.1082M68.0894 53.9556C77.7408 49.6089 82.0858 46.2071 91.2766 45.0884M68.3076 60.1082C75.6563 56.6646 90.9806 51.6976 90.4677 52.7432" stroke="#1E1E1E" stroke-width="1.46089" stroke-linecap="round" stroke-linejoin="round"/>
<path d="M149.755 38.7738L151.857 37.6236C151.876 37.613 151.899 37.6109 151.92 37.618L154.191 38.3808L154.237 38.8957L154.413 40.8828C154.416 40.9147 154.399 40.9452 154.371 40.9601L152.759 41.8111L152.282 42.0627L150.187 41.394L150.032 41.3445C150.002 41.3347 149.98 41.3076 149.977 41.2757L149.933 40.7739L149.755 38.7738Z" fill="#F8FEFF"/>
<path d="M149.755 38.7738L151.857 37.6236C151.876 37.613 151.899 37.6109 151.92 37.618L154.191 38.3808M149.755 38.7738L149.933 40.7739L149.977 41.2757C149.98 41.3076 150.002 41.3347 150.032 41.3445L150.187 41.394L152.282 42.0627M149.755 38.7738L151.542 39.3739L152.059 39.5476M154.191 38.3808L153.62 38.6933L152.059 39.5476M154.191 38.3808L154.237 38.8957L154.413 40.8828C154.416 40.9147 154.399 40.9452 154.371 40.9601L152.759 41.8111L152.282 42.0627M152.282 42.0627L152.217 41.3299L152.079 39.7655L152.059 39.5476" stroke="black" stroke-width="0.376432" stroke-linecap="round" stroke-linejoin="round"/>
<path d="M142.241 36.2268L143.547 35.5117C143.56 35.5051 143.574 35.5038 143.587 35.5082L144.999 35.9824L145.027 36.3025L145.137 37.5379C145.138 37.5578 145.128 37.5767 145.11 37.586L144.108 38.115L143.812 38.2715L142.509 37.8557L142.413 37.825C142.394 37.8189 142.38 37.8021 142.379 37.7822L142.351 37.4702L142.241 36.2268Z" fill="#F8FEFF"/>
<path d="M142.241 36.2268L143.547 35.5117C143.56 35.5051 143.574 35.5038 143.587 35.5082L144.999 35.9824M142.241 36.2268L142.351 37.4702L142.379 37.7822C142.38 37.8021 142.394 37.8189 142.413 37.825L142.509 37.8557L143.812 38.2715M142.241 36.2268L143.352 36.5999L143.673 36.7079M144.999 35.9824L144.644 36.1768L143.673 36.7079M144.999 35.9824L145.027 36.3025L145.137 37.5379C145.138 37.5578 145.128 37.5767 145.11 37.586L144.108 38.115L143.812 38.2715M143.812 38.2715L143.771 37.8159L143.685 36.8433L143.673 36.7079" stroke="black" stroke-width="0.234029" stroke-linecap="round" stroke-linejoin="round"/>
<path d="M115.742 28.3695L117.048 27.6544C117.061 27.6478 117.075 27.6465 117.088 27.6509L118.5 28.1251L118.528 28.4452L118.638 29.6806C118.639 29.7005 118.629 29.7194 118.611 29.7287L117.609 30.2577L117.313 30.4142L116.01 29.9984L115.914 29.9677C115.895 29.9616 115.881 29.9448 115.88 29.9249L115.852 29.6129L115.742 28.3695Z" fill="#F8FEFF"/>
<path d="M115.742 28.3695L117.048 27.6544C117.061 27.6478 117.075 27.6465 117.088 27.6509L118.5 28.1251M115.742 28.3695L115.852 29.6129L115.88 29.9249C115.881 29.9448 115.895 29.9616 115.914 29.9677L116.01 29.9984L117.313 30.4142M115.742 28.3695L116.853 28.7426L117.174 28.8506M118.5 28.1251L118.145 28.3195L117.174 28.8506M118.5 28.1251L118.528 28.4452L118.638 29.6806C118.639 29.7005 118.629 29.7194 118.611 29.7287L117.609 30.2577L117.313 30.4142M117.313 30.4142L117.272 29.9586L117.186 28.986L117.174 28.8506" stroke="black" stroke-width="0.234029" stroke-linecap="round" stroke-linejoin="round"/>
<defs>
<linearGradient id="paint0_linear_771_2595" x1="80.68" y1="17.3584" x2="87.0794" y2="73.4468" gradientUnits="userSpaceOnUse">
<stop offset="0.44" stop-color="#D0DEE8"/>
<stop offset="1" stop-color="#8DBFD6"/>
</linearGradient>
</defs>
</svg>
