<svg width="312" height="314" viewBox="0 0 312 314" fill="none" xmlns="http://www.w3.org/2000/svg">
<path d="M160.422 25.9345C157.603 24.7013 154.397 24.7013 151.578 25.9346L24 81.75L126.367 126.536L156 139.5L252.643 97.2187L288 81.75L160.422 25.9345Z" fill="#F8FEFF"/>
<path d="M24 81.75V200.786L126.367 126.536L24 81.75Z" fill="#F8FEFF"/>
<path d="M252.643 97.2187L156 139.5V152.464V245.571L252.643 97.2187Z" fill="#F8FEFF"/>
<path d="M156 245.571V289.179L185.464 276.814L288 112.393V81.75L252.643 97.2187L156 245.571Z" fill="#F8FEFF"/>
<path d="M156 289.179V245.571V152.464L35.7857 238.731L156 289.179Z" fill="#F8FEFF"/>
<path d="M24 200.786V226.451C24 230.895 26.6658 234.904 30.7631 236.624L35.7857 238.731L156 152.464V139.5L126.367 126.536L24 200.786Z" fill="#F8FEFF"/>
<path d="M185.464 276.814L281.237 236.624C285.334 234.904 288 230.895 288 226.451V112.393L185.464 276.814Z" fill="#F8FEFF"/>
<path d="M24 81.75L151.578 25.9346C154.397 24.7013 157.603 24.7013 160.422 25.9345L288 81.75M24 81.75V200.786M24 81.75L126.367 126.536M288 81.75L252.643 97.2187M288 81.75V112.393M156 289.179V245.571M156 289.179L185.464 276.814M156 289.179L35.7857 238.731M156 139.5L252.643 97.2187M156 139.5L126.367 126.536M156 139.5V152.464M156 245.571L252.643 97.2187M156 245.571V152.464M185.464 276.814L281.237 236.624C285.334 234.904 288 230.895 288 226.451V112.393M185.464 276.814L288 112.393M24 200.786V226.451C24 230.895 26.6658 234.904 30.7631 236.624L35.7857 238.731M24 200.786L126.367 126.536M35.7857 238.731L156 152.464" stroke="#F8FEFF" stroke-width="9.42857" stroke-linecap="round" stroke-linejoin="round"/>
<path d="M158.091 37.0645C156.995 36.5851 155.749 36.5851 154.653 37.0645L36.2957 88.8457L129.416 129.586L156.372 141.379L244.284 102.917L276.448 88.8457L158.091 37.0645Z" fill="#0CA5E9"/>
<path d="M36.2957 88.8457V197.129L129.416 129.586L36.2957 88.8457Z" fill="#0CA5E9"/>
<path d="M244.284 102.917L156.372 141.379V153.172V237.869L244.284 102.917Z" fill="#0CA5E9"/>
<path d="M156.372 237.869V277.537L183.174 266.289L276.448 116.721V88.8457L244.284 102.917L156.372 237.869Z" fill="#C2FCF6"/>
<path d="M156.372 277.537V237.869V153.172L47.0167 231.647L156.372 277.537Z" fill="#F8FEFF"/>
<path d="M36.2957 197.129V224.296C36.2957 226.024 37.3319 227.582 38.9247 228.251L47.0167 231.647L156.372 153.172V141.379L129.416 129.586L36.2957 197.129Z" fill="#F8FEFF"/>
<path d="M183.174 266.289L273.819 228.251C275.411 227.582 276.448 226.024 276.448 224.296V116.721L183.174 266.289Z" fill="#F8FEFF"/>
<path d="M36.2957 88.8457L154.653 37.0645C155.749 36.5851 156.995 36.5851 158.091 37.0645L276.448 88.8457M36.2957 88.8457V197.129M36.2957 88.8457L129.416 129.586M276.448 88.8457L244.284 102.917M276.448 88.8457V116.721M156.372 277.537V237.869M156.372 277.537L183.174 266.289M156.372 277.537L47.0167 231.647M156.372 141.379L244.284 102.917M156.372 141.379L129.416 129.586M156.372 141.379V153.172M156.372 237.869L244.284 102.917M156.372 237.869V153.172M183.174 266.289L273.819 228.251C275.411 227.582 276.448 226.024 276.448 224.296V116.721M183.174 266.289L276.448 116.721M36.2957 197.129V224.296C36.2957 226.024 37.3319 227.582 38.9247 228.251L47.0167 231.647M36.2957 197.129L129.416 129.586M47.0167 231.647L156.372 153.172" stroke="#1E1E1E" stroke-width="8.57686" stroke-linecap="round" stroke-linejoin="round"/>
</svg>
