<svg width="77" height="37" viewBox="0 0 77 37" fill="none" xmlns="http://www.w3.org/2000/svg">
<path d="M58 28.5071L57.3617 27.7373L58 28.5071ZM74 0.00727081L65.4981 7.82081L76.5158 11.2769L74 0.00727081ZM1 31.5071C0.715736 32.4659 0.716103 32.466 0.716621 32.4661C0.716995 32.4663 0.717667 32.4664 0.718407 32.4667C0.719894 32.4671 0.721985 32.4677 0.724663 32.4685C0.730019 32.4701 0.737755 32.4724 0.747841 32.4753C0.767998 32.4812 0.797546 32.4898 0.836243 32.501C0.913635 32.5233 1.02764 32.5558 1.17639 32.5975C1.47389 32.6807 1.91045 32.8003 2.47115 32.9469C3.59242 33.2401 5.21087 33.6415 7.20714 34.0768C11.1977 34.9468 16.708 35.9541 22.7809 36.5C28.8494 37.0455 35.5098 37.1332 41.7905 36.1478C48.0653 35.1634 54.0312 33.0969 58.6383 29.2769L57.3617 27.7373C53.1294 31.2466 47.5505 33.2197 41.4805 34.172C35.4162 35.1234 28.9316 35.0449 22.96 34.5081C16.9927 33.9717 11.5678 32.9805 7.63318 32.1227C5.66686 31.694 4.07523 31.2991 2.97707 31.012C2.42805 30.8684 2.00256 30.7518 1.71543 30.6715C1.57187 30.6313 1.46292 30.6002 1.39043 30.5793C1.35419 30.5688 1.32707 30.5609 1.3093 30.5557C1.30041 30.5531 1.29386 30.5512 1.28968 30.55C1.28759 30.5494 1.28609 30.5489 1.28519 30.5487C1.28473 30.5485 1.2845 30.5485 1.28428 30.5484C1.28419 30.5484 1.28426 30.5484 1 31.5071ZM58.6383 29.2769C65.5459 23.5494 69.8149 15.186 72.2385 8.9565L70.3745 8.23134C67.998 14.34 63.8828 22.3303 57.3617 27.7373L58.6383 29.2769Z" fill="url(#paint0_linear_771_12232)"/>
<defs>
<linearGradient id="paint0_linear_771_12232" x1="27.3163" y1="27.7026" x2="10.0039" y2="18.2952" gradientUnits="userSpaceOnUse">
<stop stop-color="#38C280"/>
<stop offset="1" stop-color="#FF1C1C"/>
</linearGradient>
</defs>
</svg>
