<svg width="76" height="38" viewBox="0 0 76 38" fill="none" xmlns="http://www.w3.org/2000/svg">
<path d="M39.5 14.5048L39.9331 13.6034L39.5 14.5048ZM75.5 0.504883L64.1366 2.55595L71.5946 11.3714L75.5 0.504883ZM1 36.5049C1.77462 37.1373 1.77457 37.1374 1.77463 37.1373C1.77477 37.1371 1.7749 37.137 1.77518 37.1366C1.77573 37.136 1.77663 37.1349 1.77789 37.1333C1.78043 37.1302 1.78439 37.1254 1.78976 37.1189C1.80051 37.1058 1.81692 37.0859 1.83886 37.0594C1.88275 37.0063 1.94878 36.927 2.03595 36.8232C2.21029 36.6157 2.46915 36.3108 2.80453 35.9243C3.47539 35.1512 4.45187 34.0525 5.67013 32.7552C8.1088 30.1584 11.5061 26.7768 15.3525 23.62C19.2072 20.4564 23.4683 17.556 27.6343 15.88C31.8076 14.201 35.7376 13.8065 39.0669 15.4061L39.9331 13.6034C35.8866 11.6593 31.3162 12.2429 26.8878 14.0245C22.4521 15.8091 18.0101 18.8516 14.0837 22.074C10.1491 25.3032 6.68736 28.7505 4.21222 31.3861C2.97357 32.7051 1.97947 33.8235 1.29397 34.6135C0.951172 35.0085 0.685402 35.3216 0.504669 35.5367C0.414291 35.6442 0.345169 35.7273 0.298294 35.784C0.274849 35.8123 0.256973 35.834 0.244781 35.8488C0.238686 35.8562 0.234009 35.8619 0.230774 35.8659C0.229149 35.8678 0.22789 35.8694 0.22699 35.8705C0.226547 35.871 0.226143 35.8715 0.225914 35.8718C0.225601 35.8722 0.22538 35.8725 1 36.5049ZM39.0669 15.4061C44.1443 17.8455 49.8659 17.1204 55.1477 15.1672C60.4416 13.2094 65.4493 9.96299 69.2312 7.11613L68.0284 5.51824C64.3184 8.31093 59.4884 11.4295 54.454 13.2913C49.4076 15.1575 44.3103 15.7065 39.9331 13.6034L39.0669 15.4061Z" fill="url(#paint0_linear_1825_663)"/>
<defs>
<linearGradient id="paint0_linear_1825_663" x1="54" y1="30.5049" x2="14.642" y2="9.11817" gradientUnits="userSpaceOnUse">
<stop stop-color="#38C280"/>
<stop offset="1" stop-color="#FF1C1C"/>
</linearGradient>
</defs>
</svg>
