<svg width="497" height="277" viewBox="0 0 497 277" fill="none" xmlns="http://www.w3.org/2000/svg">
<g filter="url(#filter0_d_1581_664)">
<rect x="61" y="54.5049" width="397" height="176" rx="12" fill="white"/>
<path d="M95.1023 87.414C95.1023 88.511 94.8968 89.4507 94.4858 90.2329C94.0781 91.0117 93.5213 91.6083 92.8153 92.0226C92.1127 92.4369 91.3156 92.6441 90.424 92.6441C89.5324 92.6441 88.7337 92.4369 88.0277 92.0226C87.325 91.605 86.7682 91.0068 86.3572 90.2279C85.9496 89.4457 85.7457 88.5077 85.7457 87.414C85.7457 86.3169 85.9496 85.3789 86.3572 84.6001C86.7682 83.8179 87.325 83.2196 88.0277 82.8053C88.7337 82.391 89.5324 82.1839 90.424 82.1839C91.3156 82.1839 92.1127 82.391 92.8153 82.8053C93.5213 83.2196 94.0781 83.8179 94.4858 84.6001C94.8968 85.3789 95.1023 86.3169 95.1023 87.414ZM93.2479 87.414C93.2479 86.6417 93.1269 85.9904 92.8849 85.4601C92.6463 84.9265 92.3149 84.5238 91.8906 84.252C91.4664 83.9769 90.9775 83.8394 90.424 83.8394C89.8705 83.8394 89.3816 83.9769 88.9574 84.252C88.5331 84.5238 88.2 84.9265 87.9581 85.4601C87.7195 85.9904 87.6001 86.6417 87.6001 87.414C87.6001 88.1862 87.7195 88.8392 87.9581 89.3728C88.2 89.9031 88.5331 90.3058 88.9574 90.5809C89.3816 90.8527 89.8705 90.9885 90.424 90.9885C90.9775 90.9885 91.4664 90.8527 91.8906 90.5809C92.3149 90.3058 92.6463 89.9031 92.8849 89.3728C93.1269 88.8392 93.2479 88.1862 93.2479 87.414ZM101.634 89.2932V84.8685H103.433V92.5049H101.688V91.1476H101.609C101.436 91.5752 101.153 91.9249 100.759 92.1966C100.368 92.4684 99.8854 92.6043 99.312 92.6043C98.8115 92.6043 98.369 92.4933 97.9846 92.2712C97.6034 92.0458 97.3051 91.7194 97.0897 91.2918C96.8742 90.8609 96.7665 90.3406 96.7665 89.7307V84.8685H98.5662V89.4523C98.5662 89.9362 98.6988 90.3207 98.964 90.6057C99.2291 90.8908 99.5771 91.0333 100.008 91.0333C100.273 91.0333 100.53 90.9687 100.779 90.8394C101.027 90.7101 101.231 90.5179 101.39 90.2627C101.552 90.0042 101.634 89.681 101.634 89.2932ZM109.097 84.8685V86.2606H104.707V84.8685H109.097ZM105.791 83.039H107.591V90.208C107.591 90.45 107.627 90.6356 107.7 90.7648C107.777 90.8908 107.876 90.9769 107.999 91.0233C108.121 91.0698 108.257 91.093 108.406 91.093C108.519 91.093 108.622 91.0847 108.714 91.0681C108.811 91.0515 108.884 91.0366 108.933 91.0233L109.237 92.4303C109.14 92.4635 109.003 92.4999 108.824 92.5397C108.648 92.5795 108.433 92.6027 108.178 92.6093C107.727 92.6225 107.321 92.5546 106.96 92.4055C106.598 92.253 106.312 92.0177 106.099 91.6995C105.891 91.3813 105.788 90.9836 105.791 90.5063V83.039ZM110.602 95.3685V84.8685H112.372V86.1313H112.477C112.57 85.9457 112.7 85.7485 112.869 85.5397C113.039 85.3276 113.267 85.1469 113.556 84.9978C113.844 84.8453 114.212 84.7691 114.659 84.7691C115.249 84.7691 115.781 84.9199 116.255 85.2215C116.732 85.5198 117.11 85.9623 117.389 86.5489C117.67 87.1322 117.811 87.8482 117.811 88.6966C117.811 89.5352 117.674 90.2478 117.399 90.8344C117.124 91.4211 116.749 91.8685 116.275 92.1768C115.801 92.485 115.264 92.6391 114.664 92.6391C114.227 92.6391 113.864 92.5662 113.575 92.4204C113.287 92.2745 113.055 92.0989 112.879 91.8934C112.707 91.6846 112.573 91.4874 112.477 91.3018H112.402V95.3685H110.602ZM112.367 88.6867C112.367 89.1805 112.437 89.6131 112.576 89.9843C112.719 90.3555 112.923 90.6455 113.188 90.8543C113.456 91.0598 113.781 91.1626 114.162 91.1626C114.56 91.1626 114.893 91.0565 115.161 90.8444C115.43 90.6289 115.632 90.3356 115.768 89.9644C115.907 89.5899 115.977 89.164 115.977 88.6867C115.977 88.2127 115.909 87.7918 115.773 87.4239C115.637 87.056 115.435 86.7677 115.166 86.5589C114.898 86.3501 114.563 86.2456 114.162 86.2456C113.778 86.2456 113.451 86.3467 113.183 86.5489C112.914 86.7511 112.71 87.0345 112.571 87.3991C112.435 87.7636 112.367 88.1929 112.367 88.6867ZM124.22 89.2932V84.8685H126.019V92.5049H124.274V91.1476H124.195C124.022 91.5752 123.739 91.9249 123.345 92.1966C122.954 92.4684 122.471 92.6043 121.898 92.6043C121.397 92.6043 120.955 92.4933 120.57 92.2712C120.189 92.0458 119.891 91.7194 119.676 91.2918C119.46 90.8609 119.352 90.3406 119.352 89.7307V84.8685H121.152V89.4523C121.152 89.9362 121.285 90.3207 121.55 90.6057C121.815 90.8908 122.163 91.0333 122.594 91.0333C122.859 91.0333 123.116 90.9687 123.365 90.8394C123.613 90.7101 123.817 90.5179 123.976 90.2627C124.138 90.0042 124.22 89.681 124.22 89.2932ZM131.683 84.8685V86.2606H127.293V84.8685H131.683ZM128.377 83.039H130.177V90.208C130.177 90.45 130.213 90.6356 130.286 90.7648C130.362 90.8908 130.462 90.9769 130.585 91.0233C130.707 91.0698 130.843 91.093 130.992 91.093C131.105 91.093 131.208 91.0847 131.3 91.0681C131.397 91.0515 131.469 91.0366 131.519 91.0233L131.822 92.4303C131.726 92.4635 131.589 92.4999 131.41 92.5397C131.234 92.5795 131.019 92.6027 130.763 92.6093C130.313 92.6225 129.907 92.5546 129.545 92.4055C129.184 92.253 128.897 92.0177 128.685 91.6995C128.477 91.3813 128.374 90.9836 128.377 90.5063V83.039Z" fill="#5A6471"/>
<path d="M413.056 92.0049V90.6725L416.591 87.2073C416.929 86.8659 417.211 86.5626 417.436 86.2975C417.662 86.0323 417.831 85.7755 417.943 85.5269C418.056 85.2783 418.112 85.0132 418.112 84.7314C418.112 84.4099 418.039 84.1349 417.894 83.9062C417.748 83.6742 417.547 83.4952 417.292 83.3692C417.037 83.2433 416.747 83.1803 416.422 83.1803C416.087 83.1803 415.794 83.2499 415.542 83.3891C415.29 83.525 415.095 83.7189 414.955 83.9708C414.819 84.2227 414.752 84.5226 414.752 84.8706H412.997C412.997 84.2243 413.144 83.6626 413.439 83.1853C413.734 82.708 414.14 82.3385 414.657 82.0766C415.177 81.8148 415.774 81.6839 416.447 81.6839C417.13 81.6839 417.729 81.8115 418.247 82.0667C418.764 82.3219 419.165 82.6715 419.45 83.1157C419.738 83.5598 419.882 84.0669 419.882 84.637C419.882 85.0181 419.809 85.3927 419.663 85.7606C419.518 86.1285 419.261 86.5361 418.893 86.9836C418.528 87.431 418.016 87.9729 417.357 88.6093L415.602 90.3941V90.4637H420.036V92.0049H413.056ZM422.88 92.1143C422.578 92.1143 422.32 92.0082 422.104 91.7961C421.889 91.584 421.783 91.3254 421.786 91.0205C421.783 90.7222 421.889 90.467 422.104 90.2549C422.32 90.0428 422.578 89.9367 422.88 89.9367C423.172 89.9367 423.425 90.0428 423.641 90.2549C423.859 90.467 423.97 90.7222 423.974 91.0205C423.97 91.2227 423.917 91.4066 423.815 91.5724C423.715 91.7381 423.583 91.8706 423.417 91.9701C423.255 92.0662 423.076 92.1143 422.88 92.1143ZM429.179 92.1988C428.36 92.1988 427.658 91.9916 427.071 91.5773C426.488 91.1597 426.039 90.5581 425.724 89.7726C425.412 88.9838 425.256 88.0342 425.256 86.9239C425.26 85.8136 425.417 84.869 425.729 84.0901C426.044 83.3079 426.493 82.7113 427.076 82.3003C427.663 81.8894 428.364 81.6839 429.179 81.6839C429.994 81.6839 430.695 81.8894 431.282 82.3003C431.869 82.7113 432.318 83.3079 432.629 84.0901C432.944 84.8723 433.102 85.8169 433.102 86.9239C433.102 88.0376 432.944 88.9888 432.629 89.7776C432.318 90.5631 431.869 91.163 431.282 91.5773C430.699 91.9916 429.998 92.1988 429.179 92.1988ZM429.179 90.6427C429.815 90.6427 430.318 90.3295 430.685 89.703C431.057 89.0733 431.242 88.1469 431.242 86.9239C431.242 86.1152 431.158 85.4358 430.989 84.8856C430.82 84.3354 430.581 83.9211 430.273 83.6427C429.965 83.3609 429.6 83.2201 429.179 83.2201C428.546 83.2201 428.046 83.5349 427.678 84.1647C427.31 84.7911 427.124 85.7108 427.121 86.9239C427.118 87.7359 427.199 88.4187 427.364 88.9722C427.533 89.5257 427.772 89.9433 428.08 90.2251C428.389 90.5035 428.755 90.6427 429.179 90.6427Z" fill="#5A6471"/>
<rect x="85.3355" y="119.84" width="75.329" height="28.329" rx="5.6645" fill="#FEF2F2"/>
<rect x="85.3355" y="119.84" width="75.329" height="28.329" rx="5.6645" stroke="#FECACA" stroke-width="0.670998"/>
<path d="M97.7209 137.616V136.149L102.041 129.323H103.264V131.411H102.518L99.6101 136.02V136.099H105.641V137.616H97.7209ZM102.578 139.505V137.168L102.598 136.512V129.323H104.338V139.505H102.578ZM110.769 139.644C110.106 139.644 109.513 139.52 108.989 139.271C108.465 139.019 108.049 138.675 107.741 138.237C107.436 137.8 107.274 137.299 107.254 136.736H109.044C109.077 137.153 109.257 137.495 109.586 137.76C109.914 138.022 110.308 138.153 110.769 138.153C111.13 138.153 111.452 138.07 111.733 137.904C112.015 137.738 112.237 137.508 112.4 137.213C112.562 136.918 112.641 136.582 112.638 136.204C112.641 135.819 112.56 135.478 112.395 135.18C112.229 134.881 112.002 134.648 111.713 134.479C111.425 134.306 111.094 134.22 110.719 134.22C110.414 134.217 110.114 134.273 109.819 134.389C109.524 134.505 109.291 134.658 109.118 134.847L107.453 134.573L107.985 129.323H113.891V130.864H109.511L109.218 133.564H109.277C109.466 133.342 109.733 133.158 110.078 133.012C110.422 132.863 110.8 132.788 111.211 132.788C111.828 132.788 112.378 132.934 112.862 133.226C113.346 133.514 113.727 133.912 114.005 134.419C114.284 134.926 114.423 135.506 114.423 136.159C114.423 136.832 114.267 137.432 113.956 137.959C113.647 138.482 113.218 138.895 112.668 139.197C112.121 139.495 111.488 139.644 110.769 139.644ZM119.743 139.644C119.027 139.644 118.39 139.521 117.833 139.276C117.28 139.031 116.842 138.69 116.521 138.252C116.199 137.815 116.029 137.309 116.009 136.736H117.878C117.895 137.011 117.986 137.251 118.152 137.457C118.317 137.659 118.538 137.816 118.813 137.929C119.088 138.042 119.396 138.098 119.738 138.098C120.102 138.098 120.425 138.035 120.707 137.909C120.989 137.78 121.209 137.601 121.368 137.372C121.527 137.143 121.605 136.88 121.602 136.582C121.605 136.273 121.526 136.002 121.363 135.766C121.201 135.531 120.966 135.347 120.657 135.214C120.352 135.082 119.984 135.016 119.554 135.016H118.654V133.594H119.554C119.908 133.594 120.218 133.532 120.483 133.41C120.752 133.287 120.962 133.115 121.115 132.893C121.267 132.667 121.342 132.407 121.338 132.112C121.342 131.824 121.277 131.574 121.145 131.361C121.015 131.146 120.831 130.979 120.593 130.859C120.357 130.74 120.081 130.68 119.762 130.68C119.451 130.68 119.163 130.737 118.897 130.849C118.632 130.962 118.418 131.123 118.256 131.332C118.094 131.537 118.007 131.782 117.998 132.067H116.223C116.236 131.497 116.4 130.997 116.715 130.566C117.033 130.132 117.457 129.794 117.988 129.552C118.518 129.306 119.113 129.184 119.772 129.184C120.452 129.184 121.042 129.311 121.542 129.567C122.046 129.819 122.435 130.158 122.711 130.586C122.986 131.013 123.123 131.486 123.123 132.003C123.127 132.576 122.958 133.057 122.616 133.445C122.278 133.832 121.834 134.086 121.284 134.205V134.285C122 134.384 122.548 134.649 122.929 135.08C123.314 135.508 123.504 136.04 123.501 136.676C123.501 137.246 123.339 137.757 123.014 138.207C122.692 138.655 122.248 139.006 121.681 139.261C121.118 139.516 120.472 139.644 119.743 139.644ZM128.7 139.505V131.869H130.42V133.166H130.51C130.669 132.729 130.932 132.387 131.3 132.142C131.668 131.893 132.107 131.769 132.618 131.769C133.135 131.769 133.571 131.895 133.925 132.147C134.283 132.396 134.535 132.735 134.681 133.166H134.76C134.93 132.742 135.215 132.404 135.616 132.152C136.02 131.897 136.499 131.769 137.052 131.769C137.755 131.769 138.328 131.991 138.773 132.435C139.217 132.879 139.439 133.527 139.439 134.379V139.505H137.634V134.658C137.634 134.184 137.508 133.837 137.256 133.619C137.004 133.396 136.696 133.285 136.331 133.285C135.897 133.285 135.558 133.421 135.312 133.693C135.07 133.962 134.949 134.311 134.949 134.742V139.505H133.184V134.583C133.184 134.189 133.065 133.874 132.827 133.638C132.591 133.403 132.283 133.285 131.902 133.285C131.643 133.285 131.408 133.352 131.196 133.484C130.984 133.614 130.815 133.797 130.689 134.036C130.563 134.271 130.5 134.547 130.5 134.861V139.505H128.7ZM147.3 133.887L145.659 134.066C145.613 133.9 145.532 133.744 145.416 133.599C145.303 133.453 145.151 133.335 144.958 133.246C144.766 133.156 144.531 133.111 144.252 133.111C143.878 133.111 143.563 133.193 143.308 133.355C143.056 133.517 142.932 133.728 142.935 133.986C142.932 134.208 143.013 134.389 143.179 134.528C143.348 134.668 143.626 134.782 144.014 134.871L145.316 135.15C146.039 135.306 146.576 135.552 146.927 135.891C147.282 136.229 147.461 136.671 147.464 137.218C147.461 137.699 147.32 138.123 147.042 138.491C146.766 138.855 146.384 139.14 145.893 139.346C145.403 139.551 144.839 139.654 144.203 139.654C143.268 139.654 142.516 139.458 141.946 139.067C141.376 138.673 141.036 138.124 140.926 137.422L142.681 137.253C142.761 137.597 142.93 137.858 143.189 138.033C143.447 138.209 143.783 138.297 144.198 138.297C144.625 138.297 144.968 138.209 145.227 138.033C145.489 137.858 145.62 137.641 145.62 137.382C145.62 137.163 145.535 136.983 145.366 136.84C145.2 136.698 144.942 136.588 144.591 136.512L143.288 136.239C142.556 136.086 142.014 135.829 141.662 135.468C141.311 135.103 141.137 134.643 141.14 134.086C141.137 133.615 141.265 133.208 141.523 132.863C141.785 132.515 142.148 132.246 142.612 132.057C143.079 131.865 143.618 131.769 144.228 131.769C145.123 131.769 145.827 131.96 146.341 132.341C146.858 132.722 147.177 133.237 147.3 133.887Z" fill="#B91D1C"/>
<rect x="173.335" y="119.84" width="90.329" height="28.329" rx="5.6645" fill="#F9FAFB"/>
<rect x="173.335" y="119.84" width="90.329" height="28.329" rx="5.6645" stroke="#ECEDF0" stroke-width="0.670998"/>
<path d="M185.721 137.616V136.149L190.041 129.323H191.264V131.411H190.518L187.61 136.02V136.099H193.641V137.616H185.721ZM190.578 139.505V137.168L190.598 136.512V129.323H192.338V139.505H190.578ZM195.602 139.505L199.932 130.934V130.864H194.906V129.323H201.841V130.899L197.516 139.505H195.602ZM210.752 131.869V133.261H206.362V131.869H210.752ZM207.445 130.039H209.245V137.208C209.245 137.45 209.282 137.636 209.355 137.765C209.431 137.891 209.53 137.977 209.653 138.023C209.776 138.07 209.911 138.093 210.061 138.093C210.173 138.093 210.276 138.085 210.369 138.068C210.465 138.052 210.538 138.037 210.588 138.023L210.891 139.43C210.795 139.463 210.657 139.5 210.478 139.54C210.302 139.579 210.087 139.603 209.832 139.609C209.381 139.623 208.975 139.555 208.614 139.405C208.253 139.253 207.966 139.018 207.754 138.699C207.545 138.381 207.442 137.984 207.445 137.506V130.039ZM215.506 139.654C214.76 139.654 214.114 139.49 213.567 139.162C213.02 138.834 212.596 138.375 212.294 137.785C211.996 137.195 211.847 136.505 211.847 135.717C211.847 134.928 211.996 134.237 212.294 133.643C212.596 133.05 213.02 132.589 213.567 132.261C214.114 131.933 214.76 131.769 215.506 131.769C216.251 131.769 216.898 131.933 217.445 132.261C217.991 132.589 218.414 133.05 218.712 133.643C219.014 134.237 219.165 134.928 219.165 135.717C219.165 136.505 219.014 137.195 218.712 137.785C218.414 138.375 217.991 138.834 217.445 139.162C216.898 139.49 216.251 139.654 215.506 139.654ZM215.516 138.212C215.92 138.212 216.258 138.101 216.53 137.879C216.802 137.654 217.004 137.352 217.136 136.974C217.272 136.597 217.34 136.176 217.34 135.712C217.34 135.244 217.272 134.822 217.136 134.444C217.004 134.063 216.802 133.759 216.53 133.534C216.258 133.309 215.92 133.196 215.516 133.196C215.101 133.196 214.757 133.309 214.482 133.534C214.21 133.759 214.006 134.063 213.87 134.444C213.737 134.822 213.671 135.244 213.671 135.712C213.671 136.176 213.737 136.597 213.87 136.974C214.006 137.352 214.21 137.654 214.482 137.879C214.757 138.101 215.101 138.212 215.516 138.212ZM222.333 137.109L222.328 134.936H222.616L225.361 131.869H227.464L224.088 135.627H223.715L222.333 137.109ZM220.692 139.505V129.323H222.492V139.505H220.692ZM225.485 139.505L222.999 136.03L224.212 134.762L227.638 139.505H225.485ZM231.729 139.654C230.964 139.654 230.302 139.495 229.746 139.177C229.192 138.855 228.766 138.401 228.468 137.815C228.17 137.225 228.02 136.53 228.02 135.731C228.02 134.946 228.17 134.257 228.468 133.663C228.769 133.067 229.19 132.603 229.731 132.271C230.271 131.936 230.906 131.769 231.635 131.769C232.105 131.769 232.55 131.845 232.967 131.998C233.388 132.147 233.759 132.379 234.081 132.694C234.406 133.009 234.661 133.41 234.846 133.897C235.032 134.381 235.125 134.958 235.125 135.627V136.179H228.866V134.966H233.4C233.396 134.621 233.322 134.315 233.176 134.046C233.03 133.774 232.826 133.561 232.564 133.405C232.306 133.249 232.004 133.171 231.66 133.171C231.292 133.171 230.969 133.261 230.69 133.44C230.412 133.615 230.195 133.847 230.039 134.136C229.886 134.421 229.809 134.734 229.805 135.075V136.134C229.805 136.578 229.886 136.959 230.049 137.278C230.211 137.592 230.438 137.834 230.73 138.003C231.022 138.169 231.363 138.252 231.754 138.252C232.016 138.252 232.253 138.216 232.465 138.143C232.677 138.066 232.861 137.955 233.017 137.81C233.173 137.664 233.29 137.483 233.37 137.268L235.05 137.457C234.944 137.901 234.742 138.289 234.444 138.62C234.149 138.948 233.771 139.203 233.31 139.386C232.849 139.565 232.323 139.654 231.729 139.654ZM238.447 135.03V139.505H236.647V131.869H238.368V133.166H238.457C238.633 132.739 238.913 132.399 239.297 132.147C239.685 131.895 240.164 131.769 240.734 131.769C241.261 131.769 241.72 131.882 242.111 132.107C242.506 132.333 242.81 132.659 243.026 133.087C243.245 133.514 243.352 134.033 243.349 134.643V139.505H241.549V134.921C241.549 134.411 241.417 134.011 241.152 133.723C240.89 133.435 240.527 133.29 240.063 133.29C239.748 133.29 239.468 133.36 239.223 133.499C238.981 133.635 238.79 133.832 238.651 134.091C238.515 134.349 238.447 134.663 238.447 135.03ZM251.214 133.887L249.574 134.066C249.527 133.9 249.446 133.744 249.33 133.599C249.217 133.453 249.065 133.335 248.873 133.246C248.68 133.156 248.445 133.111 248.167 133.111C247.792 133.111 247.477 133.193 247.222 133.355C246.97 133.517 246.846 133.728 246.849 133.986C246.846 134.208 246.927 134.389 247.093 134.528C247.262 134.668 247.54 134.782 247.928 134.871L249.23 135.15C249.953 135.306 250.49 135.552 250.841 135.891C251.196 136.229 251.375 136.671 251.378 137.218C251.375 137.699 251.234 138.123 250.956 138.491C250.681 138.855 250.298 139.14 249.807 139.346C249.317 139.551 248.753 139.654 248.117 139.654C247.182 139.654 246.43 139.458 245.86 139.067C245.29 138.673 244.95 138.124 244.841 137.422L246.596 137.253C246.675 137.597 246.844 137.858 247.103 138.033C247.361 138.209 247.698 138.297 248.112 138.297C248.539 138.297 248.882 138.209 249.141 138.033C249.403 137.858 249.534 137.641 249.534 137.382C249.534 137.163 249.449 136.983 249.28 136.84C249.114 136.698 248.856 136.588 248.505 136.512L247.202 136.239C246.47 136.086 245.928 135.829 245.576 135.468C245.225 135.103 245.051 134.643 245.054 134.086C245.051 133.615 245.179 133.208 245.437 132.863C245.699 132.515 246.062 132.246 246.526 132.057C246.993 131.865 247.532 131.769 248.142 131.769C249.037 131.769 249.741 131.96 250.255 132.341C250.772 132.722 251.092 133.237 251.214 133.887Z" fill="#3E4857"/>
<rect x="276.335" y="119.84" width="157.329" height="28.329" rx="5.6645" fill="#F8F4FE"/>
<rect x="276.335" y="119.84" width="157.329" height="28.329" rx="5.6645" stroke="#E2D1FC" stroke-width="0.670998"/>
<path d="M292.246 142.528C291.599 142.528 291.044 142.44 290.58 142.264C290.116 142.092 289.743 141.86 289.462 141.568C289.18 141.276 288.984 140.953 288.875 140.599L290.496 140.206C290.569 140.355 290.675 140.503 290.814 140.648C290.953 140.797 291.14 140.92 291.376 141.016C291.614 141.116 291.914 141.165 292.276 141.165C292.786 141.165 293.209 141.041 293.543 140.793C293.878 140.547 294.045 140.143 294.045 139.579V138.133H293.956C293.863 138.318 293.727 138.509 293.548 138.704C293.373 138.9 293.139 139.064 292.847 139.197C292.559 139.329 292.196 139.396 291.759 139.396C291.172 139.396 290.64 139.258 290.163 138.983C289.689 138.704 289.311 138.29 289.029 137.74C288.751 137.186 288.612 136.494 288.612 135.662C288.612 134.823 288.751 134.116 289.029 133.539C289.311 132.959 289.69 132.52 290.168 132.222C290.645 131.92 291.177 131.769 291.763 131.769C292.211 131.769 292.579 131.845 292.867 131.998C293.159 132.147 293.391 132.328 293.563 132.54C293.736 132.748 293.866 132.946 293.956 133.131H294.055V131.869H295.83V139.629C295.83 140.282 295.674 140.822 295.363 141.25C295.051 141.677 294.625 141.997 294.085 142.209C293.545 142.422 292.932 142.528 292.246 142.528ZM292.261 137.984C292.642 137.984 292.967 137.891 293.235 137.705C293.504 137.52 293.707 137.253 293.847 136.905C293.986 136.557 294.055 136.139 294.055 135.652C294.055 135.171 293.986 134.75 293.847 134.389C293.711 134.028 293.509 133.748 293.24 133.549C292.975 133.347 292.648 133.246 292.261 133.246C291.86 133.246 291.525 133.35 291.256 133.559C290.988 133.768 290.786 134.054 290.65 134.419C290.514 134.78 290.446 135.191 290.446 135.652C290.446 136.119 290.514 136.529 290.65 136.88C290.789 137.228 290.993 137.5 291.261 137.695C291.533 137.887 291.866 137.984 292.261 137.984ZM297.675 142.369V131.869H299.445V133.131H299.549C299.642 132.946 299.773 132.748 299.942 132.54C300.111 132.328 300.339 132.147 300.628 131.998C300.916 131.845 301.284 131.769 301.732 131.769C302.321 131.769 302.853 131.92 303.327 132.222C303.805 132.52 304.183 132.962 304.461 133.549C304.743 134.132 304.884 134.848 304.884 135.697C304.884 136.535 304.746 137.248 304.471 137.834C304.196 138.421 303.821 138.869 303.347 139.177C302.873 139.485 302.336 139.639 301.737 139.639C301.299 139.639 300.936 139.566 300.648 139.42C300.359 139.275 300.127 139.099 299.952 138.893C299.779 138.685 299.645 138.487 299.549 138.302H299.474V142.369H297.675ZM299.44 135.687C299.44 136.181 299.509 136.613 299.648 136.984C299.791 137.355 299.995 137.646 300.26 137.854C300.528 138.06 300.853 138.163 301.234 138.163C301.632 138.163 301.965 138.056 302.234 137.844C302.502 137.629 302.704 137.336 302.84 136.964C302.979 136.59 303.049 136.164 303.049 135.687C303.049 135.213 302.981 134.792 302.845 134.424C302.709 134.056 302.507 133.768 302.239 133.559C301.97 133.35 301.635 133.246 301.234 133.246C300.85 133.246 300.523 133.347 300.255 133.549C299.987 133.751 299.783 134.034 299.643 134.399C299.508 134.764 299.44 135.193 299.44 135.687ZM310.238 131.869V133.261H305.848V131.869H310.238ZM306.932 130.039H308.732V137.208C308.732 137.45 308.768 137.636 308.841 137.765C308.917 137.891 309.017 137.977 309.139 138.023C309.262 138.07 309.398 138.093 309.547 138.093C309.66 138.093 309.762 138.085 309.855 138.068C309.951 138.052 310.024 138.037 310.074 138.023L310.377 139.43C310.281 139.463 310.143 139.5 309.964 139.54C309.789 139.579 309.573 139.603 309.318 139.609C308.867 139.623 308.461 139.555 308.1 139.405C307.739 139.253 307.452 139.018 307.24 138.699C307.031 138.381 306.929 137.984 306.932 137.506V130.039ZM316.126 134.523V136.005H311.542V134.523H316.126ZM321.557 139.644C320.841 139.644 320.205 139.521 319.648 139.276C319.094 139.031 318.657 138.69 318.335 138.252C318.014 137.815 317.843 137.309 317.823 136.736H319.693C319.709 137.011 319.8 137.251 319.966 137.457C320.132 137.659 320.352 137.816 320.627 137.929C320.902 138.042 321.211 138.098 321.552 138.098C321.917 138.098 322.24 138.035 322.521 137.909C322.803 137.78 323.024 137.601 323.183 137.372C323.342 137.143 323.42 136.88 323.416 136.582C323.42 136.273 323.34 136.002 323.178 135.766C323.015 135.531 322.78 135.347 322.472 135.214C322.167 135.082 321.799 135.016 321.368 135.016H320.468V133.594H321.368C321.723 133.594 322.033 133.532 322.298 133.41C322.566 133.287 322.777 133.115 322.929 132.893C323.082 132.667 323.156 132.407 323.153 132.112C323.156 131.824 323.092 131.574 322.959 131.361C322.83 131.146 322.646 130.979 322.407 130.859C322.172 130.74 321.895 130.68 321.577 130.68C321.265 130.68 320.977 130.737 320.712 130.849C320.447 130.962 320.233 131.123 320.07 131.332C319.908 131.537 319.822 131.782 319.812 132.067H318.037C318.05 131.497 318.214 130.997 318.529 130.566C318.847 130.132 319.272 129.794 319.802 129.552C320.332 129.306 320.927 129.184 321.587 129.184C322.266 129.184 322.856 129.311 323.357 129.567C323.86 129.819 324.25 130.158 324.525 130.586C324.8 131.013 324.938 131.486 324.938 132.003C324.941 132.576 324.772 133.057 324.431 133.445C324.093 133.832 323.648 134.086 323.098 134.205V134.285C323.814 134.384 324.363 134.649 324.744 135.08C325.128 135.508 325.319 136.04 325.316 136.676C325.316 137.246 325.153 137.757 324.828 138.207C324.507 138.655 324.063 139.006 323.496 139.261C322.932 139.516 322.286 139.644 321.557 139.644ZM327.85 139.614C327.548 139.614 327.29 139.508 327.074 139.296C326.859 139.084 326.753 138.825 326.756 138.521C326.753 138.222 326.859 137.967 327.074 137.755C327.29 137.543 327.548 137.437 327.85 137.437C328.141 137.437 328.395 137.543 328.61 137.755C328.829 137.967 328.94 138.222 328.944 138.521C328.94 138.723 328.887 138.907 328.784 139.072C328.685 139.238 328.552 139.371 328.387 139.47C328.224 139.566 328.045 139.614 327.85 139.614ZM334.199 139.644C333.536 139.644 332.942 139.52 332.419 139.271C331.895 139.019 331.479 138.675 331.171 138.237C330.866 137.8 330.703 137.299 330.684 136.736H332.473C332.507 137.153 332.687 137.495 333.015 137.76C333.343 138.022 333.738 138.153 334.199 138.153C334.56 138.153 334.881 138.07 335.163 137.904C335.445 137.738 335.667 137.508 335.829 137.213C335.992 136.918 336.071 136.582 336.068 136.204C336.071 135.819 335.99 135.478 335.824 135.18C335.658 134.881 335.431 134.648 335.143 134.479C334.855 134.306 334.523 134.22 334.149 134.22C333.844 134.217 333.544 134.273 333.249 134.389C332.954 134.505 332.72 134.658 332.548 134.847L330.882 134.573L331.414 129.323H337.321V130.864H332.941L332.647 133.564H332.707C332.896 133.342 333.163 133.158 333.507 133.012C333.852 132.863 334.23 132.788 334.641 132.788C335.257 132.788 335.808 132.934 336.292 133.226C336.775 133.514 337.157 133.912 337.435 134.419C337.713 134.926 337.853 135.506 337.853 136.159C337.853 136.832 337.697 137.432 337.385 137.959C337.077 138.482 336.648 138.895 336.098 139.197C335.551 139.495 334.918 139.644 334.199 139.644ZM344.167 134.523V136.005H339.583V134.523H344.167ZM349.873 131.869V133.261H345.483V131.869H349.873ZM346.567 130.039H348.366V137.208C348.366 137.45 348.403 137.636 348.476 137.765C348.552 137.891 348.651 137.977 348.774 138.023C348.897 138.07 349.032 138.093 349.182 138.093C349.294 138.093 349.397 138.085 349.49 138.068C349.586 138.052 349.659 138.037 349.709 138.023L350.012 139.43C349.916 139.463 349.778 139.5 349.599 139.54C349.424 139.579 349.208 139.603 348.953 139.609C348.502 139.623 348.096 139.555 347.735 139.405C347.374 139.253 347.087 139.018 346.875 138.699C346.666 138.381 346.563 137.984 346.567 137.506V130.039ZM356.245 136.293V131.869H358.045V139.505H356.3V138.148H356.22C356.048 138.575 355.764 138.925 355.37 139.197C354.979 139.468 354.497 139.604 353.923 139.604C353.423 139.604 352.98 139.493 352.596 139.271C352.215 139.046 351.916 138.719 351.701 138.292C351.486 137.861 351.378 137.341 351.378 136.731V131.869H353.178V136.452C353.178 136.936 353.31 137.321 353.575 137.606C353.84 137.891 354.188 138.033 354.619 138.033C354.884 138.033 355.141 137.969 355.39 137.839C355.638 137.71 355.842 137.518 356.001 137.263C356.164 137.004 356.245 136.681 356.245 136.293ZM359.895 139.505V131.869H361.64V133.141H361.72C361.859 132.7 362.098 132.361 362.436 132.122C362.777 131.88 363.167 131.759 363.604 131.759C363.704 131.759 363.815 131.764 363.937 131.774C364.063 131.781 364.168 131.792 364.251 131.809V133.464C364.174 133.438 364.053 133.415 363.888 133.395C363.725 133.372 363.568 133.36 363.415 133.36C363.087 133.36 362.792 133.431 362.53 133.574C362.272 133.713 362.068 133.907 361.919 134.155C361.77 134.404 361.695 134.691 361.695 135.016V139.505H359.895ZM365.526 139.505V129.323H367.325V133.131H367.4C367.493 132.946 367.624 132.748 367.793 132.54C367.962 132.328 368.191 132.147 368.479 131.998C368.767 131.845 369.135 131.769 369.583 131.769C370.173 131.769 370.704 131.92 371.178 132.222C371.656 132.52 372.034 132.962 372.312 133.549C372.594 134.132 372.735 134.848 372.735 135.697C372.735 136.535 372.597 137.248 372.322 137.834C372.047 138.421 371.672 138.869 371.198 139.177C370.724 139.485 370.187 139.639 369.588 139.639C369.15 139.639 368.787 139.566 368.499 139.42C368.21 139.275 367.978 139.099 367.803 138.893C367.63 138.685 367.496 138.487 367.4 138.302H367.296V139.505H365.526ZM367.291 135.687C367.291 136.181 367.36 136.613 367.499 136.984C367.642 137.355 367.846 137.646 368.111 137.854C368.379 138.06 368.704 138.163 369.085 138.163C369.483 138.163 369.816 138.056 370.085 137.844C370.353 137.629 370.555 137.336 370.691 136.964C370.83 136.59 370.9 136.164 370.9 135.687C370.9 135.213 370.832 134.792 370.696 134.424C370.56 134.056 370.358 133.768 370.09 133.559C369.821 133.35 369.486 133.246 369.085 133.246C368.701 133.246 368.374 133.347 368.106 133.549C367.838 133.751 367.634 134.034 367.494 134.399C367.359 134.764 367.291 135.193 367.291 135.687ZM377.596 139.654C376.85 139.654 376.203 139.49 375.657 139.162C375.11 138.834 374.685 138.375 374.384 137.785C374.086 137.195 373.936 136.505 373.936 135.717C373.936 134.928 374.086 134.237 374.384 133.643C374.685 133.05 375.11 132.589 375.657 132.261C376.203 131.933 376.85 131.769 377.596 131.769C378.341 131.769 378.988 131.933 379.534 132.261C380.081 132.589 380.504 133.05 380.802 133.643C381.104 134.237 381.255 134.928 381.255 135.717C381.255 136.505 381.104 137.195 380.802 137.785C380.504 138.375 380.081 138.834 379.534 139.162C378.988 139.49 378.341 139.654 377.596 139.654ZM377.605 138.212C378.01 138.212 378.348 138.101 378.62 137.879C378.891 137.654 379.094 137.352 379.226 136.974C379.362 136.597 379.43 136.176 379.43 135.712C379.43 135.244 379.362 134.822 379.226 134.444C379.094 134.063 378.891 133.759 378.62 133.534C378.348 133.309 378.01 133.196 377.605 133.196C377.191 133.196 376.846 133.309 376.571 133.534C376.3 133.759 376.096 134.063 375.96 134.444C375.827 134.822 375.761 135.244 375.761 135.712C375.761 136.176 375.827 136.597 375.96 136.974C376.096 137.352 376.3 137.654 376.571 137.879C376.846 138.101 377.191 138.212 377.605 138.212ZM387.411 134.523V136.005H382.827V134.523H387.411ZM393.047 139.699C392.229 139.699 391.526 139.492 390.939 139.077C390.356 138.66 389.907 138.058 389.592 137.273C389.28 136.484 389.125 135.534 389.125 134.424C389.128 133.314 389.285 132.369 389.597 131.59C389.912 130.808 390.361 130.211 390.944 129.8C391.531 129.389 392.232 129.184 393.047 129.184C393.863 129.184 394.564 129.389 395.15 129.8C395.737 130.211 396.186 130.808 396.498 131.59C396.812 132.372 396.97 133.317 396.97 134.424C396.97 135.538 396.812 136.489 396.498 137.278C396.186 138.063 395.737 138.663 395.15 139.077C394.567 139.492 393.866 139.699 393.047 139.699ZM393.047 138.143C393.684 138.143 394.186 137.829 394.554 137.203C394.925 136.573 395.11 135.647 395.11 134.424C395.11 133.615 395.026 132.936 394.857 132.386C394.688 131.835 394.449 131.421 394.141 131.143C393.833 130.861 393.468 130.72 393.047 130.72C392.414 130.72 391.914 131.035 391.546 131.665C391.178 132.291 390.992 133.211 390.989 134.424C390.986 135.236 391.067 135.919 391.233 136.472C391.402 137.026 391.64 137.443 391.949 137.725C392.257 138.003 392.623 138.143 393.047 138.143ZM402.763 129.323V139.505H400.919V131.118H400.859L398.477 132.639V130.949L401.008 129.323H402.763ZM405.348 139.505V138.172L408.883 134.707C409.221 134.366 409.503 134.063 409.728 133.797C409.954 133.532 410.123 133.275 410.235 133.027C410.348 132.778 410.404 132.513 410.404 132.231C410.404 131.91 410.331 131.635 410.186 131.406C410.04 131.174 409.839 130.995 409.584 130.869C409.329 130.743 409.039 130.68 408.714 130.68C408.379 130.68 408.086 130.75 407.834 130.889C407.582 131.025 407.387 131.219 407.247 131.471C407.111 131.723 407.044 132.023 407.044 132.371H405.289C405.289 131.724 405.436 131.163 405.731 130.685C406.026 130.208 406.432 129.838 406.949 129.577C407.469 129.315 408.066 129.184 408.739 129.184C409.422 129.184 410.021 129.311 410.539 129.567C411.056 129.822 411.457 130.172 411.742 130.616C412.03 131.06 412.174 131.567 412.174 132.137C412.174 132.518 412.101 132.893 411.955 133.261C411.81 133.628 411.553 134.036 411.185 134.484C410.82 134.931 410.308 135.473 409.649 136.109L407.894 137.894V137.964H412.328V139.505H405.348ZM417.583 139.644C416.92 139.644 416.327 139.52 415.803 139.271C415.28 139.019 414.864 138.675 414.556 138.237C414.251 137.8 414.088 137.299 414.068 136.736H415.858C415.891 137.153 416.072 137.495 416.4 137.76C416.728 138.022 417.123 138.153 417.583 138.153C417.945 138.153 418.266 138.07 418.548 137.904C418.829 137.738 419.052 137.508 419.214 137.213C419.376 136.918 419.456 136.582 419.453 136.204C419.456 135.819 419.375 135.478 419.209 135.18C419.043 134.881 418.816 134.648 418.528 134.479C418.24 134.306 417.908 134.22 417.534 134.22C417.229 134.217 416.929 134.273 416.634 134.389C416.339 134.505 416.105 134.658 415.933 134.847L414.267 134.573L414.799 129.323H420.705V130.864H416.325L416.032 133.564H416.092C416.281 133.342 416.548 133.158 416.892 133.012C417.237 132.863 417.615 132.788 418.026 132.788C418.642 132.788 419.192 132.934 419.676 133.226C420.16 133.514 420.541 133.912 420.82 134.419C421.098 134.926 421.237 135.506 421.237 136.159C421.237 136.832 421.082 137.432 420.77 137.959C420.462 138.482 420.033 138.895 419.482 139.197C418.936 139.495 418.302 139.644 417.583 139.644Z" fill="#692FBF"/>
<rect x="85.4867" y="160.992" width="348.027" height="45.0266" rx="8.45996" fill="#F9FAFB"/>
<rect x="85.4867" y="160.992" width="348.027" height="45.0266" rx="8.45996" stroke="#9CA3AF" stroke-width="0.973361" stroke-dasharray="1.95 1.95"/>
<path d="M113.004 177.414V190.505H111.189L104.535 180.904H104.413V190.505H102.438V177.414H104.266L110.927 187.028H111.048V177.414H113.004ZM119.868 190.703C118.947 190.703 118.144 190.492 117.458 190.07C116.772 189.648 116.239 189.058 115.86 188.3C115.481 187.541 115.291 186.655 115.291 185.641C115.291 184.622 115.481 183.731 115.86 182.969C116.239 182.206 116.772 181.614 117.458 181.192C118.144 180.77 118.947 180.559 119.868 180.559C120.788 180.559 121.591 180.77 122.278 181.192C122.964 181.614 123.496 182.206 123.876 182.969C124.255 183.731 124.444 184.622 124.444 185.641C124.444 186.655 124.255 187.541 123.876 188.3C123.496 189.058 122.964 189.648 122.278 190.07C121.591 190.492 120.788 190.703 119.868 190.703ZM119.874 189.099C120.471 189.099 120.965 188.941 121.357 188.626C121.749 188.31 122.039 187.891 122.226 187.366C122.418 186.842 122.514 186.265 122.514 185.634C122.514 185.008 122.418 184.432 122.226 183.908C122.039 183.38 121.749 182.956 121.357 182.636C120.965 182.317 120.471 182.157 119.874 182.157C119.273 182.157 118.775 182.317 118.378 182.636C117.986 182.956 117.694 183.38 117.503 183.908C117.315 184.432 117.221 185.008 117.221 185.634C117.221 186.265 117.315 186.842 117.503 187.366C117.694 187.891 117.986 188.31 118.378 188.626C118.775 188.941 119.273 189.099 119.874 189.099ZM131.161 180.687V182.221H125.798V180.687H131.161ZM127.236 178.334H129.147V187.622C129.147 187.993 129.203 188.272 129.314 188.459C129.424 188.643 129.567 188.768 129.742 188.837C129.921 188.9 130.115 188.932 130.324 188.932C130.477 188.932 130.611 188.922 130.726 188.9C130.841 188.879 130.931 188.862 130.995 188.849L131.34 190.428C131.229 190.471 131.071 190.513 130.867 190.556C130.662 190.603 130.407 190.628 130.1 190.633C129.597 190.641 129.128 190.552 128.694 190.364C128.259 190.177 127.907 189.887 127.639 189.495C127.37 189.103 127.236 188.611 127.236 188.018V178.334ZM142.711 180.687V182.221H137.163V180.687H142.711ZM138.684 190.505V179.549C138.684 178.935 138.819 178.426 139.087 178.021C139.355 177.612 139.711 177.307 140.154 177.107C140.598 176.903 141.079 176.8 141.599 176.8C141.983 176.8 142.311 176.832 142.583 176.896C142.856 176.956 143.059 177.011 143.191 177.062L142.743 178.609C142.654 178.584 142.539 178.554 142.398 178.52C142.257 178.481 142.087 178.462 141.887 178.462C141.422 178.462 141.09 178.577 140.89 178.807C140.694 179.038 140.596 179.37 140.596 179.805V190.505H138.684ZM148.432 190.703C147.512 190.703 146.708 190.492 146.022 190.07C145.336 189.648 144.804 189.058 144.424 188.3C144.045 187.541 143.855 186.655 143.855 185.641C143.855 184.622 144.045 183.731 144.424 182.969C144.804 182.206 145.336 181.614 146.022 181.192C146.708 180.77 147.512 180.559 148.432 180.559C149.353 180.559 150.156 180.77 150.842 181.192C151.528 181.614 152.061 182.206 152.44 182.969C152.819 183.731 153.009 184.622 153.009 185.641C153.009 186.655 152.819 187.541 152.44 188.3C152.061 189.058 151.528 189.648 150.842 190.07C150.156 190.492 149.353 190.703 148.432 190.703ZM148.439 189.099C149.035 189.099 149.529 188.941 149.922 188.626C150.314 188.31 150.603 187.891 150.791 187.366C150.983 186.842 151.078 186.265 151.078 185.634C151.078 185.008 150.983 184.432 150.791 183.908C150.603 183.38 150.314 182.956 149.922 182.636C149.529 182.317 149.035 182.157 148.439 182.157C147.838 182.157 147.339 182.317 146.943 182.636C146.551 182.956 146.259 183.38 146.067 183.908C145.88 184.432 145.786 185.008 145.786 185.634C145.786 186.265 145.88 186.842 146.067 187.366C146.259 187.891 146.551 188.31 146.943 188.626C147.339 188.941 147.838 189.099 148.439 189.099ZM161.362 186.433V180.687H163.279V190.505H161.4V188.805H161.298C161.072 189.329 160.71 189.766 160.211 190.115C159.717 190.46 159.101 190.633 158.364 190.633C157.733 190.633 157.175 190.494 156.689 190.217C156.208 189.936 155.828 189.521 155.551 188.971C155.279 188.421 155.142 187.741 155.142 186.932V180.687H157.053V186.702C157.053 187.371 157.239 187.903 157.61 188.3C157.98 188.696 158.462 188.894 159.054 188.894C159.412 188.894 159.768 188.805 160.122 188.626C160.48 188.447 160.776 188.176 161.01 187.814C161.249 187.452 161.366 186.991 161.362 186.433ZM167.759 184.675V190.505H165.847V180.687H167.682V182.285H167.803C168.029 181.765 168.383 181.347 168.864 181.032C169.35 180.717 169.962 180.559 170.699 180.559C171.368 180.559 171.954 180.699 172.457 180.981C172.96 181.258 173.349 181.671 173.626 182.221C173.903 182.771 174.042 183.45 174.042 184.26V190.505H172.131V184.49C172.131 183.778 171.945 183.222 171.575 182.822C171.204 182.417 170.695 182.214 170.047 182.214C169.604 182.214 169.21 182.31 168.864 182.502C168.523 182.694 168.253 182.975 168.053 183.346C167.857 183.712 167.759 184.155 167.759 184.675ZM180.281 190.697C179.488 190.697 178.781 190.494 178.158 190.089C177.54 189.68 177.055 189.099 176.701 188.344C176.352 187.586 176.177 186.676 176.177 185.615C176.177 184.554 176.354 183.646 176.707 182.892C177.065 182.138 177.555 181.56 178.178 181.16C178.8 180.759 179.505 180.559 180.293 180.559C180.903 180.559 181.393 180.661 181.763 180.866C182.138 181.066 182.428 181.3 182.633 181.569C182.842 181.837 183.004 182.074 183.119 182.278H183.234V177.414H185.145V190.505H183.278V188.977H183.119C183.004 189.186 182.837 189.425 182.62 189.693C182.407 189.962 182.113 190.196 181.738 190.396C181.363 190.597 180.877 190.697 180.281 190.697ZM180.702 189.067C181.252 189.067 181.717 188.922 182.096 188.632C182.479 188.338 182.769 187.931 182.965 187.411C183.165 186.891 183.266 186.286 183.266 185.596C183.266 184.914 183.168 184.317 182.972 183.806C182.776 183.295 182.488 182.896 182.109 182.611C181.729 182.325 181.261 182.182 180.702 182.182C180.127 182.182 179.648 182.332 179.264 182.63C178.881 182.928 178.591 183.335 178.395 183.851C178.203 184.366 178.107 184.948 178.107 185.596C178.107 186.252 178.205 186.842 178.401 187.366C178.597 187.891 178.887 188.306 179.271 188.613C179.658 188.915 180.136 189.067 180.702 189.067Z" fill="#101827"/>
</g>
<defs>
<filter id="filter0_d_1581_664" x="0" y="0.504883" width="497" height="276" filterUnits="userSpaceOnUse" color-interpolation-filters="sRGB">
<feFlood flood-opacity="0" result="BackgroundImageFix"/>
<feColorMatrix in="SourceAlpha" type="matrix" values="0 0 0 0 0 0 0 0 0 0 0 0 0 0 0 0 0 0 127 0" result="hardAlpha"/>
<feOffset dx="-11" dy="-4"/>
<feGaussianBlur stdDeviation="25"/>
<feComposite in2="hardAlpha" operator="out"/>
<feColorMatrix type="matrix" values="0 0 0 0 0 0 0 0 0 0 0 0 0 0 0 0 0 0 0.1 0"/>
<feBlend mode="normal" in2="BackgroundImageFix" result="effect1_dropShadow_1581_664"/>
<feBlend mode="normal" in="SourceGraphic" in2="effect1_dropShadow_1581_664" result="shape"/>
</filter>
</defs>
</svg>
