<svg width="490" height="277" viewBox="0 0 490 277" fill="none" xmlns="http://www.w3.org/2000/svg">
<g filter="url(#filter0_d_1581_679)">
<rect x="61" y="54.5049" width="389.893" height="176" rx="12" fill="white"/>
<path d="M95.1023 87.414C95.1023 88.511 94.8968 89.4507 94.4858 90.2329C94.0781 91.0117 93.5213 91.6083 92.8153 92.0226C92.1127 92.4369 91.3156 92.6441 90.424 92.6441C89.5324 92.6441 88.7337 92.4369 88.0277 92.0226C87.325 91.605 86.7682 91.0068 86.3572 90.2279C85.9496 89.4457 85.7457 88.5077 85.7457 87.414C85.7457 86.3169 85.9496 85.3789 86.3572 84.6001C86.7682 83.8179 87.325 83.2196 88.0277 82.8053C88.7337 82.391 89.5324 82.1839 90.424 82.1839C91.3156 82.1839 92.1127 82.391 92.8153 82.8053C93.5213 83.2196 94.0781 83.8179 94.4858 84.6001C94.8968 85.3789 95.1023 86.3169 95.1023 87.414ZM93.2479 87.414C93.2479 86.6417 93.1269 85.9904 92.8849 85.4601C92.6463 84.9265 92.3149 84.5238 91.8906 84.252C91.4664 83.9769 90.9775 83.8394 90.424 83.8394C89.8705 83.8394 89.3816 83.9769 88.9574 84.252C88.5331 84.5238 88.2 84.9265 87.9581 85.4601C87.7195 85.9904 87.6001 86.6417 87.6001 87.414C87.6001 88.1862 87.7195 88.8392 87.9581 89.3728C88.2 89.9031 88.5331 90.3058 88.9574 90.5809C89.3816 90.8527 89.8705 90.9885 90.424 90.9885C90.9775 90.9885 91.4664 90.8527 91.8906 90.5809C92.3149 90.3058 92.6463 89.9031 92.8849 89.3728C93.1269 88.8392 93.2479 88.1862 93.2479 87.414ZM101.634 89.2932V84.8685H103.433V92.5049H101.688V91.1476H101.609C101.436 91.5752 101.153 91.9249 100.759 92.1966C100.368 92.4684 99.8854 92.6043 99.312 92.6043C98.8115 92.6043 98.369 92.4933 97.9846 92.2712C97.6034 92.0458 97.3051 91.7194 97.0897 91.2918C96.8742 90.8609 96.7665 90.3406 96.7665 89.7307V84.8685H98.5662V89.4523C98.5662 89.9362 98.6988 90.3207 98.964 90.6057C99.2291 90.8908 99.5771 91.0333 100.008 91.0333C100.273 91.0333 100.53 90.9687 100.779 90.8394C101.027 90.7101 101.231 90.5179 101.39 90.2627C101.552 90.0042 101.634 89.681 101.634 89.2932ZM109.097 84.8685V86.2606H104.707V84.8685H109.097ZM105.791 83.039H107.591V90.208C107.591 90.45 107.627 90.6356 107.7 90.7648C107.777 90.8908 107.876 90.9769 107.999 91.0233C108.121 91.0698 108.257 91.093 108.406 91.093C108.519 91.093 108.622 91.0847 108.714 91.0681C108.811 91.0515 108.884 91.0366 108.933 91.0233L109.237 92.4303C109.14 92.4635 109.003 92.4999 108.824 92.5397C108.648 92.5795 108.433 92.6027 108.178 92.6093C107.727 92.6225 107.321 92.5546 106.96 92.4055C106.598 92.253 106.312 92.0177 106.099 91.6995C105.891 91.3813 105.788 90.9836 105.791 90.5063V83.039ZM110.602 95.3685V84.8685H112.372V86.1313H112.477C112.57 85.9457 112.7 85.7485 112.869 85.5397C113.039 85.3276 113.267 85.1469 113.556 84.9978C113.844 84.8453 114.212 84.7691 114.659 84.7691C115.249 84.7691 115.781 84.9199 116.255 85.2215C116.732 85.5198 117.11 85.9623 117.389 86.5489C117.67 87.1322 117.811 87.8482 117.811 88.6966C117.811 89.5352 117.674 90.2478 117.399 90.8344C117.124 91.4211 116.749 91.8685 116.275 92.1768C115.801 92.485 115.264 92.6391 114.664 92.6391C114.227 92.6391 113.864 92.5662 113.575 92.4204C113.287 92.2745 113.055 92.0989 112.879 91.8934C112.707 91.6846 112.573 91.4874 112.477 91.3018H112.402V95.3685H110.602ZM112.367 88.6867C112.367 89.1805 112.437 89.6131 112.576 89.9843C112.719 90.3555 112.923 90.6455 113.188 90.8543C113.456 91.0598 113.781 91.1626 114.162 91.1626C114.56 91.1626 114.893 91.0565 115.161 90.8444C115.43 90.6289 115.632 90.3356 115.768 89.9644C115.907 89.5899 115.977 89.164 115.977 88.6867C115.977 88.2127 115.909 87.7918 115.773 87.4239C115.637 87.056 115.435 86.7677 115.166 86.5589C114.898 86.3501 114.563 86.2456 114.162 86.2456C113.778 86.2456 113.451 86.3467 113.183 86.5489C112.914 86.7511 112.71 87.0345 112.571 87.3991C112.435 87.7636 112.367 88.1929 112.367 88.6867ZM124.22 89.2932V84.8685H126.019V92.5049H124.274V91.1476H124.195C124.022 91.5752 123.739 91.9249 123.345 92.1966C122.954 92.4684 122.471 92.6043 121.898 92.6043C121.397 92.6043 120.955 92.4933 120.57 92.2712C120.189 92.0458 119.891 91.7194 119.676 91.2918C119.46 90.8609 119.352 90.3406 119.352 89.7307V84.8685H121.152V89.4523C121.152 89.9362 121.285 90.3207 121.55 90.6057C121.815 90.8908 122.163 91.0333 122.594 91.0333C122.859 91.0333 123.116 90.9687 123.365 90.8394C123.613 90.7101 123.817 90.5179 123.976 90.2627C124.138 90.0042 124.22 89.681 124.22 89.2932ZM131.683 84.8685V86.2606H127.293V84.8685H131.683ZM128.377 83.039H130.177V90.208C130.177 90.45 130.213 90.6356 130.286 90.7648C130.362 90.8908 130.462 90.9769 130.585 91.0233C130.707 91.0698 130.843 91.093 130.992 91.093C131.105 91.093 131.208 91.0847 131.3 91.0681C131.397 91.0515 131.469 91.0366 131.519 91.0233L131.822 92.4303C131.726 92.4635 131.589 92.4999 131.41 92.5397C131.234 92.5795 131.019 92.6027 130.763 92.6093C130.313 92.6225 129.907 92.5546 129.545 92.4055C129.184 92.253 128.897 92.0177 128.685 91.6995C128.477 91.3813 128.374 90.9836 128.377 90.5063V83.039Z" fill="#5A6471"/>
<path d="M409.183 92.0049V90.6725L412.718 87.2073C413.056 86.8659 413.338 86.5626 413.563 86.2975C413.789 86.0323 413.958 85.7755 414.07 85.5269C414.183 85.2783 414.239 85.0132 414.239 84.7314C414.239 84.4099 414.166 84.1349 414.021 83.9062C413.875 83.6742 413.674 83.4952 413.419 83.3692C413.164 83.2433 412.874 83.1803 412.549 83.1803C412.214 83.1803 411.921 83.2499 411.669 83.3891C411.417 83.525 411.222 83.7189 411.082 83.9708C410.946 84.2227 410.878 84.5226 410.878 84.8706H409.123C409.123 84.2243 409.271 83.6626 409.566 83.1853C409.861 82.708 410.267 82.3385 410.784 82.0766C411.304 81.8148 411.901 81.6839 412.574 81.6839C413.257 81.6839 413.856 81.8115 414.373 82.0667C414.891 82.3219 415.292 82.6715 415.577 83.1157C415.865 83.5598 416.009 84.0669 416.009 84.637C416.009 85.0181 415.936 85.3927 415.79 85.7606C415.645 86.1285 415.388 86.5361 415.02 86.9836C414.655 87.431 414.143 87.9729 413.484 88.6093L411.729 90.3941V90.4637H416.163V92.0049H409.183ZM419.007 92.1143C418.705 92.1143 418.447 92.0082 418.231 91.7961C418.016 91.584 417.91 91.3254 417.913 91.0205C417.91 90.7222 418.016 90.467 418.231 90.2549C418.447 90.0428 418.705 89.9367 419.007 89.9367C419.299 89.9367 419.552 90.0428 419.768 90.2549C419.986 90.467 420.097 90.7222 420.101 91.0205C420.097 91.2227 420.044 91.4066 419.942 91.5724C419.842 91.7381 419.71 91.8706 419.544 91.9701C419.382 92.0662 419.203 92.1143 419.007 92.1143ZM424.823 81.8231V92.0049H422.978V83.6178H422.918L420.537 85.1391V83.4488L423.068 81.8231H424.823Z" fill="#5A6471"/>
<rect x="85.3355" y="119.84" width="74.329" height="28.329" rx="5.6645" fill="#EFFEF4"/>
<rect x="85.3355" y="119.84" width="74.329" height="28.329" rx="5.6645" stroke="#BBF7D0" stroke-width="0.670998"/>
<path d="M101.559 139.644C100.843 139.644 100.207 139.521 99.6499 139.276C99.0964 139.031 98.6589 138.69 98.3374 138.252C98.0159 137.815 97.8452 137.309 97.8253 136.736H99.6946C99.7112 137.011 99.8023 137.251 99.968 137.457C100.134 137.659 100.354 137.816 100.629 137.929C100.904 138.042 101.213 138.098 101.554 138.098C101.919 138.098 102.242 138.035 102.523 137.909C102.805 137.78 103.026 137.601 103.185 137.372C103.344 137.143 103.422 136.88 103.418 136.582C103.422 136.273 103.342 136.002 103.18 135.766C103.017 135.531 102.782 135.347 102.474 135.214C102.169 135.082 101.801 135.016 101.37 135.016H100.47V133.594H101.37C101.725 133.594 102.035 133.532 102.3 133.41C102.568 133.287 102.779 133.115 102.931 132.893C103.084 132.667 103.158 132.407 103.155 132.112C103.158 131.824 103.094 131.574 102.961 131.361C102.832 131.146 102.648 130.979 102.409 130.859C102.174 130.74 101.897 130.68 101.579 130.68C101.267 130.68 100.979 130.737 100.714 130.849C100.449 130.962 100.235 131.123 100.072 131.332C99.91 131.537 99.8239 131.782 99.8139 132.067H98.0391C98.0523 131.497 98.2164 130.997 98.5312 130.566C98.8494 130.132 99.2737 129.794 99.804 129.552C100.334 129.306 100.929 129.184 101.589 129.184C102.268 129.184 102.858 129.311 103.359 129.567C103.862 129.819 104.252 130.158 104.527 130.586C104.802 131.013 104.94 131.486 104.94 132.003C104.943 132.576 104.774 133.057 104.433 133.445C104.094 133.832 103.65 134.086 103.1 134.205V134.285C103.816 134.384 104.365 134.649 104.746 135.08C105.13 135.508 105.321 136.04 105.317 136.676C105.317 137.246 105.155 137.757 104.83 138.207C104.509 138.655 104.065 139.006 103.498 139.261C102.934 139.516 102.288 139.644 101.559 139.644ZM110.559 129.184C111.046 129.187 111.52 129.273 111.981 129.442C112.445 129.608 112.862 129.88 113.233 130.258C113.605 130.632 113.9 131.134 114.118 131.764C114.337 132.394 114.447 133.173 114.447 134.101C114.45 134.976 114.357 135.758 114.168 136.447C113.983 137.133 113.716 137.713 113.368 138.187C113.02 138.661 112.6 139.023 112.11 139.271C111.619 139.52 111.068 139.644 110.454 139.644C109.811 139.644 109.241 139.518 108.744 139.266C108.25 139.014 107.851 138.67 107.546 138.232C107.241 137.795 107.054 137.294 106.984 136.731H108.799C108.892 137.135 109.081 137.457 109.366 137.695C109.654 137.931 110.017 138.048 110.454 138.048C111.16 138.048 111.704 137.742 112.085 137.128C112.466 136.515 112.657 135.664 112.657 134.573H112.587C112.425 134.865 112.214 135.117 111.956 135.329C111.697 135.538 111.404 135.698 111.076 135.811C110.751 135.924 110.406 135.98 110.042 135.98C109.445 135.98 108.908 135.838 108.431 135.552C107.957 135.267 107.581 134.876 107.302 134.379C107.027 133.882 106.888 133.314 106.885 132.674C106.885 132.011 107.037 131.416 107.342 130.889C107.65 130.359 108.08 129.941 108.63 129.636C109.18 129.328 109.823 129.177 110.559 129.184ZM110.564 130.675C110.206 130.675 109.883 130.763 109.594 130.939C109.309 131.111 109.084 131.347 108.918 131.645C108.756 131.94 108.675 132.27 108.675 132.634C108.678 132.995 108.759 133.324 108.918 133.619C109.081 133.914 109.301 134.147 109.579 134.32C109.861 134.492 110.183 134.578 110.544 134.578C110.812 134.578 111.063 134.527 111.295 134.424C111.527 134.321 111.729 134.179 111.901 133.996C112.077 133.811 112.213 133.6 112.309 133.365C112.408 133.13 112.456 132.881 112.453 132.619C112.453 132.271 112.37 131.95 112.204 131.655C112.042 131.36 111.818 131.123 111.533 130.944C111.251 130.765 110.928 130.675 110.564 130.675ZM116.102 139.505V138.172L119.637 134.707C119.975 134.366 120.257 134.063 120.482 133.797C120.707 133.532 120.876 133.275 120.989 133.027C121.102 132.778 121.158 132.513 121.158 132.231C121.158 131.91 121.085 131.635 120.939 131.406C120.794 131.174 120.593 130.995 120.338 130.869C120.083 130.743 119.793 130.68 119.468 130.68C119.133 130.68 118.84 130.75 118.588 130.889C118.336 131.025 118.14 131.219 118.001 131.471C117.865 131.723 117.797 132.023 117.797 132.371H116.042C116.042 131.724 116.19 131.163 116.485 130.685C116.78 130.208 117.186 129.838 117.703 129.577C118.223 129.315 118.82 129.184 119.493 129.184C120.175 129.184 120.775 129.311 121.292 129.567C121.809 129.822 122.211 130.172 122.496 130.616C122.784 131.06 122.928 131.567 122.928 132.137C122.928 132.518 122.855 132.893 122.709 133.261C122.564 133.628 122.307 134.036 121.939 134.484C121.574 134.931 121.062 135.473 120.403 136.109L118.648 137.894V137.964H123.082V139.505H116.102ZM128.29 139.505V131.869H130.01V133.166H130.1C130.259 132.729 130.522 132.387 130.89 132.142C131.258 131.893 131.697 131.769 132.208 131.769C132.725 131.769 133.16 131.895 133.515 132.147C133.873 132.396 134.125 132.735 134.271 133.166H134.35C134.519 132.742 134.804 132.404 135.205 132.152C135.61 131.897 136.089 131.769 136.642 131.769C137.345 131.769 137.918 131.991 138.362 132.435C138.807 132.879 139.029 133.527 139.029 134.379V139.505H137.224V134.658C137.224 134.184 137.098 133.837 136.846 133.619C136.594 133.396 136.286 133.285 135.921 133.285C135.487 133.285 135.147 133.421 134.902 133.693C134.66 133.962 134.539 134.311 134.539 134.742V139.505H132.774V134.583C132.774 134.189 132.655 133.874 132.416 133.638C132.181 133.403 131.873 133.285 131.492 133.285C131.233 133.285 130.998 133.352 130.786 133.484C130.574 133.614 130.405 133.797 130.279 134.036C130.153 134.271 130.09 134.547 130.09 134.861V139.505H128.29ZM146.89 133.887L145.249 134.066C145.203 133.9 145.122 133.744 145.006 133.599C144.893 133.453 144.741 133.335 144.548 133.246C144.356 133.156 144.121 133.111 143.842 133.111C143.468 133.111 143.153 133.193 142.898 133.355C142.646 133.517 142.522 133.728 142.525 133.986C142.522 134.208 142.603 134.389 142.768 134.528C142.938 134.668 143.216 134.782 143.604 134.871L144.906 135.15C145.629 135.306 146.166 135.552 146.517 135.891C146.872 136.229 147.051 136.671 147.054 137.218C147.051 137.699 146.91 138.123 146.631 138.491C146.356 138.855 145.973 139.14 145.483 139.346C144.992 139.551 144.429 139.654 143.793 139.654C142.858 139.654 142.106 139.458 141.536 139.067C140.965 138.673 140.626 138.124 140.516 137.422L142.271 137.253C142.351 137.597 142.52 137.858 142.778 138.033C143.037 138.209 143.373 138.297 143.788 138.297C144.215 138.297 144.558 138.209 144.817 138.033C145.079 137.858 145.21 137.641 145.21 137.382C145.21 137.163 145.125 136.983 144.956 136.84C144.79 136.698 144.532 136.588 144.18 136.512L142.878 136.239C142.145 136.086 141.603 135.829 141.252 135.468C140.901 135.103 140.727 134.643 140.73 134.086C140.727 133.615 140.854 133.208 141.113 132.863C141.375 132.515 141.738 132.246 142.202 132.057C142.669 131.865 143.208 131.769 143.817 131.769C144.712 131.769 145.417 131.96 145.93 132.341C146.447 132.722 146.767 133.237 146.89 133.887Z" fill="#18803D"/>
<rect x="169.281" y="119.84" width="91.329" height="28.329" rx="5.6645" fill="#F9FAFB"/>
<rect x="169.281" y="119.84" width="91.329" height="28.329" rx="5.6645" stroke="#ECEDF0" stroke-width="0.670998"/>
<path d="M181.666 137.616V136.149L185.987 129.323H187.21V131.411H186.464L183.555 136.02V136.099H189.586V137.616H181.666ZM186.523 139.505V137.168L186.543 136.512V129.323H188.283V139.505H186.523ZM194.903 139.644C194.416 139.641 193.94 139.556 193.476 139.391C193.012 139.222 192.595 138.948 192.223 138.57C191.852 138.189 191.557 137.684 191.338 137.054C191.12 136.421 191.012 135.637 191.015 134.702C191.015 133.831 191.108 133.053 191.294 132.371C191.479 131.688 191.746 131.111 192.094 130.641C192.442 130.167 192.861 129.805 193.352 129.557C193.846 129.308 194.398 129.184 195.007 129.184C195.647 129.184 196.214 129.31 196.708 129.562C197.205 129.814 197.606 130.158 197.911 130.596C198.216 131.03 198.405 131.521 198.478 132.067H196.663C196.57 131.676 196.38 131.365 196.091 131.133C195.806 130.897 195.445 130.78 195.007 130.78C194.301 130.78 193.758 131.086 193.377 131.699C192.999 132.313 192.808 133.155 192.805 134.225H192.875C193.037 133.933 193.248 133.683 193.506 133.474C193.765 133.266 194.056 133.105 194.381 132.992C194.709 132.876 195.056 132.818 195.42 132.818C196.017 132.818 196.552 132.961 197.026 133.246C197.503 133.531 197.881 133.923 198.159 134.424C198.438 134.921 198.575 135.491 198.572 136.134C198.575 136.804 198.423 137.405 198.115 137.939C197.806 138.469 197.377 138.887 196.827 139.192C196.277 139.497 195.636 139.647 194.903 139.644ZM194.893 138.153C195.254 138.153 195.578 138.065 195.863 137.889C196.148 137.713 196.373 137.476 196.539 137.178C196.704 136.88 196.786 136.545 196.782 136.174C196.786 135.809 196.706 135.48 196.544 135.185C196.385 134.89 196.164 134.656 195.882 134.484C195.601 134.311 195.279 134.225 194.918 134.225C194.65 134.225 194.399 134.276 194.167 134.379C193.935 134.482 193.733 134.624 193.561 134.807C193.388 134.986 193.252 135.195 193.153 135.433C193.057 135.668 193.007 135.92 193.004 136.189C193.007 136.543 193.09 136.87 193.252 137.168C193.415 137.467 193.639 137.705 193.924 137.884C194.209 138.063 194.532 138.153 194.893 138.153ZM207.558 131.869V133.261H203.168V131.869H207.558ZM204.252 130.039H206.052V137.208C206.052 137.45 206.088 137.636 206.161 137.765C206.237 137.891 206.337 137.977 206.46 138.023C206.582 138.07 206.718 138.093 206.867 138.093C206.98 138.093 207.083 138.085 207.175 138.068C207.272 138.052 207.344 138.037 207.394 138.023L207.697 139.43C207.601 139.463 207.464 139.5 207.285 139.54C207.109 139.579 206.894 139.603 206.638 139.609C206.188 139.623 205.782 139.555 205.42 139.405C205.059 139.253 204.772 139.018 204.56 138.699C204.352 138.381 204.249 137.984 204.252 137.506V130.039ZM212.312 139.654C211.567 139.654 210.92 139.49 210.373 139.162C209.827 138.834 209.402 138.375 209.101 137.785C208.802 137.195 208.653 136.505 208.653 135.717C208.653 134.928 208.802 134.237 209.101 133.643C209.402 133.05 209.827 132.589 210.373 132.261C210.92 131.933 211.567 131.769 212.312 131.769C213.058 131.769 213.704 131.933 214.251 132.261C214.798 132.589 215.221 133.05 215.519 133.643C215.821 134.237 215.971 134.928 215.971 135.717C215.971 136.505 215.821 137.195 215.519 137.785C215.221 138.375 214.798 138.834 214.251 139.162C213.704 139.49 213.058 139.654 212.312 139.654ZM212.322 138.212C212.727 138.212 213.065 138.101 213.336 137.879C213.608 137.654 213.81 137.352 213.943 136.974C214.079 136.597 214.147 136.176 214.147 135.712C214.147 135.244 214.079 134.822 213.943 134.444C213.81 134.063 213.608 133.759 213.336 133.534C213.065 133.309 212.727 133.196 212.322 133.196C211.908 133.196 211.563 133.309 211.288 133.534C211.016 133.759 210.813 134.063 210.677 134.444C210.544 134.822 210.478 135.244 210.478 135.712C210.478 136.176 210.544 136.597 210.677 136.974C210.813 137.352 211.016 137.654 211.288 137.879C211.563 138.101 211.908 138.212 212.322 138.212ZM219.14 137.109L219.135 134.936H219.423L222.167 131.869H224.27L220.895 135.627H220.522L219.14 137.109ZM217.499 139.505V129.323H219.299V139.505H217.499ZM222.292 139.505L219.806 136.03L221.019 134.762L224.444 139.505H222.292ZM228.536 139.654C227.77 139.654 227.109 139.495 226.552 139.177C225.999 138.855 225.573 138.401 225.275 137.815C224.976 137.225 224.827 136.53 224.827 135.731C224.827 134.946 224.976 134.257 225.275 133.663C225.576 133.067 225.997 132.603 226.537 132.271C227.078 131.936 227.712 131.769 228.441 131.769C228.912 131.769 229.356 131.845 229.774 131.998C230.195 132.147 230.566 132.379 230.887 132.694C231.212 133.009 231.467 133.41 231.653 133.897C231.839 134.381 231.931 134.958 231.931 135.627V136.179H225.672V134.966H230.206C230.203 134.621 230.128 134.315 229.983 134.046C229.837 133.774 229.633 133.561 229.371 133.405C229.113 133.249 228.811 133.171 228.466 133.171C228.098 133.171 227.775 133.261 227.497 133.44C227.218 133.615 227.001 133.847 226.846 134.136C226.693 134.421 226.615 134.734 226.612 135.075V136.134C226.612 136.578 226.693 136.959 226.855 137.278C227.018 137.592 227.245 137.834 227.537 138.003C227.828 138.169 228.17 138.252 228.561 138.252C228.823 138.252 229.06 138.216 229.272 138.143C229.484 138.066 229.668 137.955 229.824 137.81C229.979 137.664 230.097 137.483 230.176 137.268L231.857 137.457C231.751 137.901 231.549 138.289 231.25 138.62C230.955 138.948 230.578 139.203 230.117 139.386C229.656 139.565 229.129 139.654 228.536 139.654ZM235.254 135.03V139.505H233.454V131.869H235.174V133.166H235.264C235.439 132.739 235.719 132.399 236.104 132.147C236.492 131.895 236.971 131.769 237.541 131.769C238.068 131.769 238.527 131.882 238.918 132.107C239.312 132.333 239.617 132.659 239.833 133.087C240.051 133.514 240.159 134.033 240.156 134.643V139.505H238.356V134.921C238.356 134.411 238.223 134.011 237.958 133.723C237.696 133.435 237.334 133.29 236.869 133.29C236.555 133.29 236.275 133.36 236.029 133.499C235.787 133.635 235.597 133.832 235.458 134.091C235.322 134.349 235.254 134.663 235.254 135.03ZM248.021 133.887L246.38 134.066C246.334 133.9 246.253 133.744 246.137 133.599C246.024 133.453 245.871 133.335 245.679 133.246C245.487 133.156 245.252 133.111 244.973 133.111C244.599 133.111 244.284 133.193 244.029 133.355C243.777 133.517 243.652 133.728 243.656 133.986C243.652 134.208 243.734 134.389 243.899 134.528C244.068 134.668 244.347 134.782 244.735 134.871L246.037 135.15C246.76 135.306 247.297 135.552 247.648 135.891C248.003 136.229 248.182 136.671 248.185 137.218C248.182 137.699 248.041 138.123 247.762 138.491C247.487 138.855 247.104 139.14 246.614 139.346C246.123 139.551 245.56 139.654 244.923 139.654C243.989 139.654 243.236 139.458 242.666 139.067C242.096 138.673 241.757 138.124 241.647 137.422L243.402 137.253C243.482 137.597 243.651 137.858 243.909 138.033C244.168 138.209 244.504 138.297 244.919 138.297C245.346 138.297 245.689 138.209 245.948 138.033C246.209 137.858 246.34 137.641 246.34 137.382C246.34 137.163 246.256 136.983 246.087 136.84C245.921 136.698 245.663 136.588 245.311 136.512L244.009 136.239C243.276 136.086 242.734 135.829 242.383 135.468C242.032 135.103 241.858 134.643 241.861 134.086C241.858 133.615 241.985 133.208 242.244 132.863C242.506 132.515 242.869 132.246 243.333 132.057C243.8 131.865 244.338 131.769 244.948 131.769C245.843 131.769 246.548 131.96 247.061 132.341C247.578 132.722 247.898 133.237 248.021 133.887Z" fill="#3E4857"/>
<rect x="270.226" y="119.84" width="156.329" height="28.329" rx="5.6645" fill="#F8F4FE"/>
<rect x="270.226" y="119.84" width="156.329" height="28.329" rx="5.6645" stroke="#E2D1FC" stroke-width="0.670998"/>
<path d="M286.136 142.528C285.49 142.528 284.935 142.44 284.471 142.264C284.007 142.092 283.634 141.86 283.352 141.568C283.071 141.276 282.875 140.953 282.766 140.599L284.386 140.206C284.459 140.355 284.565 140.503 284.705 140.648C284.844 140.797 285.031 140.92 285.266 141.016C285.505 141.116 285.805 141.165 286.166 141.165C286.677 141.165 287.099 141.041 287.434 140.793C287.769 140.547 287.936 140.143 287.936 139.579V138.133H287.847C287.754 138.318 287.618 138.509 287.439 138.704C287.263 138.9 287.03 139.064 286.738 139.197C286.45 139.329 286.087 139.396 285.649 139.396C285.062 139.396 284.531 139.258 284.053 138.983C283.579 138.704 283.201 138.29 282.92 137.74C282.641 137.186 282.502 136.494 282.502 135.662C282.502 134.823 282.641 134.116 282.92 133.539C283.201 132.959 283.581 132.52 284.058 132.222C284.536 131.92 285.067 131.769 285.654 131.769C286.102 131.769 286.469 131.845 286.758 131.998C287.049 132.147 287.281 132.328 287.454 132.54C287.626 132.748 287.757 132.946 287.847 133.131H287.946V131.869H289.721V139.629C289.721 140.282 289.565 140.822 289.254 141.25C288.942 141.677 288.516 141.997 287.976 142.209C287.436 142.422 286.822 142.528 286.136 142.528ZM286.151 137.984C286.532 137.984 286.857 137.891 287.126 137.705C287.394 137.52 287.598 137.253 287.737 136.905C287.876 136.557 287.946 136.139 287.946 135.652C287.946 135.171 287.876 134.75 287.737 134.389C287.601 134.028 287.399 133.748 287.131 133.549C286.866 133.347 286.539 133.246 286.151 133.246C285.75 133.246 285.415 133.35 285.147 133.559C284.879 133.768 284.676 134.054 284.54 134.419C284.405 134.78 284.337 135.191 284.337 135.652C284.337 136.119 284.405 136.529 284.54 136.88C284.68 137.228 284.884 137.5 285.152 137.695C285.424 137.887 285.757 137.984 286.151 137.984ZM291.565 142.369V131.869H293.335V133.131H293.44C293.532 132.946 293.663 132.748 293.832 132.54C294.001 132.328 294.23 132.147 294.518 131.998C294.807 131.845 295.175 131.769 295.622 131.769C296.212 131.769 296.744 131.92 297.218 132.222C297.695 132.52 298.073 132.962 298.352 133.549C298.633 134.132 298.774 134.848 298.774 135.697C298.774 136.535 298.637 137.248 298.362 137.834C298.086 138.421 297.712 138.869 297.238 139.177C296.764 139.485 296.227 139.639 295.627 139.639C295.19 139.639 294.827 139.566 294.538 139.42C294.25 139.275 294.018 139.099 293.842 138.893C293.67 138.685 293.536 138.487 293.44 138.302H293.365V142.369H291.565ZM293.33 135.687C293.33 136.181 293.4 136.613 293.539 136.984C293.682 137.355 293.885 137.646 294.151 137.854C294.419 138.06 294.744 138.163 295.125 138.163C295.523 138.163 295.856 138.056 296.124 137.844C296.393 137.629 296.595 137.336 296.731 136.964C296.87 136.59 296.94 136.164 296.94 135.687C296.94 135.213 296.872 134.792 296.736 134.424C296.6 134.056 296.398 133.768 296.129 133.559C295.861 133.35 295.526 133.246 295.125 133.246C294.741 133.246 294.414 133.347 294.146 133.549C293.877 133.751 293.673 134.034 293.534 134.399C293.398 134.764 293.33 135.193 293.33 135.687ZM304.129 131.869V133.261H299.739V131.869H304.129ZM300.822 130.039H302.622V137.208C302.622 137.45 302.659 137.636 302.732 137.765C302.808 137.891 302.907 137.977 303.03 138.023C303.152 138.07 303.288 138.093 303.438 138.093C303.55 138.093 303.653 138.085 303.746 138.068C303.842 138.052 303.915 138.037 303.964 138.023L304.268 139.43C304.172 139.463 304.034 139.5 303.855 139.54C303.679 139.579 303.464 139.603 303.209 139.609C302.758 139.623 302.352 139.555 301.991 139.405C301.629 139.253 301.343 139.018 301.131 138.699C300.922 138.381 300.819 137.984 300.822 137.506V130.039ZM310.016 134.523V136.005H305.432V134.523H310.016ZM315.448 139.644C314.732 139.644 314.095 139.521 313.539 139.276C312.985 139.031 312.548 138.69 312.226 138.252C311.905 137.815 311.734 137.309 311.714 136.736H313.583C313.6 137.011 313.691 137.251 313.857 137.457C314.022 137.659 314.243 137.816 314.518 137.929C314.793 138.042 315.101 138.098 315.443 138.098C315.807 138.098 316.13 138.035 316.412 137.909C316.694 137.78 316.914 137.601 317.073 137.372C317.232 137.143 317.31 136.88 317.307 136.582C317.31 136.273 317.231 136.002 317.068 135.766C316.906 135.531 316.671 135.347 316.362 135.214C316.057 135.082 315.69 135.016 315.259 135.016H314.359V133.594H315.259C315.613 133.594 315.923 133.532 316.188 133.41C316.457 133.287 316.667 133.115 316.82 132.893C316.972 132.667 317.047 132.407 317.044 132.112C317.047 131.824 316.982 131.574 316.85 131.361C316.72 131.146 316.536 130.979 316.298 130.859C316.062 130.74 315.786 130.68 315.468 130.68C315.156 130.68 314.868 130.737 314.602 130.849C314.337 130.962 314.124 131.123 313.961 131.332C313.799 131.537 313.713 131.782 313.703 132.067H311.928C311.941 131.497 312.105 130.997 312.42 130.566C312.738 130.132 313.162 129.794 313.693 129.552C314.223 129.306 314.818 129.184 315.477 129.184C316.157 129.184 316.747 129.311 317.247 129.567C317.751 129.819 318.141 130.158 318.416 130.586C318.691 131.013 318.828 131.486 318.828 132.003C318.832 132.576 318.663 133.057 318.321 133.445C317.983 133.832 317.539 134.086 316.989 134.205V134.285C317.705 134.384 318.253 134.649 318.634 135.08C319.019 135.508 319.209 136.04 319.206 136.676C319.206 137.246 319.044 137.757 318.719 138.207C318.397 138.655 317.953 139.006 317.387 139.261C316.823 139.516 316.177 139.644 315.448 139.644ZM321.74 139.614C321.439 139.614 321.18 139.508 320.965 139.296C320.749 139.084 320.643 138.825 320.647 138.521C320.643 138.222 320.749 137.967 320.965 137.755C321.18 137.543 321.439 137.437 321.74 137.437C322.032 137.437 322.286 137.543 322.501 137.755C322.72 137.967 322.831 138.222 322.834 138.521C322.831 138.723 322.778 138.907 322.675 139.072C322.576 139.238 322.443 139.371 322.277 139.47C322.115 139.566 321.936 139.614 321.74 139.614ZM328.089 139.644C327.426 139.644 326.833 139.52 326.309 139.271C325.786 139.019 325.37 138.675 325.061 138.237C324.757 137.8 324.594 137.299 324.574 136.736H326.364C326.397 137.153 326.578 137.495 326.906 137.76C327.234 138.022 327.628 138.153 328.089 138.153C328.45 138.153 328.772 138.07 329.054 137.904C329.335 137.738 329.557 137.508 329.72 137.213C329.882 136.918 329.962 136.582 329.958 136.204C329.962 135.819 329.881 135.478 329.715 135.18C329.549 134.881 329.322 134.648 329.034 134.479C328.745 134.306 328.414 134.22 328.039 134.22C327.734 134.217 327.435 134.273 327.14 134.389C326.845 134.505 326.611 134.658 326.439 134.847L324.773 134.573L325.305 129.323H331.211V130.864H326.831L326.538 133.564H326.598C326.787 133.342 327.053 133.158 327.398 133.012C327.743 132.863 328.121 132.788 328.532 132.788C329.148 132.788 329.698 132.934 330.182 133.226C330.666 133.514 331.047 133.912 331.326 134.419C331.604 134.926 331.743 135.506 331.743 136.159C331.743 136.832 331.587 137.432 331.276 137.959C330.968 138.482 330.538 138.895 329.988 139.197C329.441 139.495 328.808 139.644 328.089 139.644ZM338.057 134.523V136.005H333.473V134.523H338.057ZM343.763 131.869V133.261H339.373V131.869H343.763ZM340.457 130.039H342.257V137.208C342.257 137.45 342.293 137.636 342.366 137.765C342.443 137.891 342.542 137.977 342.665 138.023C342.787 138.07 342.923 138.093 343.072 138.093C343.185 138.093 343.288 138.085 343.381 138.068C343.477 138.052 343.55 138.037 343.599 138.023L343.903 139.43C343.806 139.463 343.669 139.5 343.49 139.54C343.314 139.579 343.099 139.603 342.844 139.609C342.393 139.623 341.987 139.555 341.626 139.405C341.264 139.253 340.978 139.018 340.765 138.699C340.557 138.381 340.454 137.984 340.457 137.506V130.039ZM350.136 136.293V131.869H351.935V139.505H350.19V138.148H350.111C349.938 138.575 349.655 138.925 349.261 139.197C348.87 139.468 348.387 139.604 347.814 139.604C347.313 139.604 346.871 139.493 346.487 139.271C346.105 139.046 345.807 138.719 345.592 138.292C345.376 137.861 345.268 137.341 345.268 136.731V131.869H347.068V136.452C347.068 136.936 347.201 137.321 347.466 137.606C347.731 137.891 348.079 138.033 348.51 138.033C348.775 138.033 349.032 137.969 349.281 137.839C349.529 137.71 349.733 137.518 349.892 137.263C350.054 137.004 350.136 136.681 350.136 136.293ZM353.786 139.505V131.869H355.531V133.141H355.611C355.75 132.7 355.988 132.361 356.327 132.122C356.668 131.88 357.057 131.759 357.495 131.759C357.594 131.759 357.705 131.764 357.828 131.774C357.954 131.781 358.058 131.792 358.141 131.809V133.464C358.065 133.438 357.944 133.415 357.778 133.395C357.616 133.372 357.458 133.36 357.306 133.36C356.978 133.36 356.683 133.431 356.421 133.574C356.162 133.713 355.959 133.907 355.809 134.155C355.66 134.404 355.586 134.691 355.586 135.016V139.505H353.786ZM359.416 139.505V129.323H361.216V133.131H361.291C361.383 132.946 361.514 132.748 361.683 132.54C361.852 132.328 362.081 132.147 362.369 131.998C362.658 131.845 363.026 131.769 363.473 131.769C364.063 131.769 364.595 131.92 365.069 132.222C365.546 132.52 365.924 132.962 366.203 133.549C366.484 134.132 366.625 134.848 366.625 135.697C366.625 136.535 366.488 137.248 366.213 137.834C365.937 138.421 365.563 138.869 365.089 139.177C364.615 139.485 364.078 139.639 363.478 139.639C363.041 139.639 362.678 139.566 362.389 139.42C362.101 139.275 361.869 139.099 361.693 138.893C361.521 138.685 361.387 138.487 361.291 138.302H361.186V139.505H359.416ZM361.181 135.687C361.181 136.181 361.251 136.613 361.39 136.984C361.533 137.355 361.736 137.646 362.002 137.854C362.27 138.06 362.595 138.163 362.976 138.163C363.374 138.163 363.707 138.056 363.975 137.844C364.244 137.629 364.446 137.336 364.582 136.964C364.721 136.59 364.791 136.164 364.791 135.687C364.791 135.213 364.723 134.792 364.587 134.424C364.451 134.056 364.249 133.768 363.98 133.559C363.712 133.35 363.377 133.246 362.976 133.246C362.592 133.246 362.265 133.347 361.997 133.549C361.728 133.751 361.524 134.034 361.385 134.399C361.249 134.764 361.181 135.193 361.181 135.687ZM371.486 139.654C370.74 139.654 370.094 139.49 369.547 139.162C369 138.834 368.576 138.375 368.275 137.785C367.976 137.195 367.827 136.505 367.827 135.717C367.827 134.928 367.976 134.237 368.275 133.643C368.576 133.05 369 132.589 369.547 132.261C370.094 131.933 370.74 131.769 371.486 131.769C372.232 131.769 372.878 131.933 373.425 132.261C373.972 132.589 374.395 133.05 374.693 133.643C374.994 134.237 375.145 134.928 375.145 135.717C375.145 136.505 374.994 137.195 374.693 137.785C374.395 138.375 373.972 138.834 373.425 139.162C372.878 139.49 372.232 139.654 371.486 139.654ZM371.496 138.212C371.9 138.212 372.239 138.101 372.51 137.879C372.782 137.654 372.984 137.352 373.117 136.974C373.253 136.597 373.321 136.176 373.321 135.712C373.321 135.244 373.253 134.822 373.117 134.444C372.984 134.063 372.782 133.759 372.51 133.534C372.239 133.309 371.9 133.196 371.496 133.196C371.082 133.196 370.737 133.309 370.462 133.534C370.19 133.759 369.986 134.063 369.85 134.444C369.718 134.822 369.652 135.244 369.652 135.712C369.652 136.176 369.718 136.597 369.85 136.974C369.986 137.352 370.19 137.654 370.462 137.879C370.737 138.101 371.082 138.212 371.496 138.212ZM381.301 134.523V136.005H376.718V134.523H381.301ZM387.316 129.323V139.505H385.471V131.118H385.412L383.03 132.639V130.949L385.561 129.323H387.316ZM394.042 129.323V139.505H392.198V131.118H392.138L389.757 132.639V130.949L392.287 129.323H394.042ZM400.391 139.699C399.572 139.699 398.87 139.492 398.283 139.077C397.7 138.66 397.251 138.058 396.936 137.273C396.624 136.484 396.468 135.534 396.468 134.424C396.472 133.314 396.629 132.369 396.941 131.59C397.256 130.808 397.705 130.211 398.288 129.8C398.875 129.389 399.576 129.184 400.391 129.184C401.206 129.184 401.907 129.389 402.494 129.8C403.081 130.211 403.53 130.808 403.841 131.59C404.156 132.372 404.314 133.317 404.314 134.424C404.314 135.538 404.156 136.489 403.841 137.278C403.53 138.063 403.081 138.663 402.494 139.077C401.911 139.492 401.21 139.699 400.391 139.699ZM400.391 138.143C401.027 138.143 401.529 137.829 401.897 137.203C402.269 136.573 402.454 135.647 402.454 134.424C402.454 133.615 402.37 132.936 402.201 132.386C402.032 131.835 401.793 131.421 401.485 131.143C401.176 130.861 400.812 130.72 400.391 130.72C399.758 130.72 399.257 131.035 398.89 131.665C398.522 132.291 398.336 133.211 398.333 134.424C398.329 135.236 398.411 135.919 398.576 136.472C398.745 137.026 398.984 137.443 399.292 137.725C399.6 138.003 399.967 138.143 400.391 138.143ZM409.694 139.644C409.207 139.641 408.731 139.556 408.267 139.391C407.803 139.222 407.386 138.948 407.014 138.57C406.643 138.189 406.348 137.684 406.129 137.054C405.911 136.421 405.803 135.637 405.806 134.702C405.806 133.831 405.899 133.053 406.085 132.371C406.27 131.688 406.537 131.111 406.885 130.641C407.233 130.167 407.652 129.805 408.143 129.557C408.637 129.308 409.189 129.184 409.798 129.184C410.438 129.184 411.005 129.31 411.499 129.562C411.996 129.814 412.397 130.158 412.702 130.596C413.007 131.03 413.196 131.521 413.269 132.067H411.454C411.361 131.676 411.171 131.365 410.882 131.133C410.597 130.897 410.236 130.78 409.798 130.78C409.093 130.78 408.549 131.086 408.168 131.699C407.79 132.313 407.599 133.155 407.596 134.225H407.666C407.828 133.933 408.039 133.683 408.297 133.474C408.556 133.266 408.847 133.105 409.172 132.992C409.5 132.876 409.847 132.818 410.211 132.818C410.808 132.818 411.343 132.961 411.817 133.246C412.294 133.531 412.672 133.923 412.95 134.424C413.229 134.921 413.366 135.491 413.363 136.134C413.366 136.804 413.214 137.405 412.906 137.939C412.597 138.469 412.168 138.887 411.618 139.192C411.068 139.497 410.427 139.647 409.694 139.644ZM409.684 138.153C410.045 138.153 410.369 138.065 410.654 137.889C410.939 137.713 411.164 137.476 411.33 137.178C411.495 136.88 411.577 136.545 411.573 136.174C411.577 135.809 411.497 135.48 411.335 135.185C411.176 134.89 410.955 134.656 410.673 134.484C410.392 134.311 410.07 134.225 409.709 134.225C409.441 134.225 409.19 134.276 408.958 134.379C408.726 134.482 408.524 134.624 408.352 134.807C408.179 134.986 408.044 135.195 407.944 135.433C407.848 135.668 407.798 135.92 407.795 136.189C407.798 136.543 407.881 136.87 408.044 137.168C408.206 137.467 408.43 137.705 408.715 137.884C409 138.063 409.323 138.153 409.684 138.153Z" fill="#692FBF"/>
<rect x="85.4867" y="160.992" width="340.92" height="45.0266" rx="8.45996" fill="#F9FAFB"/>
<rect x="85.4867" y="160.992" width="340.92" height="45.0266" rx="8.45996" stroke="#9CA3AF" stroke-width="0.973361" stroke-dasharray="1.95 1.95"/>
<path d="M113.004 177.414V190.505H111.189L104.535 180.904H104.413V190.505H102.438V177.414H104.266L110.927 187.028H111.048V177.414H113.004ZM127.257 183.959C127.257 185.357 127.001 186.559 126.49 187.565C125.979 188.566 125.278 189.337 124.387 189.878C123.501 190.415 122.493 190.684 121.363 190.684C120.23 190.684 119.218 190.415 118.327 189.878C117.441 189.337 116.742 188.564 116.231 187.558C115.719 186.552 115.464 185.353 115.464 183.959C115.464 182.562 115.719 181.362 116.231 180.361C116.742 179.355 117.441 178.584 118.327 178.047C119.218 177.506 120.23 177.235 121.363 177.235C122.493 177.235 123.501 177.506 124.387 178.047C125.278 178.584 125.979 179.355 126.49 180.361C127.001 181.362 127.257 182.562 127.257 183.959ZM125.301 183.959C125.301 182.894 125.128 181.997 124.783 181.268C124.442 180.535 123.974 179.981 123.377 179.606C122.785 179.227 122.113 179.038 121.363 179.038C120.609 179.038 119.936 179.227 119.344 179.606C118.751 179.981 118.282 180.535 117.937 181.268C117.596 181.997 117.426 182.894 117.426 183.959C117.426 185.025 117.596 185.924 117.937 186.657C118.282 187.386 118.751 187.94 119.344 188.319C119.936 188.694 120.609 188.881 121.363 188.881C122.113 188.881 122.785 188.694 123.377 188.319C123.974 187.94 124.442 187.386 124.783 186.657C125.128 185.924 125.301 185.025 125.301 183.959ZM128.511 179.114V177.414H138.643V179.114H134.558V190.505H132.589V179.114H128.511ZM145.645 190.505V177.414H153.763V179.114H147.62V183.103H153.181V184.797H147.62V190.505H145.645ZM167.564 183.959C167.564 185.357 167.308 186.559 166.797 187.565C166.285 188.566 165.584 189.337 164.694 189.878C163.807 190.415 162.799 190.684 161.67 190.684C160.537 190.684 159.525 190.415 158.634 189.878C157.748 189.337 157.049 188.564 156.537 187.558C156.026 186.552 155.77 185.353 155.77 183.959C155.77 182.562 156.026 181.362 156.537 180.361C157.049 179.355 157.748 178.584 158.634 178.047C159.525 177.506 160.537 177.235 161.67 177.235C162.799 177.235 163.807 177.506 164.694 178.047C165.584 178.584 166.285 179.355 166.797 180.361C167.308 181.362 167.564 182.562 167.564 183.959ZM165.608 183.959C165.608 182.894 165.435 181.997 165.09 181.268C164.749 180.535 164.28 179.981 163.684 179.606C163.091 179.227 162.42 179.038 161.67 179.038C160.916 179.038 160.243 179.227 159.65 179.606C159.058 179.981 158.589 180.535 158.244 181.268C157.903 181.997 157.733 182.894 157.733 183.959C157.733 185.025 157.903 185.924 158.244 186.657C158.589 187.386 159.058 187.94 159.65 188.319C160.243 188.694 160.916 188.881 161.67 188.881C162.42 188.881 163.091 188.694 163.684 188.319C164.28 187.94 164.749 187.386 165.09 186.657C165.435 185.924 165.608 185.025 165.608 183.959ZM178.444 177.414H180.426V186.024C180.426 186.94 180.211 187.752 179.78 188.459C179.35 189.163 178.745 189.717 177.965 190.121C177.185 190.522 176.271 190.722 175.223 190.722C174.179 190.722 173.267 190.522 172.487 190.121C171.707 189.717 171.102 189.163 170.672 188.459C170.241 187.752 170.026 186.94 170.026 186.024V177.414H172.001V185.864C172.001 186.457 172.131 186.983 172.391 187.443C172.655 187.903 173.028 188.266 173.51 188.53C173.991 188.79 174.562 188.92 175.223 188.92C175.888 188.92 176.461 188.79 176.942 188.53C177.428 188.266 177.799 187.903 178.055 187.443C178.314 186.983 178.444 186.457 178.444 185.864V177.414ZM193.864 177.414V190.505H192.048L185.394 180.904H185.273V190.505H183.298V177.414H185.126L191.786 187.028H191.908V177.414H193.864ZM200.983 190.505H196.745V177.414H201.117C202.4 177.414 203.501 177.676 204.422 178.2C205.342 178.72 206.047 179.468 206.537 180.444C207.032 181.415 207.279 182.581 207.279 183.94C207.279 185.304 207.03 186.476 206.531 187.456C206.037 188.436 205.321 189.19 204.383 189.719C203.446 190.243 202.312 190.505 200.983 190.505ZM198.72 188.779H200.874C201.871 188.779 202.7 188.592 203.361 188.217C204.021 187.837 204.515 187.29 204.844 186.574C205.172 185.854 205.336 184.976 205.336 183.94C205.336 182.913 205.172 182.042 204.844 181.326C204.52 180.61 204.036 180.067 203.393 179.696C202.749 179.325 201.95 179.14 200.996 179.14H198.72V188.779Z" fill="#101827"/>
</g>
<defs>
<filter id="filter0_d_1581_679" x="0" y="0.504883" width="489.891" height="276" filterUnits="userSpaceOnUse" color-interpolation-filters="sRGB">
<feFlood flood-opacity="0" result="BackgroundImageFix"/>
<feColorMatrix in="SourceAlpha" type="matrix" values="0 0 0 0 0 0 0 0 0 0 0 0 0 0 0 0 0 0 127 0" result="hardAlpha"/>
<feOffset dx="-11" dy="-4"/>
<feGaussianBlur stdDeviation="25"/>
<feComposite in2="hardAlpha" operator="out"/>
<feColorMatrix type="matrix" values="0 0 0 0 0 0 0 0 0 0 0 0 0 0 0 0 0 0 0.1 0"/>
<feBlend mode="normal" in2="BackgroundImageFix" result="effect1_dropShadow_1581_679"/>
<feBlend mode="normal" in="SourceGraphic" in2="effect1_dropShadow_1581_679" result="shape"/>
</filter>
</defs>
</svg>
