<svg width="267" height="193" viewBox="0 0 267 193" fill="none" xmlns="http://www.w3.org/2000/svg">
<g filter="url(#filter0_d_1581_2021)">
<g filter="url(#filter1_d_1581_2021)">
<path d="M16 23.5049C16 16.8775 21.3726 11.5049 28 11.5049H235C241.627 11.5049 247 16.8775 247 23.5049V65.5049H16V23.5049Z" fill="white"/>
<path d="M16.5 23.5049C16.5 17.1536 21.6487 12.0049 28 12.0049H235C241.351 12.0049 246.5 17.1536 246.5 23.5049V65.0049H16.5V23.5049Z" stroke="#D9D9D9"/>
<path d="M44.5 39.6299V32.3174M44.5 39.6299C44.7984 39.6299 45.0845 39.7484 45.2955 39.9594C45.5065 40.1704 45.625 40.4565 45.625 40.7549C45.625 41.0533 45.5065 41.3394 45.2955 41.5504C45.0845 41.7614 44.7984 41.8799 44.5 41.8799M44.5 39.6299C44.2016 39.6299 43.9155 39.7484 43.7045 39.9594C43.4935 40.1704 43.375 40.4565 43.375 40.7549C43.375 41.0533 43.4935 41.3394 43.7045 41.5504C43.9155 41.7614 44.2016 41.8799 44.5 41.8799M44.5 41.8799V44.6924M53.5 39.6299V32.3174M53.5 39.6299C53.7984 39.6299 54.0845 39.7484 54.2955 39.9594C54.5065 40.1704 54.625 40.4565 54.625 40.7549C54.625 41.0533 54.5065 41.3394 54.2955 41.5504C54.0845 41.7614 53.7984 41.8799 53.5 41.8799M53.5 39.6299C53.2016 39.6299 52.9155 39.7484 52.7045 39.9594C52.4935 40.1704 52.375 40.4565 52.375 40.7549C52.375 41.0533 52.4935 41.3394 52.7045 41.5504C52.9155 41.7614 53.2016 41.8799 53.5 41.8799M53.5 41.8799V44.6924M49 35.1299V32.3174M49 35.1299C49.2984 35.1299 49.5845 35.2484 49.7955 35.4594C50.0065 35.6704 50.125 35.9565 50.125 36.2549C50.125 36.5533 50.0065 36.8394 49.7955 37.0504C49.5845 37.2614 49.2984 37.3799 49 37.3799M49 35.1299C48.7016 35.1299 48.4155 35.2484 48.2045 35.4594C47.9935 35.6704 47.875 35.9565 47.875 36.2549C47.875 36.5533 47.9935 36.8394 48.2045 37.0504C48.4155 37.2614 48.7016 37.3799 49 37.3799M49 37.3799V44.6924" stroke="black" stroke-width="1.125" stroke-linecap="round" stroke-linejoin="round"/>
<path d="M75.706 36.0674C75.6529 35.5712 75.4295 35.1848 75.0355 34.9083C74.6454 34.6318 74.1378 34.4935 73.5128 34.4935C73.0734 34.4935 72.6965 34.5598 72.3821 34.6924C72.0677 34.825 71.8272 35.0049 71.6605 35.2322C71.4938 35.4594 71.4086 35.7189 71.4048 36.0106C71.4048 36.253 71.4598 36.4632 71.5696 36.6412C71.6832 36.8193 71.8366 36.9708 72.0298 37.0958C72.223 37.217 72.437 37.3193 72.6719 37.4026C72.9067 37.4859 73.1435 37.556 73.3821 37.6128L74.473 37.8856C74.9124 37.9878 75.3348 38.1261 75.7401 38.3003C76.1491 38.4746 76.5147 38.6943 76.8366 38.9594C77.1624 39.2246 77.42 39.5447 77.6094 39.9197C77.7988 40.2947 77.8935 40.734 77.8935 41.2378C77.8935 41.9197 77.7192 42.52 77.3707 43.039C77.0223 43.5541 76.5185 43.9575 75.8594 44.2492C75.2041 44.5371 74.4105 44.681 73.4787 44.681C72.5734 44.681 71.7874 44.5409 71.1207 44.2606C70.4579 43.9803 69.9389 43.5712 69.5639 43.0333C69.1927 42.4954 68.992 41.8401 68.9616 41.0674H71.0355C71.0658 41.4727 71.1908 41.8098 71.4105 42.0787C71.6302 42.3477 71.9162 42.5484 72.2685 42.681C72.6245 42.8136 73.0223 42.8799 73.4616 42.8799C73.92 42.8799 74.3215 42.8117 74.6662 42.6753C75.0147 42.5352 75.2874 42.342 75.4844 42.0958C75.6813 41.8458 75.7817 41.5541 75.7855 41.2208C75.7817 40.9178 75.6927 40.6678 75.5185 40.4708C75.3442 40.27 75.0999 40.1034 74.7855 39.9708C74.4749 39.8344 74.1113 39.7132 73.6946 39.6072L72.3707 39.2662C71.4124 39.02 70.6548 38.6469 70.098 38.1469C69.545 37.6431 69.2685 36.9746 69.2685 36.1412C69.2685 35.4556 69.4541 34.8553 69.8253 34.3401C70.2003 33.825 70.7098 33.4253 71.3537 33.1412C71.9976 32.8534 72.7268 32.7094 73.5412 32.7094C74.367 32.7094 75.0904 32.8534 75.7116 33.1412C76.3366 33.4253 76.8272 33.8212 77.1832 34.3287C77.5393 34.8325 77.723 35.4121 77.7344 36.0674H75.706ZM83.5455 44.6753C82.6705 44.6753 81.9148 44.4935 81.2784 44.1299C80.6458 43.7625 80.1591 43.2435 79.8182 42.5731C79.4773 41.8988 79.3068 41.1053 79.3068 40.1924C79.3068 39.2947 79.4773 38.5068 79.8182 37.8287C80.1629 37.1469 80.6439 36.6166 81.2614 36.2378C81.8788 35.8553 82.6042 35.664 83.4375 35.664C83.9754 35.664 84.483 35.7511 84.9602 35.9253C85.4413 36.0958 85.8655 36.3609 86.233 36.7208C86.6042 37.0806 86.8958 37.539 87.108 38.0958C87.3201 38.6488 87.4261 39.3079 87.4261 40.0731V40.7037H80.2727V39.3174H85.4545C85.4508 38.9234 85.3655 38.5731 85.1989 38.2662C85.0322 37.9556 84.7992 37.7113 84.5 37.5333C84.2045 37.3553 83.8598 37.2662 83.4659 37.2662C83.0455 37.2662 82.6761 37.3685 82.358 37.5731C82.0398 37.7738 81.7917 38.039 81.6136 38.3685C81.4394 38.6943 81.3504 39.0522 81.3466 39.4424V40.6526C81.3466 41.1602 81.4394 41.5958 81.625 41.9594C81.8106 42.3193 82.0701 42.5958 82.4034 42.789C82.7367 42.9784 83.1269 43.0731 83.5739 43.0731C83.8731 43.0731 84.1439 43.0314 84.3864 42.9481C84.6288 42.8609 84.839 42.734 85.017 42.5674C85.1951 42.4007 85.3295 42.1943 85.4205 41.9481L87.3409 42.164C87.2197 42.6715 86.9886 43.1147 86.6477 43.4935C86.3106 43.8685 85.8788 44.1602 85.3523 44.3685C84.8258 44.5731 84.2235 44.6753 83.5455 44.6753ZM93.5241 35.7776V37.3685H88.5071V35.7776H93.5241ZM89.7457 33.6867H91.8026V41.8799C91.8026 42.1564 91.8442 42.3685 91.9276 42.5162C92.0147 42.6602 92.1283 42.7587 92.2685 42.8117C92.4086 42.8647 92.5639 42.8912 92.7344 42.8912C92.8632 42.8912 92.9806 42.8818 93.0866 42.8628C93.1965 42.8439 93.2798 42.8269 93.3366 42.8117L93.6832 44.4197C93.5734 44.4575 93.4162 44.4992 93.2116 44.5447C93.0109 44.5901 92.7647 44.6166 92.473 44.6242C91.9579 44.6394 91.4938 44.5617 91.081 44.3912C90.6681 44.217 90.3404 43.9481 90.098 43.5844C89.8594 43.2208 89.742 42.7662 89.7457 42.2208V33.6867ZM101.27 32.8685V44.5049H99.2131V32.8685H101.27ZM103.385 44.5049V35.7776H105.442V44.5049H103.385ZM104.419 34.539C104.093 34.539 103.813 34.431 103.578 34.2151C103.343 33.9954 103.226 33.7322 103.226 33.4253C103.226 33.1147 103.343 32.8515 103.578 32.6356C103.813 32.4159 104.093 32.306 104.419 32.306C104.749 32.306 105.029 32.4159 105.26 32.6356C105.495 32.8515 105.612 33.1147 105.612 33.4253C105.612 33.7322 105.495 33.9954 105.26 34.2151C105.029 34.431 104.749 34.539 104.419 34.539ZM107.557 44.5049V35.7776H109.523V37.2606H109.625C109.807 36.7606 110.108 36.3704 110.528 36.0901C110.949 35.806 111.451 35.664 112.034 35.664C112.625 35.664 113.123 35.8079 113.528 36.0958C113.938 36.3799 114.225 36.7681 114.392 37.2606H114.483C114.676 36.7757 115.002 36.3894 115.46 36.1015C115.922 35.8098 116.47 35.664 117.102 35.664C117.905 35.664 118.561 35.9178 119.068 36.4253C119.576 36.9329 119.83 37.6734 119.83 38.6469V44.5049H117.767V38.9651C117.767 38.4234 117.623 38.0276 117.335 37.7776C117.047 37.5238 116.695 37.3969 116.278 37.3969C115.782 37.3969 115.394 37.5522 115.114 37.8628C114.837 38.1697 114.699 38.5693 114.699 39.0617V44.5049H112.682V38.8799C112.682 38.4291 112.545 38.0693 112.273 37.8003C112.004 37.5314 111.652 37.3969 111.216 37.3969C110.92 37.3969 110.652 37.4727 110.409 37.6242C110.167 37.7719 109.973 37.9822 109.83 38.2549C109.686 38.5238 109.614 38.8382 109.614 39.1981V44.5049H107.557ZM121.916 44.5049V35.7776H123.973V44.5049H121.916ZM122.95 34.539C122.625 34.539 122.344 34.431 122.109 34.2151C121.875 33.9954 121.757 33.7322 121.757 33.4253C121.757 33.1147 121.875 32.8515 122.109 32.6356C122.344 32.4159 122.625 32.306 122.95 32.306C123.28 32.306 123.56 32.4159 123.791 32.6356C124.026 32.8515 124.143 33.1147 124.143 33.4253C124.143 33.7322 124.026 33.9954 123.791 34.2151C123.56 34.431 123.28 34.539 122.95 34.539ZM130.446 35.7776V37.3685H125.429V35.7776H130.446ZM126.668 33.6867H128.724V41.8799C128.724 42.1564 128.766 42.3685 128.849 42.5162C128.937 42.6602 129.05 42.7587 129.19 42.8117C129.33 42.8647 129.486 42.8912 129.656 42.8912C129.785 42.8912 129.902 42.8818 130.009 42.8628C130.118 42.8439 130.202 42.8269 130.259 42.8117L130.605 44.4197C130.495 44.4575 130.338 44.4992 130.134 44.5447C129.933 44.5901 129.687 44.6166 129.395 44.6242C128.88 44.6394 128.416 44.5617 128.003 44.3912C127.59 44.217 127.262 43.9481 127.02 43.5844C126.781 43.2208 126.664 42.7662 126.668 42.2208V33.6867ZM138.939 38.0844L137.064 38.289C137.011 38.0996 136.918 37.9215 136.786 37.7549C136.657 37.5882 136.482 37.4537 136.263 37.3515C136.043 37.2492 135.774 37.1981 135.456 37.1981C135.028 37.1981 134.668 37.2909 134.376 37.4765C134.089 37.6621 133.946 37.9026 133.95 38.1981C133.946 38.4519 134.039 38.6583 134.229 38.8174C134.422 38.9765 134.74 39.1072 135.183 39.2094L136.672 39.5276C137.498 39.7056 138.111 39.9878 138.513 40.3742C138.918 40.7606 139.123 41.2662 139.126 41.8912C139.123 42.4405 138.962 42.9253 138.643 43.3458C138.329 43.7625 137.892 44.0882 137.331 44.3231C136.77 44.5579 136.126 44.6753 135.399 44.6753C134.331 44.6753 133.471 44.4519 132.82 44.0049C132.168 43.5541 131.78 42.9272 131.655 42.1242L133.661 41.931C133.751 42.325 133.945 42.6223 134.24 42.8231C134.536 43.0238 134.92 43.1242 135.393 43.1242C135.882 43.1242 136.274 43.0238 136.57 42.8231C136.869 42.6223 137.018 42.3742 137.018 42.0787C137.018 41.8287 136.922 41.6223 136.729 41.4594C136.539 41.2965 136.244 41.1715 135.842 41.0844L134.354 40.7719C133.517 40.5977 132.897 40.3041 132.496 39.8912C132.094 39.4746 131.895 38.9481 131.899 38.3117C131.895 37.7738 132.041 37.3079 132.337 36.914C132.636 36.5162 133.051 36.2094 133.581 35.9935C134.115 35.7738 134.731 35.664 135.428 35.664C136.45 35.664 137.255 35.8818 137.842 36.3174C138.433 36.753 138.799 37.342 138.939 38.0844Z" fill="#101827"/>
</g>
<g filter="url(#filter2_d_1581_2021)">
<rect x="16" y="63.5049" width="231" height="54" fill="white"/>
<rect x="16.5" y="64.0049" width="230" height="53" stroke="#D9D9D9"/>
<path d="M42.8125 83.7549V92.1924C42.8125 92.6399 42.9903 93.0692 43.3068 93.3856C43.6232 93.7021 44.0524 93.8799 44.5 93.8799H46.1875M42.8125 83.7549H41.6875M42.8125 83.7549H55.1875M46.1875 93.8799H51.8125M46.1875 93.8799L45.4375 96.1299M55.1875 83.7549H56.3125M55.1875 83.7549V92.1924C55.1875 92.6399 55.0097 93.0692 54.6932 93.3856C54.3768 93.7021 53.9476 93.8799 53.5 93.8799H51.8125M51.8125 93.8799L52.5625 96.1299M45.4375 96.1299H52.5625M45.4375 96.1299L45.0625 97.2549M52.5625 96.1299L52.9375 97.2549M45.625 90.5049L47.875 88.2549L49.486 89.8659C50.2429 88.7794 51.2291 87.8723 52.375 87.2086" stroke="black" stroke-width="1.125" stroke-linecap="round" stroke-linejoin="round"/>
<path d="M71.0405 84.8685L74.0689 94.0276H74.1882L77.2109 84.8685H79.5291L75.4268 96.5049H72.8246L68.728 84.8685H71.0405ZM80.9709 96.5049V87.7776H83.0277V96.5049H80.9709ZM82.005 86.539C81.6792 86.539 81.3989 86.431 81.1641 86.2151C80.9292 85.9954 80.8118 85.7322 80.8118 85.4253C80.8118 85.1147 80.9292 84.8515 81.1641 84.6356C81.3989 84.4159 81.6792 84.306 82.005 84.306C82.3345 84.306 82.6148 84.4159 82.8459 84.6356C83.0807 84.8515 83.1982 85.1147 83.1982 85.4253C83.1982 85.7322 83.0807 85.9954 82.8459 86.2151C82.6148 86.431 82.3345 86.539 82.005 86.539ZM89.0064 96.6753C88.1314 96.6753 87.3757 96.4935 86.7393 96.1299C86.1068 95.7625 85.62 95.2435 85.2791 94.5731C84.9382 93.8988 84.7678 93.1053 84.7678 92.1924C84.7678 91.2947 84.9382 90.5068 85.2791 89.8287C85.6238 89.1469 86.1049 88.6166 86.7223 88.2378C87.3397 87.8553 88.0651 87.664 88.8984 87.664C89.4363 87.664 89.9439 87.7511 90.4212 87.9253C90.9022 88.0958 91.3265 88.3609 91.6939 88.7208C92.0651 89.0806 92.3568 89.539 92.5689 90.0958C92.781 90.6488 92.8871 91.3079 92.8871 92.0731V92.7037H85.7337V91.3174H90.9155C90.9117 90.9234 90.8265 90.5731 90.6598 90.2662C90.4931 89.9556 90.2602 89.7113 89.9609 89.5333C89.6655 89.3553 89.3208 89.2662 88.9268 89.2662C88.5064 89.2662 88.1371 89.3685 87.8189 89.5731C87.5007 89.7738 87.2526 90.039 87.0746 90.3685C86.9003 90.6943 86.8113 91.0522 86.8075 91.4424V92.6526C86.8075 93.1602 86.9003 93.5958 87.0859 93.9594C87.2715 94.3193 87.531 94.5958 87.8643 94.789C88.1977 94.9784 88.5878 95.0731 89.0348 95.0731C89.334 95.0731 89.6049 95.0314 89.8473 94.9481C90.0897 94.8609 90.3 94.734 90.478 94.5674C90.656 94.4007 90.7905 94.1943 90.8814 93.9481L92.8018 94.164C92.6806 94.6715 92.4496 95.1147 92.1087 95.4935C91.7715 95.8685 91.3397 96.1602 90.8132 96.3685C90.2867 96.5731 89.6844 96.6753 89.0064 96.6753ZM96.3814 96.5049L93.9155 87.7776H96.0121L97.5462 93.914H97.6257L99.1939 87.7776H101.268L102.836 93.8799H102.921L104.433 87.7776H106.535L104.063 96.5049H101.921L100.285 90.6072H100.165L98.5291 96.5049H96.3814ZM114.451 96.681C113.898 96.681 113.4 96.5825 112.957 96.3856C112.517 96.1848 112.169 95.8894 111.911 95.4992C111.657 95.109 111.531 94.628 111.531 94.056C111.531 93.5636 111.621 93.1564 111.803 92.8344C111.985 92.5125 112.233 92.2549 112.548 92.0617C112.862 91.8685 113.216 91.7227 113.61 91.6242C114.008 91.5219 114.419 91.4481 114.843 91.4026C115.354 91.3496 115.769 91.3022 116.087 91.2606C116.406 91.2151 116.637 91.1469 116.781 91.056C116.928 90.9613 117.002 90.8155 117.002 90.6185V90.5844C117.002 90.1564 116.875 89.825 116.621 89.5901C116.368 89.3553 116.002 89.2378 115.525 89.2378C115.021 89.2378 114.621 89.3477 114.326 89.5674C114.034 89.7871 113.837 90.0465 113.735 90.3458L111.815 90.0731C111.966 89.5428 112.216 89.0996 112.565 88.7435C112.913 88.3837 113.339 88.1147 113.843 87.9367C114.347 87.7549 114.904 87.664 115.513 87.664C115.934 87.664 116.353 87.7132 116.769 87.8117C117.186 87.9102 117.567 88.0731 117.911 88.3003C118.256 88.5238 118.532 88.8287 118.741 89.2151C118.953 89.6015 119.059 90.0844 119.059 90.664V96.5049H117.082V95.306H117.013C116.888 95.5484 116.712 95.7757 116.485 95.9878C116.262 96.1962 115.979 96.3647 115.638 96.4935C115.301 96.6185 114.906 96.681 114.451 96.681ZM114.985 95.1697C115.398 95.1697 115.756 95.0882 116.059 94.9253C116.362 94.7587 116.595 94.539 116.758 94.2662C116.924 93.9935 117.008 93.6962 117.008 93.3742V92.3458C116.943 92.3988 116.834 92.4481 116.678 92.4935C116.527 92.539 116.356 92.5787 116.167 92.6128C115.978 92.6469 115.79 92.6772 115.604 92.7037C115.419 92.7303 115.258 92.753 115.121 92.7719C114.815 92.8136 114.54 92.8818 114.298 92.9765C114.055 93.0712 113.864 93.2037 113.724 93.3742C113.584 93.5409 113.513 93.7568 113.513 94.0219C113.513 94.4007 113.652 94.6867 113.928 94.8799C114.205 95.0731 114.557 95.1697 114.985 95.1697ZM123.184 91.3912V96.5049H121.127V87.7776H123.093V89.2606H123.195C123.396 88.7719 123.716 88.3837 124.156 88.0958C124.599 87.8079 125.146 87.664 125.798 87.664C126.4 87.664 126.924 87.7928 127.371 88.0503C127.822 88.3079 128.171 88.681 128.417 89.1697C128.667 89.6583 128.79 90.2511 128.786 90.9481V96.5049H126.729V91.2662C126.729 90.6829 126.578 90.2265 126.275 89.8969C125.976 89.5674 125.561 89.4026 125.031 89.4026C124.671 89.4026 124.351 89.4822 124.07 89.6412C123.794 89.7965 123.576 90.0219 123.417 90.3174C123.262 90.6128 123.184 90.9708 123.184 91.3912ZM133.388 96.681C132.835 96.681 132.337 96.5825 131.894 96.3856C131.455 96.1848 131.106 95.8894 130.849 95.4992C130.595 95.109 130.468 94.628 130.468 94.056C130.468 93.5636 130.559 93.1564 130.741 92.8344C130.923 92.5125 131.171 92.2549 131.485 92.0617C131.799 91.8685 132.154 91.7227 132.548 91.6242C132.945 91.5219 133.356 91.4481 133.781 91.4026C134.292 91.3496 134.707 91.3022 135.025 91.2606C135.343 91.2151 135.574 91.1469 135.718 91.056C135.866 90.9613 135.94 90.8155 135.94 90.6185V90.5844C135.94 90.1564 135.813 89.825 135.559 89.5901C135.305 89.3553 134.94 89.2378 134.462 89.2378C133.959 89.2378 133.559 89.3477 133.263 89.5674C132.972 89.7871 132.775 90.0465 132.673 90.3458L130.752 90.0731C130.904 89.5428 131.154 89.0996 131.502 88.7435C131.851 88.3837 132.277 88.1147 132.781 87.9367C133.284 87.7549 133.841 87.664 134.451 87.664C134.871 87.664 135.29 87.7132 135.707 87.8117C136.123 87.9102 136.504 88.0731 136.849 88.3003C137.193 88.5238 137.47 88.8287 137.678 89.2151C137.89 89.6015 137.996 90.0844 137.996 90.664V96.5049H136.019V95.306H135.951C135.826 95.5484 135.65 95.7757 135.423 95.9878C135.199 96.1962 134.917 96.3647 134.576 96.4935C134.239 96.6185 133.843 96.681 133.388 96.681ZM133.923 95.1697C134.335 95.1697 134.693 95.0882 134.996 94.9253C135.299 94.7587 135.532 94.539 135.695 94.2662C135.862 93.9935 135.945 93.6962 135.945 93.3742V92.3458C135.881 92.3988 135.771 92.4481 135.616 92.4935C135.464 92.539 135.294 92.5787 135.104 92.6128C134.915 92.6469 134.728 92.6772 134.542 92.7037C134.356 92.7303 134.195 92.753 134.059 92.7719C133.752 92.8136 133.478 92.8818 133.235 92.9765C132.993 93.0712 132.801 93.2037 132.661 93.3742C132.521 93.5409 132.451 93.7568 132.451 94.0219C132.451 94.4007 132.589 94.6867 132.866 94.8799C133.142 95.0731 133.495 95.1697 133.923 95.1697ZM142.121 84.8685V96.5049H140.065V84.8685H142.121ZM145.515 99.7776C145.235 99.7776 144.975 99.7549 144.737 99.7094C144.502 99.6678 144.314 99.6185 144.174 99.5617L144.651 97.9594C144.951 98.0465 145.218 98.0882 145.452 98.0844C145.687 98.0806 145.894 98.0068 146.072 97.8628C146.254 97.7227 146.407 97.4878 146.532 97.1583L146.708 96.6867L143.543 87.7776H145.725L147.737 94.3685H147.827L149.844 87.7776H152.032L148.538 97.5617C148.375 98.0238 148.159 98.4197 147.89 98.7492C147.621 99.0825 147.291 99.3363 146.901 99.5106C146.515 99.6886 146.053 99.7776 145.515 99.7776ZM157.813 87.7776V89.3685H152.796V87.7776H157.813ZM154.035 85.6867H156.092V93.8799C156.092 94.1564 156.133 94.3685 156.217 94.5162C156.304 94.6602 156.417 94.7587 156.558 94.8117C156.698 94.8647 156.853 94.8912 157.023 94.8912C157.152 94.8912 157.27 94.8818 157.376 94.8628C157.486 94.8439 157.569 94.8269 157.626 94.8117L157.972 96.4197C157.862 96.4575 157.705 96.4992 157.501 96.5447C157.3 96.5901 157.054 96.6166 156.762 96.6242C156.247 96.6394 155.783 96.5617 155.37 96.3912C154.957 96.217 154.629 95.9481 154.387 95.5844C154.148 95.2208 154.031 94.7662 154.035 94.2208V85.6867ZM159.533 96.5049V87.7776H161.59V96.5049H159.533ZM160.567 86.539C160.242 86.539 159.961 86.431 159.727 86.2151C159.492 85.9954 159.374 85.7322 159.374 85.4253C159.374 85.1147 159.492 84.8515 159.727 84.6356C159.961 84.4159 160.242 84.306 160.567 84.306C160.897 84.306 161.177 84.4159 161.408 84.6356C161.643 84.8515 161.761 85.1147 161.761 85.4253C161.761 85.7322 161.643 85.9954 161.408 86.2151C161.177 86.431 160.897 86.539 160.567 86.539ZM167.512 96.6753C166.641 96.6753 165.893 96.484 165.268 96.1015C164.647 95.7189 164.167 95.1905 163.83 94.5162C163.497 93.8382 163.33 93.0579 163.33 92.1753C163.33 91.289 163.501 90.5068 163.842 89.8287C164.183 89.1469 164.664 88.6166 165.285 88.2378C165.91 87.8553 166.648 87.664 167.501 87.664C168.209 87.664 168.836 87.7947 169.381 88.056C169.931 88.3136 170.368 88.6791 170.694 89.1526C171.02 89.6223 171.205 90.1715 171.251 90.8003H169.285C169.205 90.3799 169.016 90.0295 168.717 89.7492C168.421 89.4651 168.025 89.3231 167.529 89.3231C167.109 89.3231 166.739 89.4367 166.421 89.664C166.103 89.8875 165.855 90.2094 165.677 90.6299C165.503 91.0503 165.415 91.5541 165.415 92.1412C165.415 92.7359 165.503 93.2473 165.677 93.6753C165.851 94.0996 166.095 94.4272 166.41 94.6583C166.728 94.8856 167.101 94.9992 167.529 94.9992C167.832 94.9992 168.103 94.9424 168.342 94.8287C168.584 94.7113 168.787 94.5428 168.95 94.3231C169.112 94.1034 169.224 93.8363 169.285 93.5219H171.251C171.201 94.1394 171.02 94.6867 170.705 95.164C170.391 95.6375 169.963 96.0087 169.421 96.2776C168.879 96.5428 168.243 96.6753 167.512 96.6753ZM179.837 90.0844L177.962 90.289C177.909 90.0996 177.817 89.9215 177.684 89.7549C177.555 89.5882 177.381 89.4537 177.161 89.3515C176.942 89.2492 176.673 89.1981 176.354 89.1981C175.926 89.1981 175.567 89.2909 175.275 89.4765C174.987 89.6621 174.845 89.9026 174.849 90.1981C174.845 90.4519 174.938 90.6583 175.127 90.8174C175.32 90.9765 175.638 91.1072 176.082 91.2094L177.57 91.5276C178.396 91.7056 179.01 91.9878 179.411 92.3742C179.817 92.7606 180.021 93.2662 180.025 93.8912C180.021 94.4405 179.86 94.9253 179.542 95.3458C179.228 95.7625 178.79 96.0882 178.229 96.3231C177.669 96.5579 177.025 96.6753 176.298 96.6753C175.229 96.6753 174.37 96.4519 173.718 96.0049C173.067 95.5541 172.678 94.9272 172.553 94.1242L174.559 93.931C174.65 94.325 174.843 94.6223 175.138 94.8231C175.434 95.0238 175.818 95.1242 176.292 95.1242C176.781 95.1242 177.173 95.0238 177.468 94.8231C177.767 94.6223 177.917 94.3742 177.917 94.0787C177.917 93.8287 177.82 93.6223 177.627 93.4594C177.438 93.2965 177.142 93.1715 176.741 93.0844L175.252 92.7719C174.415 92.5977 173.796 92.3041 173.394 91.8912C172.993 91.4746 172.794 90.9481 172.798 90.3117C172.794 89.7738 172.94 89.3079 173.235 88.914C173.534 88.5162 173.949 88.2094 174.479 87.9935C175.013 87.7738 175.629 87.664 176.326 87.664C177.349 87.664 178.154 87.8818 178.741 88.3174C179.332 88.753 179.697 89.342 179.837 90.0844Z" fill="#101827"/>
</g>
<g filter="url(#filter3_d_1581_2021)">
<path d="M16 115.505H247V157.505C247 164.132 241.627 169.505 235 169.505H28C21.3726 169.505 16 164.132 16 157.505V115.505Z" fill="white"/>
<path d="M16.5 116.005H246.5V157.505C246.5 163.856 241.351 169.005 235 169.005H28C21.6487 169.005 16.5 163.856 16.5 157.505V116.005Z" stroke="#D9D9D9"/>
<g clip-path="url(#clip0_1581_2021)">
<path d="M55.8281 135.67C54.7594 134.601 53.325 134.011 51.8063 134.011C50.2875 134.011 48.825 134.601 47.7563 135.67C46.3219 137.104 45.7594 139.129 46.2656 141.098L40.8094 146.526C40.6125 146.723 40.5 147.004 40.5 147.314V149.929C40.5 150.52 40.9781 151.026 41.5969 151.026H44.2125C44.4937 151.026 44.775 150.914 45 150.717L45.6469 150.07C45.8719 149.845 46.0125 149.508 45.9563 149.17V149.114L46.2938 149.086C46.8281 149.029 47.2219 148.636 47.2781 148.101L47.3063 147.764H47.3625C47.6719 147.792 47.9812 147.708 48.2344 147.483C48.4594 147.286 48.6 146.976 48.6 146.667V146.442H48.7969C49.0781 146.442 49.3594 146.329 49.5563 146.133L50.4844 145.233C52.425 145.711 54.45 145.176 55.8563 143.77C58.05 141.52 58.05 137.892 55.8281 135.67ZM54.9281 142.842C53.775 143.995 52.0594 144.417 50.4563 143.883C50.2313 143.798 49.9781 143.854 49.8094 144.023L48.6844 145.148H47.925C47.5875 145.148 47.2781 145.429 47.2781 145.795V146.47L46.7719 146.414C46.6031 146.386 46.4344 146.442 46.2938 146.554C46.1531 146.667 46.0688 146.808 46.0688 146.976L45.9844 147.82L45.1406 147.904C44.9719 147.933 44.8031 148.017 44.7187 148.129C44.6062 148.27 44.55 148.439 44.5781 148.608L44.6625 149.226L44.1281 149.761H41.7656V147.398L47.4188 141.745C47.5875 141.576 47.6438 141.323 47.5594 141.098C47.0531 139.495 47.4469 137.779 48.6281 136.598C49.4719 135.754 50.5688 135.304 51.7781 135.304C52.9594 135.304 54.0844 135.754 54.9281 136.598C56.6719 138.286 56.6719 141.098 54.9281 142.842Z" fill="#111928"/>
<path d="M52.7594 136.739C52.225 136.739 51.7187 136.936 51.325 137.33C50.5375 138.117 50.5375 139.383 51.325 140.171C51.7187 140.564 52.225 140.761 52.7594 140.761C53.2938 140.761 53.8 140.564 54.1938 140.171C54.5875 139.777 54.7844 139.271 54.7844 138.736C54.7844 138.202 54.5875 137.696 54.1938 137.302C53.8 136.936 53.2938 136.739 52.7594 136.739ZM53.2938 139.271C53.0125 139.552 52.5063 139.552 52.225 139.271C51.9438 138.989 51.9438 138.511 52.225 138.202C52.3656 138.061 52.5625 137.977 52.7594 137.977C52.9563 137.977 53.1531 138.061 53.2938 138.202C53.4344 138.342 53.5187 138.539 53.5187 138.736C53.5187 138.933 53.4344 139.13 53.2938 139.271Z" fill="#111928"/>
</g>
<path d="M75.5341 140.067C75.4811 139.571 75.2576 139.185 74.8636 138.908C74.4735 138.632 73.9659 138.494 73.3409 138.494C72.9015 138.494 72.5246 138.56 72.2102 138.692C71.8958 138.825 71.6553 139.005 71.4886 139.232C71.322 139.459 71.2367 139.719 71.233 140.011C71.233 140.253 71.2879 140.463 71.3977 140.641C71.5114 140.819 71.6648 140.971 71.858 141.096C72.0511 141.217 72.2652 141.319 72.5 141.403C72.7348 141.486 72.9716 141.556 73.2102 141.613L74.3011 141.886C74.7405 141.988 75.1629 142.126 75.5682 142.3C75.9773 142.475 76.3428 142.694 76.6648 142.959C76.9905 143.225 77.2481 143.545 77.4375 143.92C77.6269 144.295 77.7216 144.734 77.7216 145.238C77.7216 145.92 77.5473 146.52 77.1989 147.039C76.8504 147.554 76.3466 147.958 75.6875 148.249C75.0322 148.537 74.2386 148.681 73.3068 148.681C72.4015 148.681 71.6155 148.541 70.9489 148.261C70.286 147.98 69.767 147.571 69.392 147.033C69.0208 146.495 68.8201 145.84 68.7898 145.067H70.8636C70.8939 145.473 71.0189 145.81 71.2386 146.079C71.4583 146.348 71.7443 146.548 72.0966 146.681C72.4527 146.814 72.8504 146.88 73.2898 146.88C73.7481 146.88 74.1496 146.812 74.4943 146.675C74.8428 146.535 75.1155 146.342 75.3125 146.096C75.5095 145.846 75.6098 145.554 75.6136 145.221C75.6098 144.918 75.5208 144.668 75.3466 144.471C75.1723 144.27 74.928 144.103 74.6136 143.971C74.303 143.834 73.9394 143.713 73.5227 143.607L72.1989 143.266C71.2405 143.02 70.483 142.647 69.9261 142.147C69.3731 141.643 69.0966 140.975 69.0966 140.141C69.0966 139.456 69.2822 138.855 69.6534 138.34C70.0284 137.825 70.5379 137.425 71.1818 137.141C71.8258 136.853 72.5549 136.709 73.3693 136.709C74.1951 136.709 74.9186 136.853 75.5398 137.141C76.1648 137.425 76.6553 137.821 77.0114 138.329C77.3674 138.833 77.5511 139.412 77.5625 140.067H75.5341ZM81.5668 143.391V148.505H79.5099V136.869H81.5213V141.261H81.6236C81.8281 140.768 82.1444 140.38 82.5724 140.096C83.0043 139.808 83.5535 139.664 84.2202 139.664C84.8262 139.664 85.3546 139.791 85.8054 140.045C86.2562 140.298 86.6046 140.67 86.8509 141.158C87.1009 141.647 87.2259 142.244 87.2259 142.948V148.505H85.169V143.266C85.169 142.679 85.0175 142.223 84.7145 141.897C84.4152 141.567 83.9948 141.403 83.4531 141.403C83.0895 141.403 82.7637 141.482 82.4759 141.641C82.1918 141.797 81.9683 142.022 81.8054 142.317C81.6463 142.613 81.5668 142.971 81.5668 143.391ZM91.8338 148.681C91.2808 148.681 90.7827 148.583 90.3395 148.386C89.9001 148.185 89.5516 147.889 89.294 147.499C89.0402 147.109 88.9134 146.628 88.9134 146.056C88.9134 145.564 89.0043 145.156 89.1861 144.834C89.3679 144.512 89.616 144.255 89.9304 144.062C90.2448 143.869 90.599 143.723 90.9929 143.624C91.3906 143.522 91.8016 143.448 92.2259 143.403C92.7372 143.35 93.152 143.302 93.4702 143.261C93.7884 143.215 94.0194 143.147 94.1634 143.056C94.3111 142.961 94.3849 142.815 94.3849 142.619V142.584C94.3849 142.156 94.258 141.825 94.0043 141.59C93.7505 141.355 93.3849 141.238 92.9077 141.238C92.4039 141.238 92.0043 141.348 91.7088 141.567C91.4171 141.787 91.2202 142.047 91.1179 142.346L89.1974 142.073C89.349 141.543 89.599 141.1 89.9474 140.744C90.2959 140.384 90.7221 140.115 91.2259 139.937C91.7296 139.755 92.2865 139.664 92.8963 139.664C93.3168 139.664 93.7353 139.713 94.152 139.812C94.5687 139.91 94.9493 140.073 95.294 140.3C95.6387 140.524 95.9152 140.829 96.1236 141.215C96.3357 141.601 96.4418 142.084 96.4418 142.664V148.505H94.4645V147.306H94.3963C94.2713 147.548 94.0952 147.776 93.8679 147.988C93.6444 148.196 93.3622 148.365 93.0213 148.494C92.6842 148.619 92.2884 148.681 91.8338 148.681ZM92.3679 147.17C92.7808 147.17 93.1387 147.088 93.4418 146.925C93.7448 146.759 93.9777 146.539 94.1406 146.266C94.3073 145.994 94.3906 145.696 94.3906 145.374V144.346C94.3262 144.399 94.2164 144.448 94.0611 144.494C93.9096 144.539 93.7391 144.579 93.5497 144.613C93.3603 144.647 93.1728 144.677 92.9872 144.704C92.8016 144.73 92.6406 144.753 92.5043 144.772C92.1974 144.814 91.9228 144.882 91.6804 144.976C91.438 145.071 91.2467 145.204 91.1065 145.374C90.9664 145.541 90.8963 145.757 90.8963 146.022C90.8963 146.401 91.0346 146.687 91.3111 146.88C91.5876 147.073 91.9399 147.17 92.3679 147.17ZM98.5099 148.505V139.778H100.504V141.232H100.595C100.754 140.728 101.027 140.34 101.413 140.067C101.804 139.791 102.249 139.653 102.749 139.653C102.862 139.653 102.989 139.658 103.129 139.67C103.273 139.677 103.393 139.69 103.487 139.709V141.601C103.4 141.571 103.262 141.545 103.072 141.522C102.887 141.495 102.707 141.482 102.533 141.482C102.158 141.482 101.821 141.564 101.521 141.726C101.226 141.886 100.993 142.107 100.822 142.391C100.652 142.675 100.567 143.003 100.567 143.374V148.505H98.5099ZM108.358 148.675C107.483 148.675 106.727 148.494 106.091 148.13C105.458 147.762 104.972 147.244 104.631 146.573C104.29 145.899 104.119 145.105 104.119 144.192C104.119 143.295 104.29 142.507 104.631 141.829C104.975 141.147 105.456 140.617 106.074 140.238C106.691 139.855 107.417 139.664 108.25 139.664C108.788 139.664 109.295 139.751 109.773 139.925C110.254 140.096 110.678 140.361 111.045 140.721C111.417 141.081 111.708 141.539 111.92 142.096C112.133 142.649 112.239 143.308 112.239 144.073V144.704H105.085V143.317H110.267C110.263 142.923 110.178 142.573 110.011 142.266C109.845 141.956 109.612 141.711 109.312 141.533C109.017 141.355 108.672 141.266 108.278 141.266C107.858 141.266 107.489 141.369 107.17 141.573C106.852 141.774 106.604 142.039 106.426 142.369C106.252 142.694 106.163 143.052 106.159 143.442V144.653C106.159 145.16 106.252 145.596 106.438 145.959C106.623 146.319 106.883 146.596 107.216 146.789C107.549 146.978 107.939 147.073 108.386 147.073C108.686 147.073 108.956 147.031 109.199 146.948C109.441 146.861 109.652 146.734 109.83 146.567C110.008 146.401 110.142 146.194 110.233 145.948L112.153 146.164C112.032 146.672 111.801 147.115 111.46 147.494C111.123 147.869 110.691 148.16 110.165 148.369C109.638 148.573 109.036 148.675 108.358 148.675ZM119.822 145.766L119.817 143.283H120.146L123.283 139.778H125.686L121.828 144.073H121.402L119.822 145.766ZM117.947 148.505V136.869H120.004V148.505H117.947ZM123.425 148.505L120.584 144.533L121.97 143.084L125.885 148.505H123.425ZM130.561 148.675C129.686 148.675 128.93 148.494 128.294 148.13C127.661 147.762 127.175 147.244 126.834 146.573C126.493 145.899 126.322 145.105 126.322 144.192C126.322 143.295 126.493 142.507 126.834 141.829C127.179 141.147 127.66 140.617 128.277 140.238C128.894 139.855 129.62 139.664 130.453 139.664C130.991 139.664 131.499 139.751 131.976 139.925C132.457 140.096 132.881 140.361 133.249 140.721C133.62 141.081 133.911 141.539 134.124 142.096C134.336 142.649 134.442 143.308 134.442 144.073V144.704H127.288V143.317H132.47C132.466 142.923 132.381 142.573 132.214 142.266C132.048 141.956 131.815 141.711 131.516 141.533C131.22 141.355 130.875 141.266 130.482 141.266C130.061 141.266 129.692 141.369 129.374 141.573C129.055 141.774 128.807 142.039 128.629 142.369C128.455 142.694 128.366 143.052 128.362 143.442V144.653C128.362 145.16 128.455 145.596 128.641 145.959C128.826 146.319 129.086 146.596 129.419 146.789C129.752 146.978 130.143 147.073 130.589 147.073C130.889 147.073 131.16 147.031 131.402 146.948C131.644 146.861 131.855 146.734 132.033 146.567C132.211 146.401 132.345 146.194 132.436 145.948L134.357 146.164C134.235 146.672 134.004 147.115 133.663 147.494C133.326 147.869 132.894 148.16 132.368 148.369C131.841 148.573 131.239 148.675 130.561 148.675ZM137.21 151.778C136.93 151.778 136.67 151.755 136.432 151.709C136.197 151.668 136.009 151.619 135.869 151.562L136.347 149.959C136.646 150.047 136.913 150.088 137.148 150.084C137.383 150.081 137.589 150.007 137.767 149.863C137.949 149.723 138.102 149.488 138.227 149.158L138.403 148.687L135.239 139.778H137.42L139.432 146.369H139.523L141.54 139.778H143.727L140.233 149.562C140.07 150.024 139.854 150.42 139.585 150.749C139.316 151.083 138.987 151.336 138.597 151.511C138.21 151.689 137.748 151.778 137.21 151.778ZM152.048 142.084L150.173 142.289C150.12 142.1 150.027 141.922 149.895 141.755C149.766 141.588 149.592 141.454 149.372 141.351C149.152 141.249 148.884 141.198 148.565 141.198C148.137 141.198 147.777 141.291 147.486 141.476C147.198 141.662 147.056 141.903 147.06 142.198C147.056 142.452 147.149 142.658 147.338 142.817C147.531 142.976 147.849 143.107 148.293 143.209L149.781 143.528C150.607 143.706 151.221 143.988 151.622 144.374C152.027 144.761 152.232 145.266 152.236 145.891C152.232 146.44 152.071 146.925 151.753 147.346C151.438 147.762 151.001 148.088 150.44 148.323C149.88 148.558 149.236 148.675 148.509 148.675C147.44 148.675 146.58 148.452 145.929 148.005C145.277 147.554 144.889 146.927 144.764 146.124L146.77 145.931C146.861 146.325 147.054 146.622 147.349 146.823C147.645 147.024 148.029 147.124 148.503 147.124C148.991 147.124 149.384 147.024 149.679 146.823C149.978 146.622 150.128 146.374 150.128 146.079C150.128 145.829 150.031 145.622 149.838 145.459C149.649 145.297 149.353 145.172 148.952 145.084L147.463 144.772C146.626 144.598 146.007 144.304 145.605 143.891C145.204 143.475 145.005 142.948 145.009 142.312C145.005 141.774 145.151 141.308 145.446 140.914C145.745 140.516 146.16 140.209 146.69 139.994C147.224 139.774 147.84 139.664 148.537 139.664C149.56 139.664 150.365 139.882 150.952 140.317C151.543 140.753 151.908 141.342 152.048 142.084ZM164.798 142.084L162.923 142.289C162.87 142.1 162.777 141.922 162.645 141.755C162.516 141.588 162.342 141.454 162.122 141.351C161.902 141.249 161.634 141.198 161.315 141.198C160.887 141.198 160.527 141.291 160.236 141.476C159.948 141.662 159.806 141.903 159.81 142.198C159.806 142.452 159.899 142.658 160.088 142.817C160.281 142.976 160.599 143.107 161.043 143.209L162.531 143.528C163.357 143.706 163.971 143.988 164.372 144.374C164.777 144.761 164.982 145.266 164.986 145.891C164.982 146.44 164.821 146.925 164.503 147.346C164.188 147.762 163.751 148.088 163.19 148.323C162.63 148.558 161.986 148.675 161.259 148.675C160.19 148.675 159.33 148.452 158.679 148.005C158.027 147.554 157.639 146.927 157.514 146.124L159.52 145.931C159.611 146.325 159.804 146.622 160.099 146.823C160.395 147.024 160.779 147.124 161.253 147.124C161.741 147.124 162.134 147.024 162.429 146.823C162.728 146.622 162.878 146.374 162.878 146.079C162.878 145.829 162.781 145.622 162.588 145.459C162.399 145.297 162.103 145.172 161.702 145.084L160.213 144.772C159.376 144.598 158.757 144.304 158.355 143.891C157.954 143.475 157.755 142.948 157.759 142.312C157.755 141.774 157.901 141.308 158.196 140.914C158.495 140.516 158.91 140.209 159.44 139.994C159.974 139.774 160.59 139.664 161.287 139.664C162.31 139.664 163.115 139.882 163.702 140.317C164.293 140.753 164.658 141.342 164.798 142.084ZM170.545 148.675C169.67 148.675 168.915 148.494 168.278 148.13C167.646 147.762 167.159 147.244 166.818 146.573C166.477 145.899 166.307 145.105 166.307 144.192C166.307 143.295 166.477 142.507 166.818 141.829C167.163 141.147 167.644 140.617 168.261 140.238C168.879 139.855 169.604 139.664 170.438 139.664C170.975 139.664 171.483 139.751 171.96 139.925C172.441 140.096 172.866 140.361 173.233 140.721C173.604 141.081 173.896 141.539 174.108 142.096C174.32 142.649 174.426 143.308 174.426 144.073V144.704H167.273V143.317H172.455C172.451 142.923 172.366 142.573 172.199 142.266C172.032 141.956 171.799 141.711 171.5 141.533C171.205 141.355 170.86 141.266 170.466 141.266C170.045 141.266 169.676 141.369 169.358 141.573C169.04 141.774 168.792 142.039 168.614 142.369C168.439 142.694 168.35 143.052 168.347 143.442V144.653C168.347 145.16 168.439 145.596 168.625 145.959C168.811 146.319 169.07 146.596 169.403 146.789C169.737 146.978 170.127 147.073 170.574 147.073C170.873 147.073 171.144 147.031 171.386 146.948C171.629 146.861 171.839 146.734 172.017 146.567C172.195 146.401 172.33 146.194 172.42 145.948L174.341 146.164C174.22 146.672 173.989 147.115 173.648 147.494C173.311 147.869 172.879 148.16 172.352 148.369C171.826 148.573 171.223 148.675 170.545 148.675ZM179.973 148.675C179.102 148.675 178.354 148.484 177.729 148.101C177.107 147.719 176.628 147.19 176.291 146.516C175.958 145.838 175.791 145.058 175.791 144.175C175.791 143.289 175.962 142.507 176.303 141.829C176.643 141.147 177.125 140.617 177.746 140.238C178.371 139.855 179.109 139.664 179.962 139.664C180.67 139.664 181.297 139.795 181.842 140.056C182.392 140.314 182.829 140.679 183.155 141.153C183.481 141.622 183.666 142.172 183.712 142.8H181.746C181.666 142.38 181.477 142.03 181.178 141.749C180.882 141.465 180.486 141.323 179.99 141.323C179.57 141.323 179.2 141.437 178.882 141.664C178.564 141.887 178.316 142.209 178.138 142.63C177.964 143.05 177.876 143.554 177.876 144.141C177.876 144.736 177.964 145.247 178.138 145.675C178.312 146.1 178.556 146.427 178.871 146.658C179.189 146.886 179.562 146.999 179.99 146.999C180.293 146.999 180.564 146.942 180.803 146.829C181.045 146.711 181.248 146.543 181.411 146.323C181.573 146.103 181.685 145.836 181.746 145.522H183.712C183.662 146.139 183.481 146.687 183.166 147.164C182.852 147.637 182.424 148.009 181.882 148.278C181.34 148.543 180.704 148.675 179.973 148.675ZM190.963 144.834V139.778H193.02V148.505H191.026V146.954H190.935C190.738 147.442 190.414 147.842 189.963 148.153C189.516 148.463 188.965 148.619 188.31 148.619C187.738 148.619 187.232 148.492 186.793 148.238C186.357 147.98 186.016 147.607 185.77 147.119C185.524 146.626 185.401 146.031 185.401 145.334V139.778H187.457V145.016C187.457 145.569 187.609 146.009 187.912 146.334C188.215 146.66 188.613 146.823 189.105 146.823C189.408 146.823 189.702 146.749 189.986 146.601C190.27 146.454 190.503 146.234 190.685 145.942C190.87 145.647 190.963 145.278 190.963 144.834ZM195.135 148.505V139.778H197.129V141.232H197.22C197.379 140.728 197.652 140.34 198.038 140.067C198.429 139.791 198.874 139.653 199.374 139.653C199.487 139.653 199.614 139.658 199.754 139.67C199.898 139.677 200.018 139.69 200.112 139.709V141.601C200.025 141.571 199.887 141.545 199.697 141.522C199.512 141.495 199.332 141.482 199.158 141.482C198.783 141.482 198.446 141.564 198.146 141.726C197.851 141.886 197.618 142.107 197.447 142.391C197.277 142.675 197.192 143.003 197.192 143.374V148.505H195.135ZM204.983 148.675C204.108 148.675 203.352 148.494 202.716 148.13C202.083 147.762 201.597 147.244 201.256 146.573C200.915 145.899 200.744 145.105 200.744 144.192C200.744 143.295 200.915 142.507 201.256 141.829C201.6 141.147 202.081 140.617 202.699 140.238C203.316 139.855 204.042 139.664 204.875 139.664C205.413 139.664 205.92 139.751 206.398 139.925C206.879 140.096 207.303 140.361 207.67 140.721C208.042 141.081 208.333 141.539 208.545 142.096C208.758 142.649 208.864 143.308 208.864 144.073V144.704H201.71V143.317H206.892C206.888 142.923 206.803 142.573 206.636 142.266C206.47 141.956 206.237 141.711 205.938 141.533C205.642 141.355 205.297 141.266 204.903 141.266C204.483 141.266 204.114 141.369 203.795 141.573C203.477 141.774 203.229 142.039 203.051 142.369C202.877 142.694 202.788 143.052 202.784 143.442V144.653C202.784 145.16 202.877 145.596 203.062 145.959C203.248 146.319 203.508 146.596 203.841 146.789C204.174 146.978 204.564 147.073 205.011 147.073C205.311 147.073 205.581 147.031 205.824 146.948C206.066 146.861 206.277 146.734 206.455 146.567C206.633 146.401 206.767 146.194 206.858 145.948L208.778 146.164C208.657 146.672 208.426 147.115 208.085 147.494C207.748 147.869 207.316 148.16 206.79 148.369C206.263 148.573 205.661 148.675 204.983 148.675ZM212.661 136.869V148.505H210.604V136.869H212.661ZM216.054 151.778C215.774 151.778 215.514 151.755 215.276 151.709C215.041 151.668 214.853 151.619 214.713 151.562L215.19 149.959C215.49 150.047 215.757 150.088 215.991 150.084C216.226 150.081 216.433 150.007 216.611 149.863C216.793 149.723 216.946 149.488 217.071 149.158L217.247 148.687L214.082 139.778H216.264L218.276 146.369H218.366L220.384 139.778H222.571L219.077 149.562C218.914 150.024 218.698 150.42 218.429 150.749C218.16 151.083 217.83 151.336 217.44 151.511C217.054 151.689 216.592 151.778 216.054 151.778Z" fill="#101827"/>
</g>
</g>
<defs>
<filter id="filter0_d_1581_2021" x="0.9" y="0.404882" width="265.2" height="192.2" filterUnits="userSpaceOnUse" color-interpolation-filters="sRGB">
<feFlood flood-opacity="0" result="BackgroundImageFix"/>
<feColorMatrix in="SourceAlpha" type="matrix" values="0 0 0 0 0 0 0 0 0 0 0 0 0 0 0 0 0 0 127 0" result="hardAlpha"/>
<feOffset dx="2" dy="6"/>
<feGaussianBlur stdDeviation="8.55"/>
<feComposite in2="hardAlpha" operator="out"/>
<feColorMatrix type="matrix" values="0 0 0 0 0 0 0 0 0 0 0 0 0 0 0 0 0 0 0.05 0"/>
<feBlend mode="normal" in2="BackgroundImageFix" result="effect1_dropShadow_1581_2021"/>
<feBlend mode="normal" in="SourceGraphic" in2="effect1_dropShadow_1581_2021" result="shape"/>
</filter>
<filter id="filter1_d_1581_2021" x="0.9" y="0.404882" width="265.2" height="88.2" filterUnits="userSpaceOnUse" color-interpolation-filters="sRGB">
<feFlood flood-opacity="0" result="BackgroundImageFix"/>
<feColorMatrix in="SourceAlpha" type="matrix" values="0 0 0 0 0 0 0 0 0 0 0 0 0 0 0 0 0 0 127 0" result="hardAlpha"/>
<feOffset dx="2" dy="6"/>
<feGaussianBlur stdDeviation="8.55"/>
<feComposite in2="hardAlpha" operator="out"/>
<feColorMatrix type="matrix" values="0 0 0 0 0 0 0 0 0 0 0 0 0 0 0 0 0 0 0.05 0"/>
<feBlend mode="normal" in2="BackgroundImageFix" result="effect1_dropShadow_1581_2021"/>
<feBlend mode="normal" in="SourceGraphic" in2="effect1_dropShadow_1581_2021" result="shape"/>
</filter>
<filter id="filter2_d_1581_2021" x="0.9" y="52.4049" width="265.2" height="88.2" filterUnits="userSpaceOnUse" color-interpolation-filters="sRGB">
<feFlood flood-opacity="0" result="BackgroundImageFix"/>
<feColorMatrix in="SourceAlpha" type="matrix" values="0 0 0 0 0 0 0 0 0 0 0 0 0 0 0 0 0 0 127 0" result="hardAlpha"/>
<feOffset dx="2" dy="6"/>
<feGaussianBlur stdDeviation="8.55"/>
<feComposite in2="hardAlpha" operator="out"/>
<feColorMatrix type="matrix" values="0 0 0 0 0 0 0 0 0 0 0 0 0 0 0 0 0 0 0.05 0"/>
<feBlend mode="normal" in2="BackgroundImageFix" result="effect1_dropShadow_1581_2021"/>
<feBlend mode="normal" in="SourceGraphic" in2="effect1_dropShadow_1581_2021" result="shape"/>
</filter>
<filter id="filter3_d_1581_2021" x="0.9" y="104.405" width="265.2" height="88.2" filterUnits="userSpaceOnUse" color-interpolation-filters="sRGB">
<feFlood flood-opacity="0" result="BackgroundImageFix"/>
<feColorMatrix in="SourceAlpha" type="matrix" values="0 0 0 0 0 0 0 0 0 0 0 0 0 0 0 0 0 0 127 0" result="hardAlpha"/>
<feOffset dx="2" dy="6"/>
<feGaussianBlur stdDeviation="8.55"/>
<feComposite in2="hardAlpha" operator="out"/>
<feColorMatrix type="matrix" values="0 0 0 0 0 0 0 0 0 0 0 0 0 0 0 0 0 0 0.05 0"/>
<feBlend mode="normal" in2="BackgroundImageFix" result="effect1_dropShadow_1581_2021"/>
<feBlend mode="normal" in="SourceGraphic" in2="effect1_dropShadow_1581_2021" result="shape"/>
</filter>
<clipPath id="clip0_1581_2021">
<rect width="18" height="18" fill="white" transform="translate(40 133.505)"/>
</clipPath>
</defs>
</svg>
